<?xml version="1.0" encoding="UTF-8" standalone="no"?><svg xmlns="http://www.w3.org/2000/svg" xmlns:xlink="http://www.w3.org/1999/xlink" contentScriptType="application/ecmascript" contentStyleType="text/css" height="464px" preserveAspectRatio="none" style="width:578px;height:464px;background:#FFFFFF;" version="1.1" viewBox="0 0 578 464" width="578px" zoomAndPan="magnify"><defs><filter height="300%" id="f1c4bjt188yx36" width="300%" x="-1" y="-1"><feGaussianBlur result="blurOut" stdDeviation="2.0"/><feColorMatrix in="blurOut" result="blurOut2" type="matrix" values="0 0 0 0 0 0 0 0 0 0 0 0 0 0 0 0 0 0 .4 0"/><feOffset dx="4.0" dy="4.0" in="blurOut2" result="blurOut3"/><feBlend in="SourceGraphic" in2="blurOut3" mode="normal"/></filter></defs><g><!--MD5=[64e2e010ba86d7988e5cd73bd64f61f9]
cluster ui--><polygon fill="#FFFFFF" filter="url(#f1c4bjt188yx36)" points="195,6,216,6,223,28.2969,343,28.2969,343,105,195,105,195,6" style="stroke:#000000;stroke-width:1.5;"/><line style="stroke:#000000;stroke-width:1.5;" x1="195" x2="223" y1="28.2969" y2="28.2969"/><text fill="#000000" font-family="sans-serif" font-size="14" font-weight="bold" lengthAdjust="spacing" textLength="15" x="199" y="20.9951">ui</text><!--MD5=[f4e70ef68289585296b9045165e58692]
cluster controllers--><polygon fill="#FFFFFF" filter="url(#f1c4bjt188yx36)" points="136,129,231,129,238,151.2969,402,151.2969,402,254,136,254,136,129" style="stroke:#000000;stroke-width:1.5;"/><line style="stroke:#000000;stroke-width:1.5;" x1="136" x2="238" y1="151.2969" y2="151.2969"/><text fill="#000000" font-family="sans-serif" font-size="14" font-weight="bold" lengthAdjust="spacing" textLength="89" x="140" y="143.9951">controllers</text><!--MD5=[c52f45833d539af9e29a9d34b8b7302b]
cluster utils--><polygon fill="#FFFFFF" filter="url(#f1c4bjt188yx36)" points="16,278,59,278,66,300.2969,561,300.2969,561,457,16,457,16,278" style="stroke:#000000;stroke-width:1.5;"/><line style="stroke:#000000;stroke-width:1.5;" x1="16" x2="66" y1="300.2969" y2="300.2969"/><text fill="#000000" font-family="sans-serif" font-size="14" font-weight="bold" lengthAdjust="spacing" textLength="37" x="20" y="292.9951">utils</text><!--MD5=[fbca5634cbc0239920b500cad9c4bedb]
cluster stores--><polygon fill="#FFFFFF" filter="url(#f1c4bjt188yx36)" points="257,321,315,321,322,343.2969,537,343.2969,537,433,257,433,257,321" style="stroke:#000000;stroke-width:1.5;"/><line style="stroke:#000000;stroke-width:1.5;" x1="257" x2="322" y1="343.2969" y2="343.2969"/><text fill="#000000" font-family="sans-serif" font-size="14" font-weight="bold" lengthAdjust="spacing" textLength="52" x="261" y="335.9951">stores</text><!--MD5=[0027f0f711fb255bf347c2f701174c4a]
class VesselTypeUI--><rect codeLine="6" fill="#FEFECE" filter="url(#f1c4bjt188yx36)" height="48" id="VesselTypeUI" style="stroke:#A80036;stroke-width:1.5;" width="115" x="211.5" y="41"/><ellipse cx="226.5" cy="57" fill="#ADD1B2" rx="11" ry="11" style="stroke:#A80036;stroke-width:1.0;"/><path d="M228.8438,52.6719 C227.9063,52.2344 227.3125,52.0938 226.4375,52.0938 C223.8125,52.0938 221.8125,54.1719 221.8125,56.8906 L221.8125,58.0156 C221.8125,60.5938 223.9219,62.4844 226.8125,62.4844 C228.0313,62.4844 229.1875,62.1875 229.9375,61.6406 C230.5156,61.2344 230.8438,60.7813 230.8438,60.3906 C230.8438,59.9375 230.4531,59.5469 229.9844,59.5469 C229.7656,59.5469 229.5625,59.625 229.375,59.8125 C228.9219,60.2969 228.9219,60.2969 228.7344,60.3906 C228.3125,60.6563 227.625,60.7813 226.8594,60.7813 C224.8125,60.7813 223.5156,59.6875 223.5156,57.9844 L223.5156,56.8906 C223.5156,55.1094 224.7656,53.7969 226.5,53.7969 C227.0781,53.7969 227.6875,53.9531 228.1563,54.2031 C228.6406,54.4844 228.8125,54.7031 228.9063,55.1094 C228.9688,55.5156 229,55.6406 229.1406,55.7656 C229.2813,55.9063 229.5156,56.0156 229.7344,56.0156 C230,56.0156 230.2656,55.875 230.4375,55.6563 C230.5469,55.5 230.5781,55.3125 230.5781,54.8906 L230.5781,53.4688 C230.5781,53.0313 230.5625,52.9063 230.4688,52.75 C230.3125,52.4844 230.0313,52.3438 229.7344,52.3438 C229.4375,52.3438 229.2344,52.4375 229.0156,52.75 L228.8438,52.6719 Z " fill="#000000"/><text fill="#000000" font-family="sans-serif" font-size="12" lengthAdjust="spacing" textLength="83" x="240.5" y="61.1543">VesselTypeUI</text><line style="stroke:#A80036;stroke-width:1.5;" x1="212.5" x2="325.5" y1="73" y2="73"/><line style="stroke:#A80036;stroke-width:1.5;" x1="212.5" x2="325.5" y1="81" y2="81"/><!--MD5=[0ab2e7d3095182ca89dbf8fd9a4a546e]
class VesselTypeController--><rect codeLine="11" fill="#FEFECE" filter="url(#f1c4bjt188yx36)" height="73.6094" id="VesselTypeController" style="stroke:#A80036;stroke-width:1.5;" width="234" x="152" y="164"/><ellipse cx="199.75" cy="180" fill="#ADD1B2" rx="11" ry="11" style="stroke:#A80036;stroke-width:1.0;"/><path d="M202.0938,175.6719 C201.1563,175.2344 200.5625,175.0938 199.6875,175.0938 C197.0625,175.0938 195.0625,177.1719 195.0625,179.8906 L195.0625,181.0156 C195.0625,183.5938 197.1719,185.4844 200.0625,185.4844 C201.2813,185.4844 202.4375,185.1875 203.1875,184.6406 C203.7656,184.2344 204.0938,183.7813 204.0938,183.3906 C204.0938,182.9375 203.7031,182.5469 203.2344,182.5469 C203.0156,182.5469 202.8125,182.625 202.625,182.8125 C202.1719,183.2969 202.1719,183.2969 201.9844,183.3906 C201.5625,183.6563 200.875,183.7813 200.1094,183.7813 C198.0625,183.7813 196.7656,182.6875 196.7656,180.9844 L196.7656,179.8906 C196.7656,178.1094 198.0156,176.7969 199.75,176.7969 C200.3281,176.7969 200.9375,176.9531 201.4063,177.2031 C201.8906,177.4844 202.0625,177.7031 202.1563,178.1094 C202.2188,178.5156 202.25,178.6406 202.3906,178.7656 C202.5313,178.9063 202.7656,179.0156 202.9844,179.0156 C203.25,179.0156 203.5156,178.875 203.6875,178.6563 C203.7969,178.5 203.8281,178.3125 203.8281,177.8906 L203.8281,176.4688 C203.8281,176.0313 203.8125,175.9063 203.7188,175.75 C203.5625,175.4844 203.2813,175.3438 202.9844,175.3438 C202.6875,175.3438 202.4844,175.4375 202.2656,175.75 L202.0938,175.6719 Z " fill="#000000"/><text fill="#000000" font-family="sans-serif" font-size="12" lengthAdjust="spacing" textLength="130" x="220.25" y="184.1543">VesselTypeController</text><line style="stroke:#A80036;stroke-width:1.5;" x1="153" x2="385" y1="196" y2="196"/><line style="stroke:#A80036;stroke-width:1.5;" x1="153" x2="385" y1="204" y2="204"/><text fill="#000000" font-family="sans-serif" font-size="11" lengthAdjust="spacing" textLength="222" x="158" y="218.2104">+getVesselType(numberOfContainers)</text><text fill="#000000" font-family="sans-serif" font-size="11" lengthAdjust="spacing" textLength="166" x="158" y="231.0151">+print(fileName,stringToPrint)</text><!--MD5=[69f2f3ad3645114d26612368d508f737]
class Printer--><rect codeLine="17" fill="#FEFECE" filter="url(#f1c4bjt188yx36)" height="60.8047" id="Printer" style="stroke:#A80036;stroke-width:1.5;" width="206" x="32" y="356"/><ellipse cx="111.75" cy="372" fill="#ADD1B2" rx="11" ry="11" style="stroke:#A80036;stroke-width:1.0;"/><path d="M114.0938,367.6719 C113.1563,367.2344 112.5625,367.0938 111.6875,367.0938 C109.0625,367.0938 107.0625,369.1719 107.0625,371.8906 L107.0625,373.0156 C107.0625,375.5938 109.1719,377.4844 112.0625,377.4844 C113.2813,377.4844 114.4375,377.1875 115.1875,376.6406 C115.7656,376.2344 116.0938,375.7813 116.0938,375.3906 C116.0938,374.9375 115.7031,374.5469 115.2344,374.5469 C115.0156,374.5469 114.8125,374.625 114.625,374.8125 C114.1719,375.2969 114.1719,375.2969 113.9844,375.3906 C113.5625,375.6563 112.875,375.7813 112.1094,375.7813 C110.0625,375.7813 108.7656,374.6875 108.7656,372.9844 L108.7656,371.8906 C108.7656,370.1094 110.0156,368.7969 111.75,368.7969 C112.3281,368.7969 112.9375,368.9531 113.4063,369.2031 C113.8906,369.4844 114.0625,369.7031 114.1563,370.1094 C114.2188,370.5156 114.25,370.6406 114.3906,370.7656 C114.5313,370.9063 114.7656,371.0156 114.9844,371.0156 C115.25,371.0156 115.5156,370.875 115.6875,370.6563 C115.7969,370.5 115.8281,370.3125 115.8281,369.8906 L115.8281,368.4688 C115.8281,368.0313 115.8125,367.9063 115.7188,367.75 C115.5625,367.4844 115.2813,367.3438 114.9844,367.3438 C114.6875,367.3438 114.4844,367.4375 114.2656,367.75 L114.0938,367.6719 Z " fill="#000000"/><text fill="#000000" font-family="sans-serif" font-size="12" lengthAdjust="spacing" textLength="38" x="132.25" y="376.1543">Printer</text><line style="stroke:#A80036;stroke-width:1.5;" x1="33" x2="237" y1="388" y2="388"/><line style="stroke:#A80036;stroke-width:1.5;" x1="33" x2="237" y1="396" y2="396"/><text fill="#000000" font-family="sans-serif" font-size="11" lengthAdjust="spacing" textLength="194" x="38" y="410.2104">+print(fileName,stringToPrint,path)</text><!--MD5=[96e60f0d960b37f19a148b746e790fb4]
class LaprStore--><rect codeLine="21" fill="#FEFECE" filter="url(#f1c4bjt188yx36)" height="60.8047" id="LaprStore" style="stroke:#A80036;stroke-width:1.5;" width="247" x="273.5" y="356"/><ellipse cx="363.25" cy="372" fill="#ADD1B2" rx="11" ry="11" style="stroke:#A80036;stroke-width:1.0;"/><path d="M365.5938,367.6719 C364.6563,367.2344 364.0625,367.0938 363.1875,367.0938 C360.5625,367.0938 358.5625,369.1719 358.5625,371.8906 L358.5625,373.0156 C358.5625,375.5938 360.6719,377.4844 363.5625,377.4844 C364.7813,377.4844 365.9375,377.1875 366.6875,376.6406 C367.2656,376.2344 367.5938,375.7813 367.5938,375.3906 C367.5938,374.9375 367.2031,374.5469 366.7344,374.5469 C366.5156,374.5469 366.3125,374.625 366.125,374.8125 C365.6719,375.2969 365.6719,375.2969 365.4844,375.3906 C365.0625,375.6563 364.375,375.7813 363.6094,375.7813 C361.5625,375.7813 360.2656,374.6875 360.2656,372.9844 L360.2656,371.8906 C360.2656,370.1094 361.5156,368.7969 363.25,368.7969 C363.8281,368.7969 364.4375,368.9531 364.9063,369.2031 C365.3906,369.4844 365.5625,369.7031 365.6563,370.1094 C365.7188,370.5156 365.75,370.6406 365.8906,370.7656 C366.0313,370.9063 366.2656,371.0156 366.4844,371.0156 C366.75,371.0156 367.0156,370.875 367.1875,370.6563 C367.2969,370.5 367.3281,370.3125 367.3281,369.8906 L367.3281,368.4688 C367.3281,368.0313 367.3125,367.9063 367.2188,367.75 C367.0625,367.4844 366.7813,367.3438 366.4844,367.3438 C366.1875,367.3438 365.9844,367.4375 365.7656,367.75 L365.5938,367.6719 Z " fill="#000000"/><text fill="#000000" font-family="sans-serif" font-size="12" lengthAdjust="spacing" textLength="59" x="383.75" y="376.1543">LaprStore</text><line style="stroke:#A80036;stroke-width:1.5;" x1="274.5" x2="519.5" y1="388" y2="388"/><line style="stroke:#A80036;stroke-width:1.5;" x1="274.5" x2="519.5" y1="396" y2="396"/><text fill="#000000" font-family="sans-serif" font-size="11" lengthAdjust="spacing" textLength="235" x="279.5" y="410.2104">+getTypeOfVessel(numberOfContainers)</text><!--MD5=[35b97d60b9fdc7d333ef525f3ea5612e]
link VesselTypeUI to VesselTypeController--><path codeLine="31" d="M269,89.035 C269,108.167 269,135.86 269,158.795 " fill="none" id="VesselTypeUI-to-VesselTypeController" style="stroke:#A80036;stroke-width:1.0;stroke-dasharray:7.0,7.0;"/><polygon fill="#A80036" points="269,163.911,273,154.911,269,158.911,265,154.911,269,163.911" style="stroke:#A80036;stroke-width:1.0;"/><!--MD5=[82129ee188d128f69a6a8a74b3ebeaa5]
link VesselTypeController to Printer--><path codeLine="32" d="M242.526,238.254 C218.437,271.241 183.154,319.558 159.652,351.742 " fill="none" id="VesselTypeController-to-Printer" style="stroke:#A80036;stroke-width:1.0;stroke-dasharray:7.0,7.0;"/><polygon fill="#A80036" points="156.56,355.976,165.0976,351.0658,159.5083,351.9378,158.6364,346.3485,156.56,355.976" style="stroke:#A80036;stroke-width:1.0;"/><!--MD5=[b238c3949d469b95b9d52de7fc121889]
link VesselTypeController to LaprStore--><path codeLine="33" d="M294.289,238.254 C317.299,271.241 351.002,319.558 373.452,351.742 " fill="none" id="VesselTypeController-to-LaprStore" style="stroke:#A80036;stroke-width:1.0;stroke-dasharray:7.0,7.0;"/><polygon fill="#A80036" points="376.406,355.976,374.5376,346.306,373.5454,351.8751,367.9762,350.8829,376.406,355.976" style="stroke:#A80036;stroke-width:1.0;"/><!--MD5=[715ce6b3aaacc61fd5855d7f514c5edd]
@startuml
'https://plantuml.com/class-diagram

skinparam classAttributeIconSize 0

package "ui" {
class VesselTypeUI{
}
}

package "controllers" {
class VesselTypeController{
+getVesselType(numberOfContainers)
+print(fileName,stringToPrint)
}
}
package utils{
class Printer{
+print(fileName,stringToPrint,path)
}
package stores{
class LaprStore{
+getTypeOfVessel(numberOfContainers)
}
}
}





VesselTypeUI ..> VesselTypeController
VesselTypeController ..> Printer
VesselTypeController ..> LaprStore
@enduml

@startuml

skinparam classAttributeIconSize 0

package "ui" {
class VesselTypeUI{
}
}

package "controllers" {
class VesselTypeController{
+getVesselType(numberOfContainers)
+print(fileName,stringToPrint)
}
}
package utils{
class Printer{
+print(fileName,stringToPrint,path)
}
package stores{
class LaprStore{
+getTypeOfVessel(numberOfContainers)
}
}
}





VesselTypeUI ..> VesselTypeController
VesselTypeController ..> Printer
VesselTypeController ..> LaprStore
@enduml

PlantUML version 1.2022.1beta4(Unknown compile time)
(GPL source distribution)
Java Runtime: Java(TM) SE Runtime Environment
JVM: Java HotSpot(TM) 64-Bit Server VM
Default Encoding: UTF-8
Language: en
Country: US
--></g></svg>