<?xml version="1.0" encoding="UTF-8" standalone="no"?><svg xmlns="http://www.w3.org/2000/svg" xmlns:xlink="http://www.w3.org/1999/xlink" contentScriptType="application/ecmascript" contentStyleType="text/css" height="485px" preserveAspectRatio="none" style="width:495px;height:485px;background:#FFFFFF;" version="1.1" viewBox="0 0 495 485" width="495px" zoomAndPan="magnify"><defs><filter height="300%" id="fmrbwf19hamds" width="300%" x="-1" y="-1"><feGaussianBlur result="blurOut" stdDeviation="2.0"/><feColorMatrix in="blurOut" result="blurOut2" type="matrix" values="0 0 0 0 0 0 0 0 0 0 0 0 0 0 0 0 0 0 .4 0"/><feOffset dx="4.0" dy="4.0" in="blurOut2" result="blurOut3"/><feBlend in="SourceGraphic" in2="blurOut3" mode="normal"/></filter></defs><g><!--MD5=[64e2e010ba86d7988e5cd73bd64f61f9]
cluster ui--><polygon fill="#FFFFFF" filter="url(#fmrbwf19hamds)" points="138,6,157,6,164,29.6094,328,29.6094,328,106,138,106,138,6" style="stroke:#000000;stroke-width:1.5;"/><line style="stroke:#000000;stroke-width:1.5;" x1="138" x2="164" y1="29.6094" y2="29.6094"/><text fill="#000000" font-family="sans-serif" font-size="14" font-weight="bold" lengthAdjust="spacing" textLength="13" x="142" y="22.5332">ui</text><!--MD5=[f4e70ef68289585296b9045165e58692]
cluster controllers--><polygon fill="#FFFFFF" filter="url(#fmrbwf19hamds)" points="117,130,200,130,207,153.6094,349,153.6094,349,244,117,244,117,130" style="stroke:#000000;stroke-width:1.5;"/><line style="stroke:#000000;stroke-width:1.5;" x1="117" x2="207" y1="153.6094" y2="153.6094"/><text fill="#000000" font-family="sans-serif" font-size="14" font-weight="bold" lengthAdjust="spacing" textLength="77" x="121" y="146.5332">controllers</text><!--MD5=[c52f45833d539af9e29a9d34b8b7302b]
cluster utils--><polygon fill="#FFFFFF" filter="url(#fmrbwf19hamds)" points="16,268,52,268,59,291.6094,478,291.6094,478,478,16,478,16,268" style="stroke:#000000;stroke-width:1.5;"/><line style="stroke:#000000;stroke-width:1.5;" x1="16" x2="59" y1="291.6094" y2="291.6094"/><text fill="#000000" font-family="sans-serif" font-size="14" font-weight="bold" lengthAdjust="spacing" textLength="30" x="20" y="284.5332">utils</text><!--MD5=[fbca5634cbc0239920b500cad9c4bedb]
cluster stores--><polygon fill="#FFFFFF" filter="url(#fmrbwf19hamds)" points="226,312,277,312,284,335.6094,454,335.6094,454,454,226,454,226,312" style="stroke:#000000;stroke-width:1.5;"/><line style="stroke:#000000;stroke-width:1.5;" x1="226" x2="284" y1="335.6094" y2="335.6094"/><text fill="#000000" font-family="sans-serif" font-size="14" font-weight="bold" lengthAdjust="spacing" textLength="45" x="230" y="328.5332">stores</text><!--MD5=[9725424d82813b3edc78b551657a565c]
class UnlandenShipcenterUI--><rect codeLine="6" fill="#FEFECE" filter="url(#fmrbwf19hamds)" height="48" id="UnlandenShipcenterUI" style="stroke:#A80036;stroke-width:1.5;" width="157" x="154.5" y="42"/><ellipse cx="169.5" cy="58" fill="#ADD1B2" rx="11" ry="11" style="stroke:#A80036;stroke-width:1.0;"/><path d="M171.5,54.5 Q171.7031,54 171.9375,53.75 Q172.1719,53.5 172.4375,53.5 Q172.9063,53.5 173.2031,53.7813 Q173.5,54.0625 173.5,54.7188 L173.5,56.2813 Q173.5,56.9375 173.2188,57.2188 Q172.9375,57.5 172.5,57.5 Q172.1094,57.5 171.8594,57.3281 Q171.6094,57.1563 171.5,56.7031 Q171.4531,56.3906 171.2813,56.2188 Q170.9688,55.8906 170.4063,55.7031 Q169.8438,55.5 169.2813,55.5 Q168.5781,55.5 167.9844,55.7813 Q167.4063,56.0625 166.9531,56.6875 Q166.5,57.3125 166.5,58.1719 L166.5,59.0938 Q166.5,60.125 167.3438,60.8125 Q168.1875,61.5 169.6875,61.5 Q170.5781,61.5 171.2031,61.2969 Q171.5625,61.1875 171.9688,60.8281 Q172.2344,60.625 172.375,60.5625 Q172.5156,60.5 172.6875,60.5 Q173.0156,60.5 173.25,60.7656 Q173.5,61.0156 173.5,61.375 Q173.5,61.7188 173.1563,62.125 Q172.6563,62.7188 171.8594,63.0469 Q170.8125,63.5 169.5313,63.5 Q168.0313,63.5 166.8281,62.9063 Q165.8594,62.4375 165.1719,61.4219 Q164.5,60.4063 164.5,59.2031 L164.5,58.1094 Q164.5,56.8594 165.0938,55.7656 Q165.7031,54.6719 166.75,54.0938 Q167.8125,53.5 169,53.5 Q169.7188,53.5 170.3438,53.75 Q170.9688,54 171.5,54.5 Z " fill="#000000"/><text fill="#000000" font-family="sans-serif" font-size="12" lengthAdjust="spacing" textLength="125" x="183.5" y="62.9102">UnlandenShipcenterUI</text><line style="stroke:#A80036;stroke-width:1.5;" x1="155.5" x2="310.5" y1="74" y2="74"/><line style="stroke:#A80036;stroke-width:1.5;" x1="155.5" x2="310.5" y1="82" y2="82"/><!--MD5=[7404ccebdbde3b5abb5f3124b669e03d]
class UnlandenShipcenterController--><rect codeLine="11" fill="#FEFECE" filter="url(#fmrbwf19hamds)" height="61.8359" id="UnlandenShipcenterController" style="stroke:#A80036;stroke-width:1.5;" width="199" x="133.5" y="166"/><ellipse cx="148.5" cy="182" fill="#ADD1B2" rx="11" ry="11" style="stroke:#A80036;stroke-width:1.0;"/><path d="M150.5,178.5 Q150.7031,178 150.9375,177.75 Q151.1719,177.5 151.4375,177.5 Q151.9063,177.5 152.2031,177.7813 Q152.5,178.0625 152.5,178.7188 L152.5,180.2813 Q152.5,180.9375 152.2188,181.2188 Q151.9375,181.5 151.5,181.5 Q151.1094,181.5 150.8594,181.3281 Q150.6094,181.1563 150.5,180.7031 Q150.4531,180.3906 150.2813,180.2188 Q149.9688,179.8906 149.4063,179.7031 Q148.8438,179.5 148.2813,179.5 Q147.5781,179.5 146.9844,179.7813 Q146.4063,180.0625 145.9531,180.6875 Q145.5,181.3125 145.5,182.1719 L145.5,183.0938 Q145.5,184.125 146.3438,184.8125 Q147.1875,185.5 148.6875,185.5 Q149.5781,185.5 150.2031,185.2969 Q150.5625,185.1875 150.9688,184.8281 Q151.2344,184.625 151.375,184.5625 Q151.5156,184.5 151.6875,184.5 Q152.0156,184.5 152.25,184.7656 Q152.5,185.0156 152.5,185.375 Q152.5,185.7188 152.1563,186.125 Q151.6563,186.7188 150.8594,187.0469 Q149.8125,187.5 148.5313,187.5 Q147.0313,187.5 145.8281,186.9063 Q144.8594,186.4375 144.1719,185.4219 Q143.5,184.4063 143.5,183.2031 L143.5,182.1094 Q143.5,180.8594 144.0938,179.7656 Q144.7031,178.6719 145.75,178.0938 Q146.8125,177.5 148,177.5 Q148.7188,177.5 149.3438,177.75 Q149.9688,178 150.5,178.5 Z " fill="#000000"/><text fill="#000000" font-family="sans-serif" font-size="12" lengthAdjust="spacing" textLength="167" x="162.5" y="186.9102">UnlandenShipcenterController</text><line style="stroke:#A80036;stroke-width:1.5;" x1="134.5" x2="331.5" y1="198" y2="198"/><line style="stroke:#A80036;stroke-width:1.5;" x1="134.5" x2="331.5" y1="206" y2="206"/><text fill="#000000" font-family="sans-serif" font-size="11" lengthAdjust="spacing" textLength="138" x="139.5" y="221.4189">+getCenterOfMassOfShips()</text><!--MD5=[69f2f3ad3645114d26612368d508f737]
class Printer--><rect codeLine="16" fill="#FEFECE" filter="url(#fmrbwf19hamds)" height="61.8359" id="Printer" style="stroke:#A80036;stroke-width:1.5;" width="175" x="32.5" y="362"/><ellipse cx="97.75" cy="378" fill="#ADD1B2" rx="11" ry="11" style="stroke:#A80036;stroke-width:1.0;"/><path d="M99.75,374.5 Q99.9531,374 100.1875,373.75 Q100.4219,373.5 100.6875,373.5 Q101.1563,373.5 101.4531,373.7813 Q101.75,374.0625 101.75,374.7188 L101.75,376.2813 Q101.75,376.9375 101.4688,377.2188 Q101.1875,377.5 100.75,377.5 Q100.3594,377.5 100.1094,377.3281 Q99.8594,377.1563 99.75,376.7031 Q99.7031,376.3906 99.5313,376.2188 Q99.2188,375.8906 98.6563,375.7031 Q98.0938,375.5 97.5313,375.5 Q96.8281,375.5 96.2344,375.7813 Q95.6563,376.0625 95.2031,376.6875 Q94.75,377.3125 94.75,378.1719 L94.75,379.0938 Q94.75,380.125 95.5938,380.8125 Q96.4375,381.5 97.9375,381.5 Q98.8281,381.5 99.4531,381.2969 Q99.8125,381.1875 100.2188,380.8281 Q100.4844,380.625 100.625,380.5625 Q100.7656,380.5 100.9375,380.5 Q101.2656,380.5 101.5,380.7656 Q101.75,381.0156 101.75,381.375 Q101.75,381.7188 101.4063,382.125 Q100.9063,382.7188 100.1094,383.0469 Q99.0625,383.5 97.7813,383.5 Q96.2813,383.5 95.0781,382.9063 Q94.1094,382.4375 93.4219,381.4219 Q92.75,380.4063 92.75,379.2031 L92.75,378.1094 Q92.75,376.8594 93.3438,375.7656 Q93.9531,374.6719 95,374.0938 Q96.0625,373.5 97.25,373.5 Q97.9688,373.5 98.5938,373.75 Q99.2188,374 99.75,374.5 Z " fill="#000000"/><text fill="#000000" font-family="sans-serif" font-size="12" lengthAdjust="spacing" textLength="36" x="118.25" y="382.9102">Printer</text><line style="stroke:#A80036;stroke-width:1.5;" x1="33.5" x2="206.5" y1="394" y2="394"/><line style="stroke:#A80036;stroke-width:1.5;" x1="33.5" x2="206.5" y1="402" y2="402"/><text fill="#000000" font-family="sans-serif" font-size="11" lengthAdjust="spacing" textLength="163" x="38.5" y="417.4189">+print(fileName,stringToPrint,path)</text><!--MD5=[96e60f0d960b37f19a148b746e790fb4]
class LaprStore--><rect codeLine="20" fill="#FEFECE" filter="url(#fmrbwf19hamds)" height="89.5078" id="LaprStore" style="stroke:#A80036;stroke-width:1.5;" width="195" x="242.5" y="348"/><ellipse cx="308.75" cy="364" fill="#ADD1B2" rx="11" ry="11" style="stroke:#A80036;stroke-width:1.0;"/><path d="M310.75,360.5 Q310.9531,360 311.1875,359.75 Q311.4219,359.5 311.6875,359.5 Q312.1563,359.5 312.4531,359.7813 Q312.75,360.0625 312.75,360.7188 L312.75,362.2813 Q312.75,362.9375 312.4688,363.2188 Q312.1875,363.5 311.75,363.5 Q311.3594,363.5 311.1094,363.3281 Q310.8594,363.1563 310.75,362.7031 Q310.7031,362.3906 310.5313,362.2188 Q310.2188,361.8906 309.6563,361.7031 Q309.0938,361.5 308.5313,361.5 Q307.8281,361.5 307.2344,361.7813 Q306.6563,362.0625 306.2031,362.6875 Q305.75,363.3125 305.75,364.1719 L305.75,365.0938 Q305.75,366.125 306.5938,366.8125 Q307.4375,367.5 308.9375,367.5 Q309.8281,367.5 310.4531,367.2969 Q310.8125,367.1875 311.2188,366.8281 Q311.4844,366.625 311.625,366.5625 Q311.7656,366.5 311.9375,366.5 Q312.2656,366.5 312.5,366.7656 Q312.75,367.0156 312.75,367.375 Q312.75,367.7188 312.4063,368.125 Q311.9063,368.7188 311.1094,369.0469 Q310.0625,369.5 308.7813,369.5 Q307.2813,369.5 306.0781,368.9063 Q305.1094,368.4375 304.4219,367.4219 Q303.75,366.4063 303.75,365.2031 L303.75,364.1094 Q303.75,362.8594 304.3438,361.7656 Q304.9531,360.6719 306,360.0938 Q307.0625,359.5 308.25,359.5 Q308.9688,359.5 309.5938,359.75 Q310.2188,360 310.75,360.5 Z " fill="#000000"/><text fill="#000000" font-family="sans-serif" font-size="12" lengthAdjust="spacing" textLength="54" x="329.25" y="368.9102">LaprStore</text><line style="stroke:#A80036;stroke-width:1.5;" x1="243.5" x2="436.5" y1="380" y2="380"/><line style="stroke:#A80036;stroke-width:1.5;" x1="243.5" x2="436.5" y1="388" y2="388"/><text fill="#000000" font-family="sans-serif" font-size="11" lengthAdjust="spacing" textLength="143" x="248.5" y="403.4189">+getCenterOfMassPanamax()</text><text fill="#000000" font-family="sans-serif" font-size="11" lengthAdjust="spacing" textLength="166" x="248.5" y="417.2549">+getCenterOfMassNewPanamax()</text><text fill="#000000" font-family="sans-serif" font-size="11" lengthAdjust="spacing" textLength="183" x="248.5" y="431.0908">+getCenterOfMassUltraLargeVessel()</text><!--MD5=[b9ce7a150b165cb666b17512ec568290]
link UnlandenShipcenterUI to UnlandenShipcenterController--><path codeLine="32" d="M233,90.06 C233,109.65 233,138.09 233,160.57 " fill="none" id="UnlandenShipcenterUI-to-UnlandenShipcenterController" style="stroke:#A80036;stroke-width:1.0;stroke-dasharray:7.0,7.0;"/><polygon fill="#A80036" points="233,165.85,237,156.85,233,160.85,229,156.85,233,165.85" style="stroke:#A80036;stroke-width:1.0;"/><!--MD5=[10dbb04f8a3531c50e632bee8b5b838e]
link UnlandenShipcenterController to Printer--><path codeLine="33" d="M215.34,228.31 C194.94,263.33 161.45,320.84 140.08,357.53 " fill="none" id="UnlandenShipcenterController-to-Printer" style="stroke:#A80036;stroke-width:1.0;stroke-dasharray:7.0,7.0;"/><polygon fill="#A80036" points="137.53,361.9,145.5176,356.1382,140.0476,357.5801,138.6057,352.1101,137.53,361.9" style="stroke:#A80036;stroke-width:1.0;"/><!--MD5=[0d14485be73fe552233160d07015d327]
link UnlandenShipcenterController to LaprStore--><path codeLine="34" d="M249.72,228.31 C266.65,259.01 293.11,306.98 313.01,343.07 " fill="none" id="UnlandenShipcenterController-to-LaprStore" style="stroke:#A80036;stroke-width:1.0;stroke-dasharray:7.0,7.0;"/><polygon fill="#A80036" points="315.65,347.86,314.8004,338.0479,313.2327,343.4832,307.7974,341.9155,315.65,347.86" style="stroke:#A80036;stroke-width:1.0;"/><!--MD5=[274c3e55567e79baccf922784981d50a]
@startuml
'https://plantuml.com/class-diagram

skinparam classAttributeIconSize 0

package "ui" {
class UnlandenShipcenterUI{
}
}

package "controllers" {
class UnlandenShipcenterController{
+getCenterOfMassOfShips()
}
}
package utils{
class Printer{
+print(fileName,stringToPrint,path)
}
package stores{
class LaprStore{
+getCenterOfMassPanamax()
+getCenterOfMassNewPanamax()
+getCenterOfMassUltraLargeVessel()
}
}
}





UnlandenShipcenterUI ..> UnlandenShipcenterController
UnlandenShipcenterController ..> Printer
UnlandenShipcenterController ..> LaprStore
@enduml

@startuml

skinparam classAttributeIconSize 0

package "ui" {
class UnlandenShipcenterUI{
}
}

package "controllers" {
class UnlandenShipcenterController{
+getCenterOfMassOfShips()
}
}
package utils{
class Printer{
+print(fileName,stringToPrint,path)
}
package stores{
class LaprStore{
+getCenterOfMassPanamax()
+getCenterOfMassNewPanamax()
+getCenterOfMassUltraLargeVessel()
}
}
}





UnlandenShipcenterUI ..> UnlandenShipcenterController
UnlandenShipcenterController ..> Printer
UnlandenShipcenterController ..> LaprStore
@enduml

PlantUML version 1.2021.11(Sat Oct 02 14:26:11 BST 2021)
(GPL source distribution)
Java Runtime: OpenJDK Runtime Environment
JVM: OpenJDK 64-Bit Server VM
Default Encoding: Cp1252
Language: pt
Country: PT
--></g></svg>