<?xml version="1.0" encoding="UTF-8" standalone="no"?><svg xmlns="http://www.w3.org/2000/svg" xmlns:xlink="http://www.w3.org/1999/xlink" contentScriptType="application/ecmascript" contentStyleType="text/css" height="457px" preserveAspectRatio="none" style="width:1006px;height:457px;" version="1.1" viewBox="0 0 1006 457" width="1006px" zoomAndPan="magnify"><defs><filter height="300%" id="fge8izf7kwqio" width="300%" x="-1" y="-1"><feGaussianBlur result="blurOut" stdDeviation="2.0"/><feColorMatrix in="blurOut" result="blurOut2" type="matrix" values="0 0 0 0 0 0 0 0 0 0 0 0 0 0 0 0 0 0 .4 0"/><feOffset dx="4.0" dy="4.0" in="blurOut2" result="blurOut3"/><feBlend in="SourceGraphic" in2="blurOut3" mode="normal"/></filter></defs><g><!--MD5=[64e2e010ba86d7988e5cd73bd64f61f9]
cluster ui--><polygon fill="#FFFFFF" filter="url(#fge8izf7kwqio)" points="225,6,244,6,251,29.6094,395,29.6094,395,106,225,106,225,6" style="stroke:#000000;stroke-width:1.5;"/><line style="stroke:#000000;stroke-width:1.5;" x1="225" x2="251" y1="29.6094" y2="29.6094"/><text fill="#000000" font-family="sans-serif" font-size="14" font-weight="bold" lengthAdjust="spacing" textLength="13" x="229" y="22.5332">ui</text><!--MD5=[f4e70ef68289585296b9045165e58692]
cluster controllers--><polygon fill="#FFFFFF" filter="url(#fge8izf7kwqio)" points="138,130,221,130,228,153.6094,482,153.6094,482,244,138,244,138,130" style="stroke:#000000;stroke-width:1.5;"/><line style="stroke:#000000;stroke-width:1.5;" x1="138" x2="228" y1="153.6094" y2="153.6094"/><text fill="#000000" font-family="sans-serif" font-size="14" font-weight="bold" lengthAdjust="spacing" textLength="77" x="142" y="146.5332">controllers</text><!--MD5=[c52f45833d539af9e29a9d34b8b7302b]
cluster utils--><polygon fill="#FFFFFF" filter="url(#fge8izf7kwqio)" points="16,268,52,268,59,291.6094,989,291.6094,989,450,16,450,16,268" style="stroke:#000000;stroke-width:1.5;"/><line style="stroke:#000000;stroke-width:1.5;" x1="16" x2="59" y1="291.6094" y2="291.6094"/><text fill="#000000" font-family="sans-serif" font-size="14" font-weight="bold" lengthAdjust="spacing" textLength="30" x="20" y="284.5332">utils</text><!--MD5=[fbca5634cbc0239920b500cad9c4bedb]
cluster stores--><polygon fill="#FFFFFF" filter="url(#fge8izf7kwqio)" points="190,312,241,312,248,335.6094,965,335.6094,965,426,190,426,190,312" style="stroke:#000000;stroke-width:1.5;"/><line style="stroke:#000000;stroke-width:1.5;" x1="190" x2="248" y1="335.6094" y2="335.6094"/><text fill="#000000" font-family="sans-serif" font-size="14" font-weight="bold" lengthAdjust="spacing" textLength="45" x="194" y="328.5332">stores</text><!--MD5=[5d4cd377749310b66bf14896f5cd8d9b]
cluster model--><polygon fill="#FFFFFF" filter="url(#fge8izf7kwqio)" points="40,312,89,312,96,335.6094,166,335.6094,166,426,40,426,40,312" style="stroke:#000000;stroke-width:1.5;"/><line style="stroke:#000000;stroke-width:1.5;" x1="40" x2="96" y1="335.6094" y2="335.6094"/><text fill="#000000" font-family="sans-serif" font-size="14" font-weight="bold" lengthAdjust="spacing" textLength="43" x="44" y="328.5332">model</text><!--MD5=[fdfe833db72164ae2b9dd66e44792dab]
class EnergyWithSidesUI--><rect codeLine="6" fill="#FEFECE" filter="url(#fge8izf7kwqio)" height="48" id="EnergyWithSidesUI" style="stroke:#A80036;stroke-width:1.5;" width="138" x="241" y="42"/><ellipse cx="256" cy="58" fill="#ADD1B2" rx="11" ry="11" style="stroke:#A80036;stroke-width:1.0;"/><path d="M258,54.5 Q258.2031,54 258.4375,53.75 Q258.6719,53.5 258.9375,53.5 Q259.4063,53.5 259.7031,53.7813 Q260,54.0625 260,54.7188 L260,56.2813 Q260,56.9375 259.7188,57.2188 Q259.4375,57.5 259,57.5 Q258.6094,57.5 258.3594,57.3281 Q258.1094,57.1563 258,56.7031 Q257.9531,56.3906 257.7813,56.2188 Q257.4688,55.8906 256.9063,55.7031 Q256.3438,55.5 255.7813,55.5 Q255.0781,55.5 254.4844,55.7813 Q253.9063,56.0625 253.4531,56.6875 Q253,57.3125 253,58.1719 L253,59.0938 Q253,60.125 253.8438,60.8125 Q254.6875,61.5 256.1875,61.5 Q257.0781,61.5 257.7031,61.2969 Q258.0625,61.1875 258.4688,60.8281 Q258.7344,60.625 258.875,60.5625 Q259.0156,60.5 259.1875,60.5 Q259.5156,60.5 259.75,60.7656 Q260,61.0156 260,61.375 Q260,61.7188 259.6563,62.125 Q259.1563,62.7188 258.3594,63.0469 Q257.3125,63.5 256.0313,63.5 Q254.5313,63.5 253.3281,62.9063 Q252.3594,62.4375 251.6719,61.4219 Q251,60.4063 251,59.2031 L251,58.1094 Q251,56.8594 251.5938,55.7656 Q252.2031,54.6719 253.25,54.0938 Q254.3125,53.5 255.5,53.5 Q256.2188,53.5 256.8438,53.75 Q257.4688,54 258,54.5 Z " fill="#000000"/><text fill="#000000" font-family="sans-serif" font-size="12" lengthAdjust="spacing" textLength="106" x="270" y="62.9102">EnergyWithSidesUI</text><line style="stroke:#A80036;stroke-width:1.5;" x1="242" x2="378" y1="74" y2="74"/><line style="stroke:#A80036;stroke-width:1.5;" x1="242" x2="378" y1="82" y2="82"/><!--MD5=[81fbed24e8bc6e3966c35279cf7499bb]
class EnergyWithSidesController--><rect codeLine="11" fill="#FEFECE" filter="url(#fge8izf7kwqio)" height="61.8359" id="EnergyWithSidesController" style="stroke:#A80036;stroke-width:1.5;" width="311" x="154.5" y="166"/><ellipse cx="231.75" cy="182" fill="#ADD1B2" rx="11" ry="11" style="stroke:#A80036;stroke-width:1.0;"/><path d="M233.75,178.5 Q233.9531,178 234.1875,177.75 Q234.4219,177.5 234.6875,177.5 Q235.1563,177.5 235.4531,177.7813 Q235.75,178.0625 235.75,178.7188 L235.75,180.2813 Q235.75,180.9375 235.4688,181.2188 Q235.1875,181.5 234.75,181.5 Q234.3594,181.5 234.1094,181.3281 Q233.8594,181.1563 233.75,180.7031 Q233.7031,180.3906 233.5313,180.2188 Q233.2188,179.8906 232.6563,179.7031 Q232.0938,179.5 231.5313,179.5 Q230.8281,179.5 230.2344,179.7813 Q229.6563,180.0625 229.2031,180.6875 Q228.75,181.3125 228.75,182.1719 L228.75,183.0938 Q228.75,184.125 229.5938,184.8125 Q230.4375,185.5 231.9375,185.5 Q232.8281,185.5 233.4531,185.2969 Q233.8125,185.1875 234.2188,184.8281 Q234.4844,184.625 234.625,184.5625 Q234.7656,184.5 234.9375,184.5 Q235.2656,184.5 235.5,184.7656 Q235.75,185.0156 235.75,185.375 Q235.75,185.7188 235.4063,186.125 Q234.9063,186.7188 234.1094,187.0469 Q233.0625,187.5 231.7813,187.5 Q230.2813,187.5 229.0781,186.9063 Q228.1094,186.4375 227.4219,185.4219 Q226.75,184.4063 226.75,183.2031 L226.75,182.1094 Q226.75,180.8594 227.3438,179.7656 Q227.9531,178.6719 229,178.0938 Q230.0625,177.5 231.25,177.5 Q231.9688,177.5 232.5938,177.75 Q233.2188,178 233.75,178.5 Z " fill="#000000"/><text fill="#000000" font-family="sans-serif" font-size="12" lengthAdjust="spacing" textLength="148" x="252.25" y="186.9102">EnergyWithSidesController</text><line style="stroke:#A80036;stroke-width:1.5;" x1="155.5" x2="464.5" y1="198" y2="198"/><line style="stroke:#A80036;stroke-width:1.5;" x1="155.5" x2="464.5" y1="206" y2="206"/><text fill="#000000" font-family="sans-serif" font-size="11" lengthAdjust="spacing" textLength="299" x="160.5" y="221.4189">+getEnergy(lateralsides, frontalsides, segundos, temperature)</text><!--MD5=[74d4f6d08803cf10722a02715f5c50bf]
class FsiapStore--><rect codeLine="17" fill="#FEFECE" filter="url(#fge8izf7kwqio)" height="61.8359" id="FsiapStore" style="stroke:#A80036;stroke-width:1.5;" width="500" x="449" y="348"/><ellipse cx="664.75" cy="364" fill="#ADD1B2" rx="11" ry="11" style="stroke:#A80036;stroke-width:1.0;"/><path d="M666.75,360.5 Q666.9531,360 667.1875,359.75 Q667.4219,359.5 667.6875,359.5 Q668.1563,359.5 668.4531,359.7813 Q668.75,360.0625 668.75,360.7188 L668.75,362.2813 Q668.75,362.9375 668.4688,363.2188 Q668.1875,363.5 667.75,363.5 Q667.3594,363.5 667.1094,363.3281 Q666.8594,363.1563 666.75,362.7031 Q666.7031,362.3906 666.5313,362.2188 Q666.2188,361.8906 665.6563,361.7031 Q665.0938,361.5 664.5313,361.5 Q663.8281,361.5 663.2344,361.7813 Q662.6563,362.0625 662.2031,362.6875 Q661.75,363.3125 661.75,364.1719 L661.75,365.0938 Q661.75,366.125 662.5938,366.8125 Q663.4375,367.5 664.9375,367.5 Q665.8281,367.5 666.4531,367.2969 Q666.8125,367.1875 667.2188,366.8281 Q667.4844,366.625 667.625,366.5625 Q667.7656,366.5 667.9375,366.5 Q668.2656,366.5 668.5,366.7656 Q668.75,367.0156 668.75,367.375 Q668.75,367.7188 668.4063,368.125 Q667.9063,368.7188 667.1094,369.0469 Q666.0625,369.5 664.7813,369.5 Q663.2813,369.5 662.0781,368.9063 Q661.1094,368.4375 660.4219,367.4219 Q659.75,366.4063 659.75,365.2031 L659.75,364.1094 Q659.75,362.8594 660.3438,361.7656 Q660.9531,360.6719 662,360.0938 Q663.0625,359.5 664.25,359.5 Q664.9688,359.5 665.5938,359.75 Q666.2188,360 666.75,360.5 Z " fill="#000000"/><text fill="#000000" font-family="sans-serif" font-size="12" lengthAdjust="spacing" textLength="60" x="685.25" y="368.9102">FsiapStore</text><line style="stroke:#A80036;stroke-width:1.5;" x1="450" x2="948" y1="380" y2="380"/><line style="stroke:#A80036;stroke-width:1.5;" x1="450" x2="948" y1="388" y2="388"/><text fill="#000000" font-family="sans-serif" font-size="11" lengthAdjust="spacing" textLength="488" x="455" y="403.4189">+getEnergyFromATripToNegativeContainerWithSides(lateralsides,frontalsides,segundos,temperature)</text><!--MD5=[69f2f3ad3645114d26612368d508f737]
class Printer--><rect codeLine="21" fill="#FEFECE" filter="url(#fge8izf7kwqio)" height="61.8359" id="Printer" style="stroke:#A80036;stroke-width:1.5;" width="207" x="206.5" y="348"/><ellipse cx="287.75" cy="364" fill="#ADD1B2" rx="11" ry="11" style="stroke:#A80036;stroke-width:1.0;"/><path d="M289.75,360.5 Q289.9531,360 290.1875,359.75 Q290.4219,359.5 290.6875,359.5 Q291.1563,359.5 291.4531,359.7813 Q291.75,360.0625 291.75,360.7188 L291.75,362.2813 Q291.75,362.9375 291.4688,363.2188 Q291.1875,363.5 290.75,363.5 Q290.3594,363.5 290.1094,363.3281 Q289.8594,363.1563 289.75,362.7031 Q289.7031,362.3906 289.5313,362.2188 Q289.2188,361.8906 288.6563,361.7031 Q288.0938,361.5 287.5313,361.5 Q286.8281,361.5 286.2344,361.7813 Q285.6563,362.0625 285.2031,362.6875 Q284.75,363.3125 284.75,364.1719 L284.75,365.0938 Q284.75,366.125 285.5938,366.8125 Q286.4375,367.5 287.9375,367.5 Q288.8281,367.5 289.4531,367.2969 Q289.8125,367.1875 290.2188,366.8281 Q290.4844,366.625 290.625,366.5625 Q290.7656,366.5 290.9375,366.5 Q291.2656,366.5 291.5,366.7656 Q291.75,367.0156 291.75,367.375 Q291.75,367.7188 291.4063,368.125 Q290.9063,368.7188 290.1094,369.0469 Q289.0625,369.5 287.7813,369.5 Q286.2813,369.5 285.0781,368.9063 Q284.1094,368.4375 283.4219,367.4219 Q282.75,366.4063 282.75,365.2031 L282.75,364.1094 Q282.75,362.8594 283.3438,361.7656 Q283.9531,360.6719 285,360.0938 Q286.0625,359.5 287.25,359.5 Q287.9688,359.5 288.5938,359.75 Q289.2188,360 289.75,360.5 Z " fill="#000000"/><text fill="#000000" font-family="sans-serif" font-size="12" lengthAdjust="spacing" textLength="36" x="308.25" y="368.9102">Printer</text><line style="stroke:#A80036;stroke-width:1.5;" x1="207.5" x2="412.5" y1="380" y2="380"/><line style="stroke:#A80036;stroke-width:1.5;" x1="207.5" x2="412.5" y1="388" y2="388"/><text fill="#000000" font-family="sans-serif" font-size="11" lengthAdjust="spacing" textLength="195" x="212.5" y="403.4189">+print(Energy to maintain,energy,US414)</text><!--MD5=[02e4b9b7573f1156f41e60aa5b4e25a4]
class Company--><rect codeLine="26" fill="#FEFECE" filter="url(#fge8izf7kwqio)" height="61.8359" id="Company" style="stroke:#A80036;stroke-width:1.5;" width="93" x="56.5" y="348"/><ellipse cx="75.1" cy="364" fill="#ADD1B2" rx="11" ry="11" style="stroke:#A80036;stroke-width:1.0;"/><path d="M77.1,360.5 Q77.3031,360 77.5375,359.75 Q77.7719,359.5 78.0375,359.5 Q78.5063,359.5 78.8031,359.7813 Q79.1,360.0625 79.1,360.7188 L79.1,362.2813 Q79.1,362.9375 78.8188,363.2188 Q78.5375,363.5 78.1,363.5 Q77.7094,363.5 77.4594,363.3281 Q77.2094,363.1563 77.1,362.7031 Q77.0531,362.3906 76.8813,362.2188 Q76.5688,361.8906 76.0063,361.7031 Q75.4438,361.5 74.8813,361.5 Q74.1781,361.5 73.5844,361.7813 Q73.0063,362.0625 72.5531,362.6875 Q72.1,363.3125 72.1,364.1719 L72.1,365.0938 Q72.1,366.125 72.9438,366.8125 Q73.7875,367.5 75.2875,367.5 Q76.1781,367.5 76.8031,367.2969 Q77.1625,367.1875 77.5688,366.8281 Q77.8344,366.625 77.975,366.5625 Q78.1156,366.5 78.2875,366.5 Q78.6156,366.5 78.85,366.7656 Q79.1,367.0156 79.1,367.375 Q79.1,367.7188 78.7563,368.125 Q78.2563,368.7188 77.4594,369.0469 Q76.4125,369.5 75.1313,369.5 Q73.6313,369.5 72.4281,368.9063 Q71.4594,368.4375 70.7719,367.4219 Q70.1,366.4063 70.1,365.2031 L70.1,364.1094 Q70.1,362.8594 70.6938,361.7656 Q71.3031,360.6719 72.35,360.0938 Q73.4125,359.5 74.6,359.5 Q75.3188,359.5 75.9438,359.75 Q76.5688,360 77.1,360.5 Z " fill="#000000"/><text fill="#000000" font-family="sans-serif" font-size="12" lengthAdjust="spacing" textLength="53" x="89.9" y="368.9102">Company</text><line style="stroke:#A80036;stroke-width:1.5;" x1="57.5" x2="148.5" y1="380" y2="380"/><line style="stroke:#A80036;stroke-width:1.5;" x1="57.5" x2="148.5" y1="388" y2="388"/><text fill="#000000" font-family="sans-serif" font-size="11" lengthAdjust="spacing" textLength="81" x="62.5" y="403.4189">+getFsiapStore()</text><!--MD5=[553475eda3cf8c548ca4769fddb0fbdf]
link EnergyWithSidesUI to EnergyWithSidesController--><path codeLine="32" d="M310,90.06 C310,109.65 310,138.09 310,160.57 " fill="none" id="EnergyWithSidesUI-to-EnergyWithSidesController" style="stroke:#A80036;stroke-width:1.0;stroke-dasharray:7.0,7.0;"/><polygon fill="#A80036" points="310,165.85,314,156.85,310,160.85,306,156.85,310,165.85" style="stroke:#A80036;stroke-width:1.0;"/><!--MD5=[c98f2d567967d7d8ed90768aba74df6d]
link EnergyWithSidesController to Company--><path codeLine="33" d="M238.7,228.03 C221.77,236.94 204.45,247.67 190,260 C162.17,283.73 138.18,318 122.48,343.5 " fill="none" id="EnergyWithSidesController-to-Company" style="stroke:#A80036;stroke-width:1.0;stroke-dasharray:7.0,7.0;"/><polygon fill="#A80036" points="119.84,347.83,127.9363,342.222,122.4397,343.559,121.1027,338.0624,119.84,347.83" style="stroke:#A80036;stroke-width:1.0;"/><!--MD5=[ab1f6ebff3b775116b7b4a96dd3271b1]
link EnergyWithSidesController to FsiapStore--><path codeLine="34" d="M375.11,228.13 C445.48,260.69 557.21,312.39 629.31,345.75 " fill="none" id="EnergyWithSidesController-to-FsiapStore" style="stroke:#A80036;stroke-width:1.0;stroke-dasharray:7.0,7.0;"/><polygon fill="#A80036" points="634,347.92,627.5179,340.505,629.464,345.8165,624.1524,347.7626,634,347.92" style="stroke:#A80036;stroke-width:1.0;"/><!--MD5=[5eb41c42b93e0ad50fc3a2abfc841228]
link EnergyWithSidesController to Printer--><path codeLine="35" d="M310,228.13 C310,259.67 310,309.16 310,342.56 " fill="none" id="EnergyWithSidesController-to-Printer" style="stroke:#A80036;stroke-width:1.0;stroke-dasharray:7.0,7.0;"/><polygon fill="#A80036" points="310,347.77,314,338.77,310,342.77,306,338.77,310,347.77" style="stroke:#A80036;stroke-width:1.0;"/><!--MD5=[2543f43437964ee9f7cb5b56b0062d62]
@startuml
'https://plantuml.com/class-diagram

skinparam classAttributeIconSize 0

package "ui" {
class EnergyWithSidesUI{
}
}

package "controllers" {
class EnergyWithSidesController{
+getEnergy(lateralsides, frontalsides, segundos, temperature)
}
}
package utils{
package "stores"{
class FsiapStore{
+getEnergyFromATripToNegativeContainerWithSides(lateralsides,frontalsides,segundos,temperature)
}

class Printer{
+print(Energy to maintain,energy,US414)
}
}
package "model"{
class Company{
+getFsiapStore()
}

}

EnergyWithSidesUI ..> EnergyWithSidesController
EnergyWithSidesController ..> Company
EnergyWithSidesController ..> FsiapStore
EnergyWithSidesController ..> Printer

@enduml

@startuml

skinparam classAttributeIconSize 0

package "ui" {
class EnergyWithSidesUI{
}
}

package "controllers" {
class EnergyWithSidesController{
+getEnergy(lateralsides, frontalsides, segundos, temperature)
}
}
package utils{
package "stores"{
class FsiapStore{
+getEnergyFromATripToNegativeContainerWithSides(lateralsides,frontalsides,segundos,temperature)
}

class Printer{
+print(Energy to maintain,energy,US414)
}
}
package "model"{
class Company{
+getFsiapStore()
}

}

EnergyWithSidesUI ..> EnergyWithSidesController
EnergyWithSidesController ..> Company
EnergyWithSidesController ..> FsiapStore
EnergyWithSidesController ..> Printer

@enduml

PlantUML version 1.2021.2(Sun Mar 07 11:10:27 GMT 2021)
(GPL source distribution)
Java Runtime: OpenJDK Runtime Environment
JVM: OpenJDK 64-Bit Server VM
Default Encoding: Cp1252
Language: pt
Country: PT
--></g></svg>