<?xml version="1.0" encoding="UTF-8" standalone="no"?><svg xmlns="http://www.w3.org/2000/svg" xmlns:xlink="http://www.w3.org/1999/xlink" contentScriptType="application/ecmascript" contentStyleType="text/css" height="397px" preserveAspectRatio="none" style="width:457px;height:397px;background:#FFFFFF;" version="1.1" viewBox="0 0 457 397" width="457px" zoomAndPan="magnify"><defs><filter height="300%" id="f34mncpr5rwvu" width="300%" x="-1" y="-1"><feGaussianBlur result="blurOut" stdDeviation="2.0"/><feColorMatrix in="blurOut" result="blurOut2" type="matrix" values="0 0 0 0 0 0 0 0 0 0 0 0 0 0 0 0 0 0 .4 0"/><feOffset dx="4.0" dy="4.0" in="blurOut2" result="blurOut3"/><feBlend in="SourceGraphic" in2="blurOut3" mode="normal"/></filter></defs><g><!--MD5=[64e2e010ba86d7988e5cd73bd64f61f9]
cluster ui--><polygon fill="#FFFFFF" filter="url(#f34mncpr5rwvu)" points="111,6,132,6,139,28.2969,295,28.2969,295,105,111,105,111,6" style="stroke:#000000;stroke-width:1.5;"/><line style="stroke:#000000;stroke-width:1.5;" x1="111" x2="139" y1="28.2969" y2="28.2969"/><text fill="#000000" font-family="sans-serif" font-size="14" font-weight="bold" lengthAdjust="spacing" textLength="15" x="115" y="20.9951">ui</text><!--MD5=[f4e70ef68289585296b9045165e58692]
cluster controllers--><polygon fill="#FFFFFF" filter="url(#f34mncpr5rwvu)" points="54,129,149,129,156,151.2969,352,151.2969,352,254,54,254,54,129" style="stroke:#000000;stroke-width:1.5;"/><line style="stroke:#000000;stroke-width:1.5;" x1="54" x2="156" y1="151.2969" y2="151.2969"/><text fill="#000000" font-family="sans-serif" font-size="14" font-weight="bold" lengthAdjust="spacing" textLength="89" x="58" y="143.9951">controllers</text><!--MD5=[c52f45833d539af9e29a9d34b8b7302b]
cluster utils--><polygon fill="#FFFFFF" filter="url(#f34mncpr5rwvu)" points="16,278,59,278,66,300.2969,118,300.2969,118,390,16,390,16,278" style="stroke:#000000;stroke-width:1.5;"/><line style="stroke:#000000;stroke-width:1.5;" x1="16" x2="66" y1="300.2969" y2="300.2969"/><text fill="#000000" font-family="sans-serif" font-size="14" font-weight="bold" lengthAdjust="spacing" textLength="37" x="20" y="292.9951">utils</text><!--MD5=[dce4c2b5694dd28223e7b1d160ba96c4]
cluster data--><polygon fill="#FFFFFF" filter="url(#f34mncpr5rwvu)" points="142,278,186,278,193,300.2969,440,300.2969,440,390,142,390,142,278" style="stroke:#000000;stroke-width:1.5;"/><line style="stroke:#000000;stroke-width:1.5;" x1="142" x2="193" y1="300.2969" y2="300.2969"/><text fill="#000000" font-family="sans-serif" font-size="14" font-weight="bold" lengthAdjust="spacing" textLength="38" x="146" y="292.9951">data</text><!--MD5=[6000a9da6b1b7e1256573a7c60e541a8]
class ContainersToLoadUI--><rect codeLine="6" fill="#FEFECE" filter="url(#f34mncpr5rwvu)" height="48" id="ContainersToLoadUI" style="stroke:#A80036;stroke-width:1.5;" width="152" x="127" y="41"/><ellipse cx="142" cy="57" fill="#ADD1B2" rx="11" ry="11" style="stroke:#A80036;stroke-width:1.0;"/><path d="M144.3438,52.6719 C143.4063,52.2344 142.8125,52.0938 141.9375,52.0938 C139.3125,52.0938 137.3125,54.1719 137.3125,56.8906 L137.3125,58.0156 C137.3125,60.5938 139.4219,62.4844 142.3125,62.4844 C143.5313,62.4844 144.6875,62.1875 145.4375,61.6406 C146.0156,61.2344 146.3438,60.7813 146.3438,60.3906 C146.3438,59.9375 145.9531,59.5469 145.4844,59.5469 C145.2656,59.5469 145.0625,59.625 144.875,59.8125 C144.4219,60.2969 144.4219,60.2969 144.2344,60.3906 C143.8125,60.6563 143.125,60.7813 142.3594,60.7813 C140.3125,60.7813 139.0156,59.6875 139.0156,57.9844 L139.0156,56.8906 C139.0156,55.1094 140.2656,53.7969 142,53.7969 C142.5781,53.7969 143.1875,53.9531 143.6563,54.2031 C144.1406,54.4844 144.3125,54.7031 144.4063,55.1094 C144.4688,55.5156 144.5,55.6406 144.6406,55.7656 C144.7813,55.9063 145.0156,56.0156 145.2344,56.0156 C145.5,56.0156 145.7656,55.875 145.9375,55.6563 C146.0469,55.5 146.0781,55.3125 146.0781,54.8906 L146.0781,53.4688 C146.0781,53.0313 146.0625,52.9063 145.9688,52.75 C145.8125,52.4844 145.5313,52.3438 145.2344,52.3438 C144.9375,52.3438 144.7344,52.4375 144.5156,52.75 L144.3438,52.6719 Z " fill="#000000"/><text fill="#000000" font-family="sans-serif" font-size="12" lengthAdjust="spacing" textLength="120" x="156" y="61.1543">ContainersToLoadUI</text><line style="stroke:#A80036;stroke-width:1.5;" x1="128" x2="278" y1="73" y2="73"/><line style="stroke:#A80036;stroke-width:1.5;" x1="128" x2="278" y1="81" y2="81"/><!--MD5=[ea37598ec67c8672b3ce9491db7cfcd1]
class ContainersToLoadController--><rect codeLine="11" fill="#FEFECE" filter="url(#f34mncpr5rwvu)" height="73.6094" id="ContainersToLoadController" style="stroke:#A80036;stroke-width:1.5;" width="266" x="70" y="164"/><ellipse cx="115.25" cy="180" fill="#ADD1B2" rx="11" ry="11" style="stroke:#A80036;stroke-width:1.0;"/><path d="M117.5938,175.6719 C116.6563,175.2344 116.0625,175.0938 115.1875,175.0938 C112.5625,175.0938 110.5625,177.1719 110.5625,179.8906 L110.5625,181.0156 C110.5625,183.5938 112.6719,185.4844 115.5625,185.4844 C116.7813,185.4844 117.9375,185.1875 118.6875,184.6406 C119.2656,184.2344 119.5938,183.7813 119.5938,183.3906 C119.5938,182.9375 119.2031,182.5469 118.7344,182.5469 C118.5156,182.5469 118.3125,182.625 118.125,182.8125 C117.6719,183.2969 117.6719,183.2969 117.4844,183.3906 C117.0625,183.6563 116.375,183.7813 115.6094,183.7813 C113.5625,183.7813 112.2656,182.6875 112.2656,180.9844 L112.2656,179.8906 C112.2656,178.1094 113.5156,176.7969 115.25,176.7969 C115.8281,176.7969 116.4375,176.9531 116.9063,177.2031 C117.3906,177.4844 117.5625,177.7031 117.6563,178.1094 C117.7188,178.5156 117.75,178.6406 117.8906,178.7656 C118.0313,178.9063 118.2656,179.0156 118.4844,179.0156 C118.75,179.0156 119.0156,178.875 119.1875,178.6563 C119.2969,178.5 119.3281,178.3125 119.3281,177.8906 L119.3281,176.4688 C119.3281,176.0313 119.3125,175.9063 119.2188,175.75 C119.0625,175.4844 118.7813,175.3438 118.4844,175.3438 C118.1875,175.3438 117.9844,175.4375 117.7656,175.75 L117.5938,175.6719 Z " fill="#000000"/><text fill="#000000" font-family="sans-serif" font-size="12" lengthAdjust="spacing" textLength="167" x="135.75" y="184.1543">ContainersToLoadController</text><line style="stroke:#A80036;stroke-width:1.5;" x1="71" x2="335" y1="196" y2="196"/><line style="stroke:#A80036;stroke-width:1.5;" x1="71" x2="335" y1="204" y2="204"/><text fill="#000000" font-family="sans-serif" font-size="11" lengthAdjust="spacing" textLength="254" x="76" y="218.2104">+getContainersToLoadOnNextPort(shipMMSI)</text><text fill="#000000" font-family="sans-serif" font-size="11" lengthAdjust="spacing" textLength="176" x="76" y="231.0151">+printer(fileName, tringToPrint)</text><!--MD5=[69f2f3ad3645114d26612368d508f737]
class Printer--><rect codeLine="17" fill="#FEFECE" filter="url(#f34mncpr5rwvu)" height="60.8047" id="Printer" style="stroke:#A80036;stroke-width:1.5;" width="70" x="32" y="313"/><ellipse cx="47" cy="329" fill="#ADD1B2" rx="11" ry="11" style="stroke:#A80036;stroke-width:1.0;"/><path d="M49.3438,324.6719 C48.4063,324.2344 47.8125,324.0938 46.9375,324.0938 C44.3125,324.0938 42.3125,326.1719 42.3125,328.8906 L42.3125,330.0156 C42.3125,332.5938 44.4219,334.4844 47.3125,334.4844 C48.5313,334.4844 49.6875,334.1875 50.4375,333.6406 C51.0156,333.2344 51.3438,332.7813 51.3438,332.3906 C51.3438,331.9375 50.9531,331.5469 50.4844,331.5469 C50.2656,331.5469 50.0625,331.625 49.875,331.8125 C49.4219,332.2969 49.4219,332.2969 49.2344,332.3906 C48.8125,332.6563 48.125,332.7813 47.3594,332.7813 C45.3125,332.7813 44.0156,331.6875 44.0156,329.9844 L44.0156,328.8906 C44.0156,327.1094 45.2656,325.7969 47,325.7969 C47.5781,325.7969 48.1875,325.9531 48.6563,326.2031 C49.1406,326.4844 49.3125,326.7031 49.4063,327.1094 C49.4688,327.5156 49.5,327.6406 49.6406,327.7656 C49.7813,327.9063 50.0156,328.0156 50.2344,328.0156 C50.5,328.0156 50.7656,327.875 50.9375,327.6563 C51.0469,327.5 51.0781,327.3125 51.0781,326.8906 L51.0781,325.4688 C51.0781,325.0313 51.0625,324.9063 50.9688,324.75 C50.8125,324.4844 50.5313,324.3438 50.2344,324.3438 C49.9375,324.3438 49.7344,324.4375 49.5156,324.75 L49.3438,324.6719 Z " fill="#000000"/><text fill="#000000" font-family="sans-serif" font-size="12" lengthAdjust="spacing" textLength="38" x="61" y="333.1543">Printer</text><line style="stroke:#A80036;stroke-width:1.5;" x1="33" x2="101" y1="345" y2="345"/><line style="stroke:#A80036;stroke-width:1.5;" x1="33" x2="101" y1="353" y2="353"/><text fill="#000000" font-family="sans-serif" font-size="11" lengthAdjust="spacing" textLength="42" x="38" y="367.2104">+print()</text><!--MD5=[dd846111e3c07dbdf58c796508beabea]
class ContainersToLoad--><rect codeLine="22" fill="#FEFECE" filter="url(#f34mncpr5rwvu)" height="60.8047" id="ContainersToLoad" style="stroke:#A80036;stroke-width:1.5;" width="266" x="158" y="313"/><ellipse cx="232.75" cy="329" fill="#ADD1B2" rx="11" ry="11" style="stroke:#A80036;stroke-width:1.0;"/><path d="M235.0938,324.6719 C234.1563,324.2344 233.5625,324.0938 232.6875,324.0938 C230.0625,324.0938 228.0625,326.1719 228.0625,328.8906 L228.0625,330.0156 C228.0625,332.5938 230.1719,334.4844 233.0625,334.4844 C234.2813,334.4844 235.4375,334.1875 236.1875,333.6406 C236.7656,333.2344 237.0938,332.7813 237.0938,332.3906 C237.0938,331.9375 236.7031,331.5469 236.2344,331.5469 C236.0156,331.5469 235.8125,331.625 235.625,331.8125 C235.1719,332.2969 235.1719,332.2969 234.9844,332.3906 C234.5625,332.6563 233.875,332.7813 233.1094,332.7813 C231.0625,332.7813 229.7656,331.6875 229.7656,329.9844 L229.7656,328.8906 C229.7656,327.1094 231.0156,325.7969 232.75,325.7969 C233.3281,325.7969 233.9375,325.9531 234.4063,326.2031 C234.8906,326.4844 235.0625,326.7031 235.1563,327.1094 C235.2188,327.5156 235.25,327.6406 235.3906,327.7656 C235.5313,327.9063 235.7656,328.0156 235.9844,328.0156 C236.25,328.0156 236.5156,327.875 236.6875,327.6563 C236.7969,327.5 236.8281,327.3125 236.8281,326.8906 L236.8281,325.4688 C236.8281,325.0313 236.8125,324.9063 236.7188,324.75 C236.5625,324.4844 236.2813,324.3438 235.9844,324.3438 C235.6875,324.3438 235.4844,324.4375 235.2656,324.75 L235.0938,324.6719 Z " fill="#000000"/><text fill="#000000" font-family="sans-serif" font-size="12" lengthAdjust="spacing" textLength="108" x="253.25" y="333.1543">ContainersToLoad</text><line style="stroke:#A80036;stroke-width:1.5;" x1="159" x2="423" y1="345" y2="345"/><line style="stroke:#A80036;stroke-width:1.5;" x1="159" x2="423" y1="353" y2="353"/><text fill="#000000" font-family="sans-serif" font-size="11" lengthAdjust="spacing" textLength="254" x="164" y="367.2104">+getContainersToLoadOnNextPort(shipMMSI)</text><!--MD5=[1f5e63043cd85b971d260c4052be215e]
link ContainersToLoadUI to ContainersToLoadController--><path codeLine="29" d="M203,89.035 C203,108.167 203,135.86 203,158.795 " fill="none" id="ContainersToLoadUI-to-ContainersToLoadController" style="stroke:#A80036;stroke-width:1.0;stroke-dasharray:7.0,7.0;"/><polygon fill="#A80036" points="203,163.911,207,154.911,203,158.911,199,154.911,203,163.911" style="stroke:#A80036;stroke-width:1.0;"/><!--MD5=[d661ae72dbe8b1a88c8e6a6f47f71c00]
link ContainersToLoadController to Printer--><path codeLine="30" d="M167.977,238.182 C146.847,260.011 120.113,287.629 99.4618,308.9641 " fill="none" id="ContainersToLoadController-to-Printer" style="stroke:#A80036;stroke-width:1.0;stroke-dasharray:7.0,7.0;"/><polygon fill="#A80036" points="95.9409,312.6015,105.0745,308.9168,99.4184,309.0089,99.3263,303.3528,95.9409,312.6015" style="stroke:#A80036;stroke-width:1.0;"/><!--MD5=[0f4a10b0d3af5fb1e943dc424791142b]
link ContainersToLoadController to ContainersToLoad--><path codeLine="31" d="M225.662,238.182 C239.165,259.74 256.204,286.945 269.497,308.1678 " fill="none" id="ContainersToLoadController-to-ContainersToLoad" style="stroke:#A80036;stroke-width:1.0;stroke-dasharray:7.0,7.0;"/><polygon fill="#A80036" points="272.274,312.6015,270.8879,302.8507,269.6205,308.3637,264.1074,307.0963,272.274,312.6015" style="stroke:#A80036;stroke-width:1.0;"/><!--MD5=[4bf9a4cd648d1150f2ca4720e21aebb3]
@startuml
'https://plantuml.com/class-diagram

skinparam classAttributeIconSize 0

package "ui" {
class ContainersToLoadUI{
}
}

package "controllers" {
class ContainersToLoadController{
+getContainersToLoadOnNextPort(shipMMSI)
+printer(fileName, tringToPrint)
}
}
package utils{
class Printer{
+print()
}
}
package data{
class ContainersToLoad{
+getContainersToLoadOnNextPort(shipMMSI)
}
}



ContainersToLoadUI ..> ContainersToLoadController
ContainersToLoadController ..> Printer
ContainersToLoadController ..> ContainersToLoad
@enduml

@startuml

skinparam classAttributeIconSize 0

package "ui" {
class ContainersToLoadUI{
}
}

package "controllers" {
class ContainersToLoadController{
+getContainersToLoadOnNextPort(shipMMSI)
+printer(fileName, tringToPrint)
}
}
package utils{
class Printer{
+print()
}
}
package data{
class ContainersToLoad{
+getContainersToLoadOnNextPort(shipMMSI)
}
}



ContainersToLoadUI ..> ContainersToLoadController
ContainersToLoadController ..> Printer
ContainersToLoadController ..> ContainersToLoad
@enduml

PlantUML version 1.2021.16beta1(Unknown compile time)
(GPL source distribution)
Java Runtime: Java(TM) SE Runtime Environment
JVM: Java HotSpot(TM) 64-Bit Server VM
Default Encoding: UTF-8
Language: en
Country: US
--></g></svg>