<?xml version="1.0" encoding="UTF-8" standalone="no"?><svg xmlns="http://www.w3.org/2000/svg" xmlns:xlink="http://www.w3.org/1999/xlink" contentScriptType="application/ecmascript" contentStyleType="text/css" height="612px" preserveAspectRatio="none" style="width:339px;height:612px;background:#FFFFFF;" version="1.1" viewBox="0 0 339 612" width="339px" zoomAndPan="magnify"><defs><filter height="300%" id="f18wxi31f36ujo" width="300%" x="-1" y="-1"><feGaussianBlur result="blurOut" stdDeviation="2.0"/><feColorMatrix in="blurOut" result="blurOut2" type="matrix" values="0 0 0 0 0 0 0 0 0 0 0 0 0 0 0 0 0 0 .4 0"/><feOffset dx="4.0" dy="4.0" in="blurOut2" result="blurOut3"/><feBlend in="SourceGraphic" in2="blurOut3" mode="normal"/></filter></defs><g><!--MD5=[64e2e010ba86d7988e5cd73bd64f61f9]
cluster ui--><polygon fill="#FFFFFF" filter="url(#f18wxi31f36ujo)" points="72,6,93,6,100,28.2969,212,28.2969,212,105,72,105,72,6" style="stroke:#000000;stroke-width:1.5;"/><line style="stroke:#000000;stroke-width:1.5;" x1="72" x2="100" y1="28.2969" y2="28.2969"/><text fill="#000000" font-family="sans-serif" font-size="14" font-weight="bold" lengthAdjust="spacing" textLength="15" x="76" y="20.9951">ui</text><!--MD5=[f4e70ef68289585296b9045165e58692]
cluster controllers--><polygon fill="#FFFFFF" filter="url(#f18wxi31f36ujo)" points="49,129,144,129,151,151.2969,235,151.2969,235,241,49,241,49,129" style="stroke:#000000;stroke-width:1.5;"/><line style="stroke:#000000;stroke-width:1.5;" x1="49" x2="151" y1="151.2969" y2="151.2969"/><text fill="#000000" font-family="sans-serif" font-size="14" font-weight="bold" lengthAdjust="spacing" textLength="89" x="53" y="143.9951">controllers</text><!--MD5=[c52f45833d539af9e29a9d34b8b7302b]
cluster utils--><polygon fill="#FFFFFF" filter="url(#f18wxi31f36ujo)" points="16,265,59,265,66,287.2969,322,287.2969,322,605,16,605,16,265" style="stroke:#000000;stroke-width:1.5;"/><line style="stroke:#000000;stroke-width:1.5;" x1="16" x2="66" y1="287.2969" y2="287.2969"/><text fill="#000000" font-family="sans-serif" font-size="14" font-weight="bold" lengthAdjust="spacing" textLength="37" x="20" y="279.9951">utils</text><!--MD5=[fbca5634cbc0239920b500cad9c4bedb]
cluster stores--><polygon fill="#FFFFFF" filter="url(#f18wxi31f36ujo)" points="121,308,179,308,186,330.2969,271,330.2969,271,445,121,445,121,308" style="stroke:#000000;stroke-width:1.5;"/><line style="stroke:#000000;stroke-width:1.5;" x1="121" x2="186" y1="330.2969" y2="330.2969"/><text fill="#000000" font-family="sans-serif" font-size="14" font-weight="bold" lengthAdjust="spacing" textLength="52" x="125" y="322.9951">stores</text><!--MD5=[6c90033dafc7844095e13a44c223efdf]
cluster matrix--><polygon fill="#FFFFFF" filter="url(#f18wxi31f36ujo)" points="40,469,100,469,107,491.2969,298,491.2969,298,581,40,581,40,469" style="stroke:#000000;stroke-width:1.5;"/><line style="stroke:#000000;stroke-width:1.5;" x1="40" x2="107" y1="491.2969" y2="491.2969"/><text fill="#000000" font-family="sans-serif" font-size="14" font-weight="bold" lengthAdjust="spacing" textLength="54" x="44" y="483.9951">matrix</text><!--MD5=[b46a9d650be91b23fe1a960db40ca626]
class CriticalPortUI--><rect codeLine="6" fill="#FEFECE" filter="url(#f18wxi31f36ujo)" height="48" id="CriticalPortUI" style="stroke:#A80036;stroke-width:1.5;" width="107" x="88.5" y="41"/><ellipse cx="103.5" cy="57" fill="#ADD1B2" rx="11" ry="11" style="stroke:#A80036;stroke-width:1.0;"/><path d="M105.8438,52.6719 C104.9063,52.2344 104.3125,52.0938 103.4375,52.0938 C100.8125,52.0938 98.8125,54.1719 98.8125,56.8906 L98.8125,58.0156 C98.8125,60.5938 100.9219,62.4844 103.8125,62.4844 C105.0313,62.4844 106.1875,62.1875 106.9375,61.6406 C107.5156,61.2344 107.8438,60.7813 107.8438,60.3906 C107.8438,59.9375 107.4531,59.5469 106.9844,59.5469 C106.7656,59.5469 106.5625,59.625 106.375,59.8125 C105.9219,60.2969 105.9219,60.2969 105.7344,60.3906 C105.3125,60.6563 104.625,60.7813 103.8594,60.7813 C101.8125,60.7813 100.5156,59.6875 100.5156,57.9844 L100.5156,56.8906 C100.5156,55.1094 101.7656,53.7969 103.5,53.7969 C104.0781,53.7969 104.6875,53.9531 105.1563,54.2031 C105.6406,54.4844 105.8125,54.7031 105.9063,55.1094 C105.9688,55.5156 106,55.6406 106.1406,55.7656 C106.2813,55.9063 106.5156,56.0156 106.7344,56.0156 C107,56.0156 107.2656,55.875 107.4375,55.6563 C107.5469,55.5 107.5781,55.3125 107.5781,54.8906 L107.5781,53.4688 C107.5781,53.0313 107.5625,52.9063 107.4688,52.75 C107.3125,52.4844 107.0313,52.3438 106.7344,52.3438 C106.4375,52.3438 106.2344,52.4375 106.0156,52.75 L105.8438,52.6719 Z " fill="#000000"/><text fill="#000000" font-family="sans-serif" font-size="12" lengthAdjust="spacing" textLength="75" x="117.5" y="61.1543">CriticalPortUI</text><line style="stroke:#A80036;stroke-width:1.5;" x1="89.5" x2="194.5" y1="73" y2="73"/><line style="stroke:#A80036;stroke-width:1.5;" x1="89.5" x2="194.5" y1="81" y2="81"/><!--MD5=[11efb2c3e4c9218f66b95777fc3056d9]
class CriticalPortController--><rect codeLine="11" fill="#FEFECE" filter="url(#f18wxi31f36ujo)" height="60.8047" id="CriticalPortController" style="stroke:#A80036;stroke-width:1.5;" width="154" x="65" y="164"/><ellipse cx="80" cy="180" fill="#ADD1B2" rx="11" ry="11" style="stroke:#A80036;stroke-width:1.0;"/><path d="M82.3438,175.6719 C81.4063,175.2344 80.8125,175.0938 79.9375,175.0938 C77.3125,175.0938 75.3125,177.1719 75.3125,179.8906 L75.3125,181.0156 C75.3125,183.5938 77.4219,185.4844 80.3125,185.4844 C81.5313,185.4844 82.6875,185.1875 83.4375,184.6406 C84.0156,184.2344 84.3438,183.7813 84.3438,183.3906 C84.3438,182.9375 83.9531,182.5469 83.4844,182.5469 C83.2656,182.5469 83.0625,182.625 82.875,182.8125 C82.4219,183.2969 82.4219,183.2969 82.2344,183.3906 C81.8125,183.6563 81.125,183.7813 80.3594,183.7813 C78.3125,183.7813 77.0156,182.6875 77.0156,180.9844 L77.0156,179.8906 C77.0156,178.1094 78.2656,176.7969 80,176.7969 C80.5781,176.7969 81.1875,176.9531 81.6563,177.2031 C82.1406,177.4844 82.3125,177.7031 82.4063,178.1094 C82.4688,178.5156 82.5,178.6406 82.6406,178.7656 C82.7813,178.9063 83.0156,179.0156 83.2344,179.0156 C83.5,179.0156 83.7656,178.875 83.9375,178.6563 C84.0469,178.5 84.0781,178.3125 84.0781,177.8906 L84.0781,176.4688 C84.0781,176.0313 84.0625,175.9063 83.9688,175.75 C83.8125,175.4844 83.5313,175.3438 83.2344,175.3438 C82.9375,175.3438 82.7344,175.4375 82.5156,175.75 L82.3438,175.6719 Z " fill="#000000"/><text fill="#000000" font-family="sans-serif" font-size="12" lengthAdjust="spacing" textLength="122" x="94" y="184.1543">CriticalPortController</text><line style="stroke:#A80036;stroke-width:1.5;" x1="66" x2="218" y1="196" y2="196"/><line style="stroke:#A80036;stroke-width:1.5;" x1="66" x2="218" y1="204" y2="204"/><text fill="#000000" font-family="sans-serif" font-size="11" lengthAdjust="spacing" textLength="102" x="71" y="218.2104">+getCriticalPort(n)</text><!--MD5=[69f2f3ad3645114d26612368d508f737]
class Printer--><rect codeLine="16" fill="#FEFECE" filter="url(#f18wxi31f36ujo)" height="60.8047" id="Printer" style="stroke:#A80036;stroke-width:1.5;" width="70" x="32" y="355.5"/><ellipse cx="47" cy="371.5" fill="#ADD1B2" rx="11" ry="11" style="stroke:#A80036;stroke-width:1.0;"/><path d="M49.3438,367.1719 C48.4063,366.7344 47.8125,366.5938 46.9375,366.5938 C44.3125,366.5938 42.3125,368.6719 42.3125,371.3906 L42.3125,372.5156 C42.3125,375.0938 44.4219,376.9844 47.3125,376.9844 C48.5313,376.9844 49.6875,376.6875 50.4375,376.1406 C51.0156,375.7344 51.3438,375.2813 51.3438,374.8906 C51.3438,374.4375 50.9531,374.0469 50.4844,374.0469 C50.2656,374.0469 50.0625,374.125 49.875,374.3125 C49.4219,374.7969 49.4219,374.7969 49.2344,374.8906 C48.8125,375.1563 48.125,375.2813 47.3594,375.2813 C45.3125,375.2813 44.0156,374.1875 44.0156,372.4844 L44.0156,371.3906 C44.0156,369.6094 45.2656,368.2969 47,368.2969 C47.5781,368.2969 48.1875,368.4531 48.6563,368.7031 C49.1406,368.9844 49.3125,369.2031 49.4063,369.6094 C49.4688,370.0156 49.5,370.1406 49.6406,370.2656 C49.7813,370.4063 50.0156,370.5156 50.2344,370.5156 C50.5,370.5156 50.7656,370.375 50.9375,370.1563 C51.0469,370 51.0781,369.8125 51.0781,369.3906 L51.0781,367.9688 C51.0781,367.5313 51.0625,367.4063 50.9688,367.25 C50.8125,366.9844 50.5313,366.8438 50.2344,366.8438 C49.9375,366.8438 49.7344,366.9375 49.5156,367.25 L49.3438,367.1719 Z " fill="#000000"/><text fill="#000000" font-family="sans-serif" font-size="12" lengthAdjust="spacing" textLength="38" x="61" y="375.6543">Printer</text><line style="stroke:#A80036;stroke-width:1.5;" x1="33" x2="101" y1="387.5" y2="387.5"/><line style="stroke:#A80036;stroke-width:1.5;" x1="33" x2="101" y1="395.5" y2="395.5"/><text fill="#000000" font-family="sans-serif" font-size="11" lengthAdjust="spacing" textLength="42" x="38" y="409.7104">+print()</text><!--MD5=[2cc01888644921b61c356dbf1e5a52f4]
class NetworkStore--><rect codeLine="20" fill="#FEFECE" filter="url(#f18wxi31f36ujo)" height="86.4141" id="NetworkStore" style="stroke:#A80036;stroke-width:1.5;" width="117" x="137.5" y="343"/><ellipse cx="153.4" cy="359" fill="#ADD1B2" rx="11" ry="11" style="stroke:#A80036;stroke-width:1.0;"/><path d="M155.7438,354.6719 C154.8063,354.2344 154.2125,354.0938 153.3375,354.0938 C150.7125,354.0938 148.7125,356.1719 148.7125,358.8906 L148.7125,360.0156 C148.7125,362.5938 150.8219,364.4844 153.7125,364.4844 C154.9313,364.4844 156.0875,364.1875 156.8375,363.6406 C157.4156,363.2344 157.7438,362.7813 157.7438,362.3906 C157.7438,361.9375 157.3531,361.5469 156.8844,361.5469 C156.6656,361.5469 156.4625,361.625 156.275,361.8125 C155.8219,362.2969 155.8219,362.2969 155.6344,362.3906 C155.2125,362.6563 154.525,362.7813 153.7594,362.7813 C151.7125,362.7813 150.4156,361.6875 150.4156,359.9844 L150.4156,358.8906 C150.4156,357.1094 151.6656,355.7969 153.4,355.7969 C153.9781,355.7969 154.5875,355.9531 155.0563,356.2031 C155.5406,356.4844 155.7125,356.7031 155.8063,357.1094 C155.8688,357.5156 155.9,357.6406 156.0406,357.7656 C156.1813,357.9063 156.4156,358.0156 156.6344,358.0156 C156.9,358.0156 157.1656,357.875 157.3375,357.6563 C157.4469,357.5 157.4781,357.3125 157.4781,356.8906 L157.4781,355.4688 C157.4781,355.0313 157.4625,354.9063 157.3688,354.75 C157.2125,354.4844 156.9313,354.3438 156.6344,354.3438 C156.3375,354.3438 156.1344,354.4375 155.9156,354.75 L155.7438,354.6719 Z " fill="#000000"/><text fill="#000000" font-family="sans-serif" font-size="12" lengthAdjust="spacing" textLength="83" x="167.6" y="363.1543">NetworkStore</text><line style="stroke:#A80036;stroke-width:1.5;" x1="138.5" x2="253.5" y1="375" y2="375"/><line style="stroke:#A80036;stroke-width:1.5;" x1="138.5" x2="253.5" y1="383" y2="383"/><text fill="#000000" font-family="sans-serif" font-size="11" lengthAdjust="spacing" textLength="105" x="143.5" y="397.2104">+getCriticalPort(n);</text><text fill="#000000" font-family="sans-serif" font-size="11" lengthAdjust="spacing" textLength="82" x="143.5" y="410.0151">-isNumeric(str)</text><text fill="#000000" font-family="sans-serif" font-size="11" lengthAdjust="spacing" textLength="103" x="143.5" y="422.8198">-getMaxValue(list)</text><!--MD5=[4533588fb66c6fa31a6e04bf29ae6161]
class Algorithms--><rect codeLine="27" fill="#FEFECE" filter="url(#f18wxi31f36ujo)" height="60.8047" id="Algorithms" style="stroke:#A80036;stroke-width:1.5;" width="226" x="56" y="504"/><ellipse cx="132.75" cy="520" fill="#ADD1B2" rx="11" ry="11" style="stroke:#A80036;stroke-width:1.0;"/><path d="M135.0938,515.6719 C134.1563,515.2344 133.5625,515.0938 132.6875,515.0938 C130.0625,515.0938 128.0625,517.1719 128.0625,519.8906 L128.0625,521.0156 C128.0625,523.5938 130.1719,525.4844 133.0625,525.4844 C134.2813,525.4844 135.4375,525.1875 136.1875,524.6406 C136.7656,524.2344 137.0938,523.7813 137.0938,523.3906 C137.0938,522.9375 136.7031,522.5469 136.2344,522.5469 C136.0156,522.5469 135.8125,522.625 135.625,522.8125 C135.1719,523.2969 135.1719,523.2969 134.9844,523.3906 C134.5625,523.6563 133.875,523.7813 133.1094,523.7813 C131.0625,523.7813 129.7656,522.6875 129.7656,520.9844 L129.7656,519.8906 C129.7656,518.1094 131.0156,516.7969 132.75,516.7969 C133.3281,516.7969 133.9375,516.9531 134.4063,517.2031 C134.8906,517.4844 135.0625,517.7031 135.1563,518.1094 C135.2188,518.5156 135.25,518.6406 135.3906,518.7656 C135.5313,518.9063 135.7656,519.0156 135.9844,519.0156 C136.25,519.0156 136.5156,518.875 136.6875,518.6563 C136.7969,518.5 136.8281,518.3125 136.8281,517.8906 L136.8281,516.4688 C136.8281,516.0313 136.8125,515.9063 136.7188,515.75 C136.5625,515.4844 136.2813,515.3438 135.9844,515.3438 C135.6875,515.3438 135.4844,515.4375 135.2656,515.75 L135.0938,515.6719 Z " fill="#000000"/><text fill="#000000" font-family="sans-serif" font-size="12" lengthAdjust="spacing" textLength="64" x="153.25" y="524.1543">Algorithms</text><line style="stroke:#A80036;stroke-width:1.5;" x1="57" x2="281" y1="536" y2="536"/><line style="stroke:#A80036;stroke-width:1.5;" x1="57" x2="281" y1="544" y2="544"/><text fill="#000000" font-family="sans-serif" font-size="11" lengthAdjust="spacing" textLength="214" x="62" y="558.2104">+shortestPaths(graph, vert, path, dist)</text><!--MD5=[707bc6accf7881cc988dc6b17297828d]
link CriticalPortUI to CriticalPortController--><path codeLine="35" d="M142,89.089 C142,108.488 142,136.509 142,158.639 " fill="none" id="CriticalPortUI-to-CriticalPortController" style="stroke:#A80036;stroke-width:1.0;stroke-dasharray:7.0,7.0;"/><polygon fill="#A80036" points="142,163.841,146,154.841,142,158.841,138,154.841,142,163.841" style="stroke:#A80036;stroke-width:1.0;"/><!--MD5=[44e70dce5194f9ea1a5756053be0bfab]
link CriticalPortController to Printer--><path codeLine="36" d="M130.281,225.109 C116.836,259.081 94.8211,314.705 80.6235,350.578 " fill="none" id="CriticalPortController-to-Printer" style="stroke:#A80036;stroke-width:1.0;stroke-dasharray:7.0,7.0;"/><polygon fill="#A80036" points="78.76,355.286,85.7913,348.3896,80.6,350.6369,78.3527,345.4456,78.76,355.286" style="stroke:#A80036;stroke-width:1.0;"/><!--MD5=[648c35cda6abd6925c6be184add18e02]
link CriticalPortController to NetworkStore--><path codeLine="37" d="M150.438,225.109 C159.032,255.271 172.491,302.502 182.556,337.822 " fill="none" id="CriticalPortController-to-NetworkStore" style="stroke:#A80036;stroke-width:1.0;stroke-dasharray:7.0,7.0;"/><polygon fill="#A80036" points="184.016,342.944,185.3969,333.1924,182.646,338.1354,177.703,335.3845,184.016,342.944" style="stroke:#A80036;stroke-width:1.0;"/><!--MD5=[5a5bcb3a922441d5533118b0b6025222]
link NetworkStore to Algorithms--><path codeLine="38" d="M188.19,429.374 C184.142,451.343 179.257,477.847 175.429,498.617 " fill="none" id="NetworkStore-to-Algorithms" style="stroke:#A80036;stroke-width:1.0;stroke-dasharray:7.0,7.0;"/><polygon fill="#A80036" points="174.48,503.768,180.0442,495.6415,175.3857,498.8507,172.1765,494.1923,174.48,503.768" style="stroke:#A80036;stroke-width:1.0;"/><!--MD5=[89d17e88364ed9b85aa1cafa6c4bcc70]
@startuml
'https://plantuml.com/class-diagram

skinparam classAttributeIconSize 0

package "ui" {
class CriticalPortUI{
}
}

package "controllers" {
class CriticalPortController{
+getCriticalPort(n)
}
}
package utils{
class Printer{
+print()
}
package stores{
class NetworkStore{
+getCriticalPort(n);
-isNumeric(str)
-getMaxValue(list)
}
}
package matrix{
class Algorithms{
+shortestPaths(graph, vert, path, dist)
}
}

}


CriticalPortUI ..> CriticalPortController
CriticalPortController ..> Printer
CriticalPortController ..> NetworkStore
NetworkStore ..> Algorithms
@enduml

@startuml

skinparam classAttributeIconSize 0

package "ui" {
class CriticalPortUI{
}
}

package "controllers" {
class CriticalPortController{
+getCriticalPort(n)
}
}
package utils{
class Printer{
+print()
}
package stores{
class NetworkStore{
+getCriticalPort(n);
-isNumeric(str)
-getMaxValue(list)
}
}
package matrix{
class Algorithms{
+shortestPaths(graph, vert, path, dist)
}
}

}


CriticalPortUI ..> CriticalPortController
CriticalPortController ..> Printer
CriticalPortController ..> NetworkStore
NetworkStore ..> Algorithms
@enduml

PlantUML version 1.2022.1beta4(Unknown compile time)
(GPL source distribution)
Java Runtime: Java(TM) SE Runtime Environment
JVM: Java HotSpot(TM) 64-Bit Server VM
Default Encoding: UTF-8
Language: en
Country: US
--></g></svg>