<?xml version="1.0" encoding="UTF-8" standalone="no"?><svg xmlns="http://www.w3.org/2000/svg" xmlns:xlink="http://www.w3.org/1999/xlink" contentScriptType="application/ecmascript" contentStyleType="text/css" height="384px" preserveAspectRatio="none" style="width:651px;height:384px;background:#FFFFFF;" version="1.1" viewBox="0 0 651 384" width="651px" zoomAndPan="magnify"><defs><filter height="300%" id="ftfwwbo88zpx3" width="300%" x="-1" y="-1"><feGaussianBlur result="blurOut" stdDeviation="2.0"/><feColorMatrix in="blurOut" result="blurOut2" type="matrix" values="0 0 0 0 0 0 0 0 0 0 0 0 0 0 0 0 0 0 .4 0"/><feOffset dx="4.0" dy="4.0" in="blurOut2" result="blurOut3"/><feBlend in="SourceGraphic" in2="blurOut3" mode="normal"/></filter></defs><g><!--MD5=[64e2e010ba86d7988e5cd73bd64f61f9]
cluster ui--><polygon fill="#FFFFFF" filter="url(#ftfwwbo88zpx3)" points="171,6,192,6,199,28.2969,381,28.2969,381,105,171,105,171,6" style="stroke:#000000;stroke-width:1.5;"/><line style="stroke:#000000;stroke-width:1.5;" x1="171" x2="199" y1="28.2969" y2="28.2969"/><text fill="#000000" font-family="sans-serif" font-size="14" font-weight="bold" lengthAdjust="spacing" textLength="15" x="175" y="20.9951">ui</text><!--MD5=[f4e70ef68289585296b9045165e58692]
cluster controllers--><polygon fill="#FFFFFF" filter="url(#ftfwwbo88zpx3)" points="30,129,125,129,132,151.2969,522,151.2969,522,241,30,241,30,129" style="stroke:#000000;stroke-width:1.5;"/><line style="stroke:#000000;stroke-width:1.5;" x1="30" x2="132" y1="151.2969" y2="151.2969"/><text fill="#000000" font-family="sans-serif" font-size="14" font-weight="bold" lengthAdjust="spacing" textLength="89" x="34" y="143.9951">controllers</text><!--MD5=[c52f45833d539af9e29a9d34b8b7302b]
cluster utils--><polygon fill="#FFFFFF" filter="url(#ftfwwbo88zpx3)" points="16,265,59,265,66,287.2969,118,287.2969,118,377,16,377,16,265" style="stroke:#000000;stroke-width:1.5;"/><line style="stroke:#000000;stroke-width:1.5;" x1="16" x2="66" y1="287.2969" y2="287.2969"/><text fill="#000000" font-family="sans-serif" font-size="14" font-weight="bold" lengthAdjust="spacing" textLength="37" x="20" y="279.9951">utils</text><!--MD5=[dce4c2b5694dd28223e7b1d160ba96c4]
cluster data--><polygon fill="#FFFFFF" filter="url(#ftfwwbo88zpx3)" points="142,265,186,265,193,287.2969,634,287.2969,634,377,142,377,142,265" style="stroke:#000000;stroke-width:1.5;"/><line style="stroke:#000000;stroke-width:1.5;" x1="142" x2="193" y1="287.2969" y2="287.2969"/><text fill="#000000" font-family="sans-serif" font-size="14" font-weight="bold" lengthAdjust="spacing" textLength="38" x="146" y="279.9951">data</text><!--MD5=[d65b8262403ba58374ac95aebb871656]
class ShipOccupiedWarningUI--><rect codeLine="6" fill="#FEFECE" filter="url(#ftfwwbo88zpx3)" height="48" id="ShipOccupiedWarningUI" style="stroke:#A80036;stroke-width:1.5;" width="177" x="187.5" y="41"/><ellipse cx="202.5" cy="57" fill="#ADD1B2" rx="11" ry="11" style="stroke:#A80036;stroke-width:1.0;"/><path d="M204.8438,52.6719 C203.9063,52.2344 203.3125,52.0938 202.4375,52.0938 C199.8125,52.0938 197.8125,54.1719 197.8125,56.8906 L197.8125,58.0156 C197.8125,60.5938 199.9219,62.4844 202.8125,62.4844 C204.0313,62.4844 205.1875,62.1875 205.9375,61.6406 C206.5156,61.2344 206.8438,60.7813 206.8438,60.3906 C206.8438,59.9375 206.4531,59.5469 205.9844,59.5469 C205.7656,59.5469 205.5625,59.625 205.375,59.8125 C204.9219,60.2969 204.9219,60.2969 204.7344,60.3906 C204.3125,60.6563 203.625,60.7813 202.8594,60.7813 C200.8125,60.7813 199.5156,59.6875 199.5156,57.9844 L199.5156,56.8906 C199.5156,55.1094 200.7656,53.7969 202.5,53.7969 C203.0781,53.7969 203.6875,53.9531 204.1563,54.2031 C204.6406,54.4844 204.8125,54.7031 204.9063,55.1094 C204.9688,55.5156 205,55.6406 205.1406,55.7656 C205.2813,55.9063 205.5156,56.0156 205.7344,56.0156 C206,56.0156 206.2656,55.875 206.4375,55.6563 C206.5469,55.5 206.5781,55.3125 206.5781,54.8906 L206.5781,53.4688 C206.5781,53.0313 206.5625,52.9063 206.4688,52.75 C206.3125,52.4844 206.0313,52.3438 205.7344,52.3438 C205.4375,52.3438 205.2344,52.4375 205.0156,52.75 L204.8438,52.6719 Z " fill="#000000"/><text fill="#000000" font-family="sans-serif" font-size="12" lengthAdjust="spacing" textLength="145" x="216.5" y="61.1543">ShipOccupiedWarningUI</text><line style="stroke:#A80036;stroke-width:1.5;" x1="188.5" x2="363.5" y1="73" y2="73"/><line style="stroke:#A80036;stroke-width:1.5;" x1="188.5" x2="363.5" y1="81" y2="81"/><!--MD5=[14d2313cd536814320c55e6b3f5182c5]
class ShipOccupiedWarningController--><rect codeLine="11" fill="#FEFECE" filter="url(#ftfwwbo88zpx3)" height="60.8047" id="ShipOccupiedWarningController" style="stroke:#A80036;stroke-width:1.5;" width="459" x="46.5" y="164"/><ellipse cx="175.75" cy="180" fill="#ADD1B2" rx="11" ry="11" style="stroke:#A80036;stroke-width:1.0;"/><path d="M178.0938,175.6719 C177.1563,175.2344 176.5625,175.0938 175.6875,175.0938 C173.0625,175.0938 171.0625,177.1719 171.0625,179.8906 L171.0625,181.0156 C171.0625,183.5938 173.1719,185.4844 176.0625,185.4844 C177.2813,185.4844 178.4375,185.1875 179.1875,184.6406 C179.7656,184.2344 180.0938,183.7813 180.0938,183.3906 C180.0938,182.9375 179.7031,182.5469 179.2344,182.5469 C179.0156,182.5469 178.8125,182.625 178.625,182.8125 C178.1719,183.2969 178.1719,183.2969 177.9844,183.3906 C177.5625,183.6563 176.875,183.7813 176.1094,183.7813 C174.0625,183.7813 172.7656,182.6875 172.7656,180.9844 L172.7656,179.8906 C172.7656,178.1094 174.0156,176.7969 175.75,176.7969 C176.3281,176.7969 176.9375,176.9531 177.4063,177.2031 C177.8906,177.4844 178.0625,177.7031 178.1563,178.1094 C178.2188,178.5156 178.25,178.6406 178.3906,178.7656 C178.5313,178.9063 178.7656,179.0156 178.9844,179.0156 C179.25,179.0156 179.5156,178.875 179.6875,178.6563 C179.7969,178.5 179.8281,178.3125 179.8281,177.8906 L179.8281,176.4688 C179.8281,176.0313 179.8125,175.9063 179.7188,175.75 C179.5625,175.4844 179.2813,175.3438 178.9844,175.3438 C178.6875,175.3438 178.4844,175.4375 178.2656,175.75 L178.0938,175.6719 Z " fill="#000000"/><text fill="#000000" font-family="sans-serif" font-size="12" lengthAdjust="spacing" textLength="192" x="196.25" y="184.1543">ShipOccupiedWarningController</text><line style="stroke:#A80036;stroke-width:1.5;" x1="47.5" x2="504.5" y1="196" y2="196"/><line style="stroke:#A80036;stroke-width:1.5;" x1="47.5" x2="504.5" y1="204" y2="204"/><text fill="#000000" font-family="sans-serif" font-size="11" lengthAdjust="spacing" textLength="447" x="52.5" y="218.2104">+insertCargoManifestForShip(cargomanifestid, partialid, dateload, done, portid)</text><!--MD5=[69f2f3ad3645114d26612368d508f737]
class Printer--><rect codeLine="16" fill="#FEFECE" filter="url(#ftfwwbo88zpx3)" height="60.8047" id="Printer" style="stroke:#A80036;stroke-width:1.5;" width="70" x="32" y="300"/><ellipse cx="47" cy="316" fill="#ADD1B2" rx="11" ry="11" style="stroke:#A80036;stroke-width:1.0;"/><path d="M49.3438,311.6719 C48.4063,311.2344 47.8125,311.0938 46.9375,311.0938 C44.3125,311.0938 42.3125,313.1719 42.3125,315.8906 L42.3125,317.0156 C42.3125,319.5938 44.4219,321.4844 47.3125,321.4844 C48.5313,321.4844 49.6875,321.1875 50.4375,320.6406 C51.0156,320.2344 51.3438,319.7813 51.3438,319.3906 C51.3438,318.9375 50.9531,318.5469 50.4844,318.5469 C50.2656,318.5469 50.0625,318.625 49.875,318.8125 C49.4219,319.2969 49.4219,319.2969 49.2344,319.3906 C48.8125,319.6563 48.125,319.7813 47.3594,319.7813 C45.3125,319.7813 44.0156,318.6875 44.0156,316.9844 L44.0156,315.8906 C44.0156,314.1094 45.2656,312.7969 47,312.7969 C47.5781,312.7969 48.1875,312.9531 48.6563,313.2031 C49.1406,313.4844 49.3125,313.7031 49.4063,314.1094 C49.4688,314.5156 49.5,314.6406 49.6406,314.7656 C49.7813,314.9063 50.0156,315.0156 50.2344,315.0156 C50.5,315.0156 50.7656,314.875 50.9375,314.6563 C51.0469,314.5 51.0781,314.3125 51.0781,313.8906 L51.0781,312.4688 C51.0781,312.0313 51.0625,311.9063 50.9688,311.75 C50.8125,311.4844 50.5313,311.3438 50.2344,311.3438 C49.9375,311.3438 49.7344,311.4375 49.5156,311.75 L49.3438,311.6719 Z " fill="#000000"/><text fill="#000000" font-family="sans-serif" font-size="12" lengthAdjust="spacing" textLength="38" x="61" y="320.1543">Printer</text><line style="stroke:#A80036;stroke-width:1.5;" x1="33" x2="101" y1="332" y2="332"/><line style="stroke:#A80036;stroke-width:1.5;" x1="33" x2="101" y1="340" y2="340"/><text fill="#000000" font-family="sans-serif" font-size="11" lengthAdjust="spacing" textLength="42" x="38" y="354.2104">+print()</text><!--MD5=[76ba6d6a2647775d4443277c7a2e5ef7]
class ShipOccupiedWarning--><rect codeLine="21" fill="#FEFECE" filter="url(#ftfwwbo88zpx3)" height="60.8047" id="ShipOccupiedWarning" style="stroke:#A80036;stroke-width:1.5;" width="459" x="158.5" y="300"/><ellipse cx="317.25" cy="316" fill="#ADD1B2" rx="11" ry="11" style="stroke:#A80036;stroke-width:1.0;"/><path d="M319.5938,311.6719 C318.6563,311.2344 318.0625,311.0938 317.1875,311.0938 C314.5625,311.0938 312.5625,313.1719 312.5625,315.8906 L312.5625,317.0156 C312.5625,319.5938 314.6719,321.4844 317.5625,321.4844 C318.7813,321.4844 319.9375,321.1875 320.6875,320.6406 C321.2656,320.2344 321.5938,319.7813 321.5938,319.3906 C321.5938,318.9375 321.2031,318.5469 320.7344,318.5469 C320.5156,318.5469 320.3125,318.625 320.125,318.8125 C319.6719,319.2969 319.6719,319.2969 319.4844,319.3906 C319.0625,319.6563 318.375,319.7813 317.6094,319.7813 C315.5625,319.7813 314.2656,318.6875 314.2656,316.9844 L314.2656,315.8906 C314.2656,314.1094 315.5156,312.7969 317.25,312.7969 C317.8281,312.7969 318.4375,312.9531 318.9063,313.2031 C319.3906,313.4844 319.5625,313.7031 319.6563,314.1094 C319.7188,314.5156 319.75,314.6406 319.8906,314.7656 C320.0313,314.9063 320.2656,315.0156 320.4844,315.0156 C320.75,315.0156 321.0156,314.875 321.1875,314.6563 C321.2969,314.5 321.3281,314.3125 321.3281,313.8906 L321.3281,312.4688 C321.3281,312.0313 321.3125,311.9063 321.2188,311.75 C321.0625,311.4844 320.7813,311.3438 320.4844,311.3438 C320.1875,311.3438 319.9844,311.4375 319.7656,311.75 L319.5938,311.6719 Z " fill="#000000"/><text fill="#000000" font-family="sans-serif" font-size="12" lengthAdjust="spacing" textLength="133" x="337.75" y="320.1543">ShipOccupiedWarning</text><line style="stroke:#A80036;stroke-width:1.5;" x1="159.5" x2="616.5" y1="332" y2="332"/><line style="stroke:#A80036;stroke-width:1.5;" x1="159.5" x2="616.5" y1="340" y2="340"/><text fill="#000000" font-family="sans-serif" font-size="11" lengthAdjust="spacing" textLength="447" x="164.5" y="354.2104">+insertCargoManifestForShip(cargomanifestid, partialid, dateload, done, portid)</text><!--MD5=[8ca2ff6151a2ce139bfc858e8f2e9542]
link ShipOccupiedWarningUI to ShipOccupiedWarningController--><path codeLine="29" d="M276,89.089 C276,108.488 276,136.509 276,158.639 " fill="none" id="ShipOccupiedWarningUI-to-ShipOccupiedWarningController" style="stroke:#A80036;stroke-width:1.0;stroke-dasharray:7.0,7.0;"/><polygon fill="#A80036" points="276,163.841,280,154.841,276,158.841,272,154.841,276,163.841" style="stroke:#A80036;stroke-width:1.0;"/><!--MD5=[75262b2bb09cd5f7f713334419ac423b]
link ShipOccupiedWarningController to Printer--><path codeLine="30" d="M199.857,225.055 C180.284,234.08 159.754,244.871 142,257 C125.735,268.112 109.751,282.871 96.7468,296.17 " fill="none" id="ShipOccupiedWarningController-to-Printer" style="stroke:#A80036;stroke-width:1.0;stroke-dasharray:7.0,7.0;"/><polygon fill="#A80036" points="93.16,299.8782,102.2923,296.1901,96.6362,296.2843,96.542,290.6282,93.16,299.8782" style="stroke:#A80036;stroke-width:1.0;"/><!--MD5=[10c8210c48161c966f781f2ccbd4b59b]
link ShipOccupiedWarningController to ShipOccupiedWarning--><path codeLine="31" d="M300.856,225.239 C318.329,246.144 341.733,274.145 359.887,295.8648 " fill="none" id="ShipOccupiedWarningController-to-ShipOccupiedWarning" style="stroke:#A80036;stroke-width:1.0;stroke-dasharray:7.0,7.0;"/><polygon fill="#A80036" points="363.213,299.8442,360.5095,290.3737,360.0061,296.0081,354.3717,295.5047,363.213,299.8442" style="stroke:#A80036;stroke-width:1.0;"/><!--MD5=[445527ac8e571b809cba727f3c8159e2]
@startuml
'https://plantuml.com/class-diagram

skinparam classAttributeIconSize 0

package "ui" {
class ShipOccupiedWarningUI{
}
}

package "controllers" {
class ShipOccupiedWarningController{
+insertCargoManifestForShip(cargomanifestid, partialid, dateload, done, portid)
}
}
package utils{
class Printer{
+print()
}
}
package data{
class ShipOccupiedWarning{
+insertCargoManifestForShip(cargomanifestid, partialid, dateload, done, portid)
}
}




ShipOccupiedWarningUI ..> ShipOccupiedWarningController
ShipOccupiedWarningController ..> Printer
ShipOccupiedWarningController ..> ShipOccupiedWarning
@enduml

@startuml

skinparam classAttributeIconSize 0

package "ui" {
class ShipOccupiedWarningUI{
}
}

package "controllers" {
class ShipOccupiedWarningController{
+insertCargoManifestForShip(cargomanifestid, partialid, dateload, done, portid)
}
}
package utils{
class Printer{
+print()
}
}
package data{
class ShipOccupiedWarning{
+insertCargoManifestForShip(cargomanifestid, partialid, dateload, done, portid)
}
}




ShipOccupiedWarningUI ..> ShipOccupiedWarningController
ShipOccupiedWarningController ..> Printer
ShipOccupiedWarningController ..> ShipOccupiedWarning
@enduml

PlantUML version 1.2021.17beta4(Unknown compile time)
(GPL source distribution)
Java Runtime: Java(TM) SE Runtime Environment
JVM: Java HotSpot(TM) 64-Bit Server VM
Default Encoding: UTF-8
Language: en
Country: US
--></g></svg>