<?xml version="1.0" encoding="UTF-8" standalone="no"?><svg xmlns="http://www.w3.org/2000/svg" xmlns:xlink="http://www.w3.org/1999/xlink" contentScriptType="application/ecmascript" contentStyleType="text/css" height="384px" preserveAspectRatio="none" style="width:657px;height:384px;background:#FFFFFF;" version="1.1" viewBox="0 0 657 384" width="657px" zoomAndPan="magnify"><defs><filter height="300%" id="f1oe8ou40u7cz" width="300%" x="-1" y="-1"><feGaussianBlur result="blurOut" stdDeviation="2.0"/><feColorMatrix in="blurOut" result="blurOut2" type="matrix" values="0 0 0 0 0 0 0 0 0 0 0 0 0 0 0 0 0 0 .4 0"/><feOffset dx="4.0" dy="4.0" in="blurOut2" result="blurOut3"/><feBlend in="SourceGraphic" in2="blurOut3" mode="normal"/></filter></defs><g><!--MD5=[64e2e010ba86d7988e5cd73bd64f61f9]
cluster ui--><polygon fill="#FFFFFF" filter="url(#f1oe8ou40u7cz)" points="159,6,180,6,187,28.2969,397,28.2969,397,105,159,105,159,6" style="stroke:#000000;stroke-width:1.5;"/><line style="stroke:#000000;stroke-width:1.5;" x1="159" x2="187" y1="28.2969" y2="28.2969"/><text fill="#000000" font-family="sans-serif" font-size="14" font-weight="bold" lengthAdjust="spacing" textLength="15" x="163" y="20.9951">ui</text><!--MD5=[f4e70ef68289585296b9045165e58692]
cluster controllers--><polygon fill="#FFFFFF" filter="url(#f1oe8ou40u7cz)" points="29,129,124,129,131,151.2969,527,151.2969,527,241,29,241,29,129" style="stroke:#000000;stroke-width:1.5;"/><line style="stroke:#000000;stroke-width:1.5;" x1="29" x2="131" y1="151.2969" y2="151.2969"/><text fill="#000000" font-family="sans-serif" font-size="14" font-weight="bold" lengthAdjust="spacing" textLength="89" x="33" y="143.9951">controllers</text><!--MD5=[c52f45833d539af9e29a9d34b8b7302b]
cluster utils--><polygon fill="#FFFFFF" filter="url(#f1oe8ou40u7cz)" points="16,265,59,265,66,287.2969,118,287.2969,118,377,16,377,16,265" style="stroke:#000000;stroke-width:1.5;"/><line style="stroke:#000000;stroke-width:1.5;" x1="16" x2="66" y1="287.2969" y2="287.2969"/><text fill="#000000" font-family="sans-serif" font-size="14" font-weight="bold" lengthAdjust="spacing" textLength="37" x="20" y="279.9951">utils</text><!--MD5=[dce4c2b5694dd28223e7b1d160ba96c4]
cluster data--><polygon fill="#FFFFFF" filter="url(#f1oe8ou40u7cz)" points="142,265,186,265,193,287.2969,640,287.2969,640,377,142,377,142,265" style="stroke:#000000;stroke-width:1.5;"/><line style="stroke:#000000;stroke-width:1.5;" x1="142" x2="193" y1="287.2969" y2="287.2969"/><text fill="#000000" font-family="sans-serif" font-size="14" font-weight="bold" lengthAdjust="spacing" textLength="38" x="146" y="279.9951">data</text><!--MD5=[9848351e5c158c8df0a05cd9533875e8]
class ContainerSituationWarmingUI--><rect codeLine="6" fill="#FEFECE" filter="url(#f1oe8ou40u7cz)" height="48" id="ContainerSituationWarmingUI" style="stroke:#A80036;stroke-width:1.5;" width="205" x="175.5" y="41"/><ellipse cx="190.5" cy="57" fill="#ADD1B2" rx="11" ry="11" style="stroke:#A80036;stroke-width:1.0;"/><path d="M192.8438,52.6719 C191.9063,52.2344 191.3125,52.0938 190.4375,52.0938 C187.8125,52.0938 185.8125,54.1719 185.8125,56.8906 L185.8125,58.0156 C185.8125,60.5938 187.9219,62.4844 190.8125,62.4844 C192.0313,62.4844 193.1875,62.1875 193.9375,61.6406 C194.5156,61.2344 194.8438,60.7813 194.8438,60.3906 C194.8438,59.9375 194.4531,59.5469 193.9844,59.5469 C193.7656,59.5469 193.5625,59.625 193.375,59.8125 C192.9219,60.2969 192.9219,60.2969 192.7344,60.3906 C192.3125,60.6563 191.625,60.7813 190.8594,60.7813 C188.8125,60.7813 187.5156,59.6875 187.5156,57.9844 L187.5156,56.8906 C187.5156,55.1094 188.7656,53.7969 190.5,53.7969 C191.0781,53.7969 191.6875,53.9531 192.1563,54.2031 C192.6406,54.4844 192.8125,54.7031 192.9063,55.1094 C192.9688,55.5156 193,55.6406 193.1406,55.7656 C193.2813,55.9063 193.5156,56.0156 193.7344,56.0156 C194,56.0156 194.2656,55.875 194.4375,55.6563 C194.5469,55.5 194.5781,55.3125 194.5781,54.8906 L194.5781,53.4688 C194.5781,53.0313 194.5625,52.9063 194.4688,52.75 C194.3125,52.4844 194.0313,52.3438 193.7344,52.3438 C193.4375,52.3438 193.2344,52.4375 193.0156,52.75 L192.8438,52.6719 Z " fill="#000000"/><text fill="#000000" font-family="sans-serif" font-size="12" lengthAdjust="spacing" textLength="173" x="204.5" y="61.1543">ContainerSituationWarmingUI</text><line style="stroke:#A80036;stroke-width:1.5;" x1="176.5" x2="379.5" y1="73" y2="73"/><line style="stroke:#A80036;stroke-width:1.5;" x1="176.5" x2="379.5" y1="81" y2="81"/><!--MD5=[a40224a486f9c11c090e45bdfa7fd375]
class ContainerSituationWarmingController--><rect codeLine="11" fill="#FEFECE" filter="url(#f1oe8ou40u7cz)" height="60.8047" id="ContainerSituationWarmingController" style="stroke:#A80036;stroke-width:1.5;" width="465" x="45.5" y="164"/><ellipse cx="163.75" cy="180" fill="#ADD1B2" rx="11" ry="11" style="stroke:#A80036;stroke-width:1.0;"/><path d="M166.0938,175.6719 C165.1563,175.2344 164.5625,175.0938 163.6875,175.0938 C161.0625,175.0938 159.0625,177.1719 159.0625,179.8906 L159.0625,181.0156 C159.0625,183.5938 161.1719,185.4844 164.0625,185.4844 C165.2813,185.4844 166.4375,185.1875 167.1875,184.6406 C167.7656,184.2344 168.0938,183.7813 168.0938,183.3906 C168.0938,182.9375 167.7031,182.5469 167.2344,182.5469 C167.0156,182.5469 166.8125,182.625 166.625,182.8125 C166.1719,183.2969 166.1719,183.2969 165.9844,183.3906 C165.5625,183.6563 164.875,183.7813 164.1094,183.7813 C162.0625,183.7813 160.7656,182.6875 160.7656,180.9844 L160.7656,179.8906 C160.7656,178.1094 162.0156,176.7969 163.75,176.7969 C164.3281,176.7969 164.9375,176.9531 165.4063,177.2031 C165.8906,177.4844 166.0625,177.7031 166.1563,178.1094 C166.2188,178.5156 166.25,178.6406 166.3906,178.7656 C166.5313,178.9063 166.7656,179.0156 166.9844,179.0156 C167.25,179.0156 167.5156,178.875 167.6875,178.6563 C167.7969,178.5 167.8281,178.3125 167.8281,177.8906 L167.8281,176.4688 C167.8281,176.0313 167.8125,175.9063 167.7188,175.75 C167.5625,175.4844 167.2813,175.3438 166.9844,175.3438 C166.6875,175.3438 166.4844,175.4375 166.2656,175.75 L166.0938,175.6719 Z " fill="#000000"/><text fill="#000000" font-family="sans-serif" font-size="12" lengthAdjust="spacing" textLength="220" x="184.25" y="184.1543">ContainerSituationWarmingController</text><line style="stroke:#A80036;stroke-width:1.5;" x1="46.5" x2="509.5" y1="196" y2="196"/><line style="stroke:#A80036;stroke-width:1.5;" x1="46.5" x2="509.5" y1="204" y2="204"/><text fill="#000000" font-family="sans-serif" font-size="11" lengthAdjust="spacing" textLength="453" x="51.5" y="218.2104">+getContainerSituation(ContainerNumber,ContainerISOCode, RegistrationCode)</text><!--MD5=[69f2f3ad3645114d26612368d508f737]
class Printer--><rect codeLine="16" fill="#FEFECE" filter="url(#f1oe8ou40u7cz)" height="60.8047" id="Printer" style="stroke:#A80036;stroke-width:1.5;" width="70" x="32" y="300"/><ellipse cx="47" cy="316" fill="#ADD1B2" rx="11" ry="11" style="stroke:#A80036;stroke-width:1.0;"/><path d="M49.3438,311.6719 C48.4063,311.2344 47.8125,311.0938 46.9375,311.0938 C44.3125,311.0938 42.3125,313.1719 42.3125,315.8906 L42.3125,317.0156 C42.3125,319.5938 44.4219,321.4844 47.3125,321.4844 C48.5313,321.4844 49.6875,321.1875 50.4375,320.6406 C51.0156,320.2344 51.3438,319.7813 51.3438,319.3906 C51.3438,318.9375 50.9531,318.5469 50.4844,318.5469 C50.2656,318.5469 50.0625,318.625 49.875,318.8125 C49.4219,319.2969 49.4219,319.2969 49.2344,319.3906 C48.8125,319.6563 48.125,319.7813 47.3594,319.7813 C45.3125,319.7813 44.0156,318.6875 44.0156,316.9844 L44.0156,315.8906 C44.0156,314.1094 45.2656,312.7969 47,312.7969 C47.5781,312.7969 48.1875,312.9531 48.6563,313.2031 C49.1406,313.4844 49.3125,313.7031 49.4063,314.1094 C49.4688,314.5156 49.5,314.6406 49.6406,314.7656 C49.7813,314.9063 50.0156,315.0156 50.2344,315.0156 C50.5,315.0156 50.7656,314.875 50.9375,314.6563 C51.0469,314.5 51.0781,314.3125 51.0781,313.8906 L51.0781,312.4688 C51.0781,312.0313 51.0625,311.9063 50.9688,311.75 C50.8125,311.4844 50.5313,311.3438 50.2344,311.3438 C49.9375,311.3438 49.7344,311.4375 49.5156,311.75 L49.3438,311.6719 Z " fill="#000000"/><text fill="#000000" font-family="sans-serif" font-size="12" lengthAdjust="spacing" textLength="38" x="61" y="320.1543">Printer</text><line style="stroke:#A80036;stroke-width:1.5;" x1="33" x2="101" y1="332" y2="332"/><line style="stroke:#A80036;stroke-width:1.5;" x1="33" x2="101" y1="340" y2="340"/><text fill="#000000" font-family="sans-serif" font-size="11" lengthAdjust="spacing" textLength="42" x="38" y="354.2104">+print()</text><!--MD5=[2058c34ba3a43eeac0a5855e092ea4c8]
class ContainerSituationWarming--><rect codeLine="21" fill="#FEFECE" filter="url(#f1oe8ou40u7cz)" height="60.8047" id="ContainerSituationWarming" style="stroke:#A80036;stroke-width:1.5;" width="465" x="158.5" y="300"/><ellipse cx="306.25" cy="316" fill="#ADD1B2" rx="11" ry="11" style="stroke:#A80036;stroke-width:1.0;"/><path d="M308.5938,311.6719 C307.6563,311.2344 307.0625,311.0938 306.1875,311.0938 C303.5625,311.0938 301.5625,313.1719 301.5625,315.8906 L301.5625,317.0156 C301.5625,319.5938 303.6719,321.4844 306.5625,321.4844 C307.7813,321.4844 308.9375,321.1875 309.6875,320.6406 C310.2656,320.2344 310.5938,319.7813 310.5938,319.3906 C310.5938,318.9375 310.2031,318.5469 309.7344,318.5469 C309.5156,318.5469 309.3125,318.625 309.125,318.8125 C308.6719,319.2969 308.6719,319.2969 308.4844,319.3906 C308.0625,319.6563 307.375,319.7813 306.6094,319.7813 C304.5625,319.7813 303.2656,318.6875 303.2656,316.9844 L303.2656,315.8906 C303.2656,314.1094 304.5156,312.7969 306.25,312.7969 C306.8281,312.7969 307.4375,312.9531 307.9063,313.2031 C308.3906,313.4844 308.5625,313.7031 308.6563,314.1094 C308.7188,314.5156 308.75,314.6406 308.8906,314.7656 C309.0313,314.9063 309.2656,315.0156 309.4844,315.0156 C309.75,315.0156 310.0156,314.875 310.1875,314.6563 C310.2969,314.5 310.3281,314.3125 310.3281,313.8906 L310.3281,312.4688 C310.3281,312.0313 310.3125,311.9063 310.2188,311.75 C310.0625,311.4844 309.7813,311.3438 309.4844,311.3438 C309.1875,311.3438 308.9844,311.4375 308.7656,311.75 L308.5938,311.6719 Z " fill="#000000"/><text fill="#000000" font-family="sans-serif" font-size="12" lengthAdjust="spacing" textLength="161" x="326.75" y="320.1543">ContainerSituationWarming</text><line style="stroke:#A80036;stroke-width:1.5;" x1="159.5" x2="622.5" y1="332" y2="332"/><line style="stroke:#A80036;stroke-width:1.5;" x1="159.5" x2="622.5" y1="340" y2="340"/><text fill="#000000" font-family="sans-serif" font-size="11" lengthAdjust="spacing" textLength="453" x="164.5" y="354.2104">+getContainerSituation(ContainerNumber,ContainerISOCode, RegistrationCode)</text><!--MD5=[0e9d4f9dd382a26620aea27685a98635]
link ContainerSituationWarmingUI to ContainerSituationWarmingController--><path codeLine="29" d="M278,89.089 C278,108.488 278,136.509 278,158.639 " fill="none" id="ContainerSituationWarmingUI-to-ContainerSituationWarmingController" style="stroke:#A80036;stroke-width:1.0;stroke-dasharray:7.0,7.0;"/><polygon fill="#A80036" points="278,163.841,282,154.841,278,158.841,274,154.841,278,163.841" style="stroke:#A80036;stroke-width:1.0;"/><!--MD5=[3af2c5ef18e7b4ff8f14ccef5bc57bd0]
link ContainerSituationWarmingController to Printer--><path codeLine="30" d="M200.35,225.081 C180.592,234.075 159.9,244.844 142,257 C125.704,268.067 109.716,282.818 96.716,296.1249 " fill="none" id="ContainerSituationWarmingController-to-Printer" style="stroke:#A80036;stroke-width:1.0;stroke-dasharray:7.0,7.0;"/><polygon fill="#A80036" points="93.1309,299.8355,102.2611,296.1424,96.6051,296.2397,96.5079,290.5837,93.1309,299.8355" style="stroke:#A80036;stroke-width:1.0;"/><!--MD5=[714e3057e1cc2ffa47b88ec779e02533]
link ContainerSituationWarmingController to ContainerSituationWarming--><path codeLine="31" d="M303.078,225.239 C320.707,246.144 344.32,274.145 362.636,295.8648 " fill="none" id="ContainerSituationWarmingController-to-ContainerSituationWarming" style="stroke:#A80036;stroke-width:1.0;stroke-dasharray:7.0,7.0;"/><polygon fill="#A80036" points="365.992,299.8442,363.2468,290.3857,362.7683,296.0222,357.1317,295.5436,365.992,299.8442" style="stroke:#A80036;stroke-width:1.0;"/><!--MD5=[3151a0804202a0473e11686f7f0df4e7]
@startuml
'https://plantuml.com/class-diagram

skinparam classAttributeIconSize 0

package "ui" {
class ContainerSituationWarmingUI{
}
}

package "controllers" {
class ContainerSituationWarmingController{
+getContainerSituation(ContainerNumber,ContainerISOCode, RegistrationCode)
}
}
package utils{
class Printer{
+print()
}
}
package data{
class ContainerSituationWarming{
+getContainerSituation(ContainerNumber,ContainerISOCode, RegistrationCode)
}
}




ContainerSituationWarmingUI ..> ContainerSituationWarmingController
ContainerSituationWarmingController ..> Printer
ContainerSituationWarmingController ..> ContainerSituationWarming
@enduml

@startuml

skinparam classAttributeIconSize 0

package "ui" {
class ContainerSituationWarmingUI{
}
}

package "controllers" {
class ContainerSituationWarmingController{
+getContainerSituation(ContainerNumber,ContainerISOCode, RegistrationCode)
}
}
package utils{
class Printer{
+print()
}
}
package data{
class ContainerSituationWarming{
+getContainerSituation(ContainerNumber,ContainerISOCode, RegistrationCode)
}
}




ContainerSituationWarmingUI ..> ContainerSituationWarmingController
ContainerSituationWarmingController ..> Printer
ContainerSituationWarmingController ..> ContainerSituationWarming
@enduml

PlantUML version 1.2021.17beta4(Unknown compile time)
(GPL source distribution)
Java Runtime: Java(TM) SE Runtime Environment
JVM: Java HotSpot(TM) 64-Bit Server VM
Default Encoding: UTF-8
Language: en
Country: US
--></g></svg>