<?xml version="1.0" encoding="UTF-8" standalone="no"?><svg xmlns="http://www.w3.org/2000/svg" xmlns:xlink="http://www.w3.org/1999/xlink" contentScriptType="application/ecmascript" contentStyleType="text/css" height="481.25px" preserveAspectRatio="none" style="width:1207px;height:481px;" version="1.1" viewBox="0 0 1207 481" width="1207.5px" zoomAndPan="magnify"><defs><filter height="300%" id="f77w4a3wfqeey" width="300%" x="-1" y="-1"><feGaussianBlur result="blurOut" stdDeviation="2.5"/><feColorMatrix in="blurOut" result="blurOut2" type="matrix" values="0 0 0 0 0 0 0 0 0 0 0 0 0 0 0 0 0 0 .4 0"/><feOffset dx="5.0" dy="5.0" in="blurOut2" result="blurOut3"/><feBlend in="SourceGraphic" in2="blurOut3" mode="normal"/></filter></defs><g><!--MD5=[02e4b9b7573f1156f41e60aa5b4e25a4]
class Company--><rect codeLine="6" fill="#FEFECE" filter="url(#f77w4a3wfqeey)" height="50" id="Company" style="stroke:#A80036;stroke-width:1.875;" width="106.25" x="306.875" y="76.875"/><ellipse cx="325.625" cy="96.875" fill="#ADD1B2" rx="13.75" ry="13.75" style="stroke:#A80036;stroke-width:1.25;"/><path d="M328.125,92.5 Q328.3789,91.875 328.6719,91.5625 Q328.9648,91.25 329.2969,91.25 Q329.8828,91.25 330.2539,91.6016 Q330.625,91.9531 330.625,92.7734 L330.625,94.7266 Q330.625,95.5469 330.2734,95.8984 Q329.9219,96.25 329.375,96.25 Q328.8867,96.25 328.5742,96.0352 Q328.2617,95.8203 328.125,95.2539 Q328.0664,94.8633 327.8516,94.6484 Q327.4609,94.2383 326.7578,94.0039 Q326.0547,93.75 325.3516,93.75 Q324.4727,93.75 323.7305,94.1016 Q323.0078,94.4531 322.4414,95.2344 Q321.875,96.0156 321.875,97.0898 L321.875,98.2422 Q321.875,99.5313 322.9297,100.3906 Q323.9844,101.25 325.8594,101.25 Q326.9727,101.25 327.7539,100.9961 Q328.2031,100.8594 328.7109,100.4102 Q329.043,100.1563 329.2188,100.0781 Q329.3945,100 329.6094,100 Q330.0195,100 330.3125,100.332 Q330.625,100.6445 330.625,101.0938 Q330.625,101.5234 330.1953,102.0313 Q329.5703,102.7734 328.5742,103.1836 Q327.2656,103.75 325.6641,103.75 Q323.7891,103.75 322.2852,103.0078 Q321.0742,102.4219 320.2148,101.1523 Q319.375,99.8828 319.375,98.3789 L319.375,97.0117 Q319.375,95.4492 320.1172,94.082 Q320.8789,92.7148 322.1875,91.9922 Q323.5156,91.25 325,91.25 Q325.8984,91.25 326.6797,91.5625 Q327.4609,91.875 328.125,92.5 Z " fill="#000000"/><text fill="#000000" font-family="sans-serif" font-size="15" lengthAdjust="spacing" textLength="66.25" x="343.125" y="103.0127">Company</text><line style="stroke:#A80036;stroke-width:1.875;" x1="308.125" x2="411.875" y1="116.875" y2="116.875"/><!--MD5=[0dc7f2ddb409b58bcf52b12238c25399]
class Ship--><rect codeLine="10" fill="#FEFECE" filter="url(#f77w4a3wfqeey)" height="188.3594" id="Ship" style="stroke:#A80036;stroke-width:1.875;" width="71.25" x="847.5" y="40"/><ellipse cx="866.25" cy="60" fill="#ADD1B2" rx="13.75" ry="13.75" style="stroke:#A80036;stroke-width:1.25;"/><path d="M868.75,55.625 Q869.0039,55 869.2969,54.6875 Q869.5898,54.375 869.9219,54.375 Q870.5078,54.375 870.8789,54.7266 Q871.25,55.0781 871.25,55.8984 L871.25,57.8516 Q871.25,58.6719 870.8984,59.0234 Q870.5469,59.375 870,59.375 Q869.5117,59.375 869.1992,59.1602 Q868.8867,58.9453 868.75,58.3789 Q868.6914,57.9883 868.4766,57.7734 Q868.0859,57.3633 867.3828,57.1289 Q866.6797,56.875 865.9766,56.875 Q865.0977,56.875 864.3555,57.2266 Q863.6328,57.5781 863.0664,58.3594 Q862.5,59.1406 862.5,60.2148 L862.5,61.3672 Q862.5,62.6563 863.5547,63.5156 Q864.6094,64.375 866.4844,64.375 Q867.5977,64.375 868.3789,64.1211 Q868.8281,63.9844 869.3359,63.5352 Q869.668,63.2813 869.8438,63.2031 Q870.0195,63.125 870.2344,63.125 Q870.6445,63.125 870.9375,63.457 Q871.25,63.7695 871.25,64.2188 Q871.25,64.6484 870.8203,65.1563 Q870.1953,65.8984 869.1992,66.3086 Q867.8906,66.875 866.2891,66.875 Q864.4141,66.875 862.9102,66.1328 Q861.6992,65.5469 860.8398,64.2773 Q860,63.0078 860,61.5039 L860,60.1367 Q860,58.5742 860.7422,57.207 Q861.5039,55.8398 862.8125,55.1172 Q864.1406,54.375 865.625,54.375 Q866.5234,54.375 867.3047,54.6875 Q868.0859,55 868.75,55.625 Z " fill="#000000"/><text fill="#000000" font-family="sans-serif" font-size="15" lengthAdjust="spacing" textLength="31.25" x="883.75" y="66.1377">Ship</text><line style="stroke:#A80036;stroke-width:1.875;" x1="848.75" x2="917.5" y1="80" y2="80"/><text fill="#000000" font-family="sans-serif" font-size="13.75" lengthAdjust="spacing" textLength="36.25" x="855" y="99.2737">-MMSI</text><text fill="#000000" font-family="sans-serif" font-size="13.75" lengthAdjust="spacing" textLength="37.5" x="855" y="116.5686">-name</text><text fill="#000000" font-family="sans-serif" font-size="13.75" lengthAdjust="spacing" textLength="27.5" x="855" y="133.8635">-IMO</text><text fill="#000000" font-family="sans-serif" font-size="13.75" lengthAdjust="spacing" textLength="50" x="855" y="151.1584">-callsign</text><text fill="#000000" font-family="sans-serif" font-size="13.75" lengthAdjust="spacing" textLength="31.25" x="855" y="168.4534">-type</text><text fill="#000000" font-family="sans-serif" font-size="13.75" lengthAdjust="spacing" textLength="41.25" x="855" y="185.7483">-length</text><text fill="#000000" font-family="sans-serif" font-size="13.75" lengthAdjust="spacing" textLength="38.75" x="855" y="203.0432">-width</text><text fill="#000000" font-family="sans-serif" font-size="13.75" lengthAdjust="spacing" textLength="33.75" x="855" y="220.3381">-draft</text><!--MD5=[a3093aa9f96b7df9aab31d8715601ff6]
class Containers--><rect codeLine="21" fill="#FEFECE" filter="url(#f77w4a3wfqeey)" height="205.6543" id="Containers" style="stroke:#A80036;stroke-width:1.875;" width="151.25" x="1038.75" y="258.75"/><ellipse cx="1073.25" cy="278.75" fill="#ADD1B2" rx="13.75" ry="13.75" style="stroke:#A80036;stroke-width:1.25;"/><path d="M1075.75,274.375 Q1076.0039,273.75 1076.2969,273.4375 Q1076.5898,273.125 1076.9219,273.125 Q1077.5078,273.125 1077.8789,273.4766 Q1078.25,273.8281 1078.25,274.6484 L1078.25,276.6016 Q1078.25,277.4219 1077.8984,277.7734 Q1077.5469,278.125 1077,278.125 Q1076.5117,278.125 1076.1992,277.9102 Q1075.8867,277.6953 1075.75,277.1289 Q1075.6914,276.7383 1075.4766,276.5234 Q1075.0859,276.1133 1074.3828,275.8789 Q1073.6797,275.625 1072.9766,275.625 Q1072.0977,275.625 1071.3555,275.9766 Q1070.6328,276.3281 1070.0664,277.1094 Q1069.5,277.8906 1069.5,278.9648 L1069.5,280.1172 Q1069.5,281.4063 1070.5547,282.2656 Q1071.6094,283.125 1073.4844,283.125 Q1074.5977,283.125 1075.3789,282.8711 Q1075.8281,282.7344 1076.3359,282.2852 Q1076.668,282.0313 1076.8438,281.9531 Q1077.0195,281.875 1077.2344,281.875 Q1077.6445,281.875 1077.9375,282.207 Q1078.25,282.5195 1078.25,282.9688 Q1078.25,283.3984 1077.8203,283.9063 Q1077.1953,284.6484 1076.1992,285.0586 Q1074.8906,285.625 1073.2891,285.625 Q1071.4141,285.625 1069.9102,284.8828 Q1068.6992,284.2969 1067.8398,283.0273 Q1067,281.7578 1067,280.2539 L1067,278.8867 Q1067,277.3242 1067.7422,275.957 Q1068.5039,274.5898 1069.8125,273.8672 Q1071.1406,273.125 1072.625,273.125 Q1073.5234,273.125 1074.3047,273.4375 Q1075.0859,273.75 1075.75,274.375 Z " fill="#000000"/><text fill="#000000" font-family="sans-serif" font-size="15" lengthAdjust="spacing" textLength="76.25" x="1094.25" y="284.8877">Containers</text><line style="stroke:#A80036;stroke-width:1.875;" x1="1040" x2="1188.75" y1="298.75" y2="298.75"/><text fill="#000000" font-family="sans-serif" font-size="13.75" lengthAdjust="spacing" textLength="108.75" x="1046.25" y="318.0237">-ContainerNumber</text><text fill="#000000" font-family="sans-serif" font-size="13.75" lengthAdjust="spacing" textLength="57.5" x="1046.25" y="335.3186">-ISOCode</text><text fill="#000000" font-family="sans-serif" font-size="13.75" lengthAdjust="spacing" textLength="71.25" x="1046.25" y="352.6135">-MaxWeight</text><text fill="#000000" font-family="sans-serif" font-size="13.75" lengthAdjust="spacing" textLength="103.75" x="1046.25" y="369.9084">-ContainerWeight</text><text fill="#000000" font-family="sans-serif" font-size="13.75" lengthAdjust="spacing" textLength="115" x="1046.25" y="387.2034">-MaxWeightPacked</text><text fill="#000000" font-family="sans-serif" font-size="13.75" lengthAdjust="spacing" textLength="118.75" x="1046.25" y="404.4983">-MaxVolumePacked</text><text fill="#000000" font-family="sans-serif" font-size="13.75" lengthAdjust="spacing" textLength="73.75" x="1046.25" y="421.7932">-Certificates</text><text fill="#000000" font-family="sans-serif" font-size="13.75" lengthAdjust="spacing" textLength="136.25" x="1046.25" y="439.0881">-RepairRecomendation</text><text fill="#000000" font-family="sans-serif" font-size="13.75" lengthAdjust="spacing" textLength="81.25" x="1046.25" y="456.3831">-Temperature</text><!--MD5=[1c0c3765e68dc4575d559b566278b914]
class ShipPosition--><rect codeLine="33" fill="#FEFECE" filter="url(#f77w4a3wfqeey)" height="205.6543" id="ShipPosition" style="stroke:#A80036;stroke-width:1.875;" width="127.5" x="1050.625" y="8.75"/><ellipse cx="1069.375" cy="28.75" fill="#ADD1B2" rx="13.75" ry="13.75" style="stroke:#A80036;stroke-width:1.25;"/><path d="M1071.875,24.375 Q1072.1289,23.75 1072.4219,23.4375 Q1072.7148,23.125 1073.0469,23.125 Q1073.6328,23.125 1074.0039,23.4766 Q1074.375,23.8281 1074.375,24.6484 L1074.375,26.6016 Q1074.375,27.4219 1074.0234,27.7734 Q1073.6719,28.125 1073.125,28.125 Q1072.6367,28.125 1072.3242,27.9102 Q1072.0117,27.6953 1071.875,27.1289 Q1071.8164,26.7383 1071.6016,26.5234 Q1071.2109,26.1133 1070.5078,25.8789 Q1069.8047,25.625 1069.1016,25.625 Q1068.2227,25.625 1067.4805,25.9766 Q1066.7578,26.3281 1066.1914,27.1094 Q1065.625,27.8906 1065.625,28.9648 L1065.625,30.1172 Q1065.625,31.4063 1066.6797,32.2656 Q1067.7344,33.125 1069.6094,33.125 Q1070.7227,33.125 1071.5039,32.8711 Q1071.9531,32.7344 1072.4609,32.2852 Q1072.793,32.0313 1072.9688,31.9531 Q1073.1445,31.875 1073.3594,31.875 Q1073.7695,31.875 1074.0625,32.207 Q1074.375,32.5195 1074.375,32.9688 Q1074.375,33.3984 1073.9453,33.9063 Q1073.3203,34.6484 1072.3242,35.0586 Q1071.0156,35.625 1069.4141,35.625 Q1067.5391,35.625 1066.0352,34.8828 Q1064.8242,34.2969 1063.9648,33.0273 Q1063.125,31.7578 1063.125,30.2539 L1063.125,28.8867 Q1063.125,27.3242 1063.8672,25.957 Q1064.6289,24.5898 1065.9375,23.8672 Q1067.2656,23.125 1068.75,23.125 Q1069.6484,23.125 1070.4297,23.4375 Q1071.2109,23.75 1071.875,24.375 Z " fill="#000000"/><text fill="#000000" font-family="sans-serif" font-size="15" lengthAdjust="spacing" textLength="87.5" x="1086.875" y="34.8877">ShipPosition</text><line style="stroke:#A80036;stroke-width:1.875;" x1="1051.875" x2="1176.875" y1="48.75" y2="48.75"/><text fill="#000000" font-family="sans-serif" font-size="13.75" lengthAdjust="spacing" textLength="61.25" x="1058.125" y="68.0237">-shipMMSI</text><text fill="#000000" font-family="sans-serif" font-size="13.75" lengthAdjust="spacing" textLength="31.25" x="1058.125" y="85.3186">-date</text><text fill="#000000" font-family="sans-serif" font-size="13.75" lengthAdjust="spacing" textLength="47.5" x="1058.125" y="102.6135">-latitude</text><text fill="#000000" font-family="sans-serif" font-size="13.75" lengthAdjust="spacing" textLength="58.75" x="1058.125" y="119.9084">-longitude</text><text fill="#000000" font-family="sans-serif" font-size="13.75" lengthAdjust="spacing" textLength="27.5" x="1058.125" y="137.2034">-sog</text><text fill="#000000" font-family="sans-serif" font-size="13.75" lengthAdjust="spacing" textLength="27.5" x="1058.125" y="154.4983">-cog</text><text fill="#000000" font-family="sans-serif" font-size="13.75" lengthAdjust="spacing" textLength="52.5" x="1058.125" y="171.7932">-heading</text><text fill="#000000" font-family="sans-serif" font-size="13.75" lengthAdjust="spacing" textLength="40" x="1058.125" y="189.0881">-cargo</text><text fill="#000000" font-family="sans-serif" font-size="13.75" lengthAdjust="spacing" textLength="73.75" x="1058.125" y="206.3831">-transciever</text><!--MD5=[a0bfe97ac0a38e6e74cc1c7c7b744b71]
class Port--><rect codeLine="45" fill="#FEFECE" filter="url(#f77w4a3wfqeey)" height="153.7695" id="Port" style="stroke:#A80036;stroke-width:1.875;" width="75" x="621.25" y="178.75"/><ellipse cx="643.375" cy="198.75" fill="#ADD1B2" rx="13.75" ry="13.75" style="stroke:#A80036;stroke-width:1.25;"/><path d="M645.875,194.375 Q646.1289,193.75 646.4219,193.4375 Q646.7148,193.125 647.0469,193.125 Q647.6328,193.125 648.0039,193.4766 Q648.375,193.8281 648.375,194.6484 L648.375,196.6016 Q648.375,197.4219 648.0234,197.7734 Q647.6719,198.125 647.125,198.125 Q646.6367,198.125 646.3242,197.9102 Q646.0117,197.6953 645.875,197.1289 Q645.8164,196.7383 645.6016,196.5234 Q645.2109,196.1133 644.5078,195.8789 Q643.8047,195.625 643.1016,195.625 Q642.2227,195.625 641.4805,195.9766 Q640.7578,196.3281 640.1914,197.1094 Q639.625,197.8906 639.625,198.9648 L639.625,200.1172 Q639.625,201.4063 640.6797,202.2656 Q641.7344,203.125 643.6094,203.125 Q644.7227,203.125 645.5039,202.8711 Q645.9531,202.7344 646.4609,202.2852 Q646.793,202.0313 646.9688,201.9531 Q647.1445,201.875 647.3594,201.875 Q647.7695,201.875 648.0625,202.207 Q648.375,202.5195 648.375,202.9688 Q648.375,203.3984 647.9453,203.9063 Q647.3203,204.6484 646.3242,205.0586 Q645.0156,205.625 643.4141,205.625 Q641.5391,205.625 640.0352,204.8828 Q638.8242,204.2969 637.9648,203.0273 Q637.125,201.7578 637.125,200.2539 L637.125,198.8867 Q637.125,197.3242 637.8672,195.957 Q638.6289,194.5898 639.9375,193.8672 Q641.2656,193.125 642.75,193.125 Q643.6484,193.125 644.4297,193.4375 Q645.2109,193.75 645.875,194.375 Z " fill="#000000"/><text fill="#000000" font-family="sans-serif" font-size="15" lengthAdjust="spacing" textLength="27.5" x="661.625" y="204.8877">Port</text><line style="stroke:#A80036;stroke-width:1.875;" x1="622.5" x2="695" y1="218.75" y2="218.75"/><text fill="#000000" font-family="sans-serif" font-size="13.75" lengthAdjust="spacing" textLength="15" x="628.75" y="238.0237">-id</text><text fill="#000000" font-family="sans-serif" font-size="13.75" lengthAdjust="spacing" textLength="37.5" x="628.75" y="255.3186">-name</text><text fill="#000000" font-family="sans-serif" font-size="13.75" lengthAdjust="spacing" textLength="60" x="628.75" y="272.6135">-continent</text><text fill="#000000" font-family="sans-serif" font-size="13.75" lengthAdjust="spacing" textLength="51.25" x="628.75" y="289.9084">-country</text><text fill="#000000" font-family="sans-serif" font-size="13.75" lengthAdjust="spacing" textLength="47.5" x="628.75" y="307.2034">-latitude</text><text fill="#000000" font-family="sans-serif" font-size="13.75" lengthAdjust="spacing" textLength="58.75" x="628.75" y="324.4983">-longitude</text><!--MD5=[ddaf6f62b0bc30921877ec9fb9463c9f]
class TrafficManager--><rect codeLine="54" fill="#FEFECE" filter="url(#f77w4a3wfqeey)" height="50" id="TrafficManager" style="stroke:#A80036;stroke-width:1.875;" width="141.25" x="8.75" y="44.375"/><ellipse cx="27.5" cy="64.375" fill="#ADD1B2" rx="13.75" ry="13.75" style="stroke:#A80036;stroke-width:1.25;"/><path d="M30,60 Q30.2539,59.375 30.5469,59.0625 Q30.8398,58.75 31.1719,58.75 Q31.7578,58.75 32.1289,59.1016 Q32.5,59.4531 32.5,60.2734 L32.5,62.2266 Q32.5,63.0469 32.1484,63.3984 Q31.7969,63.75 31.25,63.75 Q30.7617,63.75 30.4492,63.5352 Q30.1367,63.3203 30,62.7539 Q29.9414,62.3633 29.7266,62.1484 Q29.3359,61.7383 28.6328,61.5039 Q27.9297,61.25 27.2266,61.25 Q26.3477,61.25 25.6055,61.6016 Q24.8828,61.9531 24.3164,62.7344 Q23.75,63.5156 23.75,64.5898 L23.75,65.7422 Q23.75,67.0313 24.8047,67.8906 Q25.8594,68.75 27.7344,68.75 Q28.8477,68.75 29.6289,68.4961 Q30.0781,68.3594 30.5859,67.9102 Q30.918,67.6563 31.0938,67.5781 Q31.2695,67.5 31.4844,67.5 Q31.8945,67.5 32.1875,67.832 Q32.5,68.1445 32.5,68.5938 Q32.5,69.0234 32.0703,69.5313 Q31.4453,70.2734 30.4492,70.6836 Q29.1406,71.25 27.5391,71.25 Q25.6641,71.25 24.1602,70.5078 Q22.9492,69.9219 22.0898,68.6523 Q21.25,67.3828 21.25,65.8789 L21.25,64.5117 Q21.25,62.9492 21.9922,61.582 Q22.7539,60.2148 24.0625,59.4922 Q25.3906,58.75 26.875,58.75 Q27.7734,58.75 28.5547,59.0625 Q29.3359,59.375 30,60 Z " fill="#000000"/><text fill="#000000" font-family="sans-serif" font-size="15" lengthAdjust="spacing" textLength="101.25" x="45" y="70.5127">TrafficManager</text><line style="stroke:#A80036;stroke-width:1.875;" x1="10" x2="148.75" y1="84.375" y2="84.375"/><!--MD5=[99d8f1361a72f685c413d1fd21efef1c]
class PortManager--><rect codeLine="57" fill="#FEFECE" filter="url(#f77w4a3wfqeey)" height="50" id="PortManager" style="stroke:#A80036;stroke-width:1.875;" width="127.5" x="15.625" y="163.125"/><ellipse cx="34.375" cy="183.125" fill="#ADD1B2" rx="13.75" ry="13.75" style="stroke:#A80036;stroke-width:1.25;"/><path d="M36.875,178.75 Q37.1289,178.125 37.4219,177.8125 Q37.7148,177.5 38.0469,177.5 Q38.6328,177.5 39.0039,177.8516 Q39.375,178.2031 39.375,179.0234 L39.375,180.9766 Q39.375,181.7969 39.0234,182.1484 Q38.6719,182.5 38.125,182.5 Q37.6367,182.5 37.3242,182.2852 Q37.0117,182.0703 36.875,181.5039 Q36.8164,181.1133 36.6016,180.8984 Q36.2109,180.4883 35.5078,180.2539 Q34.8047,180 34.1016,180 Q33.2227,180 32.4805,180.3516 Q31.7578,180.7031 31.1914,181.4844 Q30.625,182.2656 30.625,183.3398 L30.625,184.4922 Q30.625,185.7813 31.6797,186.6406 Q32.7344,187.5 34.6094,187.5 Q35.7227,187.5 36.5039,187.2461 Q36.9531,187.1094 37.4609,186.6602 Q37.793,186.4063 37.9688,186.3281 Q38.1445,186.25 38.3594,186.25 Q38.7695,186.25 39.0625,186.582 Q39.375,186.8945 39.375,187.3438 Q39.375,187.7734 38.9453,188.2813 Q38.3203,189.0234 37.3242,189.4336 Q36.0156,190 34.4141,190 Q32.5391,190 31.0352,189.2578 Q29.8242,188.6719 28.9648,187.4023 Q28.125,186.1328 28.125,184.6289 L28.125,183.2617 Q28.125,181.6992 28.8672,180.332 Q29.6289,178.9648 30.9375,178.2422 Q32.2656,177.5 33.75,177.5 Q34.6484,177.5 35.4297,177.8125 Q36.2109,178.125 36.875,178.75 Z " fill="#000000"/><text fill="#000000" font-family="sans-serif" font-size="15" lengthAdjust="spacing" textLength="87.5" x="51.875" y="189.2627">PortManager</text><line style="stroke:#A80036;stroke-width:1.875;" x1="16.875" x2="141.875" y1="203.125" y2="203.125"/><!--MD5=[76562047389981627aea27c31a97aff5]
class CargoManifest--><rect codeLine="60" fill="#FEFECE" filter="url(#f77w4a3wfqeey)" height="101.8848" id="CargoManifest" style="stroke:#A80036;stroke-width:1.875;" width="140" x="290" y="348.125"/><ellipse cx="308.75" cy="368.125" fill="#ADD1B2" rx="13.75" ry="13.75" style="stroke:#A80036;stroke-width:1.25;"/><path d="M311.25,363.75 Q311.5039,363.125 311.7969,362.8125 Q312.0898,362.5 312.4219,362.5 Q313.0078,362.5 313.3789,362.8516 Q313.75,363.2031 313.75,364.0234 L313.75,365.9766 Q313.75,366.7969 313.3984,367.1484 Q313.0469,367.5 312.5,367.5 Q312.0117,367.5 311.6992,367.2852 Q311.3867,367.0703 311.25,366.5039 Q311.1914,366.1133 310.9766,365.8984 Q310.5859,365.4883 309.8828,365.2539 Q309.1797,365 308.4766,365 Q307.5977,365 306.8555,365.3516 Q306.1328,365.7031 305.5664,366.4844 Q305,367.2656 305,368.3398 L305,369.4922 Q305,370.7813 306.0547,371.6406 Q307.1094,372.5 308.9844,372.5 Q310.0977,372.5 310.8789,372.2461 Q311.3281,372.1094 311.8359,371.6602 Q312.168,371.4063 312.3438,371.3281 Q312.5195,371.25 312.7344,371.25 Q313.1445,371.25 313.4375,371.582 Q313.75,371.8945 313.75,372.3438 Q313.75,372.7734 313.3203,373.2813 Q312.6953,374.0234 311.6992,374.4336 Q310.3906,375 308.7891,375 Q306.9141,375 305.4102,374.2578 Q304.1992,373.6719 303.3398,372.4023 Q302.5,371.1328 302.5,369.6289 L302.5,368.2617 Q302.5,366.6992 303.2422,365.332 Q304.0039,363.9648 305.3125,363.2422 Q306.6406,362.5 308.125,362.5 Q309.0234,362.5 309.8047,362.8125 Q310.5859,363.125 311.25,363.75 Z " fill="#000000"/><text fill="#000000" font-family="sans-serif" font-size="15" lengthAdjust="spacing" textLength="100" x="326.25" y="374.2627">CargoManifest</text><line style="stroke:#A80036;stroke-width:1.875;" x1="291.25" x2="428.75" y1="388.125" y2="388.125"/><text fill="#000000" font-family="sans-serif" font-size="13.75" lengthAdjust="spacing" textLength="15" x="297.5" y="407.3987">-id</text><text fill="#000000" font-family="sans-serif" font-size="13.75" lengthAdjust="spacing" textLength="61.25" x="297.5" y="424.6936">-shipMMSI</text><text fill="#000000" font-family="sans-serif" font-size="13.75" lengthAdjust="spacing" textLength="40" x="297.5" y="441.9885">-portID</text><!--MD5=[bc71c62128aaf75a155dd6adc8e1dfa9]
link TrafficManager to Company--><path codeLine="66" d="M150.0875,77.4875 C198.675,83.175 262.55,90.6375 306.7625,95.8 " fill="none" id="TrafficManager-Company" style="stroke:#A80036;stroke-width:1.25;"/><polygon fill="#000000" points="187.5423,71.3692,198.3457,76.3305,199.1986,69.0329,187.5423,71.3692" style="stroke:#000000;stroke-width:1.25;"/><text fill="#000000" font-family="sans-serif" font-size="16.25" lengthAdjust="spacing" textLength="46.25" x="205" y="78.7439">knows</text><text fill="#000000" font-family="sans-serif" font-size="16.25" lengthAdjust="spacing" textLength="6.25" x="160.0094" y="96.8198">*</text><text fill="#000000" font-family="sans-serif" font-size="16.25" lengthAdjust="spacing" textLength="8.75" x="288.1104" y="113.3813">1</text><!--MD5=[40e2b5717560220ad35e84810a8f1b44]
link TrafficManager to Ship--><path codeLine="67" d="M150.5375,55.325 C162.8,53.3625 175.4875,51.675 187.5,50.625 C216.275,48.125 223.6125,50.325 252.5,50.625 C501.075,53.25 572.6125,21.85 810,95.625 C822.725,99.575 835.8,105.85 847.2375,112.2125 " fill="none" id="TrafficManager-Ship" style="stroke:#A80036;stroke-width:1.25;"/><polygon fill="#000000" points="488.7293,36.3534,477.7594,31.7718,477.1614,39.0947,488.7293,36.3534" style="stroke:#000000;stroke-width:1.25;"/><text fill="#000000" font-family="sans-serif" font-size="16.25" lengthAdjust="spacing" textLength="66.25" x="493.75" y="42.4939">manages</text><text fill="#000000" font-family="sans-serif" font-size="16.25" lengthAdjust="spacing" textLength="8.75" x="160.2157" y="71.7031">1</text><text fill="#000000" font-family="sans-serif" font-size="16.25" lengthAdjust="spacing" textLength="6.25" x="831.4782" y="126.218">*</text><!--MD5=[37a14a5de6d6fd738aee271300f4b5c8]
link Company to Ship--><path codeLine="68" d="M413.55,105.1375 C519.7875,111.775 758.3,126.6625 847.4125,132.225 " fill="none" id="Company-Ship" style="stroke:#A80036;stroke-width:1.25;"/><polygon fill="#000000" points="643.1129,107.4842,632.0574,103.1131,631.5996,110.4462,643.1129,107.4842" style="stroke:#000000;stroke-width:1.25;"/><text fill="#000000" font-family="sans-serif" font-size="16.25" lengthAdjust="spacing" textLength="37.5" x="648.125" y="113.7439">owns</text><text fill="#000000" font-family="sans-serif" font-size="16.25" lengthAdjust="spacing" textLength="8.75" x="423.1438" y="124.2394">1</text><text fill="#000000" font-family="sans-serif" font-size="16.25" lengthAdjust="spacing" textLength="6.25" x="831.2104" y="151.2118">*</text><!--MD5=[f56e222e1748568825f030a9b791275e]
link Ship to ShipPosition--><path codeLine="69" d="M919.1125,130.9625 C953.8625,127.5375 1008.075,122.2125 1050.3625,118.05 " fill="none" id="Ship-ShipPosition" style="stroke:#A80036;stroke-width:1.25;"/><polygon fill="#000000" points="968.72,111.4828,957.1083,108.9338,957.8276,116.2458,968.72,111.4828" style="stroke:#000000;stroke-width:1.25;"/><text fill="#000000" font-family="sans-serif" font-size="16.25" lengthAdjust="spacing" textLength="26.25" x="973.75" y="118.7439">has</text><text fill="#000000" font-family="sans-serif" font-size="16.25" lengthAdjust="spacing" textLength="8.75" x="928.9509" y="149.5383">1</text><text fill="#000000" font-family="sans-serif" font-size="16.25" lengthAdjust="spacing" textLength="6.25" x="1034.2517" y="137.3706">*</text><!--MD5=[48866c3ee325f1b653aa35a9a333d568]
link PortManager to Company--><path codeLine="70" d="M143.3875,168.6625 C192.575,153.4125 260.2,132.4375 306.475,118.0875 " fill="none" id="PortManager-Company" style="stroke:#A80036;stroke-width:1.25;"/><polygon fill="#000000" points="187.7805,128.9459,199.6676,129.1059,197.4913,122.0883,187.7805,128.9459" style="stroke:#000000;stroke-width:1.25;"/><text fill="#000000" font-family="sans-serif" font-size="16.25" lengthAdjust="spacing" textLength="46.25" x="205" y="133.7439">knows</text><text fill="#000000" font-family="sans-serif" font-size="16.25" lengthAdjust="spacing" textLength="6.25" x="153.2483" y="184.1739">*</text><text fill="#000000" font-family="sans-serif" font-size="16.25" lengthAdjust="spacing" textLength="8.75" x="288.1353" y="139.3342">1</text><!--MD5=[9eb8cece74e91f217f5849e8308bf70d]
link PortManager to Port--><path codeLine="71" d="M143.4625,195.475 C264.2125,209.6 525.2,240.15 621.15,251.375 " fill="none" id="PortManager-Port" style="stroke:#A80036;stroke-width:1.25;"/><polygon fill="#000000" points="329.9576,201.5712,319.1549,196.6083,318.3009,203.9058,329.9576,201.5712" style="stroke:#000000;stroke-width:1.25;"/><text fill="#000000" font-family="sans-serif" font-size="16.25" lengthAdjust="spacing" textLength="66.25" x="335" y="207.4939">manages</text><text fill="#000000" font-family="sans-serif" font-size="16.25" lengthAdjust="spacing" textLength="8.75" x="153.09" y="214.8146">1</text><text fill="#000000" font-family="sans-serif" font-size="16.25" lengthAdjust="spacing" textLength="6.25" x="604.9733" y="269.6966">*</text><!--MD5=[5fd98a8c03cc0e5a408f548eb1c0ace8]
link Company to Port--><path codeLine="72" d="M410.25,126.925 C452.6,148.6125 515.425,180.9 570,209.375 C586.7625,218.1125 605.2625,227.8875 620.9375,236.1875 " fill="none" id="Company-Port" style="stroke:#A80036;stroke-width:1.25;"/><polygon fill="#000000" points="498.0483,149.9721,489.7026,141.5057,486.3201,148.0281,498.0483,149.9721" style="stroke:#000000;stroke-width:1.25;"/><text fill="#000000" font-family="sans-serif" font-size="16.25" lengthAdjust="spacing" textLength="46.25" x="503.75" y="153.7439">knows</text><text fill="#000000" font-family="sans-serif" font-size="16.25" lengthAdjust="spacing" textLength="8.75" x="414.4023" y="153.7135">1</text><text fill="#000000" font-family="sans-serif" font-size="16.25" lengthAdjust="spacing" textLength="6.25" x="605.2207" y="250.9225">*</text><!--MD5=[81746cb93c90cbb95bfeb7ee7cddfbe5]
link Port to Ship--><path codeLine="73" d="M696.6375,235.6 C738.4875,212.7375 806.4375,175.6 847.375,153.225 " fill="none" id="Port-Ship" style="stroke:#A80036;stroke-width:1.25;"/><polygon fill="#000000" points="748.2655,168.8419,759.9487,166.6437,756.4254,160.1963,748.2655,168.8419" style="stroke:#000000;stroke-width:1.25;"/><text fill="#000000" font-family="sans-serif" font-size="16.25" lengthAdjust="spacing" textLength="43.75" x="765" y="172.4939">docks</text><text fill="#000000" font-family="sans-serif" font-size="16.25" lengthAdjust="spacing" textLength="6.25" x="706.1216" y="250.1992">*</text><text fill="#000000" font-family="sans-serif" font-size="16.25" lengthAdjust="spacing" textLength="6.25" x="831.1633" y="177.5931">*</text><!--MD5=[5fdd31ab83fa7860731c4022d7a13fe0]
link Port to Containers--><path codeLine="74" d="M696.3125,264.1375 C770.3375,281.5 940,321.2875 1038.525,344.3875 " fill="none" id="Port-Containers" style="stroke:#A80036;stroke-width:1.25;"/><polygon fill="#000000" points="872.9599,289.7717,862.7909,283.6137,861.1135,290.7669,872.9599,289.7717" style="stroke:#000000;stroke-width:1.25;"/><text fill="#000000" font-family="sans-serif" font-size="16.25" lengthAdjust="spacing" textLength="26.25" x="878.125" y="294.9939">has</text><text fill="#000000" font-family="sans-serif" font-size="16.25" lengthAdjust="spacing" textLength="8.75" x="706.0105" y="285.336">1</text><text fill="#000000" font-family="sans-serif" font-size="16.25" lengthAdjust="spacing" textLength="6.25" x="1022.6499" y="360.4069">*</text><!--MD5=[cff4e3c6ede03364cf99bd3378be6b6a]
link Ship to Containers--><path codeLine="75" d="M919.1125,168.925 C950.7375,200.375 998.475,247.8625 1038.6875,287.85 " fill="none" id="Ship-Containers" style="stroke:#A80036;stroke-width:1.25;"/><polygon fill="#000000" points="966.9314,200.2521,961.5055,189.6744,956.3243,194.8838,966.9314,200.2521" style="stroke:#000000;stroke-width:1.25;"/><text fill="#000000" font-family="sans-serif" font-size="16.25" lengthAdjust="spacing" textLength="26.25" x="973.75" y="202.4939">has</text><text fill="#000000" font-family="sans-serif" font-size="16.25" lengthAdjust="spacing" textLength="8.75" x="928.9509" y="196.7541">1</text><text fill="#000000" font-family="sans-serif" font-size="16.25" lengthAdjust="spacing" textLength="6.25" x="1022.3396" y="296.582">*</text><!--MD5=[495fae50e5964e36f0a771ac5477efc8]
link CargoManifest to Ship--><path codeLine="76" d="M430,411.5 C504.075,420.9625 622.9875,425.4625 710,376.875 C773.525,341.4 819.2125,271.4375 847.4375,215.7375 " fill="none" id="CargoManifest-Ship" style="stroke:#A80036;stroke-width:1.25;"/><polygon fill="#000000" points="619.4087,363.191,607.6122,364.6655,610.7319,371.3177,619.4087,363.191" style="stroke:#000000;stroke-width:1.25;"/><text fill="#000000" font-family="sans-serif" font-size="16.25" lengthAdjust="spacing" textLength="83.75" x="625" y="372.4939">assigned to</text><text fill="#000000" font-family="sans-serif" font-size="16.25" lengthAdjust="spacing" textLength="6.25" x="439.8262" y="408.7253">*</text><text fill="#000000" font-family="sans-serif" font-size="16.25" lengthAdjust="spacing" textLength="8.75" x="828.9223" y="254.9772">1</text><!--MD5=[9f5a09a616509cd3e7b114149642c3c0]
link CargoManifest to Containers--><path codeLine="77" d="M430.4875,419.975 C442.7125,422.85 455.4,425.3375 467.5,426.875 C512.6875,432.625 524.4625,428.1 570,426.875 C632.2875,425.2125 647.9875,425.45 710,419.375 C825.2125,408.1 957.975,387.725 1038.6875,374.5 " fill="none" id="CargoManifest-Containers" style="stroke:#A80036;stroke-width:1.25;"/><polygon fill="#000000" points="768.7326,396.6287,757.1838,393.8083,757.7316,401.1352,768.7326,396.6287" style="stroke:#000000;stroke-width:1.25;"/><text fill="#000000" font-family="sans-serif" font-size="16.25" lengthAdjust="spacing" textLength="26.25" x="773.75" y="403.7439">has</text><text fill="#000000" font-family="sans-serif" font-size="16.25" lengthAdjust="spacing" textLength="8.75" x="440.0793" y="440.8321">1</text><text fill="#000000" font-family="sans-serif" font-size="16.25" lengthAdjust="spacing" textLength="6.25" x="1022.3396" y="394.334">*</text><!--MD5=[47296211a5450e6030aae792427ae68d]
link CargoManifest to Port--><path codeLine="78" d="M430.3375,365.85 C490,336.9 573.875,296.2 621.2375,273.225 " fill="none" id="CargoManifest-Port" style="stroke:#A80036;stroke-width:1.25;"/><polygon fill="#000000" points="479.3731,283.1164,467.5972,284.7468,470.8045,291.3571,479.3731,283.1164" style="stroke:#000000;stroke-width:1.25;"/><text fill="#000000" font-family="sans-serif" font-size="16.25" lengthAdjust="spacing" textLength="83.75" x="485" y="292.4939">assigned to</text><text fill="#000000" font-family="sans-serif" font-size="16.25" lengthAdjust="spacing" textLength="8.75" x="439.91" y="379.7723">1</text><text fill="#000000" font-family="sans-serif" font-size="16.25" lengthAdjust="spacing" textLength="8.75" x="602.2774" y="296.8726">1</text><!--MD5=[bee2853a78196e269b40f73108c8fb68]
@startuml
hide methods
left to right direction
skinparam classAttributeIconSize 0


class Company {
  
}

class Ship{
-MMSI
-name
-IMO
-callsign
-type
-length
-width
-draft
}

class Containers{
-ContainerNumber
-ISOCode
-MaxWeight
-ContainerWeight
-MaxWeightPacked
-MaxVolumePacked
-Certificates
-RepairRecomendation
-Temperature
}

class ShipPosition {
   -shipMMSI
   -date
   -latitude
   -longitude
   -sog
   -cog
   -heading
   -cargo
   -transciever
}

class Port{
-id
-name
-continent
-country
-latitude
-longitude
}

class TrafficManager{
}

class PortManager{
}

class CargoManifest{
-id
-shipMMSI
-portID
}

TrafficManager "*" - - "1" Company : knows <
TrafficManager "1" - - "*" Ship : manages >
Company "1" - - "*" Ship : owns >
Ship "1" - - "*" ShipPosition : has >
PortManager "*" - - "1" Company : knows <
PortManager "1" - - "*" Port : manages >
Company "1" - - "*" Port : knows >
Port "*" - - "*" Ship : docks <
Port "1" - - "*" Containers: has >
Ship "1" - - "*" Containers: has >
CargoManifest "*" - - "1" Ship : assigned to >
CargoManifest "1" - - "*" Containers : has >
CargoManifest "1" - - "1" Port: assigned to >


@enduml

PlantUML version 1.2021.2(Sun Mar 07 11:10:27 GMT 2021)
(GPL source distribution)
Java Runtime: OpenJDK Runtime Environment
JVM: OpenJDK 64-Bit Server VM
Default Encoding: Cp1252
Language: pt
Country: PT
--></g></svg>