<?xml version="1.0" encoding="UTF-8" standalone="no"?><svg xmlns="http://www.w3.org/2000/svg" xmlns:xlink="http://www.w3.org/1999/xlink" contentScriptType="application/ecmascript" contentStyleType="text/css" height="185px" preserveAspectRatio="none" style="width:691px;height:185px;" version="1.1" viewBox="0 0 691 185" width="691px" zoomAndPan="magnify"><defs><filter height="300%" id="f1cbggmh5ba48p" width="300%" x="-1" y="-1"><feGaussianBlur result="blurOut" stdDeviation="2.0"/><feColorMatrix in="blurOut" result="blurOut2" type="matrix" values="0 0 0 0 0 0 0 0 0 0 0 0 0 0 0 0 0 0 .4 0"/><feOffset dx="4.0" dy="4.0" in="blurOut2" result="blurOut3"/><feBlend in="SourceGraphic" in2="blurOut3" mode="normal"/></filter></defs><g><!--MD5=[02e4b9b7573f1156f41e60aa5b4e25a4]
class Company--><rect codeLine="8" fill="#FEFECE" filter="url(#f1cbggmh5ba48p)" height="40" id="Company" style="stroke:#A80036;stroke-width:1.5;" width="85" x="232" y="25.5"/><ellipse cx="247" cy="41.5" fill="#ADD1B2" rx="11" ry="11" style="stroke:#A80036;stroke-width:1.0;"/><path d="M249,38 Q249.2031,37.5 249.4375,37.25 Q249.6719,37 249.9375,37 Q250.4063,37 250.7031,37.2813 Q251,37.5625 251,38.2188 L251,39.7813 Q251,40.4375 250.7188,40.7188 Q250.4375,41 250,41 Q249.6094,41 249.3594,40.8281 Q249.1094,40.6563 249,40.2031 Q248.9531,39.8906 248.7813,39.7188 Q248.4688,39.3906 247.9063,39.2031 Q247.3438,39 246.7813,39 Q246.0781,39 245.4844,39.2813 Q244.9063,39.5625 244.4531,40.1875 Q244,40.8125 244,41.6719 L244,42.5938 Q244,43.625 244.8438,44.3125 Q245.6875,45 247.1875,45 Q248.0781,45 248.7031,44.7969 Q249.0625,44.6875 249.4688,44.3281 Q249.7344,44.125 249.875,44.0625 Q250.0156,44 250.1875,44 Q250.5156,44 250.75,44.2656 Q251,44.5156 251,44.875 Q251,45.2188 250.6563,45.625 Q250.1563,46.2188 249.3594,46.5469 Q248.3125,47 247.0313,47 Q245.5313,47 244.3281,46.4063 Q243.3594,45.9375 242.6719,44.9219 Q242,43.9063 242,42.7031 L242,41.6094 Q242,40.3594 242.5938,39.2656 Q243.2031,38.1719 244.25,37.5938 Q245.3125,37 246.5,37 Q247.2188,37 247.8438,37.25 Q248.4688,37.5 249,38 Z " fill="#000000"/><text fill="#000000" font-family="sans-serif" font-size="12" lengthAdjust="spacing" textLength="53" x="261" y="46.4102">Company</text><line style="stroke:#A80036;stroke-width:1.5;" x1="233" x2="316" y1="57.5" y2="57.5"/><!--MD5=[0dc7f2ddb409b58bcf52b12238c25399]
class Ship--><rect codeLine="12" fill="#FEFECE" filter="url(#f1cbggmh5ba48p)" height="150.6875" id="Ship" style="stroke:#A80036;stroke-width:1.5;" width="57" x="422" y="14"/><ellipse cx="437" cy="30" fill="#ADD1B2" rx="11" ry="11" style="stroke:#A80036;stroke-width:1.0;"/><path d="M439,26.5 Q439.2031,26 439.4375,25.75 Q439.6719,25.5 439.9375,25.5 Q440.4063,25.5 440.7031,25.7813 Q441,26.0625 441,26.7188 L441,28.2813 Q441,28.9375 440.7188,29.2188 Q440.4375,29.5 440,29.5 Q439.6094,29.5 439.3594,29.3281 Q439.1094,29.1563 439,28.7031 Q438.9531,28.3906 438.7813,28.2188 Q438.4688,27.8906 437.9063,27.7031 Q437.3438,27.5 436.7813,27.5 Q436.0781,27.5 435.4844,27.7813 Q434.9063,28.0625 434.4531,28.6875 Q434,29.3125 434,30.1719 L434,31.0938 Q434,32.125 434.8438,32.8125 Q435.6875,33.5 437.1875,33.5 Q438.0781,33.5 438.7031,33.2969 Q439.0625,33.1875 439.4688,32.8281 Q439.7344,32.625 439.875,32.5625 Q440.0156,32.5 440.1875,32.5 Q440.5156,32.5 440.75,32.7656 Q441,33.0156 441,33.375 Q441,33.7188 440.6563,34.125 Q440.1563,34.7188 439.3594,35.0469 Q438.3125,35.5 437.0313,35.5 Q435.5313,35.5 434.3281,34.9063 Q433.3594,34.4375 432.6719,33.4219 Q432,32.4063 432,31.2031 L432,30.1094 Q432,28.8594 432.5938,27.7656 Q433.2031,26.6719 434.25,26.0938 Q435.3125,25.5 436.5,25.5 Q437.2188,25.5 437.8438,25.75 Q438.4688,26 439,26.5 Z " fill="#000000"/><text fill="#000000" font-family="sans-serif" font-size="12" lengthAdjust="spacing" textLength="25" x="451" y="34.9102">Ship</text><line style="stroke:#A80036;stroke-width:1.5;" x1="423" x2="478" y1="46" y2="46"/><text fill="#000000" font-family="sans-serif" font-size="11" lengthAdjust="spacing" textLength="29" x="428" y="61.4189">-MMSI</text><text fill="#000000" font-family="sans-serif" font-size="11" lengthAdjust="spacing" textLength="30" x="428" y="75.2549">-name</text><text fill="#000000" font-family="sans-serif" font-size="11" lengthAdjust="spacing" textLength="22" x="428" y="89.0908">-IMO</text><text fill="#000000" font-family="sans-serif" font-size="11" lengthAdjust="spacing" textLength="40" x="428" y="102.9268">-callsign</text><text fill="#000000" font-family="sans-serif" font-size="11" lengthAdjust="spacing" textLength="25" x="428" y="116.7627">-type</text><text fill="#000000" font-family="sans-serif" font-size="11" lengthAdjust="spacing" textLength="33" x="428" y="130.5986">-length</text><text fill="#000000" font-family="sans-serif" font-size="11" lengthAdjust="spacing" textLength="31" x="428" y="144.4346">-width</text><text fill="#000000" font-family="sans-serif" font-size="11" lengthAdjust="spacing" textLength="27" x="428" y="158.2705">-draft</text><!--MD5=[1c0c3765e68dc4575d559b566278b914]
class ShipPosition--><rect codeLine="23" fill="#FEFECE" filter="url(#f1cbggmh5ba48p)" height="164.5234" id="ShipPosition" style="stroke:#A80036;stroke-width:1.5;" width="102" x="575" y="7"/><ellipse cx="590" cy="23" fill="#ADD1B2" rx="11" ry="11" style="stroke:#A80036;stroke-width:1.0;"/><path d="M592,19.5 Q592.2031,19 592.4375,18.75 Q592.6719,18.5 592.9375,18.5 Q593.4063,18.5 593.7031,18.7813 Q594,19.0625 594,19.7188 L594,21.2813 Q594,21.9375 593.7188,22.2188 Q593.4375,22.5 593,22.5 Q592.6094,22.5 592.3594,22.3281 Q592.1094,22.1563 592,21.7031 Q591.9531,21.3906 591.7813,21.2188 Q591.4688,20.8906 590.9063,20.7031 Q590.3438,20.5 589.7813,20.5 Q589.0781,20.5 588.4844,20.7813 Q587.9063,21.0625 587.4531,21.6875 Q587,22.3125 587,23.1719 L587,24.0938 Q587,25.125 587.8438,25.8125 Q588.6875,26.5 590.1875,26.5 Q591.0781,26.5 591.7031,26.2969 Q592.0625,26.1875 592.4688,25.8281 Q592.7344,25.625 592.875,25.5625 Q593.0156,25.5 593.1875,25.5 Q593.5156,25.5 593.75,25.7656 Q594,26.0156 594,26.375 Q594,26.7188 593.6563,27.125 Q593.1563,27.7188 592.3594,28.0469 Q591.3125,28.5 590.0313,28.5 Q588.5313,28.5 587.3281,27.9063 Q586.3594,27.4375 585.6719,26.4219 Q585,25.4063 585,24.2031 L585,23.1094 Q585,21.8594 585.5938,20.7656 Q586.2031,19.6719 587.25,19.0938 Q588.3125,18.5 589.5,18.5 Q590.2188,18.5 590.8438,18.75 Q591.4688,19 592,19.5 Z " fill="#000000"/><text fill="#000000" font-family="sans-serif" font-size="12" lengthAdjust="spacing" textLength="70" x="604" y="27.9102">ShipPosition</text><line style="stroke:#A80036;stroke-width:1.5;" x1="576" x2="676" y1="39" y2="39"/><text fill="#000000" font-family="sans-serif" font-size="11" lengthAdjust="spacing" textLength="49" x="581" y="54.4189">-shipMMSI</text><text fill="#000000" font-family="sans-serif" font-size="11" lengthAdjust="spacing" textLength="25" x="581" y="68.2549">-date</text><text fill="#000000" font-family="sans-serif" font-size="11" lengthAdjust="spacing" textLength="38" x="581" y="82.0908">-latitude</text><text fill="#000000" font-family="sans-serif" font-size="11" lengthAdjust="spacing" textLength="47" x="581" y="95.9268">-longitude</text><text fill="#000000" font-family="sans-serif" font-size="11" lengthAdjust="spacing" textLength="22" x="581" y="109.7627">-sog</text><text fill="#000000" font-family="sans-serif" font-size="11" lengthAdjust="spacing" textLength="22" x="581" y="123.5986">-cog</text><text fill="#000000" font-family="sans-serif" font-size="11" lengthAdjust="spacing" textLength="42" x="581" y="137.4346">-heading</text><text fill="#000000" font-family="sans-serif" font-size="11" lengthAdjust="spacing" textLength="32" x="581" y="151.2705">-cargo</text><text fill="#000000" font-family="sans-serif" font-size="11" lengthAdjust="spacing" textLength="59" x="581" y="165.1064">-transciever</text><!--MD5=[ddaf6f62b0bc30921877ec9fb9463c9f]
class TrafficManager--><rect codeLine="35" fill="#FEFECE" filter="url(#f1cbggmh5ba48p)" height="40" id="TrafficManager" style="stroke:#A80036;stroke-width:1.5;" width="113" x="7" y="66.5"/><ellipse cx="22" cy="82.5" fill="#ADD1B2" rx="11" ry="11" style="stroke:#A80036;stroke-width:1.0;"/><path d="M24,79 Q24.2031,78.5 24.4375,78.25 Q24.6719,78 24.9375,78 Q25.4063,78 25.7031,78.2813 Q26,78.5625 26,79.2188 L26,80.7813 Q26,81.4375 25.7188,81.7188 Q25.4375,82 25,82 Q24.6094,82 24.3594,81.8281 Q24.1094,81.6563 24,81.2031 Q23.9531,80.8906 23.7813,80.7188 Q23.4688,80.3906 22.9063,80.2031 Q22.3438,80 21.7813,80 Q21.0781,80 20.4844,80.2813 Q19.9063,80.5625 19.4531,81.1875 Q19,81.8125 19,82.6719 L19,83.5938 Q19,84.625 19.8438,85.3125 Q20.6875,86 22.1875,86 Q23.0781,86 23.7031,85.7969 Q24.0625,85.6875 24.4688,85.3281 Q24.7344,85.125 24.875,85.0625 Q25.0156,85 25.1875,85 Q25.5156,85 25.75,85.2656 Q26,85.5156 26,85.875 Q26,86.2188 25.6563,86.625 Q25.1563,87.2188 24.3594,87.5469 Q23.3125,88 22.0313,88 Q20.5313,88 19.3281,87.4063 Q18.3594,86.9375 17.6719,85.9219 Q17,84.9063 17,83.7031 L17,82.6094 Q17,81.3594 17.5938,80.2656 Q18.2031,79.1719 19.25,78.5938 Q20.3125,78 21.5,78 Q22.2188,78 22.8438,78.25 Q23.4688,78.5 24,79 Z " fill="#000000"/><text fill="#000000" font-family="sans-serif" font-size="12" lengthAdjust="spacing" textLength="81" x="36" y="87.4102">TrafficManager</text><line style="stroke:#A80036;stroke-width:1.5;" x1="8" x2="119" y1="98.5" y2="98.5"/><!--MD5=[bc71c62128aaf75a155dd6adc8e1dfa9]
link TrafficManager to Company--><path codeLine="38" d="M120.23,75.57 C155.3,68.69 199.81,59.96 231.82,53.68 " fill="none" id="TrafficManager-Company" style="stroke:#A80036;stroke-width:1.0;"/><polygon fill="#000000" points="150.0935,52.6383,159.5352,53.7811,158.4037,48.0132,150.0935,52.6383" style="stroke:#000000;stroke-width:1.0;"/><text fill="#000000" font-family="sans-serif" font-size="13" lengthAdjust="spacing" textLength="37" x="164" y="56.9951">knows</text><text fill="#000000" font-family="sans-serif" font-size="13" lengthAdjust="spacing" textLength="5" x="127.8188" y="88.7122">*</text><text fill="#000000" font-family="sans-serif" font-size="13" lengthAdjust="spacing" textLength="7" x="216.8828" y="69.9863">1</text><!--MD5=[40e2b5717560220ad35e84810a8f1b44]
link TrafficManager to Ship--><path codeLine="39" d="M120.26,92.33 C152.81,95.44 194.68,98.94 232,100.5 C269.74,102.07 279.25,102.06 317,100.5 C353.32,98.99 395.11,95.18 421.88,92.46 " fill="none" id="TrafficManager-Ship" style="stroke:#A80036;stroke-width:1.0;"/><polygon fill="#000000" points="250.5,91.6779,241.4562,88.7351,241.4536,94.613,250.5,91.6779" style="stroke:#000000;stroke-width:1.0;"/><text fill="#000000" font-family="sans-serif" font-size="13" lengthAdjust="spacing" textLength="53" x="254.5" y="96.9951">manages</text><text fill="#000000" font-family="sans-serif" font-size="13" lengthAdjust="spacing" textLength="7" x="127.9808" y="107.6196">1</text><text fill="#000000" font-family="sans-serif" font-size="13" lengthAdjust="spacing" textLength="5" x="408.9055" y="108.8487">*</text><!--MD5=[37a14a5de6d6fd738aee271300f4b5c8]
link Company to Ship--><path codeLine="40" d="M317.18,56.04 C349.65,64.25 393.81,75.42 421.99,82.54 " fill="none" id="Company-Ship" style="stroke:#A80036;stroke-width:1.0;"/><polygon fill="#000000" points="356.8475,57.9014,348.7987,52.835,347.3579,58.5335,356.8475,57.9014" style="stroke:#000000;stroke-width:1.0;"/><text fill="#000000" font-family="sans-serif" font-size="13" lengthAdjust="spacing" textLength="30" x="361" y="61.9951">owns</text><text fill="#000000" font-family="sans-serif" font-size="13" lengthAdjust="spacing" textLength="7" x="325.1172" y="72.7519">1</text><text fill="#000000" font-family="sans-serif" font-size="13" lengthAdjust="spacing" textLength="5" x="409.0437" y="76.2867">*</text><!--MD5=[f56e222e1748568825f030a9b791275e]
link Ship to ShipPosition--><path codeLine="41" d="M479.38,89.5 C505.05,89.5 543.74,89.5 574.79,89.5 " fill="none" id="Ship-ShipPosition" style="stroke:#A80036;stroke-width:1.0;"/><polygon fill="#000000" points="519,80.6758,509.9549,77.7369,509.9549,83.6147,519,80.6758" style="stroke:#000000;stroke-width:1.0;"/><text fill="#000000" font-family="sans-serif" font-size="13" lengthAdjust="spacing" textLength="21" x="523" y="85.9951">has</text><text fill="#000000" font-family="sans-serif" font-size="13" lengthAdjust="spacing" textLength="7" x="486.8679" y="104.9219">1</text><text fill="#000000" font-family="sans-serif" font-size="13" lengthAdjust="spacing" textLength="5" x="561.9013" y="104.2309">*</text><!--MD5=[6f1021532ecfa240ffdf68bfc9057fe2]
@startuml
'https://plantuml.com/class-diagram

hide methods
left to right direction
skinparam classAttributeIconSize 0


class Company {

}

class Ship{
-MMSI
-name
-IMO
-callsign
-type
-length
-width
-draft
}

class ShipPosition {
   -shipMMSI
   -date
   -latitude
   -longitude
   -sog
   -cog
   -heading
   -cargo
   -transciever
}

class TrafficManager{
}

TrafficManager "*" - - "1" Company : knows <
TrafficManager "1" - - "*" Ship : manages >
Company "1" - - "*" Ship : owns >
Ship "1" - - "*" ShipPosition : has >
@enduml

@startuml

hide methods
left to right direction
skinparam classAttributeIconSize 0


class Company {

}

class Ship{
-MMSI
-name
-IMO
-callsign
-type
-length
-width
-draft
}

class ShipPosition {
   -shipMMSI
   -date
   -latitude
   -longitude
   -sog
   -cog
   -heading
   -cargo
   -transciever
}

class TrafficManager{
}

TrafficManager "*" - - "1" Company : knows <
TrafficManager "1" - - "*" Ship : manages >
Company "1" - - "*" Ship : owns >
Ship "1" - - "*" ShipPosition : has >
@enduml

PlantUML version 1.2021.00(Sun Jan 10 10:25:05 GMT 2021)
(GPL source distribution)
Java Runtime: OpenJDK Runtime Environment
JVM: OpenJDK 64-Bit Server VM
Default Encoding: Cp1252
Language: pt
Country: PT
--></g></svg>