<?xml version="1.0" encoding="UTF-8" standalone="no"?><svg xmlns="http://www.w3.org/2000/svg" xmlns:xlink="http://www.w3.org/1999/xlink" contentScriptType="application/ecmascript" contentStyleType="text/css" height="498px" preserveAspectRatio="none" style="width:504px;height:498px;background:#FFFFFF;" version="1.1" viewBox="0 0 504 498" width="504px" zoomAndPan="magnify"><defs><filter height="300%" id="f1xsl026w8n07e" width="300%" x="-1" y="-1"><feGaussianBlur result="blurOut" stdDeviation="2.0"/><feColorMatrix in="blurOut" result="blurOut2" type="matrix" values="0 0 0 0 0 0 0 0 0 0 0 0 0 0 0 0 0 0 .4 0"/><feOffset dx="4.0" dy="4.0" in="blurOut2" result="blurOut3"/><feBlend in="SourceGraphic" in2="blurOut3" mode="normal"/></filter></defs><g><!--MD5=[64e2e010ba86d7988e5cd73bd64f61f9]
cluster ui--><polygon fill="#FFFFFF" filter="url(#f1xsl026w8n07e)" points="153,6,172,6,179,29.6094,311,29.6094,311,106,153,106,153,6" style="stroke:#000000;stroke-width:1.5;"/><line style="stroke:#000000;stroke-width:1.5;" x1="153" x2="179" y1="29.6094" y2="29.6094"/><text fill="#000000" font-family="sans-serif" font-size="14" font-weight="bold" lengthAdjust="spacing" textLength="13" x="157" y="22.5332">ui</text><!--MD5=[f4e70ef68289585296b9045165e58692]
cluster controllers--><polygon fill="#FFFFFF" filter="url(#f1xsl026w8n07e)" points="132,130,215,130,222,153.6094,332,153.6094,332,244,132,244,132,130" style="stroke:#000000;stroke-width:1.5;"/><line style="stroke:#000000;stroke-width:1.5;" x1="132" x2="222" y1="153.6094" y2="153.6094"/><text fill="#000000" font-family="sans-serif" font-size="14" font-weight="bold" lengthAdjust="spacing" textLength="77" x="136" y="146.5332">controllers</text><!--MD5=[c52f45833d539af9e29a9d34b8b7302b]
cluster utils--><polygon fill="#FFFFFF" filter="url(#f1xsl026w8n07e)" points="16,268,52,268,59,291.6094,487,291.6094,487,491,16,491,16,268" style="stroke:#000000;stroke-width:1.5;"/><line style="stroke:#000000;stroke-width:1.5;" x1="16" x2="59" y1="291.6094" y2="291.6094"/><text fill="#000000" font-family="sans-serif" font-size="14" font-weight="bold" lengthAdjust="spacing" textLength="30" x="20" y="284.5332">utils</text><!--MD5=[fbca5634cbc0239920b500cad9c4bedb]
cluster stores--><polygon fill="#FFFFFF" filter="url(#f1xsl026w8n07e)" points="227,312,278,312,285,335.6094,463,335.6094,463,467,227,467,227,312" style="stroke:#000000;stroke-width:1.5;"/><line style="stroke:#000000;stroke-width:1.5;" x1="227" x2="285" y1="335.6094" y2="335.6094"/><text fill="#000000" font-family="sans-serif" font-size="14" font-weight="bold" lengthAdjust="spacing" textLength="45" x="231" y="328.5332">stores</text><!--MD5=[6077e1a593b2653983653bbcdd0581d4]
class AddContainersUI--><rect codeLine="6" fill="#FEFECE" filter="url(#f1xsl026w8n07e)" height="48" id="AddContainersUI" style="stroke:#A80036;stroke-width:1.5;" width="126" x="169" y="42"/><ellipse cx="184" cy="58" fill="#ADD1B2" rx="11" ry="11" style="stroke:#A80036;stroke-width:1.0;"/><path d="M186,54.5 Q186.2031,54 186.4375,53.75 Q186.6719,53.5 186.9375,53.5 Q187.4063,53.5 187.7031,53.7813 Q188,54.0625 188,54.7188 L188,56.2813 Q188,56.9375 187.7188,57.2188 Q187.4375,57.5 187,57.5 Q186.6094,57.5 186.3594,57.3281 Q186.1094,57.1563 186,56.7031 Q185.9531,56.3906 185.7813,56.2188 Q185.4688,55.8906 184.9063,55.7031 Q184.3438,55.5 183.7813,55.5 Q183.0781,55.5 182.4844,55.7813 Q181.9063,56.0625 181.4531,56.6875 Q181,57.3125 181,58.1719 L181,59.0938 Q181,60.125 181.8438,60.8125 Q182.6875,61.5 184.1875,61.5 Q185.0781,61.5 185.7031,61.2969 Q186.0625,61.1875 186.4688,60.8281 Q186.7344,60.625 186.875,60.5625 Q187.0156,60.5 187.1875,60.5 Q187.5156,60.5 187.75,60.7656 Q188,61.0156 188,61.375 Q188,61.7188 187.6563,62.125 Q187.1563,62.7188 186.3594,63.0469 Q185.3125,63.5 184.0313,63.5 Q182.5313,63.5 181.3281,62.9063 Q180.3594,62.4375 179.6719,61.4219 Q179,60.4063 179,59.2031 L179,58.1094 Q179,56.8594 179.5938,55.7656 Q180.2031,54.6719 181.25,54.0938 Q182.3125,53.5 183.5,53.5 Q184.2188,53.5 184.8438,53.75 Q185.4688,54 186,54.5 Z " fill="#000000"/><text fill="#000000" font-family="sans-serif" font-size="12" lengthAdjust="spacing" textLength="94" x="198" y="62.9102">AddContainersUI</text><line style="stroke:#A80036;stroke-width:1.5;" x1="170" x2="294" y1="74" y2="74"/><line style="stroke:#A80036;stroke-width:1.5;" x1="170" x2="294" y1="82" y2="82"/><!--MD5=[6287d5f8e04d73216c5faf7236f86ff2]
class AddContainersController--><rect codeLine="11" fill="#FEFECE" filter="url(#f1xsl026w8n07e)" height="61.8359" id="AddContainersController" style="stroke:#A80036;stroke-width:1.5;" width="168" x="148" y="166"/><ellipse cx="163" cy="182" fill="#ADD1B2" rx="11" ry="11" style="stroke:#A80036;stroke-width:1.0;"/><path d="M165,178.5 Q165.2031,178 165.4375,177.75 Q165.6719,177.5 165.9375,177.5 Q166.4063,177.5 166.7031,177.7813 Q167,178.0625 167,178.7188 L167,180.2813 Q167,180.9375 166.7188,181.2188 Q166.4375,181.5 166,181.5 Q165.6094,181.5 165.3594,181.3281 Q165.1094,181.1563 165,180.7031 Q164.9531,180.3906 164.7813,180.2188 Q164.4688,179.8906 163.9063,179.7031 Q163.3438,179.5 162.7813,179.5 Q162.0781,179.5 161.4844,179.7813 Q160.9063,180.0625 160.4531,180.6875 Q160,181.3125 160,182.1719 L160,183.0938 Q160,184.125 160.8438,184.8125 Q161.6875,185.5 163.1875,185.5 Q164.0781,185.5 164.7031,185.2969 Q165.0625,185.1875 165.4688,184.8281 Q165.7344,184.625 165.875,184.5625 Q166.0156,184.5 166.1875,184.5 Q166.5156,184.5 166.75,184.7656 Q167,185.0156 167,185.375 Q167,185.7188 166.6563,186.125 Q166.1563,186.7188 165.3594,187.0469 Q164.3125,187.5 163.0313,187.5 Q161.5313,187.5 160.3281,186.9063 Q159.3594,186.4375 158.6719,185.4219 Q158,184.4063 158,183.2031 L158,182.1094 Q158,180.8594 158.5938,179.7656 Q159.2031,178.6719 160.25,178.0938 Q161.3125,177.5 162.5,177.5 Q163.2188,177.5 163.8438,177.75 Q164.4688,178 165,178.5 Z " fill="#000000"/><text fill="#000000" font-family="sans-serif" font-size="12" lengthAdjust="spacing" textLength="136" x="177" y="186.9102">AddContainersController</text><line style="stroke:#A80036;stroke-width:1.5;" x1="149" x2="315" y1="198" y2="198"/><line style="stroke:#A80036;stroke-width:1.5;" x1="149" x2="315" y1="206" y2="206"/><text fill="#000000" font-family="sans-serif" font-size="11" lengthAdjust="spacing" textLength="135" x="154" y="221.4189">+addContainers(containers)</text><!--MD5=[69f2f3ad3645114d26612368d508f737]
class Printer--><rect codeLine="16" fill="#FEFECE" filter="url(#f1xsl026w8n07e)" height="61.8359" id="Printer" style="stroke:#A80036;stroke-width:1.5;" width="175" x="32.5" y="368.5"/><ellipse cx="97.75" cy="384.5" fill="#ADD1B2" rx="11" ry="11" style="stroke:#A80036;stroke-width:1.0;"/><path d="M99.75,381 Q99.9531,380.5 100.1875,380.25 Q100.4219,380 100.6875,380 Q101.1563,380 101.4531,380.2813 Q101.75,380.5625 101.75,381.2188 L101.75,382.7813 Q101.75,383.4375 101.4688,383.7188 Q101.1875,384 100.75,384 Q100.3594,384 100.1094,383.8281 Q99.8594,383.6563 99.75,383.2031 Q99.7031,382.8906 99.5313,382.7188 Q99.2188,382.3906 98.6563,382.2031 Q98.0938,382 97.5313,382 Q96.8281,382 96.2344,382.2813 Q95.6563,382.5625 95.2031,383.1875 Q94.75,383.8125 94.75,384.6719 L94.75,385.5938 Q94.75,386.625 95.5938,387.3125 Q96.4375,388 97.9375,388 Q98.8281,388 99.4531,387.7969 Q99.8125,387.6875 100.2188,387.3281 Q100.4844,387.125 100.625,387.0625 Q100.7656,387 100.9375,387 Q101.2656,387 101.5,387.2656 Q101.75,387.5156 101.75,387.875 Q101.75,388.2188 101.4063,388.625 Q100.9063,389.2188 100.1094,389.5469 Q99.0625,390 97.7813,390 Q96.2813,390 95.0781,389.4063 Q94.1094,388.9375 93.4219,387.9219 Q92.75,386.9063 92.75,385.7031 L92.75,384.6094 Q92.75,383.3594 93.3438,382.2656 Q93.9531,381.1719 95,380.5938 Q96.0625,380 97.25,380 Q97.9688,380 98.5938,380.25 Q99.2188,380.5 99.75,381 Z " fill="#000000"/><text fill="#000000" font-family="sans-serif" font-size="12" lengthAdjust="spacing" textLength="36" x="118.25" y="389.4102">Printer</text><line style="stroke:#A80036;stroke-width:1.5;" x1="33.5" x2="206.5" y1="400.5" y2="400.5"/><line style="stroke:#A80036;stroke-width:1.5;" x1="33.5" x2="206.5" y1="408.5" y2="408.5"/><text fill="#000000" font-family="sans-serif" font-size="11" lengthAdjust="spacing" textLength="163" x="38.5" y="423.9189">+print(fileName,stringToPrint,path)</text><!--MD5=[96e60f0d960b37f19a148b746e790fb4]
class LaprStore--><rect codeLine="20" fill="#FEFECE" filter="url(#f1xsl026w8n07e)" height="103.3438" id="LaprStore" style="stroke:#A80036;stroke-width:1.5;" width="204" x="243" y="348"/><ellipse cx="313.75" cy="364" fill="#ADD1B2" rx="11" ry="11" style="stroke:#A80036;stroke-width:1.0;"/><path d="M315.75,360.5 Q315.9531,360 316.1875,359.75 Q316.4219,359.5 316.6875,359.5 Q317.1563,359.5 317.4531,359.7813 Q317.75,360.0625 317.75,360.7188 L317.75,362.2813 Q317.75,362.9375 317.4688,363.2188 Q317.1875,363.5 316.75,363.5 Q316.3594,363.5 316.1094,363.3281 Q315.8594,363.1563 315.75,362.7031 Q315.7031,362.3906 315.5313,362.2188 Q315.2188,361.8906 314.6563,361.7031 Q314.0938,361.5 313.5313,361.5 Q312.8281,361.5 312.2344,361.7813 Q311.6563,362.0625 311.2031,362.6875 Q310.75,363.3125 310.75,364.1719 L310.75,365.0938 Q310.75,366.125 311.5938,366.8125 Q312.4375,367.5 313.9375,367.5 Q314.8281,367.5 315.4531,367.2969 Q315.8125,367.1875 316.2188,366.8281 Q316.4844,366.625 316.625,366.5625 Q316.7656,366.5 316.9375,366.5 Q317.2656,366.5 317.5,366.7656 Q317.75,367.0156 317.75,367.375 Q317.75,367.7188 317.4063,368.125 Q316.9063,368.7188 316.1094,369.0469 Q315.0625,369.5 313.7813,369.5 Q312.2813,369.5 311.0781,368.9063 Q310.1094,368.4375 309.4219,367.4219 Q308.75,366.4063 308.75,365.2031 L308.75,364.1094 Q308.75,362.8594 309.3438,361.7656 Q309.9531,360.6719 311,360.0938 Q312.0625,359.5 313.25,359.5 Q313.9688,359.5 314.5938,359.75 Q315.2188,360 315.75,360.5 Z " fill="#000000"/><text fill="#000000" font-family="sans-serif" font-size="12" lengthAdjust="spacing" textLength="54" x="334.25" y="368.9102">LaprStore</text><line style="stroke:#A80036;stroke-width:1.5;" x1="244" x2="446" y1="380" y2="380"/><line style="stroke:#A80036;stroke-width:1.5;" x1="244" x2="446" y1="388" y2="388"/><text fill="#000000" font-family="sans-serif" font-size="11" lengthAdjust="spacing" textLength="151" x="249" y="403.4189">+keepCenterOfMassPanamax()</text><text fill="#000000" font-family="sans-serif" font-size="11" lengthAdjust="spacing" textLength="174" x="249" y="417.2549">+keepCenterOfMassNewPanamax()</text><text fill="#000000" font-family="sans-serif" font-size="11" lengthAdjust="spacing" textLength="191" x="249" y="431.0908">+keepCenterOfMassUltraLargeVessel()</text><text fill="#000000" font-family="sans-serif" font-size="11" lengthAdjust="spacing" textLength="192" x="249" y="444.9268">+addContainersMatrix(m,cm,containers)</text><!--MD5=[2553eb51169d49df5fd0b0539ec1c14f]
link AddContainersUI to AddContainersController--><path codeLine="29" d="M232,90.06 C232,109.65 232,138.09 232,160.57 " fill="none" id="AddContainersUI-to-AddContainersController" style="stroke:#A80036;stroke-width:1.0;stroke-dasharray:7.0,7.0;"/><polygon fill="#A80036" points="232,165.85,236,156.85,232,160.85,228,156.85,232,165.85" style="stroke:#A80036;stroke-width:1.0;"/><!--MD5=[e66a9c041e31fe901e80097667ae7c67]
link AddContainersController to Printer--><path codeLine="30" d="M215.23,228.02 C194.94,264.34 160.85,325.38 139.43,363.72 " fill="none" id="AddContainersController-to-Printer" style="stroke:#A80036;stroke-width:1.0;stroke-dasharray:7.0,7.0;"/><polygon fill="#A80036" points="136.88,368.28,144.7622,362.3748,139.3191,363.9153,137.7786,358.4722,136.88,368.28" style="stroke:#A80036;stroke-width:1.0;"/><!--MD5=[f8cf30fcf14b8e2b5e84bb1f657faa8e]
link AddContainersController to LaprStore--><path codeLine="31" d="M248.92,228.02 C266.02,258.36 292.83,305.94 313.8,343.13 " fill="none" id="AddContainersController-to-LaprStore" style="stroke:#A80036;stroke-width:1.0;stroke-dasharray:7.0,7.0;"/><polygon fill="#A80036" points="316.32,347.62,315.3833,337.8158,313.8639,343.2648,308.4149,341.7455,316.32,347.62" style="stroke:#A80036;stroke-width:1.0;"/><!--MD5=[21f671372aa187dc90d152ba85ea72d6]
@startuml
'https://plantuml.com/class-diagram

skinparam classAttributeIconSize 0

package "ui" {
class AddContainersUI{
}
}

package "controllers" {
class AddContainersController{
+addContainers(containers)
}
}
package utils{
class Printer{
+print(fileName,stringToPrint,path)
}
package stores{
class LaprStore{
+keepCenterOfMassPanamax()
+keepCenterOfMassNewPanamax()
+keepCenterOfMassUltraLargeVessel()
+addContainersMatrix(m,cm,containers)
}
}
}

AddContainersUI ..> AddContainersController
AddContainersController ..> Printer
AddContainersController ..> LaprStore
@enduml

@startuml

skinparam classAttributeIconSize 0

package "ui" {
class AddContainersUI{
}
}

package "controllers" {
class AddContainersController{
+addContainers(containers)
}
}
package utils{
class Printer{
+print(fileName,stringToPrint,path)
}
package stores{
class LaprStore{
+keepCenterOfMassPanamax()
+keepCenterOfMassNewPanamax()
+keepCenterOfMassUltraLargeVessel()
+addContainersMatrix(m,cm,containers)
}
}
}

AddContainersUI ..> AddContainersController
AddContainersController ..> Printer
AddContainersController ..> LaprStore
@enduml

PlantUML version 1.2021.11(Sat Oct 02 14:26:11 BST 2021)
(GPL source distribution)
Java Runtime: OpenJDK Runtime Environment
JVM: OpenJDK 64-Bit Server VM
Default Encoding: Cp1252
Language: pt
Country: PT
--></g></svg>