<?xml version="1.0" encoding="UTF-8" standalone="no"?><svg xmlns="http://www.w3.org/2000/svg" xmlns:xlink="http://www.w3.org/1999/xlink" contentScriptType="application/ecmascript" contentStyleType="text/css" height="457px" preserveAspectRatio="none" style="width:1365px;height:457px;" version="1.1" viewBox="0 0 1365 457" width="1365px" zoomAndPan="magnify"><defs><filter height="300%" id="fni9o7s8t80mj" width="300%" x="-1" y="-1"><feGaussianBlur result="blurOut" stdDeviation="2.0"/><feColorMatrix in="blurOut" result="blurOut2" type="matrix" values="0 0 0 0 0 0 0 0 0 0 0 0 0 0 0 0 0 0 .4 0"/><feOffset dx="4.0" dy="4.0" in="blurOut2" result="blurOut3"/><feBlend in="SourceGraphic" in2="blurOut3" mode="normal"/></filter></defs><g><!--MD5=[64e2e010ba86d7988e5cd73bd64f61f9]
cluster ui--><polygon fill="#FFFFFF" filter="url(#fni9o7s8t80mj)" points="321,6,340,6,347,29.6094,491,29.6094,491,106,321,106,321,6" style="stroke:#000000;stroke-width:1.5;"/><line style="stroke:#000000;stroke-width:1.5;" x1="321" x2="347" y1="29.6094" y2="29.6094"/><text fill="#000000" font-family="sans-serif" font-size="14" font-weight="bold" lengthAdjust="spacing" textLength="13" x="325" y="22.5332">ui</text><!--MD5=[f4e70ef68289585296b9045165e58692]
cluster controllers--><polygon fill="#FFFFFF" filter="url(#fni9o7s8t80mj)" points="16,130,99,130,106,153.6094,796,153.6094,796,244,16,244,16,130" style="stroke:#000000;stroke-width:1.5;"/><line style="stroke:#000000;stroke-width:1.5;" x1="16" x2="106" y1="153.6094" y2="153.6094"/><text fill="#000000" font-family="sans-serif" font-size="14" font-weight="bold" lengthAdjust="spacing" textLength="77" x="20" y="146.5332">controllers</text><!--MD5=[c52f45833d539af9e29a9d34b8b7302b]
cluster utils--><polygon fill="#FFFFFF" filter="url(#fni9o7s8t80mj)" points="100,268,136,268,143,291.6094,1348,291.6094,1348,450,100,450,100,268" style="stroke:#000000;stroke-width:1.5;"/><line style="stroke:#000000;stroke-width:1.5;" x1="100" x2="143" y1="291.6094" y2="291.6094"/><text fill="#000000" font-family="sans-serif" font-size="14" font-weight="bold" lengthAdjust="spacing" textLength="30" x="104" y="284.5332">utils</text><!--MD5=[fbca5634cbc0239920b500cad9c4bedb]
cluster stores--><polygon fill="#FFFFFF" filter="url(#fni9o7s8t80mj)" points="274,312,325,312,332,335.6094,1324,335.6094,1324,426,274,426,274,312" style="stroke:#000000;stroke-width:1.5;"/><line style="stroke:#000000;stroke-width:1.5;" x1="274" x2="332" y1="335.6094" y2="335.6094"/><text fill="#000000" font-family="sans-serif" font-size="14" font-weight="bold" lengthAdjust="spacing" textLength="45" x="278" y="328.5332">stores</text><!--MD5=[5d4cd377749310b66bf14896f5cd8d9b]
cluster model--><polygon fill="#FFFFFF" filter="url(#fni9o7s8t80mj)" points="124,312,173,312,180,335.6094,250,335.6094,250,426,124,426,124,312" style="stroke:#000000;stroke-width:1.5;"/><line style="stroke:#000000;stroke-width:1.5;" x1="124" x2="180" y1="335.6094" y2="335.6094"/><text fill="#000000" font-family="sans-serif" font-size="14" font-weight="bold" lengthAdjust="spacing" textLength="43" x="128" y="328.5332">model</text><!--MD5=[fdfe833db72164ae2b9dd66e44792dab]
class EnergyWithSidesUI--><rect codeLine="6" fill="#FEFECE" filter="url(#fni9o7s8t80mj)" height="48" id="EnergyWithSidesUI" style="stroke:#A80036;stroke-width:1.5;" width="138" x="337" y="42"/><ellipse cx="352" cy="58" fill="#ADD1B2" rx="11" ry="11" style="stroke:#A80036;stroke-width:1.0;"/><path d="M354,54.5 Q354.2031,54 354.4375,53.75 Q354.6719,53.5 354.9375,53.5 Q355.4063,53.5 355.7031,53.7813 Q356,54.0625 356,54.7188 L356,56.2813 Q356,56.9375 355.7188,57.2188 Q355.4375,57.5 355,57.5 Q354.6094,57.5 354.3594,57.3281 Q354.1094,57.1563 354,56.7031 Q353.9531,56.3906 353.7813,56.2188 Q353.4688,55.8906 352.9063,55.7031 Q352.3438,55.5 351.7813,55.5 Q351.0781,55.5 350.4844,55.7813 Q349.9063,56.0625 349.4531,56.6875 Q349,57.3125 349,58.1719 L349,59.0938 Q349,60.125 349.8438,60.8125 Q350.6875,61.5 352.1875,61.5 Q353.0781,61.5 353.7031,61.2969 Q354.0625,61.1875 354.4688,60.8281 Q354.7344,60.625 354.875,60.5625 Q355.0156,60.5 355.1875,60.5 Q355.5156,60.5 355.75,60.7656 Q356,61.0156 356,61.375 Q356,61.7188 355.6563,62.125 Q355.1563,62.7188 354.3594,63.0469 Q353.3125,63.5 352.0313,63.5 Q350.5313,63.5 349.3281,62.9063 Q348.3594,62.4375 347.6719,61.4219 Q347,60.4063 347,59.2031 L347,58.1094 Q347,56.8594 347.5938,55.7656 Q348.2031,54.6719 349.25,54.0938 Q350.3125,53.5 351.5,53.5 Q352.2188,53.5 352.8438,53.75 Q353.4688,54 354,54.5 Z " fill="#000000"/><text fill="#000000" font-family="sans-serif" font-size="12" lengthAdjust="spacing" textLength="106" x="366" y="62.9102">EnergyWithSidesUI</text><line style="stroke:#A80036;stroke-width:1.5;" x1="338" x2="474" y1="74" y2="74"/><line style="stroke:#A80036;stroke-width:1.5;" x1="338" x2="474" y1="82" y2="82"/><!--MD5=[81fbed24e8bc6e3966c35279cf7499bb]
class EnergyWithSidesController--><rect codeLine="11" fill="#FEFECE" filter="url(#fni9o7s8t80mj)" height="61.8359" id="EnergyWithSidesController" style="stroke:#A80036;stroke-width:1.5;" width="748" x="32" y="166"/><ellipse cx="327.75" cy="182" fill="#ADD1B2" rx="11" ry="11" style="stroke:#A80036;stroke-width:1.0;"/><path d="M329.75,178.5 Q329.9531,178 330.1875,177.75 Q330.4219,177.5 330.6875,177.5 Q331.1563,177.5 331.4531,177.7813 Q331.75,178.0625 331.75,178.7188 L331.75,180.2813 Q331.75,180.9375 331.4688,181.2188 Q331.1875,181.5 330.75,181.5 Q330.3594,181.5 330.1094,181.3281 Q329.8594,181.1563 329.75,180.7031 Q329.7031,180.3906 329.5313,180.2188 Q329.2188,179.8906 328.6563,179.7031 Q328.0938,179.5 327.5313,179.5 Q326.8281,179.5 326.2344,179.7813 Q325.6563,180.0625 325.2031,180.6875 Q324.75,181.3125 324.75,182.1719 L324.75,183.0938 Q324.75,184.125 325.5938,184.8125 Q326.4375,185.5 327.9375,185.5 Q328.8281,185.5 329.4531,185.2969 Q329.8125,185.1875 330.2188,184.8281 Q330.4844,184.625 330.625,184.5625 Q330.7656,184.5 330.9375,184.5 Q331.2656,184.5 331.5,184.7656 Q331.75,185.0156 331.75,185.375 Q331.75,185.7188 331.4063,186.125 Q330.9063,186.7188 330.1094,187.0469 Q329.0625,187.5 327.7813,187.5 Q326.2813,187.5 325.0781,186.9063 Q324.1094,186.4375 323.4219,185.4219 Q322.75,184.4063 322.75,183.2031 L322.75,182.1094 Q322.75,180.8594 323.3438,179.7656 Q323.9531,178.6719 325,178.0938 Q326.0625,177.5 327.25,177.5 Q327.9688,177.5 328.5938,177.75 Q329.2188,178 329.75,178.5 Z " fill="#000000"/><text fill="#000000" font-family="sans-serif" font-size="12" lengthAdjust="spacing" textLength="148" x="348.25" y="186.9102">EnergyWithSidesController</text><line style="stroke:#A80036;stroke-width:1.5;" x1="33" x2="779" y1="198" y2="198"/><line style="stroke:#A80036;stroke-width:1.5;" x1="33" x2="779" y1="206" y2="206"/><text fill="#000000" font-family="sans-serif" font-size="11" lengthAdjust="spacing" textLength="736" x="38" y="221.4189">+getgenerators(positivecontainers, lateralsidespositive, frontalsidespositive, negativecontainers, lateralsidesnegative, frontalsidesnegative, temperatura)</text><!--MD5=[74d4f6d08803cf10722a02715f5c50bf]
class FsiapStore--><rect codeLine="17" fill="#FEFECE" filter="url(#fni9o7s8t80mj)" height="61.8359" id="FsiapStore" style="stroke:#A80036;stroke-width:1.5;" width="751" x="556.5" y="348"/><ellipse cx="897.75" cy="364" fill="#ADD1B2" rx="11" ry="11" style="stroke:#A80036;stroke-width:1.0;"/><path d="M899.75,360.5 Q899.9531,360 900.1875,359.75 Q900.4219,359.5 900.6875,359.5 Q901.1563,359.5 901.4531,359.7813 Q901.75,360.0625 901.75,360.7188 L901.75,362.2813 Q901.75,362.9375 901.4688,363.2188 Q901.1875,363.5 900.75,363.5 Q900.3594,363.5 900.1094,363.3281 Q899.8594,363.1563 899.75,362.7031 Q899.7031,362.3906 899.5313,362.2188 Q899.2188,361.8906 898.6563,361.7031 Q898.0938,361.5 897.5313,361.5 Q896.8281,361.5 896.2344,361.7813 Q895.6563,362.0625 895.2031,362.6875 Q894.75,363.3125 894.75,364.1719 L894.75,365.0938 Q894.75,366.125 895.5938,366.8125 Q896.4375,367.5 897.9375,367.5 Q898.8281,367.5 899.4531,367.2969 Q899.8125,367.1875 900.2188,366.8281 Q900.4844,366.625 900.625,366.5625 Q900.7656,366.5 900.9375,366.5 Q901.2656,366.5 901.5,366.7656 Q901.75,367.0156 901.75,367.375 Q901.75,367.7188 901.4063,368.125 Q900.9063,368.7188 900.1094,369.0469 Q899.0625,369.5 897.7813,369.5 Q896.2813,369.5 895.0781,368.9063 Q894.1094,368.4375 893.4219,367.4219 Q892.75,366.4063 892.75,365.2031 L892.75,364.1094 Q892.75,362.8594 893.3438,361.7656 Q893.9531,360.6719 895,360.0938 Q896.0625,359.5 897.25,359.5 Q897.9688,359.5 898.5938,359.75 Q899.2188,360 899.75,360.5 Z " fill="#000000"/><text fill="#000000" font-family="sans-serif" font-size="12" lengthAdjust="spacing" textLength="60" x="918.25" y="368.9102">FsiapStore</text><line style="stroke:#A80036;stroke-width:1.5;" x1="557.5" x2="1306.5" y1="380" y2="380"/><line style="stroke:#A80036;stroke-width:1.5;" x1="557.5" x2="1306.5" y1="388" y2="388"/><text fill="#000000" font-family="sans-serif" font-size="11" lengthAdjust="spacing" textLength="739" x="562.5" y="403.4189">+getFluxoWithSides(positivecontainers,lateralsidespositive,frontalsidespositive,negativecontainers,lateralsidesnegative,frontalsidesnegative,temperatura)</text><!--MD5=[69f2f3ad3645114d26612368d508f737]
class Printer--><rect codeLine="21" fill="#FEFECE" filter="url(#fni9o7s8t80mj)" height="61.8359" id="Printer" style="stroke:#A80036;stroke-width:1.5;" width="231" x="290.5" y="348"/><ellipse cx="383.75" cy="364" fill="#ADD1B2" rx="11" ry="11" style="stroke:#A80036;stroke-width:1.0;"/><path d="M385.75,360.5 Q385.9531,360 386.1875,359.75 Q386.4219,359.5 386.6875,359.5 Q387.1563,359.5 387.4531,359.7813 Q387.75,360.0625 387.75,360.7188 L387.75,362.2813 Q387.75,362.9375 387.4688,363.2188 Q387.1875,363.5 386.75,363.5 Q386.3594,363.5 386.1094,363.3281 Q385.8594,363.1563 385.75,362.7031 Q385.7031,362.3906 385.5313,362.2188 Q385.2188,361.8906 384.6563,361.7031 Q384.0938,361.5 383.5313,361.5 Q382.8281,361.5 382.2344,361.7813 Q381.6563,362.0625 381.2031,362.6875 Q380.75,363.3125 380.75,364.1719 L380.75,365.0938 Q380.75,366.125 381.5938,366.8125 Q382.4375,367.5 383.9375,367.5 Q384.8281,367.5 385.4531,367.2969 Q385.8125,367.1875 386.2188,366.8281 Q386.4844,366.625 386.625,366.5625 Q386.7656,366.5 386.9375,366.5 Q387.2656,366.5 387.5,366.7656 Q387.75,367.0156 387.75,367.375 Q387.75,367.7188 387.4063,368.125 Q386.9063,368.7188 386.1094,369.0469 Q385.0625,369.5 383.7813,369.5 Q382.2813,369.5 381.0781,368.9063 Q380.1094,368.4375 379.4219,367.4219 Q378.75,366.4063 378.75,365.2031 L378.75,364.1094 Q378.75,362.8594 379.3438,361.7656 Q379.9531,360.6719 381,360.0938 Q382.0625,359.5 383.25,359.5 Q383.9688,359.5 384.5938,359.75 Q385.2188,360 385.75,360.5 Z " fill="#000000"/><text fill="#000000" font-family="sans-serif" font-size="12" lengthAdjust="spacing" textLength="36" x="404.25" y="368.9102">Printer</text><line style="stroke:#A80036;stroke-width:1.5;" x1="291.5" x2="520.5" y1="380" y2="380"/><line style="stroke:#A80036;stroke-width:1.5;" x1="291.5" x2="520.5" y1="388" y2="388"/><text fill="#000000" font-family="sans-serif" font-size="11" lengthAdjust="spacing" textLength="219" x="296.5" y="403.4189">+print(Needed generators,generators,US415)</text><!--MD5=[02e4b9b7573f1156f41e60aa5b4e25a4]
class Company--><rect codeLine="26" fill="#FEFECE" filter="url(#fni9o7s8t80mj)" height="61.8359" id="Company" style="stroke:#A80036;stroke-width:1.5;" width="93" x="140.5" y="348"/><ellipse cx="159.1" cy="364" fill="#ADD1B2" rx="11" ry="11" style="stroke:#A80036;stroke-width:1.0;"/><path d="M161.1,360.5 Q161.3031,360 161.5375,359.75 Q161.7719,359.5 162.0375,359.5 Q162.5063,359.5 162.8031,359.7813 Q163.1,360.0625 163.1,360.7188 L163.1,362.2813 Q163.1,362.9375 162.8188,363.2188 Q162.5375,363.5 162.1,363.5 Q161.7094,363.5 161.4594,363.3281 Q161.2094,363.1563 161.1,362.7031 Q161.0531,362.3906 160.8813,362.2188 Q160.5688,361.8906 160.0063,361.7031 Q159.4438,361.5 158.8813,361.5 Q158.1781,361.5 157.5844,361.7813 Q157.0063,362.0625 156.5531,362.6875 Q156.1,363.3125 156.1,364.1719 L156.1,365.0938 Q156.1,366.125 156.9438,366.8125 Q157.7875,367.5 159.2875,367.5 Q160.1781,367.5 160.8031,367.2969 Q161.1625,367.1875 161.5688,366.8281 Q161.8344,366.625 161.975,366.5625 Q162.1156,366.5 162.2875,366.5 Q162.6156,366.5 162.85,366.7656 Q163.1,367.0156 163.1,367.375 Q163.1,367.7188 162.7563,368.125 Q162.2563,368.7188 161.4594,369.0469 Q160.4125,369.5 159.1313,369.5 Q157.6313,369.5 156.4281,368.9063 Q155.4594,368.4375 154.7719,367.4219 Q154.1,366.4063 154.1,365.2031 L154.1,364.1094 Q154.1,362.8594 154.6938,361.7656 Q155.3031,360.6719 156.35,360.0938 Q157.4125,359.5 158.6,359.5 Q159.3188,359.5 159.9438,359.75 Q160.5688,360 161.1,360.5 Z " fill="#000000"/><text fill="#000000" font-family="sans-serif" font-size="12" lengthAdjust="spacing" textLength="53" x="173.9" y="368.9102">Company</text><line style="stroke:#A80036;stroke-width:1.5;" x1="141.5" x2="232.5" y1="380" y2="380"/><line style="stroke:#A80036;stroke-width:1.5;" x1="141.5" x2="232.5" y1="388" y2="388"/><text fill="#000000" font-family="sans-serif" font-size="11" lengthAdjust="spacing" textLength="81" x="146.5" y="403.4189">+getFsiapStore()</text><!--MD5=[553475eda3cf8c548ca4769fddb0fbdf]
link EnergyWithSidesUI to EnergyWithSidesController--><path codeLine="32" d="M406,90.06 C406,109.65 406,138.09 406,160.57 " fill="none" id="EnergyWithSidesUI-to-EnergyWithSidesController" style="stroke:#A80036;stroke-width:1.0;stroke-dasharray:7.0,7.0;"/><polygon fill="#A80036" points="406,165.85,410,156.85,406,160.85,402,156.85,406,165.85" style="stroke:#A80036;stroke-width:1.0;"/><!--MD5=[c98f2d567967d7d8ed90768aba74df6d]
link EnergyWithSidesController to Company--><path codeLine="33" d="M325.43,228.07 C307.48,236.82 289.26,247.47 274,260 C245.64,283.28 221.63,317.76 206.07,343.44 " fill="none" id="EnergyWithSidesController-to-Company" style="stroke:#A80036;stroke-width:1.0;stroke-dasharray:7.0,7.0;"/><polygon fill="#A80036" points="203.45,347.81,211.5104,342.1505,206.0225,343.5225,204.6505,338.0346,203.45,347.81" style="stroke:#A80036;stroke-width:1.0;"/><!--MD5=[ab1f6ebff3b775116b7b4a96dd3271b1]
link EnergyWithSidesController to FsiapStore--><path codeLine="34" d="M493.74,228.03 C589.32,260.73 741.56,312.83 839.11,346.21 " fill="none" id="EnergyWithSidesController-to-FsiapStore" style="stroke:#A80036;stroke-width:1.0;stroke-dasharray:7.0,7.0;"/><polygon fill="#A80036" points="844.01,347.89,836.7788,341.2034,839.2767,346.279,834.2011,348.7768,844.01,347.89" style="stroke:#A80036;stroke-width:1.0;"/><!--MD5=[5eb41c42b93e0ad50fc3a2abfc841228]
link EnergyWithSidesController to Printer--><path codeLine="35" d="M406,228.13 C406,259.67 406,309.16 406,342.56 " fill="none" id="EnergyWithSidesController-to-Printer" style="stroke:#A80036;stroke-width:1.0;stroke-dasharray:7.0,7.0;"/><polygon fill="#A80036" points="406,347.77,410,338.77,406,342.77,402,338.77,406,347.77" style="stroke:#A80036;stroke-width:1.0;"/><!--MD5=[f2aeda45204de3605b663314ec6d09f5]
@startuml
'https://plantuml.com/class-diagram

skinparam classAttributeIconSize 0

package "ui" {
class EnergyWithSidesUI{
}
}

package "controllers" {
class EnergyWithSidesController{
+getgenerators(positivecontainers, lateralsidespositive, frontalsidespositive, negativecontainers, lateralsidesnegative, frontalsidesnegative, temperatura)
}
}
package utils{
package "stores"{
class FsiapStore{
+getFluxoWithSides(positivecontainers,lateralsidespositive,frontalsidespositive,negativecontainers,lateralsidesnegative,frontalsidesnegative,temperatura)
}

class Printer{
+print(Needed generators,generators,US415)
}
}
package "model"{
class Company{
+getFsiapStore()
}

}

EnergyWithSidesUI ..> EnergyWithSidesController
EnergyWithSidesController ..> Company
EnergyWithSidesController ..> FsiapStore
EnergyWithSidesController ..> Printer

@enduml

@startuml

skinparam classAttributeIconSize 0

package "ui" {
class EnergyWithSidesUI{
}
}

package "controllers" {
class EnergyWithSidesController{
+getgenerators(positivecontainers, lateralsidespositive, frontalsidespositive, negativecontainers, lateralsidesnegative, frontalsidesnegative, temperatura)
}
}
package utils{
package "stores"{
class FsiapStore{
+getFluxoWithSides(positivecontainers,lateralsidespositive,frontalsidespositive,negativecontainers,lateralsidesnegative,frontalsidesnegative,temperatura)
}

class Printer{
+print(Needed generators,generators,US415)
}
}
package "model"{
class Company{
+getFsiapStore()
}

}

EnergyWithSidesUI ..> EnergyWithSidesController
EnergyWithSidesController ..> Company
EnergyWithSidesController ..> FsiapStore
EnergyWithSidesController ..> Printer

@enduml

PlantUML version 1.2021.2(Sun Mar 07 11:10:27 GMT 2021)
(GPL source distribution)
Java Runtime: OpenJDK Runtime Environment
JVM: OpenJDK 64-Bit Server VM
Default Encoding: Cp1252
Language: pt
Country: PT
--></g></svg>