<?xml version="1.0" encoding="UTF-8" standalone="no"?><svg xmlns="http://www.w3.org/2000/svg" xmlns:xlink="http://www.w3.org/1999/xlink" contentScriptType="application/ecmascript" contentStyleType="text/css" height="540px" preserveAspectRatio="none" style="width:525px;height:540px;" version="1.1" viewBox="0 0 525 540" width="525px" zoomAndPan="magnify"><defs><filter height="300%" id="f473qik65kv0o" width="300%" x="-1" y="-1"><feGaussianBlur result="blurOut" stdDeviation="2.0"/><feColorMatrix in="blurOut" result="blurOut2" type="matrix" values="0 0 0 0 0 0 0 0 0 0 0 0 0 0 0 0 0 0 .4 0"/><feOffset dx="4.0" dy="4.0" in="blurOut2" result="blurOut3"/><feBlend in="SourceGraphic" in2="blurOut3" mode="normal"/></filter></defs><g><!--MD5=[02e4b9b7573f1156f41e60aa5b4e25a4]
class Company--><rect codeLine="7" fill="#FEFECE" filter="url(#f473qik65kv0o)" height="40" id="Company" style="stroke:#A80036;stroke-width:1.5;" width="85" x="21" y="9.3564"/><ellipse cx="36" cy="25.3564" fill="#ADD1B2" rx="11" ry="11" style="stroke:#A80036;stroke-width:1.0;"/><path d="M38,21.8564 Q38.2031,21.3564 38.4375,21.1064 Q38.6719,20.8564 38.9375,20.8564 Q39.4063,20.8564 39.7031,21.1377 Q40,21.4189 40,22.0752 L40,23.6377 Q40,24.2939 39.7188,24.5752 Q39.4375,24.8564 39,24.8564 Q38.6094,24.8564 38.3594,24.6846 Q38.1094,24.5127 38,24.0596 Q37.9531,23.7471 37.7813,23.5752 Q37.4688,23.2471 36.9063,23.0596 Q36.3438,22.8564 35.7813,22.8564 Q35.0781,22.8564 34.4844,23.1377 Q33.9063,23.4189 33.4531,24.0439 Q33,24.6689 33,25.5283 L33,26.4502 Q33,27.4814 33.8438,28.1689 Q34.6875,28.8564 36.1875,28.8564 Q37.0781,28.8564 37.7031,28.6533 Q38.0625,28.5439 38.4688,28.1846 Q38.7344,27.9814 38.875,27.9189 Q39.0156,27.8564 39.1875,27.8564 Q39.5156,27.8564 39.75,28.1221 Q40,28.3721 40,28.7314 Q40,29.0752 39.6563,29.4814 Q39.1563,30.0752 38.3594,30.4033 Q37.3125,30.8564 36.0313,30.8564 Q34.5313,30.8564 33.3281,30.2627 Q32.3594,29.7939 31.6719,28.7783 Q31,27.7627 31,26.5596 L31,25.4658 Q31,24.2158 31.5938,23.1221 Q32.2031,22.0283 33.25,21.4502 Q34.3125,20.8564 35.5,20.8564 Q36.2188,20.8564 36.8438,21.1064 Q37.4688,21.3564 38,21.8564 Z " fill="#000000"/><text fill="#000000" font-family="sans-serif" font-size="12" lengthAdjust="spacing" textLength="53" x="50" y="30.2666">Company</text><line style="stroke:#A80036;stroke-width:1.5;" x1="22" x2="105" y1="41.3564" y2="41.3564"/><!--MD5=[0dc7f2ddb409b58bcf52b12238c25399]
class Ship--><rect codeLine="11" fill="#FEFECE" filter="url(#f473qik65kv0o)" height="150.6875" id="Ship" style="stroke:#A80036;stroke-width:1.5;" width="57" x="273" y="67.8564"/><ellipse cx="288" cy="83.8564" fill="#ADD1B2" rx="11" ry="11" style="stroke:#A80036;stroke-width:1.0;"/><path d="M290,80.3564 Q290.2031,79.8564 290.4375,79.6064 Q290.6719,79.3564 290.9375,79.3564 Q291.4063,79.3564 291.7031,79.6377 Q292,79.9189 292,80.5752 L292,82.1377 Q292,82.7939 291.7188,83.0752 Q291.4375,83.3564 291,83.3564 Q290.6094,83.3564 290.3594,83.1846 Q290.1094,83.0127 290,82.5596 Q289.9531,82.2471 289.7813,82.0752 Q289.4688,81.7471 288.9063,81.5596 Q288.3438,81.3564 287.7813,81.3564 Q287.0781,81.3564 286.4844,81.6377 Q285.9063,81.9189 285.4531,82.5439 Q285,83.1689 285,84.0283 L285,84.9502 Q285,85.9814 285.8438,86.6689 Q286.6875,87.3564 288.1875,87.3564 Q289.0781,87.3564 289.7031,87.1533 Q290.0625,87.0439 290.4688,86.6846 Q290.7344,86.4814 290.875,86.4189 Q291.0156,86.3564 291.1875,86.3564 Q291.5156,86.3564 291.75,86.6221 Q292,86.8721 292,87.2314 Q292,87.5752 291.6563,87.9814 Q291.1563,88.5752 290.3594,88.9033 Q289.3125,89.3564 288.0313,89.3564 Q286.5313,89.3564 285.3281,88.7627 Q284.3594,88.2939 283.6719,87.2783 Q283,86.2627 283,85.0596 L283,83.9658 Q283,82.7158 283.5938,81.6221 Q284.2031,80.5283 285.25,79.9502 Q286.3125,79.3564 287.5,79.3564 Q288.2188,79.3564 288.8438,79.6064 Q289.4688,79.8564 290,80.3564 Z " fill="#000000"/><text fill="#000000" font-family="sans-serif" font-size="12" lengthAdjust="spacing" textLength="25" x="302" y="88.7666">Ship</text><line style="stroke:#A80036;stroke-width:1.5;" x1="274" x2="329" y1="99.8564" y2="99.8564"/><text fill="#000000" font-family="sans-serif" font-size="11" lengthAdjust="spacing" textLength="29" x="279" y="115.2754">-MMSI</text><text fill="#000000" font-family="sans-serif" font-size="11" lengthAdjust="spacing" textLength="30" x="279" y="129.1113">-name</text><text fill="#000000" font-family="sans-serif" font-size="11" lengthAdjust="spacing" textLength="22" x="279" y="142.9473">-IMO</text><text fill="#000000" font-family="sans-serif" font-size="11" lengthAdjust="spacing" textLength="40" x="279" y="156.7832">-callsign</text><text fill="#000000" font-family="sans-serif" font-size="11" lengthAdjust="spacing" textLength="25" x="279" y="170.6191">-type</text><text fill="#000000" font-family="sans-serif" font-size="11" lengthAdjust="spacing" textLength="33" x="279" y="184.4551">-length</text><text fill="#000000" font-family="sans-serif" font-size="11" lengthAdjust="spacing" textLength="31" x="279" y="198.291">-width</text><text fill="#000000" font-family="sans-serif" font-size="11" lengthAdjust="spacing" textLength="27" x="279" y="212.127">-draft</text><!--MD5=[deb4e1f6eb1e3c1256fdb830f96abfbb]
class Country--><rect codeLine="22" fill="#FEFECE" filter="url(#f473qik65kv0o)" height="150.6875" id="Country" style="stroke:#A80036;stroke-width:1.5;" width="79" x="262" y="253.8564"/><ellipse cx="279.25" cy="269.8564" fill="#ADD1B2" rx="11" ry="11" style="stroke:#A80036;stroke-width:1.0;"/><path d="M281.25,266.3564 Q281.4531,265.8564 281.6875,265.6064 Q281.9219,265.3564 282.1875,265.3564 Q282.6563,265.3564 282.9531,265.6377 Q283.25,265.9189 283.25,266.5752 L283.25,268.1377 Q283.25,268.7939 282.9688,269.0752 Q282.6875,269.3564 282.25,269.3564 Q281.8594,269.3564 281.6094,269.1846 Q281.3594,269.0127 281.25,268.5596 Q281.2031,268.2471 281.0313,268.0752 Q280.7188,267.7471 280.1563,267.5596 Q279.5938,267.3564 279.0313,267.3564 Q278.3281,267.3564 277.7344,267.6377 Q277.1563,267.9189 276.7031,268.5439 Q276.25,269.1689 276.25,270.0283 L276.25,270.9502 Q276.25,271.9814 277.0938,272.6689 Q277.9375,273.3564 279.4375,273.3564 Q280.3281,273.3564 280.9531,273.1533 Q281.3125,273.0439 281.7188,272.6846 Q281.9844,272.4814 282.125,272.4189 Q282.2656,272.3564 282.4375,272.3564 Q282.7656,272.3564 283,272.6221 Q283.25,272.8721 283.25,273.2314 Q283.25,273.5752 282.9063,273.9814 Q282.4063,274.5752 281.6094,274.9033 Q280.5625,275.3564 279.2813,275.3564 Q277.7813,275.3564 276.5781,274.7627 Q275.6094,274.2939 274.9219,273.2783 Q274.25,272.2627 274.25,271.0596 L274.25,269.9658 Q274.25,268.7158 274.8438,267.6221 Q275.4531,266.5283 276.5,265.9502 Q277.5625,265.3564 278.75,265.3564 Q279.4688,265.3564 280.0938,265.6064 Q280.7188,265.8564 281.25,266.3564 Z " fill="#000000"/><text fill="#000000" font-family="sans-serif" font-size="12" lengthAdjust="spacing" textLength="42" x="293.75" y="274.7666">Country</text><line style="stroke:#A80036;stroke-width:1.5;" x1="263" x2="340" y1="285.8564" y2="285.8564"/><text fill="#000000" font-family="sans-serif" font-size="11" lengthAdjust="spacing" textLength="48" x="268" y="301.2754">-continent</text><text fill="#000000" font-family="sans-serif" font-size="11" lengthAdjust="spacing" textLength="67" x="268" y="315.1113">-alpha2_Code</text><text fill="#000000" font-family="sans-serif" font-size="11" lengthAdjust="spacing" textLength="67" x="268" y="328.9473">-alpha3_Code</text><text fill="#000000" font-family="sans-serif" font-size="11" lengthAdjust="spacing" textLength="41" x="268" y="342.7832">-country</text><text fill="#000000" font-family="sans-serif" font-size="11" lengthAdjust="spacing" textLength="53" x="268" y="356.6191">-population</text><text fill="#000000" font-family="sans-serif" font-size="11" lengthAdjust="spacing" textLength="35" x="268" y="370.4551">-capital</text><text fill="#000000" font-family="sans-serif" font-size="11" lengthAdjust="spacing" textLength="38" x="268" y="384.291">-latitude</text><text fill="#000000" font-family="sans-serif" font-size="11" lengthAdjust="spacing" textLength="47" x="268" y="398.127">-longitude</text><!--MD5=[6ec5c1b9e601897bcebbd4fda3e6f7de]
class SeaDistance--><rect codeLine="33" fill="#FEFECE" filter="url(#f473qik65kv0o)" height="136.8516" id="SeaDistance" style="stroke:#A80036;stroke-width:1.5;" width="103" x="12" y="389.8564"/><ellipse cx="27" cy="405.8564" fill="#ADD1B2" rx="11" ry="11" style="stroke:#A80036;stroke-width:1.0;"/><path d="M29,402.3564 Q29.2031,401.8564 29.4375,401.6064 Q29.6719,401.3564 29.9375,401.3564 Q30.4063,401.3564 30.7031,401.6377 Q31,401.9189 31,402.5752 L31,404.1377 Q31,404.7939 30.7188,405.0752 Q30.4375,405.3564 30,405.3564 Q29.6094,405.3564 29.3594,405.1846 Q29.1094,405.0127 29,404.5596 Q28.9531,404.2471 28.7813,404.0752 Q28.4688,403.7471 27.9063,403.5596 Q27.3438,403.3564 26.7813,403.3564 Q26.0781,403.3564 25.4844,403.6377 Q24.9063,403.9189 24.4531,404.5439 Q24,405.1689 24,406.0283 L24,406.9502 Q24,407.9814 24.8438,408.6689 Q25.6875,409.3564 27.1875,409.3564 Q28.0781,409.3564 28.7031,409.1533 Q29.0625,409.0439 29.4688,408.6846 Q29.7344,408.4814 29.875,408.4189 Q30.0156,408.3564 30.1875,408.3564 Q30.5156,408.3564 30.75,408.6221 Q31,408.8721 31,409.2314 Q31,409.5752 30.6563,409.9814 Q30.1563,410.5752 29.3594,410.9033 Q28.3125,411.3564 27.0313,411.3564 Q25.5313,411.3564 24.3281,410.7627 Q23.3594,410.2939 22.6719,409.2783 Q22,408.2627 22,407.0596 L22,405.9658 Q22,404.7158 22.5938,403.6221 Q23.2031,402.5283 24.25,401.9502 Q25.3125,401.3564 26.5,401.3564 Q27.2188,401.3564 27.8438,401.6064 Q28.4688,401.8564 29,402.3564 Z " fill="#000000"/><text fill="#000000" font-family="sans-serif" font-size="12" lengthAdjust="spacing" textLength="71" x="41" y="410.7666">SeaDistance</text><line style="stroke:#A80036;stroke-width:1.5;" x1="13" x2="114" y1="421.8564" y2="421.8564"/><text fill="#000000" font-family="sans-serif" font-size="11" lengthAdjust="spacing" textLength="69" x="18" y="437.2754">-from_country</text><text fill="#000000" font-family="sans-serif" font-size="11" lengthAdjust="spacing" textLength="65" x="18" y="451.1113">-from_port_id</text><text fill="#000000" font-family="sans-serif" font-size="11" lengthAdjust="spacing" textLength="51" x="18" y="464.9473">-from_port</text><text fill="#000000" font-family="sans-serif" font-size="11" lengthAdjust="spacing" textLength="56" x="18" y="478.7832">-to_country</text><text fill="#000000" font-family="sans-serif" font-size="11" lengthAdjust="spacing" textLength="52" x="18" y="492.6191">-to_port_id</text><text fill="#000000" font-family="sans-serif" font-size="11" lengthAdjust="spacing" textLength="38" x="18" y="506.4551">-to_port</text><text fill="#000000" font-family="sans-serif" font-size="11" lengthAdjust="spacing" textLength="69" x="18" y="520.291">-sea_distance</text><!--MD5=[a0336aaa8110b78d9cacadb9d45e00a3]
class Border--><rect codeLine="43" fill="#FEFECE" filter="url(#f473qik65kv0o)" height="67.6719" id="Border" style="stroke:#A80036;stroke-width:1.5;" width="69" x="29" y="286.3564"/><ellipse cx="44" cy="302.3564" fill="#ADD1B2" rx="11" ry="11" style="stroke:#A80036;stroke-width:1.0;"/><path d="M46,298.8564 Q46.2031,298.3564 46.4375,298.1064 Q46.6719,297.8564 46.9375,297.8564 Q47.4063,297.8564 47.7031,298.1377 Q48,298.4189 48,299.0752 L48,300.6377 Q48,301.2939 47.7188,301.5752 Q47.4375,301.8564 47,301.8564 Q46.6094,301.8564 46.3594,301.6846 Q46.1094,301.5127 46,301.0596 Q45.9531,300.7471 45.7813,300.5752 Q45.4688,300.2471 44.9063,300.0596 Q44.3438,299.8564 43.7813,299.8564 Q43.0781,299.8564 42.4844,300.1377 Q41.9063,300.4189 41.4531,301.0439 Q41,301.6689 41,302.5283 L41,303.4502 Q41,304.4814 41.8438,305.1689 Q42.6875,305.8564 44.1875,305.8564 Q45.0781,305.8564 45.7031,305.6533 Q46.0625,305.5439 46.4688,305.1846 Q46.7344,304.9814 46.875,304.9189 Q47.0156,304.8564 47.1875,304.8564 Q47.5156,304.8564 47.75,305.1221 Q48,305.3721 48,305.7314 Q48,306.0752 47.6563,306.4814 Q47.1563,307.0752 46.3594,307.4033 Q45.3125,307.8564 44.0313,307.8564 Q42.5313,307.8564 41.3281,307.2627 Q40.3594,306.7939 39.6719,305.7783 Q39,304.7627 39,303.5596 L39,302.4658 Q39,301.2158 39.5938,300.1221 Q40.2031,299.0283 41.25,298.4502 Q42.3125,297.8564 43.5,297.8564 Q44.2188,297.8564 44.8438,298.1064 Q45.4688,298.3564 46,298.8564 Z " fill="#000000"/><text fill="#000000" font-family="sans-serif" font-size="12" lengthAdjust="spacing" textLength="37" x="58" y="307.2666">Border</text><line style="stroke:#A80036;stroke-width:1.5;" x1="30" x2="97" y1="318.3564" y2="318.3564"/><text fill="#000000" font-family="sans-serif" font-size="11" lengthAdjust="spacing" textLength="47" x="35" y="333.7754">-country1</text><text fill="#000000" font-family="sans-serif" font-size="11" lengthAdjust="spacing" textLength="47" x="35" y="347.6113">-country2</text><!--MD5=[a0bfe97ac0a38e6e74cc1c7c7b744b71]
class Port--><rect codeLine="48" fill="#FEFECE" filter="url(#f473qik65kv0o)" height="123.0156" id="Port" style="stroke:#A80036;stroke-width:1.5;" width="60" x="451" y="176.8564"/><ellipse cx="468.7" cy="192.8564" fill="#ADD1B2" rx="11" ry="11" style="stroke:#A80036;stroke-width:1.0;"/><path d="M470.7,189.3564 Q470.9031,188.8564 471.1375,188.6064 Q471.3719,188.3564 471.6375,188.3564 Q472.1063,188.3564 472.4031,188.6377 Q472.7,188.9189 472.7,189.5752 L472.7,191.1377 Q472.7,191.7939 472.4188,192.0752 Q472.1375,192.3564 471.7,192.3564 Q471.3094,192.3564 471.0594,192.1846 Q470.8094,192.0127 470.7,191.5596 Q470.6531,191.2471 470.4813,191.0752 Q470.1688,190.7471 469.6063,190.5596 Q469.0438,190.3564 468.4813,190.3564 Q467.7781,190.3564 467.1844,190.6377 Q466.6063,190.9189 466.1531,191.5439 Q465.7,192.1689 465.7,193.0283 L465.7,193.9502 Q465.7,194.9814 466.5438,195.6689 Q467.3875,196.3564 468.8875,196.3564 Q469.7781,196.3564 470.4031,196.1533 Q470.7625,196.0439 471.1688,195.6846 Q471.4344,195.4814 471.575,195.4189 Q471.7156,195.3564 471.8875,195.3564 Q472.2156,195.3564 472.45,195.6221 Q472.7,195.8721 472.7,196.2314 Q472.7,196.5752 472.3563,196.9814 Q471.8563,197.5752 471.0594,197.9033 Q470.0125,198.3564 468.7313,198.3564 Q467.2313,198.3564 466.0281,197.7627 Q465.0594,197.2939 464.3719,196.2783 Q463.7,195.2627 463.7,194.0596 L463.7,192.9658 Q463.7,191.7158 464.2938,190.6221 Q464.9031,189.5283 465.95,188.9502 Q467.0125,188.3564 468.2,188.3564 Q468.9188,188.3564 469.5438,188.6064 Q470.1688,188.8564 470.7,189.3564 Z " fill="#000000"/><text fill="#000000" font-family="sans-serif" font-size="12" lengthAdjust="spacing" textLength="22" x="483.3" y="197.7666">Port</text><line style="stroke:#A80036;stroke-width:1.5;" x1="452" x2="510" y1="208.8564" y2="208.8564"/><text fill="#000000" font-family="sans-serif" font-size="11" lengthAdjust="spacing" textLength="12" x="457" y="224.2754">-id</text><text fill="#000000" font-family="sans-serif" font-size="11" lengthAdjust="spacing" textLength="30" x="457" y="238.1113">-name</text><text fill="#000000" font-family="sans-serif" font-size="11" lengthAdjust="spacing" textLength="48" x="457" y="251.9473">-continent</text><text fill="#000000" font-family="sans-serif" font-size="11" lengthAdjust="spacing" textLength="41" x="457" y="265.7832">-country</text><text fill="#000000" font-family="sans-serif" font-size="11" lengthAdjust="spacing" textLength="38" x="457" y="279.6191">-latitude</text><text fill="#000000" font-family="sans-serif" font-size="11" lengthAdjust="spacing" textLength="47" x="457" y="293.4551">-longitude</text><!--MD5=[ddaf6f62b0bc30921877ec9fb9463c9f]
class TrafficManager--><rect fill="#FEFECE" filter="url(#f473qik65kv0o)" height="40" id="TrafficManager" style="stroke:#A80036;stroke-width:1.5;" width="113" x="7" y="123.3564"/><ellipse cx="22" cy="139.3564" fill="#ADD1B2" rx="11" ry="11" style="stroke:#A80036;stroke-width:1.0;"/><path d="M24,135.8564 Q24.2031,135.3564 24.4375,135.1064 Q24.6719,134.8564 24.9375,134.8564 Q25.4063,134.8564 25.7031,135.1377 Q26,135.4189 26,136.0752 L26,137.6377 Q26,138.2939 25.7188,138.5752 Q25.4375,138.8564 25,138.8564 Q24.6094,138.8564 24.3594,138.6846 Q24.1094,138.5127 24,138.0596 Q23.9531,137.7471 23.7813,137.5752 Q23.4688,137.2471 22.9063,137.0596 Q22.3438,136.8564 21.7813,136.8564 Q21.0781,136.8564 20.4844,137.1377 Q19.9063,137.4189 19.4531,138.0439 Q19,138.6689 19,139.5283 L19,140.4502 Q19,141.4814 19.8438,142.1689 Q20.6875,142.8564 22.1875,142.8564 Q23.0781,142.8564 23.7031,142.6533 Q24.0625,142.5439 24.4688,142.1846 Q24.7344,141.9814 24.875,141.9189 Q25.0156,141.8564 25.1875,141.8564 Q25.5156,141.8564 25.75,142.1221 Q26,142.3721 26,142.7314 Q26,143.0752 25.6563,143.4814 Q25.1563,144.0752 24.3594,144.4033 Q23.3125,144.8564 22.0313,144.8564 Q20.5313,144.8564 19.3281,144.2627 Q18.3594,143.7939 17.6719,142.7783 Q17,141.7627 17,140.5596 L17,139.4658 Q17,138.2158 17.5938,137.1221 Q18.2031,136.0283 19.25,135.4502 Q20.3125,134.8564 21.5,134.8564 Q22.2188,134.8564 22.8438,135.1064 Q23.4688,135.3564 24,135.8564 Z " fill="#000000"/><text fill="#000000" font-family="sans-serif" font-size="12" lengthAdjust="spacing" textLength="81" x="36" y="144.2666">TrafficManager</text><line style="stroke:#A80036;stroke-width:1.5;" x1="8" x2="119" y1="155.3564" y2="155.3564"/><!--MD5=[37a14a5de6d6fd738aee271300f4b5c8]
link Company to Ship--><path codeLine="57" d="M106.15,49.4764 C154.18,72.6764 231.8,110.1664 272.91,130.0264 " fill="none" id="Company-Ship" style="stroke:#A80036;stroke-width:1.0;"/><polygon fill="#000000" points="178.0023,66.707,171.1359,60.1265,168.5793,65.4192,178.0023,66.707" style="stroke:#000000;stroke-width:1.0;"/><text fill="#000000" font-family="sans-serif" font-size="13" lengthAdjust="spacing" textLength="30" x="182.5" y="69.8516">owns</text><text fill="#000000" font-family="sans-serif" font-size="13" lengthAdjust="spacing" textLength="7" x="110.1609" y="70.9298">1</text><text fill="#000000" font-family="sans-serif" font-size="13" lengthAdjust="spacing" textLength="5" x="259.9432" y="122.1408">*</text><!--MD5=[5fd98a8c03cc0e5a408f548eb1c0ace8]
link Company to Port--><path codeLine="58" d="M106.33,22.4364 C163.2,15.1764 266.34,9.7864 341,50.3564 C391.82,77.9764 429.14,133.0964 452.23,176.5464 " fill="none" id="Company-Port" style="stroke:#A80036;stroke-width:1.0;"/><polygon fill="#000000" points="285.0672,17.5671,278.0011,11.2015,275.609,16.5705,285.0672,17.5671" style="stroke:#000000;stroke-width:1.0;"/><text fill="#000000" font-family="sans-serif" font-size="13" lengthAdjust="spacing" textLength="37" x="289.5" y="20.8516">knows</text><text fill="#000000" font-family="sans-serif" font-size="13" lengthAdjust="spacing" textLength="7" x="114.0034" y="36.1396">1</text><text fill="#000000" font-family="sans-serif" font-size="13" lengthAdjust="spacing" textLength="5" x="443.6144" y="165.9892">*</text><!--MD5=[e286db40d4dc071fc67b9ff133e9b52b]
link Ship to Port--><path codeLine="59" d="M330.23,158.1964 C363.09,175.7864 417.58,204.9464 450.99,222.8264 " fill="none" id="Ship-Port" style="stroke:#A80036;stroke-width:1.0;"/><polygon fill="#000000" points="380.4084,174.8916,373.8203,168.0323,371.0468,173.2147,380.4084,174.8916" style="stroke:#000000;stroke-width:1.0;"/><text fill="#000000" font-family="sans-serif" font-size="13" lengthAdjust="spacing" textLength="35" x="385" y="177.8516">docks</text><text fill="#000000" font-family="sans-serif" font-size="13" lengthAdjust="spacing" textLength="5" x="337.8423" y="177.3397">*</text><text fill="#000000" font-family="sans-serif" font-size="13" lengthAdjust="spacing" textLength="7" x="435.8219" y="234.5271">1</text><!--MD5=[1c49245d7a7e90fcfb9bb62e49d927d2]
link Country to Port--><path codeLine="60" d="M341.01,309.6064 C374.05,292.6764 420.93,268.6364 450.91,253.2764 " fill="none" id="Country-Port" style="stroke:#A80036;stroke-width:1.0;"/><polygon fill="#000000" points="387.4496,259.2516,378.0597,260.7619,380.7408,265.9927,387.4496,259.2516" style="stroke:#000000;stroke-width:1.0;"/><text fill="#000000" font-family="sans-serif" font-size="13" lengthAdjust="spacing" textLength="21" x="392" y="266.8516">has</text><text fill="#000000" font-family="sans-serif" font-size="13" lengthAdjust="spacing" textLength="7" x="348.94" y="320.9964">1</text><text fill="#000000" font-family="sans-serif" font-size="13" lengthAdjust="spacing" textLength="5" x="437.9662" y="272.3993">*</text><!--MD5=[2ef9c3129a4dc1c7d0f128240f985152]
link SeaDistance to Port--><path codeLine="61" d="M115.14,467.5864 C173.61,475.5464 270.73,480.2664 341,440.3564 C395.41,409.4464 433.17,347.4364 455.45,300.2264 " fill="none" id="SeaDistance-Port" style="stroke:#A80036;stroke-width:1.0;"/><polygon fill="#000000" points="292.9868,429.3257,283.5731,430.6801,286.1671,435.9546,292.9868,429.3257" style="stroke:#000000;stroke-width:1.0;"/><text fill="#000000" font-family="sans-serif" font-size="13" lengthAdjust="spacing" textLength="21" x="297.5" y="436.8516">has</text><text fill="#000000" font-family="sans-serif" font-size="13" lengthAdjust="spacing" textLength="7" x="122.8941" y="483.5397">1</text><text fill="#000000" font-family="sans-serif" font-size="13" lengthAdjust="spacing" textLength="7" x="445.2727" y="321.382">2</text><!--MD5=[709cfb811026bee69df2bb50b757a53d]
link SeaDistance to Country--><path codeLine="62" d="M115.13,430.6864 C159.15,406.6264 221.97,372.2764 261.99,350.4064 " fill="none" id="SeaDistance-Country" style="stroke:#A80036;stroke-width:1.0;"/><polygon fill="#000000" points="182.3873,356.1339,173.0409,357.8937,175.8603,363.0513,182.3873,356.1339" style="stroke:#000000;stroke-width:1.0;"/><text fill="#000000" font-family="sans-serif" font-size="13" lengthAdjust="spacing" textLength="21" x="187" y="363.8516">has</text><text fill="#000000" font-family="sans-serif" font-size="13" lengthAdjust="spacing" textLength="7" x="122.8827" y="441.4506">1</text><text fill="#000000" font-family="sans-serif" font-size="13" lengthAdjust="spacing" textLength="12" x="241.8835" y="369.1352">1*</text><!--MD5=[c938c359f5927e90beba189125b5b3bb]
link Border to Country--><path codeLine="63" d="M98.06,321.6364 C141.33,323.2864 216.4,326.1464 261.96,327.8864 " fill="none" id="Border-Country" style="stroke:#A80036;stroke-width:1.0;"/><polygon fill="#000000" points="182.9964,314.7228,174.0698,311.4413,173.8459,317.3149,182.9964,314.7228" style="stroke:#000000;stroke-width:1.0;"/><text fill="#000000" font-family="sans-serif" font-size="13" lengthAdjust="spacing" textLength="21" x="187" y="319.8516">has</text><text fill="#000000" font-family="sans-serif" font-size="13" lengthAdjust="spacing" textLength="7" x="105.9099" y="337.1157">1</text><text fill="#000000" font-family="sans-serif" font-size="13" lengthAdjust="spacing" textLength="7" x="247.0245" y="342.6467">2</text><!--MD5=[40e2b5717560220ad35e84810a8f1b44]
link TrafficManager to Ship--><path codeLine="64" d="M120.13,143.3564 C168.1,143.3564 235.36,143.3564 272.72,143.3564 " fill="none" id="TrafficManager-Ship" style="stroke:#A80036;stroke-width:1.0;"/><polygon fill="#000000" points="160,134.5322,150.9549,131.5933,150.9549,137.4712,160,134.5322" style="stroke:#000000;stroke-width:1.0;"/><text fill="#000000" font-family="sans-serif" font-size="13" lengthAdjust="spacing" textLength="67" x="164" y="139.8516">assigned to</text><text fill="#000000" font-family="sans-serif" font-size="13" lengthAdjust="spacing" textLength="5" x="128.0756" y="157.9502">*</text><text fill="#000000" font-family="sans-serif" font-size="13" lengthAdjust="spacing" textLength="7" x="257.8518" y="158.8825">1</text><!--MD5=[b7e3ef1472bcf9df321b18fd832caa89]
@startuml
'https://plantuml.com/class-diagram

hide methods
left to right direction
skinparam classAttributeIconSize 0

class Company {

}

class Ship{
-MMSI
-name
-IMO
-callsign
-type
-length
-width
-draft
}

class Country{
-continent
-alpha2_Code
-alpha3_Code
-country
-population
-capital
-latitude
-longitude
}

class SeaDistance{
-from_country
-from_port_id
-from_port
-to_country
-to_port_id
-to_port
-sea_distance
}

class Border{
-country1
-country2
}

class Port{
-id
-name
-continent
-country
-latitude
-longitude
}

Company "1" - - "*" Ship : owns >
Company "1" - - "*" Port : knows >
Ship "*" - - "1" Port : docks >
Country "1" - - "*" Port : has >
SeaDistance "1" - - "2" Port : has >
SeaDistance "1" - - "1*" Country : has >
Border "1" - - "2" Country : has >
TrafficManager "*" - - "1" Ship : assigned to >

@enduml

@startuml

hide methods
left to right direction
skinparam classAttributeIconSize 0

class Company {

}

class Ship{
-MMSI
-name
-IMO
-callsign
-type
-length
-width
-draft
}

class Country{
-continent
-alpha2_Code
-alpha3_Code
-country
-population
-capital
-latitude
-longitude
}

class SeaDistance{
-from_country
-from_port_id
-from_port
-to_country
-to_port_id
-to_port
-sea_distance
}

class Border{
-country1
-country2
}

class Port{
-id
-name
-continent
-country
-latitude
-longitude
}

Company "1" - - "*" Ship : owns >
Company "1" - - "*" Port : knows >
Ship "*" - - "1" Port : docks >
Country "1" - - "*" Port : has >
SeaDistance "1" - - "2" Port : has >
SeaDistance "1" - - "1*" Country : has >
Border "1" - - "2" Country : has >
TrafficManager "*" - - "1" Ship : assigned to >

@enduml

PlantUML version 1.2021.2(Sun Mar 07 11:10:27 GMT 2021)
(GPL source distribution)
Java Runtime: OpenJDK Runtime Environment
JVM: OpenJDK 64-Bit Server VM
Default Encoding: Cp1252
Language: pt
Country: PT
--></g></svg>