<?xml version="1.0" encoding="UTF-8" standalone="no"?><svg xmlns="http://www.w3.org/2000/svg" xmlns:xlink="http://www.w3.org/1999/xlink" contentScriptType="application/ecmascript" contentStyleType="text/css" height="883px" preserveAspectRatio="none" style="width:1241px;height:883px;" version="1.1" viewBox="0 0 1241 883" width="1241px" zoomAndPan="magnify"><defs><filter height="300%" id="f14nm2k92irgqj" width="300%" x="-1" y="-1"><feGaussianBlur result="blurOut" stdDeviation="2.0"/><feColorMatrix in="blurOut" result="blurOut2" type="matrix" values="0 0 0 0 0 0 0 0 0 0 0 0 0 0 0 0 0 0 .4 0"/><feOffset dx="4.0" dy="4.0" in="blurOut2" result="blurOut3"/><feBlend in="SourceGraphic" in2="blurOut3" mode="normal"/></filter></defs><g><!--MD5=[02e4b9b7573f1156f41e60aa5b4e25a4]
class Company--><rect codeLine="6" fill="#FEFECE" filter="url(#f14nm2k92irgqj)" height="40" id="Company" style="stroke:#A80036;stroke-width:1.5;" width="85" x="318.5" y="308.5"/><ellipse cx="333.5" cy="324.5" fill="#ADD1B2" rx="11" ry="11" style="stroke:#A80036;stroke-width:1.0;"/><path d="M335.5,321 Q335.7031,320.5 335.9375,320.25 Q336.1719,320 336.4375,320 Q336.9063,320 337.2031,320.2813 Q337.5,320.5625 337.5,321.2188 L337.5,322.7813 Q337.5,323.4375 337.2188,323.7188 Q336.9375,324 336.5,324 Q336.1094,324 335.8594,323.8281 Q335.6094,323.6563 335.5,323.2031 Q335.4531,322.8906 335.2813,322.7188 Q334.9688,322.3906 334.4063,322.2031 Q333.8438,322 333.2813,322 Q332.5781,322 331.9844,322.2813 Q331.4063,322.5625 330.9531,323.1875 Q330.5,323.8125 330.5,324.6719 L330.5,325.5938 Q330.5,326.625 331.3438,327.3125 Q332.1875,328 333.6875,328 Q334.5781,328 335.2031,327.7969 Q335.5625,327.6875 335.9688,327.3281 Q336.2344,327.125 336.375,327.0625 Q336.5156,327 336.6875,327 Q337.0156,327 337.25,327.2656 Q337.5,327.5156 337.5,327.875 Q337.5,328.2188 337.1563,328.625 Q336.6563,329.2188 335.8594,329.5469 Q334.8125,330 333.5313,330 Q332.0313,330 330.8281,329.4063 Q329.8594,328.9375 329.1719,327.9219 Q328.5,326.9063 328.5,325.7031 L328.5,324.6094 Q328.5,323.3594 329.0938,322.2656 Q329.7031,321.1719 330.75,320.5938 Q331.8125,320 333,320 Q333.7188,320 334.3438,320.25 Q334.9688,320.5 335.5,321 Z " fill="#000000"/><text fill="#000000" font-family="sans-serif" font-size="12" lengthAdjust="spacing" textLength="53" x="347.5" y="329.4102">Company</text><line style="stroke:#A80036;stroke-width:1.5;" x1="319.5" x2="402.5" y1="340.5" y2="340.5"/><!--MD5=[0dc7f2ddb409b58bcf52b12238c25399]
class Ship--><rect codeLine="10" fill="#FEFECE" filter="url(#f14nm2k92irgqj)" height="150.6875" id="Ship" style="stroke:#A80036;stroke-width:1.5;" width="57" x="903" y="325"/><ellipse cx="918" cy="341" fill="#ADD1B2" rx="11" ry="11" style="stroke:#A80036;stroke-width:1.0;"/><path d="M920,337.5 Q920.2031,337 920.4375,336.75 Q920.6719,336.5 920.9375,336.5 Q921.4063,336.5 921.7031,336.7813 Q922,337.0625 922,337.7188 L922,339.2813 Q922,339.9375 921.7188,340.2188 Q921.4375,340.5 921,340.5 Q920.6094,340.5 920.3594,340.3281 Q920.1094,340.1563 920,339.7031 Q919.9531,339.3906 919.7813,339.2188 Q919.4688,338.8906 918.9063,338.7031 Q918.3438,338.5 917.7813,338.5 Q917.0781,338.5 916.4844,338.7813 Q915.9063,339.0625 915.4531,339.6875 Q915,340.3125 915,341.1719 L915,342.0938 Q915,343.125 915.8438,343.8125 Q916.6875,344.5 918.1875,344.5 Q919.0781,344.5 919.7031,344.2969 Q920.0625,344.1875 920.4688,343.8281 Q920.7344,343.625 920.875,343.5625 Q921.0156,343.5 921.1875,343.5 Q921.5156,343.5 921.75,343.7656 Q922,344.0156 922,344.375 Q922,344.7188 921.6563,345.125 Q921.1563,345.7188 920.3594,346.0469 Q919.3125,346.5 918.0313,346.5 Q916.5313,346.5 915.3281,345.9063 Q914.3594,345.4375 913.6719,344.4219 Q913,343.4063 913,342.2031 L913,341.1094 Q913,339.8594 913.5938,338.7656 Q914.2031,337.6719 915.25,337.0938 Q916.3125,336.5 917.5,336.5 Q918.2188,336.5 918.8438,336.75 Q919.4688,337 920,337.5 Z " fill="#000000"/><text fill="#000000" font-family="sans-serif" font-size="12" lengthAdjust="spacing" textLength="25" x="932" y="345.9102">Ship</text><line style="stroke:#A80036;stroke-width:1.5;" x1="904" x2="959" y1="357" y2="357"/><text fill="#000000" font-family="sans-serif" font-size="11" lengthAdjust="spacing" textLength="29" x="909" y="372.4189">-MMSI</text><text fill="#000000" font-family="sans-serif" font-size="11" lengthAdjust="spacing" textLength="30" x="909" y="386.2549">-name</text><text fill="#000000" font-family="sans-serif" font-size="11" lengthAdjust="spacing" textLength="22" x="909" y="400.0908">-IMO</text><text fill="#000000" font-family="sans-serif" font-size="11" lengthAdjust="spacing" textLength="40" x="909" y="413.9268">-callsign</text><text fill="#000000" font-family="sans-serif" font-size="11" lengthAdjust="spacing" textLength="25" x="909" y="427.7627">-type</text><text fill="#000000" font-family="sans-serif" font-size="11" lengthAdjust="spacing" textLength="33" x="909" y="441.5986">-length</text><text fill="#000000" font-family="sans-serif" font-size="11" lengthAdjust="spacing" textLength="31" x="909" y="455.4346">-width</text><text fill="#000000" font-family="sans-serif" font-size="11" lengthAdjust="spacing" textLength="27" x="909" y="469.2705">-draft</text><!--MD5=[a3093aa9f96b7df9aab31d8715601ff6]
class Containers--><rect codeLine="21" fill="#FEFECE" filter="url(#f14nm2k92irgqj)" height="164.5234" id="Containers" style="stroke:#A80036;stroke-width:1.5;" width="121" x="1106" y="510"/><ellipse cx="1133.6" cy="526" fill="#ADD1B2" rx="11" ry="11" style="stroke:#A80036;stroke-width:1.0;"/><path d="M1135.6,522.5 Q1135.8031,522 1136.0375,521.75 Q1136.2719,521.5 1136.5375,521.5 Q1137.0063,521.5 1137.3031,521.7813 Q1137.6,522.0625 1137.6,522.7188 L1137.6,524.2813 Q1137.6,524.9375 1137.3188,525.2188 Q1137.0375,525.5 1136.6,525.5 Q1136.2094,525.5 1135.9594,525.3281 Q1135.7094,525.1563 1135.6,524.7031 Q1135.5531,524.3906 1135.3813,524.2188 Q1135.0688,523.8906 1134.5063,523.7031 Q1133.9438,523.5 1133.3813,523.5 Q1132.6781,523.5 1132.0844,523.7813 Q1131.5063,524.0625 1131.0531,524.6875 Q1130.6,525.3125 1130.6,526.1719 L1130.6,527.0938 Q1130.6,528.125 1131.4438,528.8125 Q1132.2875,529.5 1133.7875,529.5 Q1134.6781,529.5 1135.3031,529.2969 Q1135.6625,529.1875 1136.0688,528.8281 Q1136.3344,528.625 1136.475,528.5625 Q1136.6156,528.5 1136.7875,528.5 Q1137.1156,528.5 1137.35,528.7656 Q1137.6,529.0156 1137.6,529.375 Q1137.6,529.7188 1137.2563,530.125 Q1136.7563,530.7188 1135.9594,531.0469 Q1134.9125,531.5 1133.6313,531.5 Q1132.1313,531.5 1130.9281,530.9063 Q1129.9594,530.4375 1129.2719,529.4219 Q1128.6,528.4063 1128.6,527.2031 L1128.6,526.1094 Q1128.6,524.8594 1129.1938,523.7656 Q1129.8031,522.6719 1130.85,522.0938 Q1131.9125,521.5 1133.1,521.5 Q1133.8188,521.5 1134.4438,521.75 Q1135.0688,522 1135.6,522.5 Z " fill="#000000"/><text fill="#000000" font-family="sans-serif" font-size="12" lengthAdjust="spacing" textLength="61" x="1150.4" y="530.9102">Containers</text><line style="stroke:#A80036;stroke-width:1.5;" x1="1107" x2="1226" y1="542" y2="542"/><text fill="#000000" font-family="sans-serif" font-size="11" lengthAdjust="spacing" textLength="87" x="1112" y="557.4189">-ContainerNumber</text><text fill="#000000" font-family="sans-serif" font-size="11" lengthAdjust="spacing" textLength="46" x="1112" y="571.2549">-ISOCode</text><text fill="#000000" font-family="sans-serif" font-size="11" lengthAdjust="spacing" textLength="57" x="1112" y="585.0908">-MaxWeight</text><text fill="#000000" font-family="sans-serif" font-size="11" lengthAdjust="spacing" textLength="83" x="1112" y="598.9268">-ContainerWeight</text><text fill="#000000" font-family="sans-serif" font-size="11" lengthAdjust="spacing" textLength="92" x="1112" y="612.7627">-MaxWeightPacked</text><text fill="#000000" font-family="sans-serif" font-size="11" lengthAdjust="spacing" textLength="95" x="1112" y="626.5986">-MaxVolumePacked</text><text fill="#000000" font-family="sans-serif" font-size="11" lengthAdjust="spacing" textLength="59" x="1112" y="640.4346">-Certificates</text><text fill="#000000" font-family="sans-serif" font-size="11" lengthAdjust="spacing" textLength="109" x="1112" y="654.2705">-RepairRecomendation</text><text fill="#000000" font-family="sans-serif" font-size="11" lengthAdjust="spacing" textLength="65" x="1112" y="668.1064">-Temperature</text><!--MD5=[1c0c3765e68dc4575d559b566278b914]
class ShipPosition--><rect codeLine="33" fill="#FEFECE" filter="url(#f14nm2k92irgqj)" height="164.5234" id="ShipPosition" style="stroke:#A80036;stroke-width:1.5;" width="102" x="1115.5" y="278"/><ellipse cx="1130.5" cy="294" fill="#ADD1B2" rx="11" ry="11" style="stroke:#A80036;stroke-width:1.0;"/><path d="M1132.5,290.5 Q1132.7031,290 1132.9375,289.75 Q1133.1719,289.5 1133.4375,289.5 Q1133.9063,289.5 1134.2031,289.7813 Q1134.5,290.0625 1134.5,290.7188 L1134.5,292.2813 Q1134.5,292.9375 1134.2188,293.2188 Q1133.9375,293.5 1133.5,293.5 Q1133.1094,293.5 1132.8594,293.3281 Q1132.6094,293.1563 1132.5,292.7031 Q1132.4531,292.3906 1132.2813,292.2188 Q1131.9688,291.8906 1131.4063,291.7031 Q1130.8438,291.5 1130.2813,291.5 Q1129.5781,291.5 1128.9844,291.7813 Q1128.4063,292.0625 1127.9531,292.6875 Q1127.5,293.3125 1127.5,294.1719 L1127.5,295.0938 Q1127.5,296.125 1128.3438,296.8125 Q1129.1875,297.5 1130.6875,297.5 Q1131.5781,297.5 1132.2031,297.2969 Q1132.5625,297.1875 1132.9688,296.8281 Q1133.2344,296.625 1133.375,296.5625 Q1133.5156,296.5 1133.6875,296.5 Q1134.0156,296.5 1134.25,296.7656 Q1134.5,297.0156 1134.5,297.375 Q1134.5,297.7188 1134.1563,298.125 Q1133.6563,298.7188 1132.8594,299.0469 Q1131.8125,299.5 1130.5313,299.5 Q1129.0313,299.5 1127.8281,298.9063 Q1126.8594,298.4375 1126.1719,297.4219 Q1125.5,296.4063 1125.5,295.2031 L1125.5,294.1094 Q1125.5,292.8594 1126.0938,291.7656 Q1126.7031,290.6719 1127.75,290.0938 Q1128.8125,289.5 1130,289.5 Q1130.7188,289.5 1131.3438,289.75 Q1131.9688,290 1132.5,290.5 Z " fill="#000000"/><text fill="#000000" font-family="sans-serif" font-size="12" lengthAdjust="spacing" textLength="70" x="1144.5" y="298.9102">ShipPosition</text><line style="stroke:#A80036;stroke-width:1.5;" x1="1116.5" x2="1216.5" y1="310" y2="310"/><text fill="#000000" font-family="sans-serif" font-size="11" lengthAdjust="spacing" textLength="49" x="1121.5" y="325.4189">-shipMMSI</text><text fill="#000000" font-family="sans-serif" font-size="11" lengthAdjust="spacing" textLength="25" x="1121.5" y="339.2549">-date</text><text fill="#000000" font-family="sans-serif" font-size="11" lengthAdjust="spacing" textLength="38" x="1121.5" y="353.0908">-latitude</text><text fill="#000000" font-family="sans-serif" font-size="11" lengthAdjust="spacing" textLength="47" x="1121.5" y="366.9268">-longitude</text><text fill="#000000" font-family="sans-serif" font-size="11" lengthAdjust="spacing" textLength="22" x="1121.5" y="380.7627">-sog</text><text fill="#000000" font-family="sans-serif" font-size="11" lengthAdjust="spacing" textLength="22" x="1121.5" y="394.5986">-cog</text><text fill="#000000" font-family="sans-serif" font-size="11" lengthAdjust="spacing" textLength="42" x="1121.5" y="408.4346">-heading</text><text fill="#000000" font-family="sans-serif" font-size="11" lengthAdjust="spacing" textLength="32" x="1121.5" y="422.2705">-cargo</text><text fill="#000000" font-family="sans-serif" font-size="11" lengthAdjust="spacing" textLength="59" x="1121.5" y="436.1064">-transciever</text><!--MD5=[a0bfe97ac0a38e6e74cc1c7c7b744b71]
class Port--><rect codeLine="45" fill="#FEFECE" filter="url(#f14nm2k92irgqj)" height="123.0156" id="Port" style="stroke:#A80036;stroke-width:1.5;" width="60" x="578.5" y="399"/><ellipse cx="596.2" cy="415" fill="#ADD1B2" rx="11" ry="11" style="stroke:#A80036;stroke-width:1.0;"/><path d="M598.2,411.5 Q598.4031,411 598.6375,410.75 Q598.8719,410.5 599.1375,410.5 Q599.6063,410.5 599.9031,410.7813 Q600.2,411.0625 600.2,411.7188 L600.2,413.2813 Q600.2,413.9375 599.9188,414.2188 Q599.6375,414.5 599.2,414.5 Q598.8094,414.5 598.5594,414.3281 Q598.3094,414.1563 598.2,413.7031 Q598.1531,413.3906 597.9813,413.2188 Q597.6688,412.8906 597.1063,412.7031 Q596.5438,412.5 595.9813,412.5 Q595.2781,412.5 594.6844,412.7813 Q594.1063,413.0625 593.6531,413.6875 Q593.2,414.3125 593.2,415.1719 L593.2,416.0938 Q593.2,417.125 594.0438,417.8125 Q594.8875,418.5 596.3875,418.5 Q597.2781,418.5 597.9031,418.2969 Q598.2625,418.1875 598.6688,417.8281 Q598.9344,417.625 599.075,417.5625 Q599.2156,417.5 599.3875,417.5 Q599.7156,417.5 599.95,417.7656 Q600.2,418.0156 600.2,418.375 Q600.2,418.7188 599.8563,419.125 Q599.3563,419.7188 598.5594,420.0469 Q597.5125,420.5 596.2313,420.5 Q594.7313,420.5 593.5281,419.9063 Q592.5594,419.4375 591.8719,418.4219 Q591.2,417.4063 591.2,416.2031 L591.2,415.1094 Q591.2,413.8594 591.7938,412.7656 Q592.4031,411.6719 593.45,411.0938 Q594.5125,410.5 595.7,410.5 Q596.4188,410.5 597.0438,410.75 Q597.6688,411 598.2,411.5 Z " fill="#000000"/><text fill="#000000" font-family="sans-serif" font-size="12" lengthAdjust="spacing" textLength="22" x="610.8" y="419.9102">Port</text><line style="stroke:#A80036;stroke-width:1.5;" x1="579.5" x2="637.5" y1="431" y2="431"/><text fill="#000000" font-family="sans-serif" font-size="11" lengthAdjust="spacing" textLength="12" x="584.5" y="446.4189">-id</text><text fill="#000000" font-family="sans-serif" font-size="11" lengthAdjust="spacing" textLength="30" x="584.5" y="460.2549">-name</text><text fill="#000000" font-family="sans-serif" font-size="11" lengthAdjust="spacing" textLength="48" x="584.5" y="474.0908">-continent</text><text fill="#000000" font-family="sans-serif" font-size="11" lengthAdjust="spacing" textLength="41" x="584.5" y="487.9268">-country</text><text fill="#000000" font-family="sans-serif" font-size="11" lengthAdjust="spacing" textLength="38" x="584.5" y="501.7627">-latitude</text><text fill="#000000" font-family="sans-serif" font-size="11" lengthAdjust="spacing" textLength="47" x="584.5" y="515.5986">-longitude</text><!--MD5=[ddaf6f62b0bc30921877ec9fb9463c9f]
class TrafficManager--><rect codeLine="54" fill="#FEFECE" filter="url(#f14nm2k92irgqj)" height="40" id="TrafficManager" style="stroke:#A80036;stroke-width:1.5;" width="113" x="43.5" y="225.5"/><ellipse cx="58.5" cy="241.5" fill="#ADD1B2" rx="11" ry="11" style="stroke:#A80036;stroke-width:1.0;"/><path d="M60.5,238 Q60.7031,237.5 60.9375,237.25 Q61.1719,237 61.4375,237 Q61.9063,237 62.2031,237.2813 Q62.5,237.5625 62.5,238.2188 L62.5,239.7813 Q62.5,240.4375 62.2188,240.7188 Q61.9375,241 61.5,241 Q61.1094,241 60.8594,240.8281 Q60.6094,240.6563 60.5,240.2031 Q60.4531,239.8906 60.2813,239.7188 Q59.9688,239.3906 59.4063,239.2031 Q58.8438,239 58.2813,239 Q57.5781,239 56.9844,239.2813 Q56.4063,239.5625 55.9531,240.1875 Q55.5,240.8125 55.5,241.6719 L55.5,242.5938 Q55.5,243.625 56.3438,244.3125 Q57.1875,245 58.6875,245 Q59.5781,245 60.2031,244.7969 Q60.5625,244.6875 60.9688,244.3281 Q61.2344,244.125 61.375,244.0625 Q61.5156,244 61.6875,244 Q62.0156,244 62.25,244.2656 Q62.5,244.5156 62.5,244.875 Q62.5,245.2188 62.1563,245.625 Q61.6563,246.2188 60.8594,246.5469 Q59.8125,247 58.5313,247 Q57.0313,247 55.8281,246.4063 Q54.8594,245.9375 54.1719,244.9219 Q53.5,243.9063 53.5,242.7031 L53.5,241.6094 Q53.5,240.3594 54.0938,239.2656 Q54.7031,238.1719 55.75,237.5938 Q56.8125,237 58,237 Q58.7188,237 59.3438,237.25 Q59.9688,237.5 60.5,238 Z " fill="#000000"/><text fill="#000000" font-family="sans-serif" font-size="12" lengthAdjust="spacing" textLength="81" x="72.5" y="246.4102">TrafficManager</text><line style="stroke:#A80036;stroke-width:1.5;" x1="44.5" x2="155.5" y1="257.5" y2="257.5"/><!--MD5=[99d8f1361a72f685c413d1fd21efef1c]
class PortManager--><rect codeLine="57" fill="#FEFECE" filter="url(#f14nm2k92irgqj)" height="40" id="PortManager" style="stroke:#A80036;stroke-width:1.5;" width="102" x="49" y="403.5"/><ellipse cx="64" cy="419.5" fill="#ADD1B2" rx="11" ry="11" style="stroke:#A80036;stroke-width:1.0;"/><path d="M66,416 Q66.2031,415.5 66.4375,415.25 Q66.6719,415 66.9375,415 Q67.4063,415 67.7031,415.2813 Q68,415.5625 68,416.2188 L68,417.7813 Q68,418.4375 67.7188,418.7188 Q67.4375,419 67,419 Q66.6094,419 66.3594,418.8281 Q66.1094,418.6563 66,418.2031 Q65.9531,417.8906 65.7813,417.7188 Q65.4688,417.3906 64.9063,417.2031 Q64.3438,417 63.7813,417 Q63.0781,417 62.4844,417.2813 Q61.9063,417.5625 61.4531,418.1875 Q61,418.8125 61,419.6719 L61,420.5938 Q61,421.625 61.8438,422.3125 Q62.6875,423 64.1875,423 Q65.0781,423 65.7031,422.7969 Q66.0625,422.6875 66.4688,422.3281 Q66.7344,422.125 66.875,422.0625 Q67.0156,422 67.1875,422 Q67.5156,422 67.75,422.2656 Q68,422.5156 68,422.875 Q68,423.2188 67.6563,423.625 Q67.1563,424.2188 66.3594,424.5469 Q65.3125,425 64.0313,425 Q62.5313,425 61.3281,424.4063 Q60.3594,423.9375 59.6719,422.9219 Q59,421.9063 59,420.7031 L59,419.6094 Q59,418.3594 59.5938,417.2656 Q60.2031,416.1719 61.25,415.5938 Q62.3125,415 63.5,415 Q64.2188,415 64.8438,415.25 Q65.4688,415.5 66,416 Z " fill="#000000"/><text fill="#000000" font-family="sans-serif" font-size="12" lengthAdjust="spacing" textLength="70" x="78" y="424.4102">PortManager</text><line style="stroke:#A80036;stroke-width:1.5;" x1="50" x2="150" y1="435.5" y2="435.5"/><!--MD5=[d14076b1fa5ff6fc34e7abc31c5e1daa]
class ShipChiefElectricalEngineer--><rect codeLine="60" fill="#FEFECE" filter="url(#f14nm2k92irgqj)" height="40" id="ShipChiefElectricalEngineer" style="stroke:#A80036;stroke-width:1.5;" width="186" x="7" y="656.5"/><ellipse cx="22" cy="672.5" fill="#ADD1B2" rx="11" ry="11" style="stroke:#A80036;stroke-width:1.0;"/><path d="M24,669 Q24.2031,668.5 24.4375,668.25 Q24.6719,668 24.9375,668 Q25.4063,668 25.7031,668.2813 Q26,668.5625 26,669.2188 L26,670.7813 Q26,671.4375 25.7188,671.7188 Q25.4375,672 25,672 Q24.6094,672 24.3594,671.8281 Q24.1094,671.6563 24,671.2031 Q23.9531,670.8906 23.7813,670.7188 Q23.4688,670.3906 22.9063,670.2031 Q22.3438,670 21.7813,670 Q21.0781,670 20.4844,670.2813 Q19.9063,670.5625 19.4531,671.1875 Q19,671.8125 19,672.6719 L19,673.5938 Q19,674.625 19.8438,675.3125 Q20.6875,676 22.1875,676 Q23.0781,676 23.7031,675.7969 Q24.0625,675.6875 24.4688,675.3281 Q24.7344,675.125 24.875,675.0625 Q25.0156,675 25.1875,675 Q25.5156,675 25.75,675.2656 Q26,675.5156 26,675.875 Q26,676.2188 25.6563,676.625 Q25.1563,677.2188 24.3594,677.5469 Q23.3125,678 22.0313,678 Q20.5313,678 19.3281,677.4063 Q18.3594,676.9375 17.6719,675.9219 Q17,674.9063 17,673.7031 L17,672.6094 Q17,671.3594 17.5938,670.2656 Q18.2031,669.1719 19.25,668.5938 Q20.3125,668 21.5,668 Q22.2188,668 22.8438,668.25 Q23.4688,668.5 24,669 Z " fill="#000000"/><text fill="#000000" font-family="sans-serif" font-size="12" lengthAdjust="spacing" textLength="154" x="36" y="677.4102">ShipChiefElectricalEngineer</text><line style="stroke:#A80036;stroke-width:1.5;" x1="8" x2="192" y1="688.5" y2="688.5"/><!--MD5=[76562047389981627aea27c31a97aff5]
class CargoManifest--><rect codeLine="63" fill="#FEFECE" filter="url(#f14nm2k92irgqj)" height="81.5078" id="CargoManifest" style="stroke:#A80036;stroke-width:1.5;" width="112" x="305" y="622.5"/><ellipse cx="320" cy="638.5" fill="#ADD1B2" rx="11" ry="11" style="stroke:#A80036;stroke-width:1.0;"/><path d="M322,635 Q322.2031,634.5 322.4375,634.25 Q322.6719,634 322.9375,634 Q323.4063,634 323.7031,634.2813 Q324,634.5625 324,635.2188 L324,636.7813 Q324,637.4375 323.7188,637.7188 Q323.4375,638 323,638 Q322.6094,638 322.3594,637.8281 Q322.1094,637.6563 322,637.2031 Q321.9531,636.8906 321.7813,636.7188 Q321.4688,636.3906 320.9063,636.2031 Q320.3438,636 319.7813,636 Q319.0781,636 318.4844,636.2813 Q317.9063,636.5625 317.4531,637.1875 Q317,637.8125 317,638.6719 L317,639.5938 Q317,640.625 317.8438,641.3125 Q318.6875,642 320.1875,642 Q321.0781,642 321.7031,641.7969 Q322.0625,641.6875 322.4688,641.3281 Q322.7344,641.125 322.875,641.0625 Q323.0156,641 323.1875,641 Q323.5156,641 323.75,641.2656 Q324,641.5156 324,641.875 Q324,642.2188 323.6563,642.625 Q323.1563,643.2188 322.3594,643.5469 Q321.3125,644 320.0313,644 Q318.5313,644 317.3281,643.4063 Q316.3594,642.9375 315.6719,641.9219 Q315,640.9063 315,639.7031 L315,638.6094 Q315,637.3594 315.5938,636.2656 Q316.2031,635.1719 317.25,634.5938 Q318.3125,634 319.5,634 Q320.2188,634 320.8438,634.25 Q321.4688,634.5 322,635 Z " fill="#000000"/><text fill="#000000" font-family="sans-serif" font-size="12" lengthAdjust="spacing" textLength="80" x="334" y="643.4102">CargoManifest</text><line style="stroke:#A80036;stroke-width:1.5;" x1="306" x2="416" y1="654.5" y2="654.5"/><text fill="#000000" font-family="sans-serif" font-size="11" lengthAdjust="spacing" textLength="12" x="311" y="669.9189">-id</text><text fill="#000000" font-family="sans-serif" font-size="11" lengthAdjust="spacing" textLength="49" x="311" y="683.7549">-shipMMSI</text><text fill="#000000" font-family="sans-serif" font-size="11" lengthAdjust="spacing" textLength="32" x="311" y="697.5908">-portID</text><!--MD5=[c5149b4909ffd2688ff51a939867f774]
class Warehouse--><rect codeLine="69" fill="#FEFECE" filter="url(#f14nm2k92irgqj)" height="109.1797" id="Warehouse" style="stroke:#A80036;stroke-width:1.5;" width="99" x="559" y="7"/><ellipse cx="575.35" cy="23" fill="#ADD1B2" rx="11" ry="11" style="stroke:#A80036;stroke-width:1.0;"/><path d="M577.35,19.5 Q577.5531,19 577.7875,18.75 Q578.0219,18.5 578.2875,18.5 Q578.7563,18.5 579.0531,18.7813 Q579.35,19.0625 579.35,19.7188 L579.35,21.2813 Q579.35,21.9375 579.0688,22.2188 Q578.7875,22.5 578.35,22.5 Q577.9594,22.5 577.7094,22.3281 Q577.4594,22.1563 577.35,21.7031 Q577.3031,21.3906 577.1313,21.2188 Q576.8188,20.8906 576.2563,20.7031 Q575.6938,20.5 575.1313,20.5 Q574.4281,20.5 573.8344,20.7813 Q573.2563,21.0625 572.8031,21.6875 Q572.35,22.3125 572.35,23.1719 L572.35,24.0938 Q572.35,25.125 573.1938,25.8125 Q574.0375,26.5 575.5375,26.5 Q576.4281,26.5 577.0531,26.2969 Q577.4125,26.1875 577.8188,25.8281 Q578.0844,25.625 578.225,25.5625 Q578.3656,25.5 578.5375,25.5 Q578.8656,25.5 579.1,25.7656 Q579.35,26.0156 579.35,26.375 Q579.35,26.7188 579.0063,27.125 Q578.5063,27.7188 577.7094,28.0469 Q576.6625,28.5 575.3813,28.5 Q573.8813,28.5 572.6781,27.9063 Q571.7094,27.4375 571.0219,26.4219 Q570.35,25.4063 570.35,24.2031 L570.35,23.1094 Q570.35,21.8594 570.9438,20.7656 Q571.5531,19.6719 572.6,19.0938 Q573.6625,18.5 574.85,18.5 Q575.5688,18.5 576.1938,18.75 Q576.8188,19 577.35,19.5 Z " fill="#000000"/><text fill="#000000" font-family="sans-serif" font-size="12" lengthAdjust="spacing" textLength="64" x="589.65" y="27.9102">Warehouse</text><line style="stroke:#A80036;stroke-width:1.5;" x1="560" x2="657" y1="39" y2="39"/><text fill="#000000" font-family="sans-serif" font-size="11" lengthAdjust="spacing" textLength="69" x="565" y="54.4189">-WarehouseID</text><text fill="#000000" font-family="sans-serif" font-size="11" lengthAdjust="spacing" textLength="87" x="565" y="68.2549">-WarehouseName</text><text fill="#000000" font-family="sans-serif" font-size="11" lengthAdjust="spacing" textLength="42" x="565" y="82.0908">-Latitude</text><text fill="#000000" font-family="sans-serif" font-size="11" lengthAdjust="spacing" textLength="51" x="565" y="95.9268">-Longitude</text><text fill="#000000" font-family="sans-serif" font-size="11" lengthAdjust="spacing" textLength="69" x="565" y="109.7627">-CountryName</text><!--MD5=[a5aa90fbf2aad1a8ad40c82d82cb77af]
class CargoManifestLoad--><rect codeLine="77" fill="#FEFECE" filter="url(#f14nm2k92irgqj)" height="95.3438" id="CargoManifestLoad" style="stroke:#A80036;stroke-width:1.5;" width="140" x="694" y="599"/><ellipse cx="709" cy="615" fill="#ADD1B2" rx="11" ry="11" style="stroke:#A80036;stroke-width:1.0;"/><path d="M711,611.5 Q711.2031,611 711.4375,610.75 Q711.6719,610.5 711.9375,610.5 Q712.4063,610.5 712.7031,610.7813 Q713,611.0625 713,611.7188 L713,613.2813 Q713,613.9375 712.7188,614.2188 Q712.4375,614.5 712,614.5 Q711.6094,614.5 711.3594,614.3281 Q711.1094,614.1563 711,613.7031 Q710.9531,613.3906 710.7813,613.2188 Q710.4688,612.8906 709.9063,612.7031 Q709.3438,612.5 708.7813,612.5 Q708.0781,612.5 707.4844,612.7813 Q706.9063,613.0625 706.4531,613.6875 Q706,614.3125 706,615.1719 L706,616.0938 Q706,617.125 706.8438,617.8125 Q707.6875,618.5 709.1875,618.5 Q710.0781,618.5 710.7031,618.2969 Q711.0625,618.1875 711.4688,617.8281 Q711.7344,617.625 711.875,617.5625 Q712.0156,617.5 712.1875,617.5 Q712.5156,617.5 712.75,617.7656 Q713,618.0156 713,618.375 Q713,618.7188 712.6563,619.125 Q712.1563,619.7188 711.3594,620.0469 Q710.3125,620.5 709.0313,620.5 Q707.5313,620.5 706.3281,619.9063 Q705.3594,619.4375 704.6719,618.4219 Q704,617.4063 704,616.2031 L704,615.1094 Q704,613.8594 704.5938,612.7656 Q705.2031,611.6719 706.25,611.0938 Q707.3125,610.5 708.5,610.5 Q709.2188,610.5 709.8438,610.75 Q710.4688,611 711,611.5 Z " fill="#000000"/><text fill="#000000" font-family="sans-serif" font-size="12" lengthAdjust="spacing" textLength="108" x="723" y="619.9102">CargoManifestLoad</text><line style="stroke:#A80036;stroke-width:1.5;" x1="695" x2="833" y1="631" y2="631"/><text fill="#000000" font-family="sans-serif" font-size="11" lengthAdjust="spacing" textLength="82" x="700" y="646.4189">-cargoManifestID</text><text fill="#000000" font-family="sans-serif" font-size="11" lengthAdjust="spacing" textLength="49" x="700" y="660.2549">-dateLoad</text><text fill="#000000" font-family="sans-serif" font-size="11" lengthAdjust="spacing" textLength="28" x="700" y="674.0908">-done</text><text fill="#000000" font-family="sans-serif" font-size="11" lengthAdjust="spacing" textLength="32" x="700" y="687.9268">-portID</text><!--MD5=[a2f10021af8ab55728ed20bdb3889909]
class CargoManifestUnload--><rect codeLine="84" fill="#FEFECE" filter="url(#f14nm2k92irgqj)" height="95.3438" id="CargoManifestUnload" style="stroke:#A80036;stroke-width:1.5;" width="152" x="688" y="758"/><ellipse cx="703" cy="774" fill="#ADD1B2" rx="11" ry="11" style="stroke:#A80036;stroke-width:1.0;"/><path d="M705,770.5 Q705.2031,770 705.4375,769.75 Q705.6719,769.5 705.9375,769.5 Q706.4063,769.5 706.7031,769.7813 Q707,770.0625 707,770.7188 L707,772.2813 Q707,772.9375 706.7188,773.2188 Q706.4375,773.5 706,773.5 Q705.6094,773.5 705.3594,773.3281 Q705.1094,773.1563 705,772.7031 Q704.9531,772.3906 704.7813,772.2188 Q704.4688,771.8906 703.9063,771.7031 Q703.3438,771.5 702.7813,771.5 Q702.0781,771.5 701.4844,771.7813 Q700.9063,772.0625 700.4531,772.6875 Q700,773.3125 700,774.1719 L700,775.0938 Q700,776.125 700.8438,776.8125 Q701.6875,777.5 703.1875,777.5 Q704.0781,777.5 704.7031,777.2969 Q705.0625,777.1875 705.4688,776.8281 Q705.7344,776.625 705.875,776.5625 Q706.0156,776.5 706.1875,776.5 Q706.5156,776.5 706.75,776.7656 Q707,777.0156 707,777.375 Q707,777.7188 706.6563,778.125 Q706.1563,778.7188 705.3594,779.0469 Q704.3125,779.5 703.0313,779.5 Q701.5313,779.5 700.3281,778.9063 Q699.3594,778.4375 698.6719,777.4219 Q698,776.4063 698,775.2031 L698,774.1094 Q698,772.8594 698.5938,771.7656 Q699.2031,770.6719 700.25,770.0938 Q701.3125,769.5 702.5,769.5 Q703.2188,769.5 703.8438,769.75 Q704.4688,770 705,770.5 Z " fill="#000000"/><text fill="#000000" font-family="sans-serif" font-size="12" lengthAdjust="spacing" textLength="120" x="717" y="778.9102">CargoManifestUnload</text><line style="stroke:#A80036;stroke-width:1.5;" x1="689" x2="839" y1="790" y2="790"/><text fill="#000000" font-family="sans-serif" font-size="11" lengthAdjust="spacing" textLength="82" x="694" y="805.4189">-cargoManifestID</text><text fill="#000000" font-family="sans-serif" font-size="11" lengthAdjust="spacing" textLength="58" x="694" y="819.2549">-dateUnload</text><text fill="#000000" font-family="sans-serif" font-size="11" lengthAdjust="spacing" textLength="28" x="694" y="833.0908">-done</text><text fill="#000000" font-family="sans-serif" font-size="11" lengthAdjust="spacing" textLength="32" x="694" y="846.9268">-portID</text><!--MD5=[ed6624c6556d5e7b1bd23032162d20b7]
class Client--><rect codeLine="91" fill="#FEFECE" filter="url(#f14nm2k92irgqj)" height="67.6719" id="Client" style="stroke:#A80036;stroke-width:1.5;" width="123" x="870" y="216.5"/><ellipse cx="911.55" cy="232.5" fill="#ADD1B2" rx="11" ry="11" style="stroke:#A80036;stroke-width:1.0;"/><path d="M913.55,229 Q913.7531,228.5 913.9875,228.25 Q914.2219,228 914.4875,228 Q914.9563,228 915.2531,228.2813 Q915.55,228.5625 915.55,229.2188 L915.55,230.7813 Q915.55,231.4375 915.2688,231.7188 Q914.9875,232 914.55,232 Q914.1594,232 913.9094,231.8281 Q913.6594,231.6563 913.55,231.2031 Q913.5031,230.8906 913.3313,230.7188 Q913.0188,230.3906 912.4563,230.2031 Q911.8938,230 911.3313,230 Q910.6281,230 910.0344,230.2813 Q909.4563,230.5625 909.0031,231.1875 Q908.55,231.8125 908.55,232.6719 L908.55,233.5938 Q908.55,234.625 909.3938,235.3125 Q910.2375,236 911.7375,236 Q912.6281,236 913.2531,235.7969 Q913.6125,235.6875 914.0188,235.3281 Q914.2844,235.125 914.425,235.0625 Q914.5656,235 914.7375,235 Q915.0656,235 915.3,235.2656 Q915.55,235.5156 915.55,235.875 Q915.55,236.2188 915.2063,236.625 Q914.7063,237.2188 913.9094,237.5469 Q912.8625,238 911.5813,238 Q910.0813,238 908.8781,237.4063 Q907.9094,236.9375 907.2219,235.9219 Q906.55,234.9063 906.55,233.7031 L906.55,232.6094 Q906.55,231.3594 907.1438,230.2656 Q907.7531,229.1719 908.8,228.5938 Q909.8625,228 911.05,228 Q911.7688,228 912.3938,228.25 Q913.0188,228.5 913.55,229 Z " fill="#000000"/><text fill="#000000" font-family="sans-serif" font-size="12" lengthAdjust="spacing" textLength="32" x="931.45" y="237.4102">Client</text><line style="stroke:#A80036;stroke-width:1.5;" x1="871" x2="992" y1="248.5" y2="248.5"/><text fill="#000000" font-family="sans-serif" font-size="11" lengthAdjust="spacing" textLength="38" x="876" y="263.9189">-clientID</text><text fill="#000000" font-family="sans-serif" font-size="11" lengthAdjust="spacing" textLength="111" x="876" y="277.7549">-clientRegistrationCode</text><!--MD5=[bc71c62128aaf75a155dd6adc8e1dfa9]
link TrafficManager to Company--><path codeLine="96" d="M156.56,263.31 C205.02,278.83 274.24,301.02 318.15,315.09 " fill="none" id="TrafficManager-Company" style="stroke:#A80036;stroke-width:1.0;"/><polygon fill="#000000" points="223.2385,277.15,230.9553,282.7089,232.749,277.1114,223.2385,277.15" style="stroke:#000000;stroke-width:1.0;"/><text fill="#000000" font-family="sans-serif" font-size="13" lengthAdjust="spacing" textLength="37" x="237" y="283.9951">knows</text><text fill="#000000" font-family="sans-serif" font-size="13" lengthAdjust="spacing" textLength="5" x="164.4962" y="280.297">*</text><text fill="#000000" font-family="sans-serif" font-size="13" lengthAdjust="spacing" textLength="7" x="303.4733" y="327.7182">1</text><!--MD5=[40e2b5717560220ad35e84810a8f1b44]
link TrafficManager to Ship--><path codeLine="97" d="M156.62,230.74 C238.81,211.18 397.2,182.03 529,208.5 C680.13,238.85 839.54,338.5 902.55,381.01 " fill="none" id="TrafficManager-Ship" style="stroke:#A80036;stroke-width:1.0;"/><polygon fill="#000000" points="463.9015,191.6632,455.615,186.9959,454.4542,192.758,463.9015,191.6632" style="stroke:#000000;stroke-width:1.0;"/><text fill="#000000" font-family="sans-serif" font-size="13" lengthAdjust="spacing" textLength="53" x="468" y="195.9951">manages</text><text fill="#000000" font-family="sans-serif" font-size="13" lengthAdjust="spacing" textLength="7" x="164.3229" y="243.3915">1</text><text fill="#000000" font-family="sans-serif" font-size="13" lengthAdjust="spacing" textLength="5" x="889.8841" y="391.7854">*</text><!--MD5=[37a14a5de6d6fd738aee271300f4b5c8]
link Company to Ship--><path codeLine="98" d="M403.8,333.79 C514.06,347.76 810.62,385.32 902.78,396.99 " fill="none" id="Company-Ship" style="stroke:#A80036;stroke-width:1.0;"/><polygon fill="#000000" points="595.9604,346.3041,587.3563,342.2519,586.6177,348.0831,595.9604,346.3041" style="stroke:#000000;stroke-width:1.0;"/><text fill="#000000" font-family="sans-serif" font-size="13" lengthAdjust="spacing" textLength="30" x="600" y="350.9951">owns</text><text fill="#000000" font-family="sans-serif" font-size="13" lengthAdjust="spacing" textLength="7" x="411.4684" y="349.5154">1</text><text fill="#000000" font-family="sans-serif" font-size="13" lengthAdjust="spacing" textLength="5" x="890.1701" y="411.6605">*</text><!--MD5=[f56e222e1748568825f030a9b791275e]
link Ship to ShipPosition--><path codeLine="99" d="M960.14,395.75 C998.36,389.19 1067.97,377.24 1115.46,369.09 " fill="none" id="Ship-ShipPosition" style="stroke:#A80036;stroke-width:1.0;"/><polygon fill="#000000" points="1041.4279,367.8299,1032.016,366.4635,1033.0104,372.2567,1041.4279,367.8299" style="stroke:#000000;stroke-width:1.0;"/><text fill="#000000" font-family="sans-serif" font-size="13" lengthAdjust="spacing" textLength="21" x="1045.5" y="373.9951">has</text><text fill="#000000" font-family="sans-serif" font-size="13" lengthAdjust="spacing" textLength="7" x="967.9741" y="410.1182">1</text><text fill="#000000" font-family="sans-serif" font-size="13" lengthAdjust="spacing" textLength="5" x="1102.5963" y="385.0826">*</text><!--MD5=[48866c3ee325f1b653aa35a9a333d568]
link PortManager to Company--><path codeLine="100" d="M151.24,405.07 C199.94,387.21 272.92,360.44 318.43,343.75 " fill="none" id="PortManager-Company" style="stroke:#A80036;stroke-width:1.0;"/><polygon fill="#000000" points="223.3058,355.3975,232.8097,355.0421,230.7857,349.5237,223.3058,355.3975" style="stroke:#000000;stroke-width:1.0;"/><text fill="#000000" font-family="sans-serif" font-size="13" lengthAdjust="spacing" textLength="37" x="237" y="358.9951">knows</text><text fill="#000000" font-family="sans-serif" font-size="13" lengthAdjust="spacing" textLength="5" x="159.1331" y="417.059">*</text><text fill="#000000" font-family="sans-serif" font-size="13" lengthAdjust="spacing" textLength="7" x="303.5117" y="361.2714">1</text><!--MD5=[9eb8cece74e91f217f5849e8308bf70d]
link PortManager to Port--><path codeLine="101" d="M151.42,427.18 C256.38,434.85 495.52,452.32 578.5,458.38 " fill="none" id="PortManager-Port" style="stroke:#A80036;stroke-width:1.0;"/><polygon fill="#000000" points="336.9867,430.0401,328.1798,426.4499,327.7515,432.3122,336.9867,430.0401" style="stroke:#000000;stroke-width:1.0;"/><text fill="#000000" font-family="sans-serif" font-size="13" lengthAdjust="spacing" textLength="53" x="341" y="434.9951">manages</text><text fill="#000000" font-family="sans-serif" font-size="13" lengthAdjust="spacing" textLength="7" x="159.1431" y="442.3423">1</text><text fill="#000000" font-family="sans-serif" font-size="13" lengthAdjust="spacing" textLength="5" x="565.5781" y="473.3493">*</text><!--MD5=[5fd98a8c03cc0e5a408f548eb1c0ace8]
link Company to Port--><path codeLine="102" d="M399.29,348.55 C448.38,374.94 533.68,420.81 578.34,444.82 " fill="none" id="Company-Port" style="stroke:#A80036;stroke-width:1.0;"/><polygon fill="#000000" points="471.4038,369.0436,464.829,362.1717,462.0455,367.3487,471.4038,369.0436" style="stroke:#000000;stroke-width:1.0;"/><text fill="#000000" font-family="sans-serif" font-size="13" lengthAdjust="spacing" textLength="37" x="476" y="371.9951">knows</text><text fill="#000000" font-family="sans-serif" font-size="13" lengthAdjust="spacing" textLength="7" x="402.0747" y="369.9836">1</text><text fill="#000000" font-family="sans-serif" font-size="13" lengthAdjust="spacing" textLength="5" x="565.3791" y="456.4841">*</text><!--MD5=[81746cb93c90cbb95bfeb7ee7cddfbe5]
link Port to Ship--><path codeLine="103" d="M638.55,455.07 C699.98,443.59 842.32,416.98 902.66,405.7 " fill="none" id="Port-Ship" style="stroke:#A80036;stroke-width:1.0;"/><polygon fill="#000000" points="739.0851,409.5945,748.5162,410.8214,747.4362,405.0436,739.0851,409.5945" style="stroke:#000000;stroke-width:1.0;"/><text fill="#000000" font-family="sans-serif" font-size="13" lengthAdjust="spacing" textLength="35" x="753" y="413.9951">docks</text><text fill="#000000" font-family="sans-serif" font-size="13" lengthAdjust="spacing" textLength="5" x="646.4841" y="449.3325">*</text><text fill="#000000" font-family="sans-serif" font-size="13" lengthAdjust="spacing" textLength="5" x="890.0209" y="422.4935">*</text><!--MD5=[5fdd31ab83fa7860731c4022d7a13fe0]
link Port to Containers--><path codeLine="104" d="M638.61,467.41 C725.98,488.15 987.18,550.17 1105.77,578.32 " fill="none" id="Port-Containers" style="stroke:#A80036;stroke-width:1.0;"/><polygon fill="#000000" points="923.3648,515.8307,915.2432,510.882,913.8854,516.6008,923.3648,515.8307" style="stroke:#000000;stroke-width:1.0;"/><text fill="#000000" font-family="sans-serif" font-size="13" lengthAdjust="spacing" textLength="21" x="927.5" y="519.9951">has</text><text fill="#000000" font-family="sans-serif" font-size="13" lengthAdjust="spacing" textLength="7" x="646.3823" y="484.3919">1</text><text fill="#000000" font-family="sans-serif" font-size="13" lengthAdjust="spacing" textLength="5" x="1093.0638" y="591.1124">*</text><!--MD5=[cff4e3c6ede03364cf99bd3378be6b6a]
link Ship to Containers--><path codeLine="105" d="M960.29,426.31 C977.82,442.2 1001.2,462.68 1023,479.5 C1045.55,496.89 1053.39,498.19 1076,515.5 C1085.76,522.98 1095.87,531.18 1105.61,539.36 " fill="none" id="Ship-Containers" style="stroke:#A80036;stroke-width:1.0;"/><polygon fill="#000000" points="1040.4465,473.7459,1035.1118,465.8724,1031.5027,470.5117,1040.4465,473.7459" style="stroke:#000000;stroke-width:1.0;"/><text fill="#000000" font-family="sans-serif" font-size="13" lengthAdjust="spacing" textLength="21" x="1045.5" y="475.9951">has</text><text fill="#000000" font-family="sans-serif" font-size="13" lengthAdjust="spacing" textLength="7" x="968.1607" y="448.1272">1</text><text fill="#000000" font-family="sans-serif" font-size="13" lengthAdjust="spacing" textLength="5" x="1092.8843" y="547.4041">*</text><!--MD5=[495fae50e5964e36f0a771ac5477efc8]
link CargoManifest to Ship--><path codeLine="106" d="M417.16,640.95 C427.06,637.05 437.31,633.09 447,629.5 C539.92,595.09 567.76,598.43 658,557.5 C751.48,515.1 854.62,450.31 902.82,418.87 " fill="none" id="CargoManifest-Ship" style="stroke:#A80036;stroke-width:1.0;"/><polygon fill="#000000" points="577.0471,546.5965,567.5991,547.6852,570.0435,553.0307,577.0471,546.5965" style="stroke:#000000;stroke-width:1.0;"/><text fill="#000000" font-family="sans-serif" font-size="13" lengthAdjust="spacing" textLength="67" x="581.5" y="553.9951">assigned to</text><text fill="#000000" font-family="sans-serif" font-size="13" lengthAdjust="spacing" textLength="5" x="425.0424" y="652.5467">*</text><text fill="#000000" font-family="sans-serif" font-size="13" lengthAdjust="spacing" textLength="7" x="887.9761" y="438.8737">1</text><!--MD5=[9f5a09a616509cd3e7b114149642c3c0]
link CargoManifest to Containers--><path codeLine="107" d="M417.22,682.16 C506.6,709.8 688.3,755.3 840,725.5 C937.34,706.38 1042.26,657.94 1105.91,625.11 " fill="none" id="CargoManifest-Containers" style="stroke:#A80036;stroke-width:1.0;"/><polygon fill="#000000" points="755.9829,716.263,746.7261,714.0808,747.2113,719.9386,755.9829,716.263" style="stroke:#000000;stroke-width:1.0;"/><text fill="#000000" font-family="sans-serif" font-size="13" lengthAdjust="spacing" textLength="21" x="760" y="721.9951">has</text><text fill="#000000" font-family="sans-serif" font-size="13" lengthAdjust="spacing" textLength="7" x="424.8716" y="699.125">1</text><text fill="#000000" font-family="sans-serif" font-size="13" lengthAdjust="spacing" textLength="5" x="1092.8266" y="643.8613">*</text><!--MD5=[47296211a5450e6030aae792427ae68d]
link CargoManifest to Port--><path codeLine="108" d="M386.48,622.37 C401.79,599.02 423.11,570.38 447,549.5 C487.43,514.17 544.17,486.79 578.23,472.2 " fill="none" id="CargoManifest-Port" style="stroke:#A80036;stroke-width:1.0;"/><polygon fill="#000000" points="455.9365,484.5929,447.0033,487.8561,450.6274,492.4837,455.9365,484.5929" style="stroke:#000000;stroke-width:1.0;"/><text fill="#000000" font-family="sans-serif" font-size="13" lengthAdjust="spacing" textLength="67" x="461" y="492.9951">assigned to</text><text fill="#000000" font-family="sans-serif" font-size="13" lengthAdjust="spacing" textLength="7" x="383.2578" y="611.4934">1</text><text fill="#000000" font-family="sans-serif" font-size="13" lengthAdjust="spacing" textLength="7" x="563.4207" y="490.2896">1</text><!--MD5=[4f7e2c7dacad3b9128cfc3e0a564208c]
link ShipChiefElectricalEngineer to Company--><path codeLine="109" d="M116.04,656.29 C161.82,594.78 299.08,410.35 344.91,348.77 " fill="none" id="ShipChiefElectricalEngineer-Company" style="stroke:#A80036;stroke-width:1.0;"/><polygon fill="#000000" points="225.0148,445.6868,232.7727,440.1854,228.0574,436.6761,225.0148,445.6868" style="stroke:#000000;stroke-width:1.0;"/><text fill="#000000" font-family="sans-serif" font-size="13" lengthAdjust="spacing" textLength="37" x="237" y="446.9951">knows</text><text fill="#000000" font-family="sans-serif" font-size="13" lengthAdjust="spacing" textLength="5" x="115.0174" y="645.5501">*</text><text fill="#000000" font-family="sans-serif" font-size="13" lengthAdjust="spacing" textLength="7" x="332.6452" y="369.9099">1</text><!--MD5=[d6ba4e9149c073a5927859768fb95c39]
link ShipChiefElectricalEngineer to Containers--><path codeLine="110" d="M113.63,696.78 C147.04,747.62 243.25,876.5 360,876.5 C360,876.5 360,876.5 932.5,876.5 C1037.57,876.5 1103.9,758.88 1137.84,675.03 " fill="none" id="ShipChiefElectricalEngineer-Containers" style="stroke:#A80036;stroke-width:1.0;"/><polygon fill="#000000" points="584.4989,867.5696,575.3934,864.8234,575.5182,870.6999,584.4989,867.5696" style="stroke:#000000;stroke-width:1.0;"/><text fill="#000000" font-family="sans-serif" font-size="13" lengthAdjust="spacing" textLength="53" x="588.5" y="872.9951">manages</text><text fill="#000000" font-family="sans-serif" font-size="13" lengthAdjust="spacing" textLength="7" x="109.3524" y="717.9226">1</text><text fill="#000000" font-family="sans-serif" font-size="13" lengthAdjust="spacing" textLength="5" x="1130.2596" y="696.0564">*</text><!--MD5=[acda98ef2513d819683ba761a9c77b11]
link Company to Warehouse--><path codeLine="111" d="M386.69,308.28 C403.16,295.36 425.62,278.79 447,266.5 C481.5,246.66 500.56,258.34 529,230.5 C560.9,199.27 581.22,152.6 593.17,116.21 " fill="none" id="Company-Warehouse" style="stroke:#A80036;stroke-width:1.0;"/><polygon fill="#000000" points="470.661,218.2703,462.0365,222.279,466.0399,226.5827,470.661,218.2703" style="stroke:#000000;stroke-width:1.0;"/><text fill="#000000" font-family="sans-serif" font-size="13" lengthAdjust="spacing" textLength="37" x="476" y="226.9951">knows</text><text fill="#000000" font-family="sans-serif" font-size="13" lengthAdjust="spacing" textLength="7" x="386.2083" y="297.5371">1</text><text fill="#000000" font-family="sans-serif" font-size="13" lengthAdjust="spacing" textLength="5" x="585.8855" y="137.7508">*</text><!--MD5=[625ab465577c800be86e58d31f601cc4]
link Warehouse to Containers--><path codeLine="112" d="M658.08,67.53 C736.79,79.57 893.41,113.17 993,198.5 C1089.3,281.01 1062.99,341.2 1106,460.5 C1111.84,476.7 1118.81,493.68 1125.9,509.86 " fill="none" id="Warehouse-Containers" style="stroke:#A80036;stroke-width:1.0;"/><polygon fill="#000000" points="906.1331,121.111,901.5799,112.7612,897.5416,117.0322,906.1331,121.111" style="stroke:#000000;stroke-width:1.0;"/><text fill="#000000" font-family="sans-serif" font-size="13" lengthAdjust="spacing" textLength="53" x="911.5" y="122.9951">manages</text><text fill="#000000" font-family="sans-serif" font-size="13" lengthAdjust="spacing" textLength="5" x="666.0548" y="83.1866">*</text><text fill="#000000" font-family="sans-serif" font-size="13" lengthAdjust="spacing" textLength="5" x="1116.9267" y="499.0374">*</text><!--MD5=[33207359e430527c3ef95e8fa4f14f27]
link CargoManifest to CargoManifestLoad--><path codeLine="113" d="M417.34,661.15 C489.42,658.1 615.46,652.75 693.79,649.43 " fill="none" id="CargoManifest-CargoManifestLoad" style="stroke:#A80036;stroke-width:1.0;"/><polygon fill="#000000" points="479.9955,646.464,470.8341,643.9108,471.083,649.7834,479.9955,646.464" style="stroke:#000000;stroke-width:1.0;"/><text fill="#000000" font-family="sans-serif" font-size="13" lengthAdjust="spacing" textLength="21" x="484" y="651.9951">has</text><text fill="#000000" font-family="sans-serif" font-size="13" lengthAdjust="spacing" textLength="7" x="425.007" y="675.4231">1</text><text fill="#000000" font-family="sans-serif" font-size="13" lengthAdjust="spacing" textLength="5" x="680.8373" y="664.121">*</text><!--MD5=[09063d1180f933160dfc18c7b4e535f1]
link CargoManifest to CargoManifestUnload--><path codeLine="114" d="M381.09,704.76 C395.38,730.6 417.53,762.02 447,778.5 C521.01,819.88 620.33,821.24 687.73,815.76 " fill="none" id="CargoManifest-CargoManifestUnload" style="stroke:#A80036;stroke-width:1.0;"/><polygon fill="#000000" points="479.7015,771.3777,472.1968,765.5355,470.1961,771.0624,479.7015,771.3777" style="stroke:#000000;stroke-width:1.0;"/><text fill="#000000" font-family="sans-serif" font-size="13" lengthAdjust="spacing" textLength="21" x="484" y="774.9951">has</text><text fill="#000000" font-family="sans-serif" font-size="13" lengthAdjust="spacing" textLength="7" x="376.5267" y="725.5521">1</text><text fill="#000000" font-family="sans-serif" font-size="13" lengthAdjust="spacing" textLength="5" x="674.9761" y="831.053">*</text><!--MD5=[5387bf9b81457913cdccd80194121d24]
link CargoManifestLoad to Containers--><path codeLine="115" d="M834.3,637.16 C910.98,626.82 1033.28,610.33 1105.85,600.54 " fill="none" id="CargoManifestLoad-Containers" style="stroke:#A80036;stroke-width:1.0;"/><polygon fill="#000000" points="907.4551,606.0076,898.0984,604.3038,898.884,610.129,907.4551,606.0076" style="stroke:#000000;stroke-width:1.0;"/><text fill="#000000" font-family="sans-serif" font-size="13" lengthAdjust="spacing" textLength="53" x="911.5" y="611.9951">manages</text><text fill="#000000" font-family="sans-serif" font-size="13" lengthAdjust="spacing" textLength="5" x="841.8075" y="650.5173">*</text><text fill="#000000" font-family="sans-serif" font-size="13" lengthAdjust="spacing" textLength="5" x="1093.1536" y="616.0405">*</text><!--MD5=[760c0c4986f84a43198d88cca97ab89c]
link CargoManifestUnload to Containers--><path codeLine="116" d="M840.03,807.46 C907.69,805.57 1006.89,793.33 1076,743.5 C1099.85,726.3 1118.44,700.61 1132.34,675.28 " fill="none" id="CargoManifestUnload-Containers" style="stroke:#A80036;stroke-width:1.0;"/><polygon fill="#000000" points="907.0559,773.6157,897.6033,774.6646,900.0251,780.0203,907.0559,773.6157" style="stroke:#000000;stroke-width:1.0;"/><text fill="#000000" font-family="sans-serif" font-size="13" lengthAdjust="spacing" textLength="53" x="911.5" y="780.9951">manages</text><text fill="#000000" font-family="sans-serif" font-size="13" lengthAdjust="spacing" textLength="5" x="848.1284" y="821.9826">*</text><text fill="#000000" font-family="sans-serif" font-size="13" lengthAdjust="spacing" textLength="5" x="1124.4187" y="696.0421">*</text><!--MD5=[6eee883fdf517d3604e8bd0f2058e9aa]
link Company to Client--><path codeLine="117" d="M403.8,322.76 C503.17,309.13 753.82,274.74 869.84,258.82 " fill="none" id="Company-Client" style="stroke:#A80036;stroke-width:1.0;"/><polygon fill="#000000" points="600.4536,278.9962,591.093,277.314,591.8919,283.1373,600.4536,278.9962" style="stroke:#000000;stroke-width:1.0;"/><text fill="#000000" font-family="sans-serif" font-size="13" lengthAdjust="spacing" textLength="21" x="604.5" y="284.9951">has</text><text fill="#000000" font-family="sans-serif" font-size="13" lengthAdjust="spacing" textLength="7" x="411.4684" y="318.0085">1</text><text fill="#000000" font-family="sans-serif" font-size="13" lengthAdjust="spacing" textLength="5" x="857.0205" y="274.3455">*</text><!--MD5=[2a654a65145d4d768472c66eea17ac36]
link Client to Containers--><path codeLine="118" d="M974.79,284.66 C981.6,291.65 988.03,299.38 993,307.5 C1017.89,348.17 997.5,370.21 1023,410.5 C1039.84,437.1 1055.35,433.73 1076,457.5 C1089.93,473.53 1103.42,491.84 1115.53,509.7 " fill="none" id="Client-Containers" style="stroke:#A80036;stroke-width:1.0;"/><polygon fill="#000000" points="1030.6512,405.915,1028.3469,396.6878,1023.3634,399.8045,1030.6512,405.915" style="stroke:#000000;stroke-width:1.0;"/><text fill="#000000" font-family="sans-serif" font-size="13" lengthAdjust="spacing" textLength="38" x="1037" y="406.9951">leases</text><text fill="#000000" font-family="sans-serif" font-size="13" lengthAdjust="spacing" textLength="5" x="977.0557" y="305.7254">*</text><text fill="#000000" font-family="sans-serif" font-size="13" lengthAdjust="spacing" textLength="5" x="1105.7678" y="499.1451">*</text><!--MD5=[a09a23c75352cdcc2fb4337388cb8f5f]
@startuml
hide methods
left to right direction
skinparam classAttributeIconSize 0


class Company {
  
}

class Ship{
-MMSI
-name
-IMO
-callsign
-type
-length
-width
-draft
}

class Containers{
-ContainerNumber
-ISOCode
-MaxWeight
-ContainerWeight
-MaxWeightPacked
-MaxVolumePacked
-Certificates
-RepairRecomendation
-Temperature
}

class ShipPosition {
   -shipMMSI
   -date
   -latitude
   -longitude
   -sog
   -cog
   -heading
   -cargo
   -transciever
}

class Port{
-id
-name
-continent
-country
-latitude
-longitude
}

class TrafficManager{
}

class PortManager{
}

class ShipChiefElectricalEngineer{
}

class CargoManifest{
-id
-shipMMSI
-portID
}

class Warehouse{
-WarehouseID
-WarehouseName
-Latitude
-Longitude
-CountryName
}

class CargoManifestLoad{
-cargoManifestID
-dateLoad
-done
-portID
}

class CargoManifestUnload{
-cargoManifestID
-dateUnload
-done
-portID
}

class Client {
-clientID
-clientRegistrationCode
}

TrafficManager "*" - - "1" Company : knows <
TrafficManager "1" - - "*" Ship : manages >
Company "1" - - "*" Ship : owns >
Ship "1" - - "*" ShipPosition : has >
PortManager "*" - - "1" Company : knows <
PortManager "1" - - "*" Port : manages >
Company "1" - - "*" Port : knows >
Port "*" - - "*" Ship : docks <
Port "1" - - "*" Containers: has >
Ship "1" - - "*" Containers: has >
CargoManifest "*" - - "1" Ship : assigned to >
CargoManifest "1" - - "*" Containers : has >
CargoManifest "1" - - "1" Port: assigned to >
ShipChiefElectricalEngineer "*" - - "1" Company : knows <
ShipChiefElectricalEngineer "1" - - "*" Containers : manages >
Company "1" - - "*" Warehouse : knows >
Warehouse "*" - - "*" Containers : manages >
CargoManifest "1" - - "*" CargoManifestLoad : has >
CargoManifest "1" - - "*" CargoManifestUnload : has >
CargoManifestLoad "*" - - "*" Containers : manages >
CargoManifestUnload "*" - - "*" Containers : manages >
Company "1" - - "*" Client : has >
Client "*" - - "*" Containers : leases >

@enduml

PlantUML version 1.2021.2(Sun Mar 07 11:10:27 GMT 2021)
(GPL source distribution)
Java Runtime: OpenJDK Runtime Environment
JVM: OpenJDK 64-Bit Server VM
Default Encoding: Cp1252
Language: pt
Country: PT
--></g></svg>