<?xml version="1.0" encoding="UTF-8" standalone="no"?><svg xmlns="http://www.w3.org/2000/svg" xmlns:xlink="http://www.w3.org/1999/xlink" contentScriptType="application/ecmascript" contentStyleType="text/css" height="377px" preserveAspectRatio="none" style="width:415px;height:377px;" version="1.1" viewBox="0 0 415 377" width="415px" zoomAndPan="magnify"><defs><filter height="300%" id="f1jeu0w68jk8vi" width="300%" x="-1" y="-1"><feGaussianBlur result="blurOut" stdDeviation="2.0"/><feColorMatrix in="blurOut" result="blurOut2" type="matrix" values="0 0 0 0 0 0 0 0 0 0 0 0 0 0 0 0 0 0 .4 0"/><feOffset dx="4.0" dy="4.0" in="blurOut2" result="blurOut3"/><feBlend in="SourceGraphic" in2="blurOut3" mode="normal"/></filter></defs><g><rect fill="#FFFFFF" filter="url(#f1jeu0w68jk8vi)" height="174.1094" style="stroke:#A80036;stroke-width:1.0;" width="10" x="53" y="99.6094"/><rect fill="#FFFFFF" filter="url(#f1jeu0w68jk8vi)" height="30.3516" style="stroke:#A80036;stroke-width:1.0;" width="10" x="366" y="121.9609"/><rect fill="#FFFFFF" filter="url(#f1jeu0w68jk8vi)" height="30.3516" style="stroke:#A80036;stroke-width:1.0;" width="10" x="366" y="182.6641"/><rect fill="#FFFFFF" filter="url(#f1jeu0w68jk8vi)" height="30.3516" style="stroke:#A80036;stroke-width:1.0;" width="10" x="366" y="243.3672"/><line style="stroke:#A80036;stroke-width:1.0;stroke-dasharray:5.0,5.0;" x1="58" x2="58" y1="89.6094" y2="291.7188"/><line style="stroke:#A80036;stroke-width:1.0;stroke-dasharray:5.0,5.0;" x1="371" x2="371" y1="89.6094" y2="291.7188"/><text fill="#000000" font-family="sans-serif" font-size="14" lengthAdjust="spacing" textLength="100" x="5" y="86.5332">Traffic Manager</text><ellipse cx="58" cy="15" fill="#FEFECE" filter="url(#f1jeu0w68jk8vi)" rx="8" ry="8" style="stroke:#A80036;stroke-width:2.0;"/><path d="M58,23 L58,50 M45,31 L71,31 M58,50 L45,65 M58,50 L71,65 " fill="none" filter="url(#f1jeu0w68jk8vi)" style="stroke:#A80036;stroke-width:2.0;"/><text fill="#000000" font-family="sans-serif" font-size="14" lengthAdjust="spacing" textLength="100" x="5" y="305.252">Traffic Manager</text><ellipse cx="58" cy="318.3281" fill="#FEFECE" filter="url(#f1jeu0w68jk8vi)" rx="8" ry="8" style="stroke:#A80036;stroke-width:2.0;"/><path d="M58,326.3281 L58,353.3281 M45,334.3281 L71,334.3281 M58,353.3281 L45,368.3281 M58,353.3281 L71,368.3281 " fill="none" filter="url(#f1jeu0w68jk8vi)" style="stroke:#A80036;stroke-width:2.0;"/><rect fill="#FEFECE" filter="url(#f1jeu0w68jk8vi)" height="31.6094" style="stroke:#A80036;stroke-width:1.5;" width="64" x="337" y="53"/><text fill="#000000" font-family="sans-serif" font-size="14" lengthAdjust="spacing" textLength="50" x="344" y="74.5332">:System</text><rect fill="#FEFECE" filter="url(#f1jeu0w68jk8vi)" height="31.6094" style="stroke:#A80036;stroke-width:1.5;" width="64" x="337" y="290.7188"/><text fill="#000000" font-family="sans-serif" font-size="14" lengthAdjust="spacing" textLength="50" x="344" y="312.252">:System</text><rect fill="#FFFFFF" filter="url(#f1jeu0w68jk8vi)" height="174.1094" style="stroke:#A80036;stroke-width:1.0;" width="10" x="53" y="99.6094"/><rect fill="#FFFFFF" filter="url(#f1jeu0w68jk8vi)" height="30.3516" style="stroke:#A80036;stroke-width:1.0;" width="10" x="366" y="121.9609"/><rect fill="#FFFFFF" filter="url(#f1jeu0w68jk8vi)" height="30.3516" style="stroke:#A80036;stroke-width:1.0;" width="10" x="366" y="182.6641"/><rect fill="#FFFFFF" filter="url(#f1jeu0w68jk8vi)" height="30.3516" style="stroke:#A80036;stroke-width:1.0;" width="10" x="366" y="243.3672"/><polygon fill="#A80036" points="354,117.9609,364,121.9609,354,125.9609,358,121.9609" style="stroke:#A80036;stroke-width:1.0;"/><line style="stroke:#A80036;stroke-width:1.0;" x1="63" x2="360" y1="121.9609" y2="121.9609"/><text fill="#000000" font-family="sans-serif" font-size="13" font-weight="bold" lengthAdjust="spacing" textLength="7" x="70" y="117.1045">1</text><text fill="#000000" font-family="sans-serif" font-size="13" lengthAdjust="spacing" textLength="273" x="81" y="117.1045">ask to make a summary of a ship's movements</text><polygon fill="#A80036" points="74,148.3125,64,152.3125,74,156.3125,70,152.3125" style="stroke:#A80036;stroke-width:1.0;"/><line style="stroke:#A80036;stroke-width:1.0;stroke-dasharray:2.0,2.0;" x1="68" x2="370" y1="152.3125" y2="152.3125"/><text fill="#000000" font-family="sans-serif" font-size="13" font-weight="bold" lengthAdjust="spacing" textLength="7" x="80" y="147.4561">2</text><text fill="#000000" font-family="sans-serif" font-size="13" lengthAdjust="spacing" textLength="134" x="91" y="147.4561">request data(shipCode)</text><polygon fill="#A80036" points="354,178.6641,364,182.6641,354,186.6641,358,182.6641" style="stroke:#A80036;stroke-width:1.0;"/><line style="stroke:#A80036;stroke-width:1.0;" x1="63" x2="360" y1="182.6641" y2="182.6641"/><text fill="#000000" font-family="sans-serif" font-size="13" font-weight="bold" lengthAdjust="spacing" textLength="7" x="70" y="177.8076">3</text><text fill="#000000" font-family="sans-serif" font-size="13" lengthAdjust="spacing" textLength="122" x="81" y="177.8076">types requested data</text><polygon fill="#A80036" points="74,209.0156,64,213.0156,74,217.0156,70,213.0156" style="stroke:#A80036;stroke-width:1.0;"/><line style="stroke:#A80036;stroke-width:1.0;stroke-dasharray:2.0,2.0;" x1="68" x2="370" y1="213.0156" y2="213.0156"/><text fill="#000000" font-family="sans-serif" font-size="13" font-weight="bold" lengthAdjust="spacing" textLength="7" x="80" y="208.1592">4</text><text fill="#000000" font-family="sans-serif" font-size="13" lengthAdjust="spacing" textLength="241" x="91" y="208.1592">shows the data and requests confirmation</text><polygon fill="#A80036" points="354,239.3672,364,243.3672,354,247.3672,358,243.3672" style="stroke:#A80036;stroke-width:1.0;"/><line style="stroke:#A80036;stroke-width:1.0;" x1="63" x2="360" y1="243.3672" y2="243.3672"/><text fill="#000000" font-family="sans-serif" font-size="13" font-weight="bold" lengthAdjust="spacing" textLength="7" x="70" y="238.5107">5</text><text fill="#000000" font-family="sans-serif" font-size="13" lengthAdjust="spacing" textLength="100" x="81" y="238.5107">confirms the data</text><polygon fill="#A80036" points="69,269.7188,59,273.7188,69,277.7188,65,273.7188" style="stroke:#A80036;stroke-width:1.0;"/><line style="stroke:#A80036;stroke-width:1.0;stroke-dasharray:2.0,2.0;" x1="63" x2="370" y1="273.7188" y2="273.7188"/><text fill="#000000" font-family="sans-serif" font-size="13" font-weight="bold" lengthAdjust="spacing" textLength="7" x="75" y="268.8623">6</text><text fill="#000000" font-family="sans-serif" font-size="13" lengthAdjust="spacing" textLength="159" x="86" y="268.8623">informs operations success</text><!--MD5=[5bba879941be2c1448298db4bb549bae]
@startuml
actor "Traffic Manager" as TF
participant ":System" as System

autonumber
activate TF
TF -> System: ask to make a summary of a ship's movements
activate System
System - -> TF: request data(shipCode)
deactivate System
TF -> System: types requested data
activate System
System - -> TF: shows the data and requests confirmation
deactivate System
TF -> System: confirms the data
activate System
System - -> TF: informs operations success
deactivate System
deactivate TF
@enduml

PlantUML version 1.2021.00(Sun Jan 10 10:25:05 GMT 2021)
(GPL source distribution)
Java Runtime: OpenJDK Runtime Environment
JVM: OpenJDK 64-Bit Server VM
Default Encoding: Cp1252
Language: pt
Country: PT
--></g></svg>