<?xml version="1.0" encoding="UTF-8" standalone="no"?><svg xmlns="http://www.w3.org/2000/svg" xmlns:xlink="http://www.w3.org/1999/xlink" contentScriptType="application/ecmascript" contentStyleType="text/css" height="804px" preserveAspectRatio="none" style="width:679px;height:804px;" version="1.1" viewBox="0 0 679 804" width="679px" zoomAndPan="magnify"><defs><filter height="300%" id="f7vby776wd0bu" width="300%" x="-1" y="-1"><feGaussianBlur result="blurOut" stdDeviation="2.0"/><feColorMatrix in="blurOut" result="blurOut2" type="matrix" values="0 0 0 0 0 0 0 0 0 0 0 0 0 0 0 0 0 0 .4 0"/><feOffset dx="4.0" dy="4.0" in="blurOut2" result="blurOut3"/><feBlend in="SourceGraphic" in2="blurOut3" mode="normal"/></filter></defs><g><!--MD5=[64e2e010ba86d7988e5cd73bd64f61f9]
cluster ui--><polygon fill="#FFFFFF" filter="url(#f7vby776wd0bu)" points="269.67,6,288.67,6,295.67,29.6094,401.67,29.6094,401.67,106,269.67,106,269.67,6" style="stroke:#000000;stroke-width:1.5;"/><line style="stroke:#000000;stroke-width:1.5;" x1="269.67" x2="295.67" y1="29.6094" y2="29.6094"/><text fill="#000000" font-family="sans-serif" font-size="14" font-weight="bold" lengthAdjust="spacing" textLength="13" x="273.67" y="22.5332">ui</text><!--MD5=[10ea673caf457862023e152271927b45]
cluster controller--><polygon fill="#FFFFFF" filter="url(#f7vby776wd0bu)" points="248.67,139,323.67,139,330.67,162.6094,422.67,162.6094,422.67,253,248.67,253,248.67,139" style="stroke:#000000;stroke-width:1.5;"/><line style="stroke:#000000;stroke-width:1.5;" x1="248.67" x2="330.67" y1="162.6094" y2="162.6094"/><text fill="#000000" font-family="sans-serif" font-size="14" font-weight="bold" lengthAdjust="spacing" textLength="69" x="252.67" y="155.5332">controller</text><!--MD5=[c52f45833d539af9e29a9d34b8b7302b]
cluster utils--><polygon fill="#FFFFFF" filter="url(#f7vby776wd0bu)" points="101.67,286,137.67,286,144.67,309.6094,569.67,309.6094,569.67,509,101.67,509,101.67,286" style="stroke:#000000;stroke-width:1.5;"/><line style="stroke:#000000;stroke-width:1.5;" x1="101.67" x2="144.67" y1="309.6094" y2="309.6094"/><text fill="#000000" font-family="sans-serif" font-size="14" font-weight="bold" lengthAdjust="spacing" textLength="30" x="105.67" y="302.5332">utils</text><!--MD5=[c23849cc5f4a85746a20de4317c530fc]
cluster store--><polygon fill="#FFFFFF" filter="url(#f7vby776wd0bu)" points="125.67,330,168.67,330,175.67,353.6094,545.67,353.6094,545.67,485,125.67,485,125.67,330" style="stroke:#000000;stroke-width:1.5;"/><line style="stroke:#000000;stroke-width:1.5;" x1="125.67" x2="175.67" y1="353.6094" y2="353.6094"/><text fill="#000000" font-family="sans-serif" font-size="14" font-weight="bold" lengthAdjust="spacing" textLength="37" x="129.67" y="346.5332">store</text><!--MD5=[5d4cd377749310b66bf14896f5cd8d9b]
cluster model--><polygon fill="#FFFFFF" filter="url(#f7vby776wd0bu)" points="110.67,559,159.67,559,166.67,582.6094,484.67,582.6094,484.67,797,110.67,797,110.67,559" style="stroke:#000000;stroke-width:1.5;"/><line style="stroke:#000000;stroke-width:1.5;" x1="110.67" x2="166.67" y1="582.6094" y2="582.6094"/><text fill="#000000" font-family="sans-serif" font-size="14" font-weight="bold" lengthAdjust="spacing" textLength="43" x="114.67" y="575.5332">model</text><!--MD5=[494b4dc93ed5acf56d33c38353fc258f]
cluster BST--><polygon fill="#FFFFFF" filter="url(#f7vby776wd0bu)" points="524.67,628,557.67,628,564.67,651.6094,612.67,651.6094,612.67,728,524.67,728,524.67,628" style="stroke:#000000;stroke-width:1.5;"/><line style="stroke:#000000;stroke-width:1.5;" x1="524.67" x2="564.67" y1="651.6094" y2="651.6094"/><text fill="#000000" font-family="sans-serif" font-size="14" font-weight="bold" lengthAdjust="spacing" textLength="27" x="528.67" y="644.5332">BST</text><!--MD5=[de44700826a9dcf1e2e08b202517a80a]
class ImportFileUI--><rect codeLine="3" fill="#FEFECE" filter="url(#f7vby776wd0bu)" height="48" id="ImportFileUI" style="stroke:#A80036;stroke-width:1.5;" width="99" x="286.17" y="42"/><ellipse cx="301.17" cy="58" fill="#ADD1B2" rx="11" ry="11" style="stroke:#A80036;stroke-width:1.0;"/><path d="M303.17,54.5 Q303.3731,54 303.6075,53.75 Q303.8419,53.5 304.1075,53.5 Q304.5762,53.5 304.8731,53.7813 Q305.17,54.0625 305.17,54.7188 L305.17,56.2813 Q305.17,56.9375 304.8887,57.2188 Q304.6075,57.5 304.17,57.5 Q303.7794,57.5 303.5294,57.3281 Q303.2794,57.1563 303.17,56.7031 Q303.1231,56.3906 302.9512,56.2188 Q302.6387,55.8906 302.0762,55.7031 Q301.5137,55.5 300.9512,55.5 Q300.2481,55.5 299.6544,55.7813 Q299.0762,56.0625 298.6231,56.6875 Q298.17,57.3125 298.17,58.1719 L298.17,59.0938 Q298.17,60.125 299.0137,60.8125 Q299.8575,61.5 301.3575,61.5 Q302.2481,61.5 302.8731,61.2969 Q303.2325,61.1875 303.6387,60.8281 Q303.9044,60.625 304.045,60.5625 Q304.1856,60.5 304.3575,60.5 Q304.6856,60.5 304.92,60.7656 Q305.17,61.0156 305.17,61.375 Q305.17,61.7188 304.8262,62.125 Q304.3262,62.7188 303.5294,63.0469 Q302.4825,63.5 301.2012,63.5 Q299.7012,63.5 298.4981,62.9063 Q297.5294,62.4375 296.8419,61.4219 Q296.17,60.4063 296.17,59.2031 L296.17,58.1094 Q296.17,56.8594 296.7637,55.7656 Q297.3731,54.6719 298.42,54.0938 Q299.4825,53.5 300.67,53.5 Q301.3887,53.5 302.0137,53.75 Q302.6387,54 303.17,54.5 Z " fill="#000000"/><text fill="#000000" font-family="sans-serif" font-size="12" lengthAdjust="spacing" textLength="67" x="315.17" y="62.9102">ImportFileUI</text><line style="stroke:#A80036;stroke-width:1.5;" x1="287.17" x2="384.17" y1="74" y2="74"/><line style="stroke:#A80036;stroke-width:1.5;" x1="287.17" x2="384.17" y1="82" y2="82"/><!--MD5=[64acad508103d2336b60b181cc8df787]
class ImportFileController--><rect codeLine="58" fill="#FEFECE" filter="url(#f7vby776wd0bu)" height="61.8359" id="ImportFileController" style="stroke:#A80036;stroke-width:1.5;" width="141" x="265.17" y="175"/><ellipse cx="280.17" cy="191" fill="#ADD1B2" rx="11" ry="11" style="stroke:#A80036;stroke-width:1.0;"/><path d="M282.17,187.5 Q282.3731,187 282.6075,186.75 Q282.8419,186.5 283.1075,186.5 Q283.5762,186.5 283.8731,186.7813 Q284.17,187.0625 284.17,187.7188 L284.17,189.2813 Q284.17,189.9375 283.8887,190.2188 Q283.6075,190.5 283.17,190.5 Q282.7794,190.5 282.5294,190.3281 Q282.2794,190.1563 282.17,189.7031 Q282.1231,189.3906 281.9512,189.2188 Q281.6387,188.8906 281.0762,188.7031 Q280.5137,188.5 279.9512,188.5 Q279.2481,188.5 278.6544,188.7813 Q278.0762,189.0625 277.6231,189.6875 Q277.17,190.3125 277.17,191.1719 L277.17,192.0938 Q277.17,193.125 278.0137,193.8125 Q278.8575,194.5 280.3575,194.5 Q281.2481,194.5 281.8731,194.2969 Q282.2325,194.1875 282.6387,193.8281 Q282.9044,193.625 283.045,193.5625 Q283.1856,193.5 283.3575,193.5 Q283.6856,193.5 283.92,193.7656 Q284.17,194.0156 284.17,194.375 Q284.17,194.7188 283.8262,195.125 Q283.3262,195.7188 282.5294,196.0469 Q281.4825,196.5 280.2012,196.5 Q278.7012,196.5 277.4981,195.9063 Q276.5294,195.4375 275.8419,194.4219 Q275.17,193.4063 275.17,192.2031 L275.17,191.1094 Q275.17,189.8594 275.7637,188.7656 Q276.3731,187.6719 277.42,187.0938 Q278.4825,186.5 279.67,186.5 Q280.3887,186.5 281.0137,186.75 Q281.6387,187 282.17,187.5 Z " fill="#000000"/><text fill="#000000" font-family="sans-serif" font-size="12" lengthAdjust="spacing" textLength="109" x="294.17" y="195.9102">ImportFileController</text><line style="stroke:#A80036;stroke-width:1.5;" x1="266.17" x2="405.17" y1="207" y2="207"/><line style="stroke:#A80036;stroke-width:1.5;" x1="266.17" x2="405.17" y1="215" y2="215"/><ellipse cx="276.17" cy="226" fill="#84BE84" rx="3" ry="3" style="stroke:#038048;stroke-width:1.0;"/><text fill="#000000" font-family="sans-serif" font-size="11" lengthAdjust="spacing" textLength="44" x="285.17" y="230.4189">read(file)</text><!--MD5=[ea2206eefe09474e90beb17e18e6b3d8]
class ShipStore--><rect codeLine="38" fill="#FEFECE" filter="url(#f7vby776wd0bu)" height="103.3438" id="ShipStore" style="stroke:#A80036;stroke-width:1.5;" width="388" x="141.67" y="366"/><ellipse cx="304.42" cy="382" fill="#ADD1B2" rx="11" ry="11" style="stroke:#A80036;stroke-width:1.0;"/><path d="M306.42,378.5 Q306.6231,378 306.8575,377.75 Q307.0919,377.5 307.3575,377.5 Q307.8263,377.5 308.1231,377.7813 Q308.42,378.0625 308.42,378.7188 L308.42,380.2813 Q308.42,380.9375 308.1388,381.2188 Q307.8575,381.5 307.42,381.5 Q307.0294,381.5 306.7794,381.3281 Q306.5294,381.1563 306.42,380.7031 Q306.3731,380.3906 306.2013,380.2188 Q305.8888,379.8906 305.3263,379.7031 Q304.7638,379.5 304.2013,379.5 Q303.4981,379.5 302.9044,379.7813 Q302.3263,380.0625 301.8731,380.6875 Q301.42,381.3125 301.42,382.1719 L301.42,383.0938 Q301.42,384.125 302.2638,384.8125 Q303.1075,385.5 304.6075,385.5 Q305.4981,385.5 306.1231,385.2969 Q306.4825,385.1875 306.8888,384.8281 Q307.1544,384.625 307.295,384.5625 Q307.4356,384.5 307.6075,384.5 Q307.9356,384.5 308.17,384.7656 Q308.42,385.0156 308.42,385.375 Q308.42,385.7188 308.0763,386.125 Q307.5763,386.7188 306.7794,387.0469 Q305.7325,387.5 304.4513,387.5 Q302.9513,387.5 301.7481,386.9063 Q300.7794,386.4375 300.0919,385.4219 Q299.42,384.4063 299.42,383.2031 L299.42,382.1094 Q299.42,380.8594 300.0138,379.7656 Q300.6231,378.6719 301.67,378.0938 Q302.7325,377.5 303.92,377.5 Q304.6388,377.5 305.2638,377.75 Q305.8888,378 306.42,378.5 Z " fill="#000000"/><text fill="#000000" font-family="sans-serif" font-size="12" lengthAdjust="spacing" textLength="54" x="324.92" y="386.9102">ShipStore</text><line style="stroke:#A80036;stroke-width:1.5;" x1="142.67" x2="528.67" y1="398" y2="398"/><line style="stroke:#A80036;stroke-width:1.5;" x1="142.67" x2="528.67" y1="406" y2="406"/><ellipse cx="152.67" cy="417" fill="#84BE84" rx="3" ry="3" style="stroke:#038048;stroke-width:1.0;"/><text fill="#000000" font-family="sans-serif" font-size="11" lengthAdjust="spacing" textLength="362" x="161.67" y="421.4189">addShipPosition(MMSI,date,LAT,LON,SOG,COG,heading,cargo,transciever)</text><ellipse cx="152.67" cy="430.8359" fill="#84BE84" rx="3" ry="3" style="stroke:#038048;stroke-width:1.0;"/><text fill="#000000" font-family="sans-serif" font-size="11" lengthAdjust="spacing" textLength="101" x="161.67" y="435.2549">saveShipInBST(ship)</text><ellipse cx="152.67" cy="444.6719" fill="#84BE84" rx="3" ry="3" style="stroke:#038048;stroke-width:1.0;"/><text fill="#000000" font-family="sans-serif" font-size="11" lengthAdjust="spacing" textLength="107" x="161.67" y="449.0908">getShipByMMSI(MMSI)</text><ellipse cx="152.67" cy="458.5078" fill="#84BE84" rx="3" ry="3" style="stroke:#038048;stroke-width:1.0;"/><text fill="#000000" font-family="sans-serif" font-size="11" lengthAdjust="spacing" textLength="286" x="161.67" y="462.9268">createShip(MMSI,name,IMO,callsign,type,length,width,draft)</text><!--MD5=[0dc7f2ddb409b58bcf52b12238c25399]
class Ship--><rect codeLine="25" fill="#FEFECE" filter="url(#f7vby776wd0bu)" height="186.3594" id="Ship" style="stroke:#A80036;stroke-width:1.5;" width="74" x="394.67" y="595"/><ellipse cx="417.32" cy="611" fill="#ADD1B2" rx="11" ry="11" style="stroke:#A80036;stroke-width:1.0;"/><path d="M419.32,607.5 Q419.5231,607 419.7575,606.75 Q419.9919,606.5 420.2575,606.5 Q420.7262,606.5 421.0231,606.7813 Q421.32,607.0625 421.32,607.7188 L421.32,609.2813 Q421.32,609.9375 421.0387,610.2188 Q420.7575,610.5 420.32,610.5 Q419.9294,610.5 419.6794,610.3281 Q419.4294,610.1563 419.32,609.7031 Q419.2731,609.3906 419.1012,609.2188 Q418.7887,608.8906 418.2262,608.7031 Q417.6637,608.5 417.1012,608.5 Q416.3981,608.5 415.8044,608.7813 Q415.2262,609.0625 414.7731,609.6875 Q414.32,610.3125 414.32,611.1719 L414.32,612.0938 Q414.32,613.125 415.1637,613.8125 Q416.0075,614.5 417.5075,614.5 Q418.3981,614.5 419.0231,614.2969 Q419.3825,614.1875 419.7887,613.8281 Q420.0544,613.625 420.195,613.5625 Q420.3356,613.5 420.5075,613.5 Q420.8356,613.5 421.07,613.7656 Q421.32,614.0156 421.32,614.375 Q421.32,614.7188 420.9762,615.125 Q420.4762,615.7188 419.6794,616.0469 Q418.6325,616.5 417.3512,616.5 Q415.8512,616.5 414.6481,615.9063 Q413.6794,615.4375 412.9919,614.4219 Q412.32,613.4063 412.32,612.2031 L412.32,611.1094 Q412.32,609.8594 412.9137,608.7656 Q413.5231,607.6719 414.57,607.0938 Q415.6325,606.5 416.82,606.5 Q417.5387,606.5 418.1637,606.75 Q418.7887,607 419.32,607.5 Z " fill="#000000"/><text fill="#000000" font-family="sans-serif" font-size="12" lengthAdjust="spacing" textLength="25" x="433.02" y="615.9102">Ship</text><line style="stroke:#A80036;stroke-width:1.5;" x1="395.67" x2="467.67" y1="627" y2="627"/><rect fill="none" height="6" style="stroke:#C82930;stroke-width:1.0;" width="6" x="402.67" y="635"/><text fill="#000000" font-family="sans-serif" font-size="11" lengthAdjust="spacing" textLength="25" x="414.67" y="642.4189">MMSI</text><rect fill="none" height="6" style="stroke:#C82930;stroke-width:1.0;" width="6" x="402.67" y="648.8359"/><text fill="#000000" font-family="sans-serif" font-size="11" lengthAdjust="spacing" textLength="26" x="414.67" y="656.2549">name</text><rect fill="none" height="6" style="stroke:#C82930;stroke-width:1.0;" width="6" x="402.67" y="662.6719"/><text fill="#000000" font-family="sans-serif" font-size="11" lengthAdjust="spacing" textLength="18" x="414.67" y="670.0908">IMO</text><rect fill="none" height="6" style="stroke:#C82930;stroke-width:1.0;" width="6" x="402.67" y="676.5078"/><text fill="#000000" font-family="sans-serif" font-size="11" lengthAdjust="spacing" textLength="36" x="414.67" y="683.9268">callsign</text><rect fill="none" height="6" style="stroke:#C82930;stroke-width:1.0;" width="6" x="402.67" y="690.3438"/><text fill="#000000" font-family="sans-serif" font-size="11" lengthAdjust="spacing" textLength="21" x="414.67" y="697.7627">type</text><rect fill="none" height="6" style="stroke:#C82930;stroke-width:1.0;" width="6" x="402.67" y="704.1797"/><text fill="#000000" font-family="sans-serif" font-size="11" lengthAdjust="spacing" textLength="29" x="414.67" y="711.5986">length</text><rect fill="none" height="6" style="stroke:#C82930;stroke-width:1.0;" width="6" x="402.67" y="718.0156"/><text fill="#000000" font-family="sans-serif" font-size="11" lengthAdjust="spacing" textLength="27" x="414.67" y="725.4346">width</text><rect fill="none" height="6" style="stroke:#C82930;stroke-width:1.0;" width="6" x="402.67" y="731.8516"/><text fill="#000000" font-family="sans-serif" font-size="11" lengthAdjust="spacing" textLength="23" x="414.67" y="739.2705">draft</text><ellipse cx="405.67" cy="748.6875" fill="none" rx="3" ry="3" style="stroke:#038048;stroke-width:1.0;"/><text fill="#000000" font-family="sans-serif" font-size="11" lengthAdjust="spacing" textLength="28" x="414.67" y="753.1064">getSp</text><line style="stroke:#A80036;stroke-width:1.5;" x1="395.67" x2="467.67" y1="759.5234" y2="759.5234"/><ellipse cx="405.67" cy="770.5234" fill="#84BE84" rx="3" ry="3" style="stroke:#038048;stroke-width:1.0;"/><text fill="#000000" font-family="sans-serif" font-size="11" lengthAdjust="spacing" textLength="48" x="414.67" y="774.9424">getMMSI()</text><!--MD5=[02e4b9b7573f1156f41e60aa5b4e25a4]
class Company--><rect codeLine="55" fill="#FEFECE" filter="url(#f7vby776wd0bu)" height="61.8359" id="Company" style="stroke:#A80036;stroke-width:1.5;" width="95" x="264.17" y="657"/><ellipse cx="283.67" cy="673" fill="#ADD1B2" rx="11" ry="11" style="stroke:#A80036;stroke-width:1.0;"/><path d="M285.67,669.5 Q285.8731,669 286.1075,668.75 Q286.3419,668.5 286.6075,668.5 Q287.0762,668.5 287.3731,668.7813 Q287.67,669.0625 287.67,669.7188 L287.67,671.2813 Q287.67,671.9375 287.3887,672.2188 Q287.1075,672.5 286.67,672.5 Q286.2794,672.5 286.0294,672.3281 Q285.7794,672.1563 285.67,671.7031 Q285.6231,671.3906 285.4512,671.2188 Q285.1387,670.8906 284.5762,670.7031 Q284.0137,670.5 283.4512,670.5 Q282.7481,670.5 282.1544,670.7813 Q281.5762,671.0625 281.1231,671.6875 Q280.67,672.3125 280.67,673.1719 L280.67,674.0938 Q280.67,675.125 281.5137,675.8125 Q282.3575,676.5 283.8575,676.5 Q284.7481,676.5 285.3731,676.2969 Q285.7325,676.1875 286.1387,675.8281 Q286.4044,675.625 286.545,675.5625 Q286.6856,675.5 286.8575,675.5 Q287.1856,675.5 287.42,675.7656 Q287.67,676.0156 287.67,676.375 Q287.67,676.7188 287.3262,677.125 Q286.8262,677.7188 286.0294,678.0469 Q284.9825,678.5 283.7012,678.5 Q282.2012,678.5 280.9981,677.9063 Q280.0294,677.4375 279.3419,676.4219 Q278.67,675.4063 278.67,674.2031 L278.67,673.1094 Q278.67,671.8594 279.2637,670.7656 Q279.8731,669.6719 280.92,669.0938 Q281.9825,668.5 283.17,668.5 Q283.8887,668.5 284.5137,668.75 Q285.1387,669 285.67,669.5 Z " fill="#000000"/><text fill="#000000" font-family="sans-serif" font-size="12" lengthAdjust="spacing" textLength="53" x="298.67" y="677.9102">Company</text><line style="stroke:#A80036;stroke-width:1.5;" x1="265.17" x2="358.17" y1="689" y2="689"/><line style="stroke:#A80036;stroke-width:1.5;" x1="265.17" x2="358.17" y1="697" y2="697"/><ellipse cx="275.17" cy="708" fill="#84BE84" rx="3" ry="3" style="stroke:#038048;stroke-width:1.0;"/><text fill="#000000" font-family="sans-serif" font-size="11" lengthAdjust="spacing" textLength="69" x="284.17" y="712.4189">getshipStore()</text><!--MD5=[1c0c3765e68dc4575d559b566278b914]
class ShipPosition--><rect codeLine="44" fill="#FEFECE" filter="url(#f7vby776wd0bu)" height="172.5234" id="ShipPosition" style="stroke:#A80036;stroke-width:1.5;" width="102" x="126.67" y="601.5"/><ellipse cx="141.67" cy="617.5" fill="#ADD1B2" rx="11" ry="11" style="stroke:#A80036;stroke-width:1.0;"/><path d="M143.67,614 Q143.8731,613.5 144.1075,613.25 Q144.3419,613 144.6075,613 Q145.0763,613 145.3731,613.2813 Q145.67,613.5625 145.67,614.2188 L145.67,615.7813 Q145.67,616.4375 145.3888,616.7188 Q145.1075,617 144.67,617 Q144.2794,617 144.0294,616.8281 Q143.7794,616.6563 143.67,616.2031 Q143.6231,615.8906 143.4513,615.7188 Q143.1388,615.3906 142.5763,615.2031 Q142.0138,615 141.4513,615 Q140.7481,615 140.1544,615.2813 Q139.5763,615.5625 139.1231,616.1875 Q138.67,616.8125 138.67,617.6719 L138.67,618.5938 Q138.67,619.625 139.5138,620.3125 Q140.3575,621 141.8575,621 Q142.7481,621 143.3731,620.7969 Q143.7325,620.6875 144.1388,620.3281 Q144.4044,620.125 144.545,620.0625 Q144.6856,620 144.8575,620 Q145.1856,620 145.42,620.2656 Q145.67,620.5156 145.67,620.875 Q145.67,621.2188 145.3263,621.625 Q144.8263,622.2188 144.0294,622.5469 Q142.9825,623 141.7013,623 Q140.2013,623 138.9981,622.4063 Q138.0294,621.9375 137.3419,620.9219 Q136.67,619.9063 136.67,618.7031 L136.67,617.6094 Q136.67,616.3594 137.2638,615.2656 Q137.8731,614.1719 138.92,613.5938 Q139.9825,613 141.17,613 Q141.8888,613 142.5138,613.25 Q143.1388,613.5 143.67,614 Z " fill="#000000"/><text fill="#000000" font-family="sans-serif" font-size="12" lengthAdjust="spacing" textLength="70" x="155.67" y="622.4102">ShipPosition</text><line style="stroke:#A80036;stroke-width:1.5;" x1="127.67" x2="227.67" y1="633.5" y2="633.5"/><rect fill="none" height="6" style="stroke:#C82930;stroke-width:1.0;" width="6" x="134.67" y="641.5"/><text fill="#000000" font-family="sans-serif" font-size="11" lengthAdjust="spacing" textLength="25" x="146.67" y="648.9189">MMSI</text><rect fill="none" height="6" style="stroke:#C82930;stroke-width:1.0;" width="6" x="134.67" y="655.3359"/><text fill="#000000" font-family="sans-serif" font-size="11" lengthAdjust="spacing" textLength="21" x="146.67" y="662.7549">date</text><rect fill="none" height="6" style="stroke:#C82930;stroke-width:1.0;" width="6" x="134.67" y="669.1719"/><text fill="#000000" font-family="sans-serif" font-size="11" lengthAdjust="spacing" textLength="20" x="146.67" y="676.5908">LAT</text><rect fill="none" height="6" style="stroke:#C82930;stroke-width:1.0;" width="6" x="134.67" y="683.0078"/><text fill="#000000" font-family="sans-serif" font-size="11" lengthAdjust="spacing" textLength="21" x="146.67" y="690.4268">LON</text><rect fill="none" height="6" style="stroke:#C82930;stroke-width:1.0;" width="6" x="134.67" y="696.8438"/><text fill="#000000" font-family="sans-serif" font-size="11" lengthAdjust="spacing" textLength="23" x="146.67" y="704.2627">SOG</text><rect fill="none" height="6" style="stroke:#C82930;stroke-width:1.0;" width="6" x="134.67" y="710.6797"/><text fill="#000000" font-family="sans-serif" font-size="11" lengthAdjust="spacing" textLength="23" x="146.67" y="718.0986">COG</text><rect fill="none" height="6" style="stroke:#C82930;stroke-width:1.0;" width="6" x="134.67" y="724.5156"/><text fill="#000000" font-family="sans-serif" font-size="11" lengthAdjust="spacing" textLength="38" x="146.67" y="731.9346">heading</text><rect fill="none" height="6" style="stroke:#C82930;stroke-width:1.0;" width="6" x="134.67" y="738.3516"/><text fill="#000000" font-family="sans-serif" font-size="11" lengthAdjust="spacing" textLength="28" x="146.67" y="745.7705">cargo</text><rect fill="none" height="6" style="stroke:#C82930;stroke-width:1.0;" width="6" x="134.67" y="752.1875"/><text fill="#000000" font-family="sans-serif" font-size="11" lengthAdjust="spacing" textLength="55" x="146.67" y="759.6064">transciever</text><line style="stroke:#A80036;stroke-width:1.5;" x1="127.67" x2="227.67" y1="766.0234" y2="766.0234"/><!--MD5=[b4a9ab6cffd58937cfea07eb2954e1bd]
class BST--><rect codeLine="22" fill="#FEFECE" filter="url(#f7vby776wd0bu)" height="48" id="BST" style="stroke:#A80036;stroke-width:1.5;" width="55" x="541.17" y="664"/><ellipse cx="556.17" cy="680" fill="#ADD1B2" rx="11" ry="11" style="stroke:#A80036;stroke-width:1.0;"/><path d="M558.17,676.5 Q558.3731,676 558.6075,675.75 Q558.8419,675.5 559.1075,675.5 Q559.5763,675.5 559.8731,675.7813 Q560.17,676.0625 560.17,676.7188 L560.17,678.2813 Q560.17,678.9375 559.8888,679.2188 Q559.6075,679.5 559.17,679.5 Q558.7794,679.5 558.5294,679.3281 Q558.2794,679.1563 558.17,678.7031 Q558.1231,678.3906 557.9513,678.2188 Q557.6388,677.8906 557.0763,677.7031 Q556.5138,677.5 555.9513,677.5 Q555.2481,677.5 554.6544,677.7813 Q554.0763,678.0625 553.6231,678.6875 Q553.17,679.3125 553.17,680.1719 L553.17,681.0938 Q553.17,682.125 554.0138,682.8125 Q554.8575,683.5 556.3575,683.5 Q557.2481,683.5 557.8731,683.2969 Q558.2325,683.1875 558.6388,682.8281 Q558.9044,682.625 559.045,682.5625 Q559.1856,682.5 559.3575,682.5 Q559.6856,682.5 559.92,682.7656 Q560.17,683.0156 560.17,683.375 Q560.17,683.7188 559.8263,684.125 Q559.3263,684.7188 558.5294,685.0469 Q557.4825,685.5 556.2013,685.5 Q554.7013,685.5 553.4981,684.9063 Q552.5294,684.4375 551.8419,683.4219 Q551.17,682.4063 551.17,681.2031 L551.17,680.1094 Q551.17,678.8594 551.7638,677.7656 Q552.3731,676.6719 553.42,676.0938 Q554.4825,675.5 555.67,675.5 Q556.3888,675.5 557.0138,675.75 Q557.6388,676 558.17,676.5 Z " fill="#000000"/><text fill="#000000" font-family="sans-serif" font-size="12" lengthAdjust="spacing" textLength="23" x="570.17" y="684.9102">BST</text><line style="stroke:#A80036;stroke-width:1.5;" x1="542.17" x2="595.17" y1="696" y2="696"/><line style="stroke:#A80036;stroke-width:1.5;" x1="542.17" x2="595.17" y1="704" y2="704"/><!--MD5=[3f38d37b0b8cb49531698a7d81bd0cad]
link ImportFileUI to ImportFileController--><path codeLine="62" d="M335.67,90.1 C335.67,111.8 335.67,144.6 335.67,169.6 " fill="none" id="ImportFileUI-to-ImportFileController" style="stroke:#A80036;stroke-width:1.0;stroke-dasharray:7.0,7.0;"/><polygon fill="#A80036" points="335.67,174.81,339.67,165.81,335.67,169.81,331.67,165.81,335.67,174.81" style="stroke:#A80036;stroke-width:1.0;"/><!--MD5=[71d6616e86bdd231479132c477aec7af]
link ImportFileController to Company--><path codeLine="63" d="M264.99,210.52 C217.15,217.03 157.13,234.14 125.67,278 C63.74,364.3 61.52,432.34 125.67,517 C159.4,561.52 203.92,515.04 246.67,551 C277.56,576.99 294.82,621.03 303.66,651.94 " fill="none" id="ImportFileController-to-Company" style="stroke:#A80036;stroke-width:1.0;stroke-dasharray:7.0,7.0;"/><polygon fill="#A80036" points="305.01,656.78,306.4791,647.0413,303.6836,651.9592,298.7657,649.1636,305.01,656.78" style="stroke:#A80036;stroke-width:1.0;"/><!--MD5=[21a8b893bf703fa2dbec69d9a07b6ea0]
link ImportFileController to ShipStore--><path codeLine="64" d="M335.67,237.02 C335.67,269.18 335.67,320.94 335.67,360.64 " fill="none" id="ImportFileController-to-ShipStore" style="stroke:#A80036;stroke-width:1.0;stroke-dasharray:7.0,7.0;"/><polygon fill="#A80036" points="335.67,365.91,339.67,356.91,335.67,360.91,331.67,356.91,335.67,365.91" style="stroke:#A80036;stroke-width:1.0;"/><!--MD5=[a94d7d77ac30a48d92c4bfa997eadc7d]
link ImportFileController to BST--><path codeLine="65" d="M406.24,216.77 C473.51,227.74 567.62,248.05 588.67,278 C672.5,397.28 609.18,587.92 580.68,659.05 " fill="none" id="ImportFileController-to-BST" style="stroke:#A80036;stroke-width:1.0;stroke-dasharray:7.0,7.0;"/><polygon fill="#A80036" points="578.69,663.96,585.7646,657.108,580.5592,659.3226,578.3447,654.1172,578.69,663.96" style="stroke:#A80036;stroke-width:1.0;"/><!--MD5=[b3adc431982bd2b24b8fe3170afae8b8]
link ImportFileController to Ship--><path codeLine="66" d="M406.34,210.52 C454.18,217.03 514.2,234.14 545.67,278 C607.59,364.3 576.59,415.38 545.67,517 C543.7,523.48 503.67,582.49 471.6,629.19 " fill="none" id="ImportFileController-to-Ship" style="stroke:#A80036;stroke-width:1.0;stroke-dasharray:7.0,7.0;"/><polygon fill="#A80036" points="468.72,633.39,477.127,628.2595,471.5623,629.2765,470.5454,623.7118,468.72,633.39" style="stroke:#A80036;stroke-width:1.0;"/><!--MD5=[f714c528fae8277fb5a1461905d04e42]
link ImportFileController to ShipPosition--><path codeLine="67" d="M264.87,216.21 C194.65,226.97 94.23,247.3 70.67,278 C6,362.27 41.22,414.94 70.67,517 C81.31,553.89 102.59,590.48 123.38,620.22 " fill="none" id="ImportFileController-to-ShipPosition" style="stroke:#A80036;stroke-width:1.0;stroke-dasharray:7.0,7.0;"/><polygon fill="#A80036" points="126.44,624.56,124.5151,614.9011,123.5555,620.476,117.9806,619.5163,126.44,624.56" style="stroke:#A80036;stroke-width:1.0;"/><!--MD5=[6b4a94d80660e97c6833bde801bd4c89]
link Company to ShipStore--><path codeLine="68" d="M314.37,656.75 C318.32,612.58 325.73,529.69 330.68,474.28 " fill="none" id="Company-to-ShipStore" style="stroke:#A80036;stroke-width:1.0;"/><polygon fill="#A80036" points="331.15,469,326.3694,477.6108,330.7076,473.9804,334.338,478.3186,331.15,469" style="stroke:#A80036;stroke-width:1.0;"/><text fill="#000000" font-family="sans-serif" font-size="13" lengthAdjust="spacing" textLength="39" x="326.67" y="539.4951">Knows</text><text fill="#000000" font-family="sans-serif" font-size="13" lengthAdjust="spacing" textLength="7" x="307.205" y="646.203">1</text><text fill="#000000" font-family="sans-serif" font-size="13" lengthAdjust="spacing" textLength="7" x="323.0222" y="490.8629">1</text><!--MD5=[f04e04ecc6998d67821b33eb17256457]
link ShipStore to Ship--><path codeLine="69" d="M353.72,469 C365.89,503.02 382.32,548.97 396.96,589.91 " fill="none" id="ShipStore-to-Ship" style="stroke:#A80036;stroke-width:1.0;"/><polygon fill="#A80036" points="398.73,594.88,399.4662,585.0587,397.0465,590.1719,391.9333,587.7523,398.73,594.88" style="stroke:#A80036;stroke-width:1.0;"/><text fill="#000000" font-family="sans-serif" font-size="13" lengthAdjust="spacing" textLength="50" x="378.67" y="539.4951">registers</text><text fill="#000000" font-family="sans-serif" font-size="13" lengthAdjust="spacing" textLength="7" x="348.7661" y="490.8629">1</text><text fill="#000000" font-family="sans-serif" font-size="13" lengthAdjust="spacing" textLength="5" x="390.7951" y="584.0008">*</text><!--MD5=[41f475cd3cd8b5f3ab05e5531954a9bf]
link ShipStore to ShipPosition--><path codeLine="70" d="M299.52,469.16 C282.73,493.47 262.93,523.27 246.67,551 C238.17,565.49 229.65,581.15 221.63,596.51 " fill="none" id="ShipStore-to-ShipPosition" style="stroke:#A80036;stroke-width:1.0;"/><polygon fill="#A80036" points="219.16,601.26,226.8498,595.1064,221.4587,596.8197,219.7454,591.4286,219.16,601.26" style="stroke:#A80036;stroke-width:1.0;"/><text fill="#000000" font-family="sans-serif" font-size="13" lengthAdjust="spacing" textLength="50" x="260.67" y="539.4951">registers</text><text fill="#000000" font-family="sans-serif" font-size="13" lengthAdjust="spacing" textLength="7" x="287.192" y="490.6725">1</text><text fill="#000000" font-family="sans-serif" font-size="13" lengthAdjust="spacing" textLength="5" x="217.5107" y="590.649">*</text><!--MD5=[450ce2c12e7dd7ba974e92137d77cb9b]
link Ship to BST--><path codeLine="71" d="M468.74,688 C489.78,688 515.87,688 536.11,688 " fill="none" id="Ship-to-BST" style="stroke:#A80036;stroke-width:1.0;"/><polygon fill="#A80036" points="541.13,688,532.13,684,536.13,688,532.13,692,541.13,688" style="stroke:#A80036;stroke-width:1.0;"/><text fill="#000000" font-family="sans-serif" font-size="13" lengthAdjust="spacing" textLength="36" x="486.92" y="681.4951">stored</text><text fill="#000000" font-family="sans-serif" font-size="13" lengthAdjust="spacing" textLength="5" x="476.9013" y="683.8443">*</text><text fill="#000000" font-family="sans-serif" font-size="13" lengthAdjust="spacing" textLength="7" x="526.176" y="683.4902">1</text><!--MD5=[5516919d850f976afb7d4bed5671d0b9]
link ShipStore to BST--><path codeLine="72" d="M400.76,469.24 C428.38,492.5 459.84,521.44 484.67,551 C513.64,585.49 539.64,630.92 554.79,659.55 " fill="none" id="ShipStore-to-BST" style="stroke:#A80036;stroke-width:1.0;stroke-dasharray:7.0,7.0;"/><polygon fill="#A80036" points="557.13,663.99,556.4819,654.1625,554.803,659.5645,549.401,657.8856,557.13,663.99" style="stroke:#A80036;stroke-width:1.0;"/><!--MD5=[dd4b1d724a6fed0587ba2434b7d97b50]
@startuml

package ui{
class ImportFileUI
}

package controller{
class ImportFileController
}

package utils{
package store{
class ShipStore
}
}
package model{
class Ship
class Company
class ShipPosition
}

package BST{
class BST
}

class Ship{
-MMSI
-name
-IMO
-callsign
-type
-length
-width
-draft
+getMMSI()
+getSp
}

class ShipStore{
+addShipPosition(MMSI,date,LAT,LON,SOG,COG,heading,cargo,transciever)
+saveShipInBST(ship)
+getShipByMMSI(MMSI)
+createShip(MMSI,name,IMO,callsign,type,length,width,draft)
}
class ShipPosition{
-MMSI
-date
-LAT
-LON
-SOG
-COG
-heading
-cargo
-transciever
}
class Company{
+getshipStore()
}
class ImportFileController{
+read(file)
}

ImportFileUI .-> ImportFileController
ImportFileController .- -> Company
ImportFileController .-> ShipStore
ImportFileController .- -> BST
ImportFileController .- -> Ship
ImportFileController .- -> ShipPosition
Company "1"- ->"1" ShipStore : Knows
ShipStore "1"- ->"*" Ship : registers
ShipStore "1"->"*" ShipPosition : registers
Ship "*"->"1" BST : stored
ShipStore .-> BST
@enduml

PlantUML version 1.2021.00(Sun Jan 10 10:25:05 GMT 2021)
(GPL source distribution)
Java Runtime: OpenJDK Runtime Environment
JVM: OpenJDK 64-Bit Server VM
Default Encoding: Cp1252
Language: pt
Country: PT
--></g></svg>