<?xml version="1.0" encoding="UTF-8" standalone="no"?><svg xmlns="http://www.w3.org/2000/svg" xmlns:xlink="http://www.w3.org/1999/xlink" contentScriptType="application/ecmascript" contentStyleType="text/css" height="994px" preserveAspectRatio="none" style="width:1096px;height:994px;" version="1.1" viewBox="0 0 1096 994" width="1096px" zoomAndPan="magnify"><defs><filter height="300%" id="f1bmtbiod69wev" width="300%" x="-1" y="-1"><feGaussianBlur result="blurOut" stdDeviation="2.0"/><feColorMatrix in="blurOut" result="blurOut2" type="matrix" values="0 0 0 0 0 0 0 0 0 0 0 0 0 0 0 0 0 0 .4 0"/><feOffset dx="4.0" dy="4.0" in="blurOut2" result="blurOut3"/><feBlend in="SourceGraphic" in2="blurOut3" mode="normal"/></filter></defs><g><!--MD5=[1f2cfc53d9d308f53762fd0fcbaa4873]
cluster Controller--><polygon fill="#FFFFFF" filter="url(#f1bmtbiod69wev)" points="460,159,537,159,544,182.6094,660,182.6094,660,307,460,307,460,159" style="stroke:#000000;stroke-width:1.5;"/><line style="stroke:#000000;stroke-width:1.5;" x1="460" x2="544" y1="182.6094" y2="182.6094"/><text fill="#000000" font-family="sans-serif" font-size="14" font-weight="bold" lengthAdjust="spacing" textLength="71" x="464" y="175.5332">Controller</text><!--MD5=[9681dc6e01e10c6b4fe06895ae94f592]
cluster UI--><polygon fill="#FFFFFF" filter="url(#f1bmtbiod69wev)" points="481,6,501,6,508,29.6094,639,29.6094,639,126,481,126,481,6" style="stroke:#000000;stroke-width:1.5;"/><line style="stroke:#000000;stroke-width:1.5;" x1="481" x2="508" y1="29.6094" y2="29.6094"/><text fill="#000000" font-family="sans-serif" font-size="14" font-weight="bold" lengthAdjust="spacing" textLength="14" x="485" y="22.5332">UI</text><!--MD5=[15636c1ca4a123c16a2a1a8e90aca7a9]
cluster Model--><polygon fill="#FFFFFF" filter="url(#f1bmtbiod69wev)" points="542,421.5,592,421.5,599,445.1094,1079,445.1094,1079,762.5,542,762.5,542,421.5" style="stroke:#000000;stroke-width:1.5;"/><line style="stroke:#000000;stroke-width:1.5;" x1="542" x2="599" y1="445.1094" y2="445.1094"/><text fill="#000000" font-family="sans-serif" font-size="14" font-weight="bold" lengthAdjust="spacing" textLength="44" x="546" y="438.0332">Model</text><!--MD5=[c52f45833d539af9e29a9d34b8b7302b]
cluster utils--><polygon fill="#FFFFFF" filter="url(#f1bmtbiod69wev)" points="16,419,52,419,59,442.6094,518,442.6094,518,745,16,745,16,419" style="stroke:#000000;stroke-width:1.5;"/><line style="stroke:#000000;stroke-width:1.5;" x1="16" x2="59" y1="442.6094" y2="442.6094"/><text fill="#000000" font-family="sans-serif" font-size="14" font-weight="bold" lengthAdjust="spacing" textLength="30" x="20" y="435.5332">utils</text><!--MD5=[c23849cc5f4a85746a20de4317c530fc]
cluster store--><polygon fill="#FFFFFF" filter="url(#f1bmtbiod69wev)" points="142,463,185,463,192,486.6094,494,486.6094,494,721,142,721,142,463" style="stroke:#000000;stroke-width:1.5;"/><line style="stroke:#000000;stroke-width:1.5;" x1="142" x2="192" y1="486.6094" y2="486.6094"/><text fill="#000000" font-family="sans-serif" font-size="14" font-weight="bold" lengthAdjust="spacing" textLength="37" x="146" y="479.5332">store</text><!--MD5=[494b4dc93ed5acf56d33c38353fc258f]
cluster BST--><polygon fill="#FFFFFF" filter="url(#f1bmtbiod69wev)" points="677,812.5,710,812.5,717,836.1094,811,836.1094,811,987.5,677,987.5,677,812.5" style="stroke:#000000;stroke-width:1.5;"/><line style="stroke:#000000;stroke-width:1.5;" x1="677" x2="717" y1="836.1094" y2="836.1094"/><text fill="#000000" font-family="sans-serif" font-size="14" font-weight="bold" lengthAdjust="spacing" textLength="27" x="681" y="829.0332">BST</text><!--MD5=[4662bc5ee22559219ce96a03af97be71]
class MakeSummaryController--><rect codeLine="68" fill="#FEFECE" filter="url(#f1bmtbiod69wev)" height="75.6719" id="MakeSummaryController" style="stroke:#A80036;stroke-width:1.5;" width="168" x="476" y="215"/><ellipse cx="491" cy="231" fill="#ADD1B2" rx="11" ry="11" style="stroke:#A80036;stroke-width:1.0;"/><path d="M493,227.5 Q493.2031,227 493.4375,226.75 Q493.6719,226.5 493.9375,226.5 Q494.4063,226.5 494.7031,226.7813 Q495,227.0625 495,227.7188 L495,229.2813 Q495,229.9375 494.7188,230.2188 Q494.4375,230.5 494,230.5 Q493.6094,230.5 493.3594,230.3281 Q493.1094,230.1563 493,229.7031 Q492.9531,229.3906 492.7813,229.2188 Q492.4688,228.8906 491.9063,228.7031 Q491.3438,228.5 490.7813,228.5 Q490.0781,228.5 489.4844,228.7813 Q488.9063,229.0625 488.4531,229.6875 Q488,230.3125 488,231.1719 L488,232.0938 Q488,233.125 488.8438,233.8125 Q489.6875,234.5 491.1875,234.5 Q492.0781,234.5 492.7031,234.2969 Q493.0625,234.1875 493.4688,233.8281 Q493.7344,233.625 493.875,233.5625 Q494.0156,233.5 494.1875,233.5 Q494.5156,233.5 494.75,233.7656 Q495,234.0156 495,234.375 Q495,234.7188 494.6563,235.125 Q494.1563,235.7188 493.3594,236.0469 Q492.3125,236.5 491.0313,236.5 Q489.5313,236.5 488.3281,235.9063 Q487.3594,235.4375 486.6719,234.4219 Q486,233.4063 486,232.2031 L486,231.1094 Q486,229.8594 486.5938,228.7656 Q487.2031,227.6719 488.25,227.0938 Q489.3125,226.5 490.5,226.5 Q491.2188,226.5 491.8438,226.75 Q492.4688,227 493,227.5 Z " fill="#000000"/><text fill="#000000" font-family="sans-serif" font-size="12" lengthAdjust="spacing" textLength="136" x="505" y="235.9102">MakeSummaryController</text><line style="stroke:#A80036;stroke-width:1.5;" x1="477" x2="643" y1="247" y2="247"/><line style="stroke:#A80036;stroke-width:1.5;" x1="477" x2="643" y1="255" y2="255"/><text fill="#000000" font-family="sans-serif" font-size="11" lengthAdjust="spacing" textLength="129" x="482" y="270.4189">+makeSummary(shipCode)</text><text fill="#000000" font-family="sans-serif" font-size="11" lengthAdjust="spacing" textLength="79" x="482" y="284.2549">+print(summary)</text><!--MD5=[b89c714d37a0b04ddb37048027489080]
class MakeSummaryUI--><rect codeLine="8" fill="#FEFECE" filter="url(#f1bmtbiod69wev)" height="48" id="MakeSummaryUI" style="stroke:#A80036;stroke-width:1.5;" width="126" x="497" y="62"/><ellipse cx="512" cy="78" fill="#ADD1B2" rx="11" ry="11" style="stroke:#A80036;stroke-width:1.0;"/><path d="M514,74.5 Q514.2031,74 514.4375,73.75 Q514.6719,73.5 514.9375,73.5 Q515.4063,73.5 515.7031,73.7813 Q516,74.0625 516,74.7188 L516,76.2813 Q516,76.9375 515.7188,77.2188 Q515.4375,77.5 515,77.5 Q514.6094,77.5 514.3594,77.3281 Q514.1094,77.1563 514,76.7031 Q513.9531,76.3906 513.7813,76.2188 Q513.4688,75.8906 512.9063,75.7031 Q512.3438,75.5 511.7813,75.5 Q511.0781,75.5 510.4844,75.7813 Q509.9063,76.0625 509.4531,76.6875 Q509,77.3125 509,78.1719 L509,79.0938 Q509,80.125 509.8438,80.8125 Q510.6875,81.5 512.1875,81.5 Q513.0781,81.5 513.7031,81.2969 Q514.0625,81.1875 514.4688,80.8281 Q514.7344,80.625 514.875,80.5625 Q515.0156,80.5 515.1875,80.5 Q515.5156,80.5 515.75,80.7656 Q516,81.0156 516,81.375 Q516,81.7188 515.6563,82.125 Q515.1563,82.7188 514.3594,83.0469 Q513.3125,83.5 512.0313,83.5 Q510.5313,83.5 509.3281,82.9063 Q508.3594,82.4375 507.6719,81.4219 Q507,80.4063 507,79.2031 L507,78.1094 Q507,76.8594 507.5938,75.7656 Q508.2031,74.6719 509.25,74.0938 Q510.3125,73.5 511.5,73.5 Q512.2188,73.5 512.8438,73.75 Q513.4688,74 514,74.5 Z " fill="#000000"/><text fill="#000000" font-family="sans-serif" font-size="12" lengthAdjust="spacing" textLength="94" x="526" y="82.9102">MakeSummaryUI</text><line style="stroke:#A80036;stroke-width:1.5;" x1="498" x2="622" y1="94" y2="94"/><line style="stroke:#A80036;stroke-width:1.5;" x1="498" x2="622" y1="102" y2="102"/><!--MD5=[0dc7f2ddb409b58bcf52b12238c25399]
class Ship--><rect codeLine="43" fill="#FEFECE" filter="url(#f1bmtbiod69wev)" height="200.1953" id="Ship" style="stroke:#A80036;stroke-width:1.5;" width="102" x="961" y="512"/><ellipse cx="996.25" cy="528" fill="#ADD1B2" rx="11" ry="11" style="stroke:#A80036;stroke-width:1.0;"/><path d="M998.25,524.5 Q998.4531,524 998.6875,523.75 Q998.9219,523.5 999.1875,523.5 Q999.6563,523.5 999.9531,523.7813 Q1000.25,524.0625 1000.25,524.7188 L1000.25,526.2813 Q1000.25,526.9375 999.9688,527.2188 Q999.6875,527.5 999.25,527.5 Q998.8594,527.5 998.6094,527.3281 Q998.3594,527.1563 998.25,526.7031 Q998.2031,526.3906 998.0313,526.2188 Q997.7188,525.8906 997.1563,525.7031 Q996.5938,525.5 996.0313,525.5 Q995.3281,525.5 994.7344,525.7813 Q994.1563,526.0625 993.7031,526.6875 Q993.25,527.3125 993.25,528.1719 L993.25,529.0938 Q993.25,530.125 994.0938,530.8125 Q994.9375,531.5 996.4375,531.5 Q997.3281,531.5 997.9531,531.2969 Q998.3125,531.1875 998.7188,530.8281 Q998.9844,530.625 999.125,530.5625 Q999.2656,530.5 999.4375,530.5 Q999.7656,530.5 1000,530.7656 Q1000.25,531.0156 1000.25,531.375 Q1000.25,531.7188 999.9063,532.125 Q999.4063,532.7188 998.6094,533.0469 Q997.5625,533.5 996.2813,533.5 Q994.7813,533.5 993.5781,532.9063 Q992.6094,532.4375 991.9219,531.4219 Q991.25,530.4063 991.25,529.2031 L991.25,528.1094 Q991.25,526.8594 991.8438,525.7656 Q992.4531,524.6719 993.5,524.0938 Q994.5625,523.5 995.75,523.5 Q996.4688,523.5 997.0938,523.75 Q997.7188,524 998.25,524.5 Z " fill="#000000"/><text fill="#000000" font-family="sans-serif" font-size="12" lengthAdjust="spacing" textLength="25" x="1014.75" y="532.9102">Ship</text><line style="stroke:#A80036;stroke-width:1.5;" x1="962" x2="1062" y1="544" y2="544"/><text fill="#000000" font-family="sans-serif" font-size="11" lengthAdjust="spacing" textLength="29" x="967" y="559.4189">-MMSI</text><text fill="#000000" font-family="sans-serif" font-size="11" lengthAdjust="spacing" textLength="30" x="967" y="573.2549">-name</text><text fill="#000000" font-family="sans-serif" font-size="11" lengthAdjust="spacing" textLength="22" x="967" y="587.0908">-IMO</text><text fill="#000000" font-family="sans-serif" font-size="11" lengthAdjust="spacing" textLength="40" x="967" y="600.9268">-callsign</text><text fill="#000000" font-family="sans-serif" font-size="11" lengthAdjust="spacing" textLength="25" x="967" y="614.7627">-type</text><text fill="#000000" font-family="sans-serif" font-size="11" lengthAdjust="spacing" textLength="33" x="967" y="628.5986">-length</text><text fill="#000000" font-family="sans-serif" font-size="11" lengthAdjust="spacing" textLength="31" x="967" y="642.4346">-width</text><text fill="#000000" font-family="sans-serif" font-size="11" lengthAdjust="spacing" textLength="27" x="967" y="656.2705">-draft</text><line style="stroke:#A80036;stroke-width:1.5;" x1="962" x2="1062" y1="662.6875" y2="662.6875"/><text fill="#000000" font-family="sans-serif" font-size="11" lengthAdjust="spacing" textLength="54" x="967" y="678.1064">+getMMSI()</text><text fill="#000000" font-family="sans-serif" font-size="11" lengthAdjust="spacing" textLength="42" x="967" y="691.9424">+getSp()</text><text fill="#000000" font-family="sans-serif" font-size="11" lengthAdjust="spacing" textLength="90" x="967" y="705.7783">+getVesselName()</text><!--MD5=[02e4b9b7573f1156f41e60aa5b4e25a4]
class Company--><rect codeLine="57" fill="#FEFECE" filter="url(#f1bmtbiod69wev)" height="61.8359" id="Company" style="stroke:#A80036;stroke-width:1.5;" width="88" x="701" y="581"/><ellipse cx="717.35" cy="597" fill="#ADD1B2" rx="11" ry="11" style="stroke:#A80036;stroke-width:1.0;"/><path d="M719.35,593.5 Q719.5531,593 719.7875,592.75 Q720.0219,592.5 720.2875,592.5 Q720.7563,592.5 721.0531,592.7813 Q721.35,593.0625 721.35,593.7188 L721.35,595.2813 Q721.35,595.9375 721.0688,596.2188 Q720.7875,596.5 720.35,596.5 Q719.9594,596.5 719.7094,596.3281 Q719.4594,596.1563 719.35,595.7031 Q719.3031,595.3906 719.1313,595.2188 Q718.8188,594.8906 718.2563,594.7031 Q717.6938,594.5 717.1313,594.5 Q716.4281,594.5 715.8344,594.7813 Q715.2563,595.0625 714.8031,595.6875 Q714.35,596.3125 714.35,597.1719 L714.35,598.0938 Q714.35,599.125 715.1938,599.8125 Q716.0375,600.5 717.5375,600.5 Q718.4281,600.5 719.0531,600.2969 Q719.4125,600.1875 719.8188,599.8281 Q720.0844,599.625 720.225,599.5625 Q720.3656,599.5 720.5375,599.5 Q720.8656,599.5 721.1,599.7656 Q721.35,600.0156 721.35,600.375 Q721.35,600.7188 721.0063,601.125 Q720.5063,601.7188 719.7094,602.0469 Q718.6625,602.5 717.3813,602.5 Q715.8813,602.5 714.6781,601.9063 Q713.7094,601.4375 713.0219,600.4219 Q712.35,599.4063 712.35,598.2031 L712.35,597.1094 Q712.35,595.8594 712.9438,594.7656 Q713.5531,593.6719 714.6,593.0938 Q715.6625,592.5 716.85,592.5 Q717.5688,592.5 718.1938,592.75 Q718.8188,593 719.35,593.5 Z " fill="#000000"/><text fill="#000000" font-family="sans-serif" font-size="12" lengthAdjust="spacing" textLength="53" x="731.65" y="601.9102">Company</text><line style="stroke:#A80036;stroke-width:1.5;" x1="702" x2="788" y1="613" y2="613"/><line style="stroke:#A80036;stroke-width:1.5;" x1="702" x2="788" y1="621" y2="621"/><text fill="#000000" font-family="sans-serif" font-size="11" lengthAdjust="spacing" textLength="76" x="707" y="636.4189">+getShipStore()</text><!--MD5=[1c0c3765e68dc4575d559b566278b914]
class ShipPosition--><rect codeLine="29" fill="#FEFECE" filter="url(#f1bmtbiod69wev)" height="200.1953" id="ShipPosition" style="stroke:#A80036;stroke-width:1.5;" width="102" x="824" y="512"/><ellipse cx="839" cy="528" fill="#ADD1B2" rx="11" ry="11" style="stroke:#A80036;stroke-width:1.0;"/><path d="M841,524.5 Q841.2031,524 841.4375,523.75 Q841.6719,523.5 841.9375,523.5 Q842.4063,523.5 842.7031,523.7813 Q843,524.0625 843,524.7188 L843,526.2813 Q843,526.9375 842.7188,527.2188 Q842.4375,527.5 842,527.5 Q841.6094,527.5 841.3594,527.3281 Q841.1094,527.1563 841,526.7031 Q840.9531,526.3906 840.7813,526.2188 Q840.4688,525.8906 839.9063,525.7031 Q839.3438,525.5 838.7813,525.5 Q838.0781,525.5 837.4844,525.7813 Q836.9063,526.0625 836.4531,526.6875 Q836,527.3125 836,528.1719 L836,529.0938 Q836,530.125 836.8438,530.8125 Q837.6875,531.5 839.1875,531.5 Q840.0781,531.5 840.7031,531.2969 Q841.0625,531.1875 841.4688,530.8281 Q841.7344,530.625 841.875,530.5625 Q842.0156,530.5 842.1875,530.5 Q842.5156,530.5 842.75,530.7656 Q843,531.0156 843,531.375 Q843,531.7188 842.6563,532.125 Q842.1563,532.7188 841.3594,533.0469 Q840.3125,533.5 839.0313,533.5 Q837.5313,533.5 836.3281,532.9063 Q835.3594,532.4375 834.6719,531.4219 Q834,530.4063 834,529.2031 L834,528.1094 Q834,526.8594 834.5938,525.7656 Q835.2031,524.6719 836.25,524.0938 Q837.3125,523.5 838.5,523.5 Q839.2188,523.5 839.8438,523.75 Q840.4688,524 841,524.5 Z " fill="#000000"/><text fill="#000000" font-family="sans-serif" font-size="12" lengthAdjust="spacing" textLength="70" x="853" y="532.9102">ShipPosition</text><line style="stroke:#A80036;stroke-width:1.5;" x1="825" x2="925" y1="544" y2="544"/><text fill="#000000" font-family="sans-serif" font-size="11" lengthAdjust="spacing" textLength="29" x="830" y="559.4189">-MMSI</text><text fill="#000000" font-family="sans-serif" font-size="11" lengthAdjust="spacing" textLength="25" x="830" y="573.2549">-date</text><text fill="#000000" font-family="sans-serif" font-size="11" lengthAdjust="spacing" textLength="24" x="830" y="587.0908">-LAT</text><text fill="#000000" font-family="sans-serif" font-size="11" lengthAdjust="spacing" textLength="25" x="830" y="600.9268">-LON</text><text fill="#000000" font-family="sans-serif" font-size="11" lengthAdjust="spacing" textLength="27" x="830" y="614.7627">-SOG</text><text fill="#000000" font-family="sans-serif" font-size="11" lengthAdjust="spacing" textLength="27" x="830" y="628.5986">-COG</text><text fill="#000000" font-family="sans-serif" font-size="11" lengthAdjust="spacing" textLength="42" x="830" y="642.4346">-heading</text><text fill="#000000" font-family="sans-serif" font-size="11" lengthAdjust="spacing" textLength="32" x="830" y="656.2705">-cargo</text><text fill="#000000" font-family="sans-serif" font-size="11" lengthAdjust="spacing" textLength="59" x="830" y="670.1064">-transciever</text><line style="stroke:#A80036;stroke-width:1.5;" x1="825" x2="925" y1="676.5234" y2="676.5234"/><text fill="#000000" font-family="sans-serif" font-size="11" lengthAdjust="spacing" textLength="67" x="830" y="691.9424">+getLatitude()</text><text fill="#000000" font-family="sans-serif" font-size="11" lengthAdjust="spacing" textLength="76" x="830" y="705.7783">+getLongitude()</text><!--MD5=[41f5b97920949c93f11fe0d940b2487b]
class Summary--><rect codeLine="86" fill="#FEFECE" filter="url(#f1bmtbiod69wev)" height="269.375" id="Summary" style="stroke:#A80036;stroke-width:1.5;" width="107" x="558.5" y="477.5"/><ellipse cx="583.4" cy="493.5" fill="#ADD1B2" rx="11" ry="11" style="stroke:#A80036;stroke-width:1.0;"/><path d="M585.4,490 Q585.6031,489.5 585.8375,489.25 Q586.0719,489 586.3375,489 Q586.8063,489 587.1031,489.2813 Q587.4,489.5625 587.4,490.2188 L587.4,491.7813 Q587.4,492.4375 587.1188,492.7188 Q586.8375,493 586.4,493 Q586.0094,493 585.7594,492.8281 Q585.5094,492.6563 585.4,492.2031 Q585.3531,491.8906 585.1813,491.7188 Q584.8688,491.3906 584.3063,491.2031 Q583.7438,491 583.1813,491 Q582.4781,491 581.8844,491.2813 Q581.3063,491.5625 580.8531,492.1875 Q580.4,492.8125 580.4,493.6719 L580.4,494.5938 Q580.4,495.625 581.2438,496.3125 Q582.0875,497 583.5875,497 Q584.4781,497 585.1031,496.7969 Q585.4625,496.6875 585.8688,496.3281 Q586.1344,496.125 586.275,496.0625 Q586.4156,496 586.5875,496 Q586.9156,496 587.15,496.2656 Q587.4,496.5156 587.4,496.875 Q587.4,497.2188 587.0563,497.625 Q586.5563,498.2188 585.7594,498.5469 Q584.7125,499 583.4313,499 Q581.9313,499 580.7281,498.4063 Q579.7594,497.9375 579.0719,496.9219 Q578.4,495.9063 578.4,494.7031 L578.4,493.6094 Q578.4,492.3594 578.9938,491.2656 Q579.6031,490.1719 580.65,489.5938 Q581.7125,489 582.9,489 Q583.6188,489 584.2438,489.25 Q584.8688,489.5 585.4,490 Z " fill="#000000"/><text fill="#000000" font-family="sans-serif" font-size="12" lengthAdjust="spacing" textLength="53" x="599.6" y="498.4102">Summary</text><line style="stroke:#A80036;stroke-width:1.5;" x1="559.5" x2="664.5" y1="509.5" y2="509.5"/><text fill="#000000" font-family="sans-serif" font-size="11" lengthAdjust="spacing" textLength="49" x="564.5" y="524.9189">-shipCode</text><text fill="#000000" font-family="sans-serif" font-size="11" lengthAdjust="spacing" textLength="63" x="564.5" y="538.7549">-vesselName</text><text fill="#000000" font-family="sans-serif" font-size="11" lengthAdjust="spacing" textLength="95" x="564.5" y="552.5908">-startBaseDateTime</text><text fill="#000000" font-family="sans-serif" font-size="11" lengthAdjust="spacing" textLength="91" x="564.5" y="566.4268">-endBaseDateTime</text><text fill="#000000" font-family="sans-serif" font-size="11" lengthAdjust="spacing" textLength="95" x="564.5" y="580.2627">-totalMovementTime</text><text fill="#000000" font-family="sans-serif" font-size="11" lengthAdjust="spacing" textLength="79" x="564.5" y="594.0986">-totalMovements</text><text fill="#000000" font-family="sans-serif" font-size="11" lengthAdjust="spacing" textLength="47" x="564.5" y="607.9346">-maxSOG</text><text fill="#000000" font-family="sans-serif" font-size="11" lengthAdjust="spacing" textLength="53" x="564.5" y="621.7705">-meanSOG</text><text fill="#000000" font-family="sans-serif" font-size="11" lengthAdjust="spacing" textLength="47" x="564.5" y="635.6064">-maxCOG</text><text fill="#000000" font-family="sans-serif" font-size="11" lengthAdjust="spacing" textLength="53" x="564.5" y="649.4424">-meanCOG</text><text fill="#000000" font-family="sans-serif" font-size="11" lengthAdjust="spacing" textLength="37" x="564.5" y="663.2783">-depLat</text><text fill="#000000" font-family="sans-serif" font-size="11" lengthAdjust="spacing" textLength="46" x="564.5" y="677.1143">-depLong</text><text fill="#000000" font-family="sans-serif" font-size="11" lengthAdjust="spacing" textLength="49" x="564.5" y="690.9502">-arrivalLat</text><text fill="#000000" font-family="sans-serif" font-size="11" lengthAdjust="spacing" textLength="58" x="564.5" y="704.7861">-arrivalLong</text><text fill="#000000" font-family="sans-serif" font-size="11" lengthAdjust="spacing" textLength="73" x="564.5" y="718.6221">-travelDistance</text><text fill="#000000" font-family="sans-serif" font-size="11" lengthAdjust="spacing" textLength="69" x="564.5" y="732.458">-deltaDistance</text><line style="stroke:#A80036;stroke-width:1.5;" x1="559.5" x2="664.5" y1="738.875" y2="738.875"/><!--MD5=[69f2f3ad3645114d26612368d508f737]
class Printer--><rect codeLine="105" fill="#FEFECE" filter="url(#f1bmtbiod69wev)" height="61.8359" id="Printer" style="stroke:#A80036;stroke-width:1.5;" width="91" x="32.5" y="581"/><ellipse cx="57.85" cy="597" fill="#ADD1B2" rx="11" ry="11" style="stroke:#A80036;stroke-width:1.0;"/><path d="M59.85,593.5 Q60.0531,593 60.2875,592.75 Q60.5219,592.5 60.7875,592.5 Q61.2563,592.5 61.5531,592.7813 Q61.85,593.0625 61.85,593.7188 L61.85,595.2813 Q61.85,595.9375 61.5688,596.2188 Q61.2875,596.5 60.85,596.5 Q60.4594,596.5 60.2094,596.3281 Q59.9594,596.1563 59.85,595.7031 Q59.8031,595.3906 59.6313,595.2188 Q59.3188,594.8906 58.7563,594.7031 Q58.1938,594.5 57.6313,594.5 Q56.9281,594.5 56.3344,594.7813 Q55.7563,595.0625 55.3031,595.6875 Q54.85,596.3125 54.85,597.1719 L54.85,598.0938 Q54.85,599.125 55.6938,599.8125 Q56.5375,600.5 58.0375,600.5 Q58.9281,600.5 59.5531,600.2969 Q59.9125,600.1875 60.3188,599.8281 Q60.5844,599.625 60.725,599.5625 Q60.8656,599.5 61.0375,599.5 Q61.3656,599.5 61.6,599.7656 Q61.85,600.0156 61.85,600.375 Q61.85,600.7188 61.5063,601.125 Q61.0063,601.7188 60.2094,602.0469 Q59.1625,602.5 57.8813,602.5 Q56.3813,602.5 55.1781,601.9063 Q54.2094,601.4375 53.5219,600.4219 Q52.85,599.4063 52.85,598.2031 L52.85,597.1094 Q52.85,595.8594 53.4438,594.7656 Q54.0531,593.6719 55.1,593.0938 Q56.1625,592.5 57.35,592.5 Q58.0688,592.5 58.6938,592.75 Q59.3188,593 59.85,593.5 Z " fill="#000000"/><text fill="#000000" font-family="sans-serif" font-size="12" lengthAdjust="spacing" textLength="36" x="74.15" y="601.9102">Printer</text><line style="stroke:#A80036;stroke-width:1.5;" x1="33.5" x2="122.5" y1="613" y2="613"/><line style="stroke:#A80036;stroke-width:1.5;" x1="33.5" x2="122.5" y1="621" y2="621"/><text fill="#000000" font-family="sans-serif" font-size="11" lengthAdjust="spacing" textLength="79" x="38.5" y="636.4189">+print(summary)</text><!--MD5=[ea2206eefe09474e90beb17e18e6b3d8]
class ShipStore--><rect codeLine="73" fill="#FEFECE" filter="url(#f1bmtbiod69wev)" height="186.3594" id="ShipStore" style="stroke:#A80036;stroke-width:1.5;" width="319" x="158.5" y="519"/><ellipse cx="286.75" cy="535" fill="#ADD1B2" rx="11" ry="11" style="stroke:#A80036;stroke-width:1.0;"/><path d="M288.75,531.5 Q288.9531,531 289.1875,530.75 Q289.4219,530.5 289.6875,530.5 Q290.1563,530.5 290.4531,530.7813 Q290.75,531.0625 290.75,531.7188 L290.75,533.2813 Q290.75,533.9375 290.4688,534.2188 Q290.1875,534.5 289.75,534.5 Q289.3594,534.5 289.1094,534.3281 Q288.8594,534.1563 288.75,533.7031 Q288.7031,533.3906 288.5313,533.2188 Q288.2188,532.8906 287.6563,532.7031 Q287.0938,532.5 286.5313,532.5 Q285.8281,532.5 285.2344,532.7813 Q284.6563,533.0625 284.2031,533.6875 Q283.75,534.3125 283.75,535.1719 L283.75,536.0938 Q283.75,537.125 284.5938,537.8125 Q285.4375,538.5 286.9375,538.5 Q287.8281,538.5 288.4531,538.2969 Q288.8125,538.1875 289.2188,537.8281 Q289.4844,537.625 289.625,537.5625 Q289.7656,537.5 289.9375,537.5 Q290.2656,537.5 290.5,537.7656 Q290.75,538.0156 290.75,538.375 Q290.75,538.7188 290.4063,539.125 Q289.9063,539.7188 289.1094,540.0469 Q288.0625,540.5 286.7813,540.5 Q285.2813,540.5 284.0781,539.9063 Q283.1094,539.4375 282.4219,538.4219 Q281.75,537.4063 281.75,536.2031 L281.75,535.1094 Q281.75,533.8594 282.3438,532.7656 Q282.9531,531.6719 284,531.0938 Q285.0625,530.5 286.25,530.5 Q286.9688,530.5 287.5938,530.75 Q288.2188,531 288.75,531.5 Z " fill="#000000"/><text fill="#000000" font-family="sans-serif" font-size="12" lengthAdjust="spacing" textLength="54" x="307.25" y="539.9102">ShipStore</text><line style="stroke:#A80036;stroke-width:1.5;" x1="159.5" x2="476.5" y1="551" y2="551"/><line style="stroke:#A80036;stroke-width:1.5;" x1="159.5" x2="476.5" y1="559" y2="559"/><text fill="#000000" font-family="sans-serif" font-size="11" lengthAdjust="spacing" textLength="113" x="164.5" y="574.4189">+getShipByMMSI(MMSI)</text><text fill="#000000" font-family="sans-serif" font-size="11" lengthAdjust="spacing" textLength="99" x="164.5" y="588.2549">+getShipByIMO(IMO)</text><text fill="#000000" font-family="sans-serif" font-size="11" lengthAdjust="spacing" textLength="138" x="164.5" y="602.0908">+getShipByCallSign(callSign)</text><text fill="#000000" font-family="sans-serif" font-size="11" lengthAdjust="spacing" textLength="307" x="164.5" y="615.9268">+getTotalMovementTime(startBaseDateTime, endBaseDateTime)</text><text fill="#000000" font-family="sans-serif" font-size="11" lengthAdjust="spacing" textLength="85" x="164.5" y="629.7627">+getMaxSOG(list)</text><text fill="#000000" font-family="sans-serif" font-size="11" lengthAdjust="spacing" textLength="91" x="164.5" y="643.5986">+getMeanSOG(list)</text><text fill="#000000" font-family="sans-serif" font-size="11" lengthAdjust="spacing" textLength="85" x="164.5" y="657.4346">+getMaxCOG(list)</text><text fill="#000000" font-family="sans-serif" font-size="11" lengthAdjust="spacing" textLength="91" x="164.5" y="671.2705">+getMeanCOG(list)</text><text fill="#000000" font-family="sans-serif" font-size="11" lengthAdjust="spacing" textLength="114" x="164.5" y="685.1064">+getTravelDistance(list)</text><text fill="#000000" font-family="sans-serif" font-size="11" lengthAdjust="spacing" textLength="108" x="164.5" y="698.9424">+getDeltaDistance(list)</text><!--MD5=[b4a9ab6cffd58937cfea07eb2954e1bd]
class BST--><rect codeLine="61" fill="#FEFECE" filter="url(#f1bmtbiod69wev)" height="103.3438" id="BST" style="stroke:#A80036;stroke-width:1.5;" width="102" x="693" y="868.5"/><ellipse cx="729.15" cy="884.5" fill="#ADD1B2" rx="11" ry="11" style="stroke:#A80036;stroke-width:1.0;"/><path d="M731.15,881 Q731.3531,880.5 731.5875,880.25 Q731.8219,880 732.0875,880 Q732.5563,880 732.8531,880.2813 Q733.15,880.5625 733.15,881.2188 L733.15,882.7813 Q733.15,883.4375 732.8688,883.7188 Q732.5875,884 732.15,884 Q731.7594,884 731.5094,883.8281 Q731.2594,883.6563 731.15,883.2031 Q731.1031,882.8906 730.9313,882.7188 Q730.6188,882.3906 730.0563,882.2031 Q729.4938,882 728.9313,882 Q728.2281,882 727.6344,882.2813 Q727.0563,882.5625 726.6031,883.1875 Q726.15,883.8125 726.15,884.6719 L726.15,885.5938 Q726.15,886.625 726.9938,887.3125 Q727.8375,888 729.3375,888 Q730.2281,888 730.8531,887.7969 Q731.2125,887.6875 731.6188,887.3281 Q731.8844,887.125 732.025,887.0625 Q732.1656,887 732.3375,887 Q732.6656,887 732.9,887.2656 Q733.15,887.5156 733.15,887.875 Q733.15,888.2188 732.8063,888.625 Q732.3063,889.2188 731.5094,889.5469 Q730.4625,890 729.1813,890 Q727.6813,890 726.4781,889.4063 Q725.5094,888.9375 724.8219,887.9219 Q724.15,886.9063 724.15,885.7031 L724.15,884.6094 Q724.15,883.3594 724.7438,882.2656 Q725.3531,881.1719 726.4,880.5938 Q727.4625,880 728.65,880 Q729.3688,880 729.9938,880.25 Q730.6188,880.5 731.15,881 Z " fill="#000000"/><text fill="#000000" font-family="sans-serif" font-size="12" lengthAdjust="spacing" textLength="23" x="747.85" y="889.4102">BST</text><line style="stroke:#A80036;stroke-width:1.5;" x1="694" x2="794" y1="900.5" y2="900.5"/><line style="stroke:#A80036;stroke-width:1.5;" x1="694" x2="794" y1="908.5" y2="908.5"/><text fill="#000000" font-family="sans-serif" font-size="11" lengthAdjust="spacing" textLength="90" x="699" y="923.9189">+smallestElement()</text><text fill="#000000" font-family="sans-serif" font-size="11" lengthAdjust="spacing" textLength="86" x="699" y="937.7549">+biggestElement()</text><text fill="#000000" font-family="sans-serif" font-size="11" lengthAdjust="spacing" textLength="34" x="699" y="951.5908">+size()</text><text fill="#000000" font-family="sans-serif" font-size="11" lengthAdjust="spacing" textLength="50" x="699" y="965.4268">+inOrder()</text><!--MD5=[443fd393c3f6995a41435929ab921bce]
link MakeSummaryUI to MakeSummaryController--><path codeLine="109" d="M560,110.29 C560,135.99 560,177.88 560,209.47 " fill="none" id="MakeSummaryUI-to-MakeSummaryController" style="stroke:#A80036;stroke-width:1.0;stroke-dasharray:7.0,7.0;"/><polygon fill="#A80036" points="560,214.84,564,205.84,560,209.84,556,205.84,560,214.84" style="stroke:#A80036;stroke-width:1.0;"/><!--MD5=[2a27338beeb16e9ee9c28dba9318d50a]
link MakeSummaryController to Company--><path codeLine="110" d="M595.62,291.25 C622.83,321.45 659.54,366.22 683,411 C711.39,465.19 729.25,534.57 738.15,575.75 " fill="none" id="MakeSummaryController-to-Company" style="stroke:#A80036;stroke-width:1.0;stroke-dasharray:7.0,7.0;"/><polygon fill="#A80036" points="739.25,580.87,741.2831,571.2333,738.2063,575.9802,733.4594,572.9033,739.25,580.87" style="stroke:#A80036;stroke-width:1.0;"/><!--MD5=[69eb3449b2bf615a188d5e93f2b27392]
link MakeSummaryController to ShipStore--><path codeLine="111" d="M534.79,291.19 C499.3,343.55 433.38,440.8 383.51,514.36 " fill="none" id="MakeSummaryController-to-ShipStore" style="stroke:#A80036;stroke-width:1.0;stroke-dasharray:7.0,7.0;"/><polygon fill="#A80036" points="380.55,518.73,388.9037,513.5132,383.3498,514.5874,382.2756,509.0335,380.55,518.73" style="stroke:#A80036;stroke-width:1.0;"/><!--MD5=[6b4a94d80660e97c6833bde801bd4c89]
link Company to ShipStore--><path codeLine="112" d="M744.81,580.91 C742.67,538.29 731.73,463 683,428 C595.06,364.83 482.29,442.32 405.52,515.24 " fill="none" id="Company-to-ShipStore" style="stroke:#A80036;stroke-width:1.0;"/><polygon fill="#A80036" points="401.89,518.71,411.1587,515.3796,405.5032,515.2539,405.6289,509.5984,401.89,518.71" style="stroke:#A80036;stroke-width:1.0;"/><text fill="#000000" font-family="sans-serif" font-size="13" lengthAdjust="spacing" textLength="39" x="569.5" y="399.4951">Knows</text><text fill="#000000" font-family="sans-serif" font-size="13" lengthAdjust="spacing" textLength="7" x="737.0028" y="569.9106">1</text><text fill="#000000" font-family="sans-serif" font-size="13" lengthAdjust="spacing" textLength="7" x="401.2961" y="508.1333">1</text><!--MD5=[f04e04ecc6998d67821b33eb17256457]
link ShipStore to Ship--><path codeLine="113" d="M402.61,518.93 C441.19,483.26 489.88,446.66 542,428 C626.1,397.89 870.7,376.94 944,428 C970.53,446.48 986.73,476.55 996.62,507.08 " fill="none" id="ShipStore-to-Ship" style="stroke:#A80036;stroke-width:1.0;"/><polygon fill="#A80036" points="998.15,511.98,999.2668,502.1947,996.6505,507.2101,991.635,504.5939,998.15,511.98" style="stroke:#A80036;stroke-width:1.0;"/><text fill="#000000" font-family="sans-serif" font-size="13" lengthAdjust="spacing" textLength="50" x="855" y="399.4951">registers</text><text fill="#000000" font-family="sans-serif" font-size="13" lengthAdjust="spacing" textLength="7" x="409.9066" y="508.0549">1</text><text fill="#000000" font-family="sans-serif" font-size="13" lengthAdjust="spacing" textLength="5" x="991.8982" y="501.2108">*</text><!--MD5=[41f475cd3cd8b5f3ab05e5531954a9bf]
link ShipStore to ShipPosition--><path codeLine="114" d="M402.61,518.93 C441.19,483.26 489.88,446.66 542,428 C652.88,388.3 710.36,360.68 807,428 C833.53,446.48 849.73,476.55 859.62,507.08 " fill="none" id="ShipStore-to-ShipPosition" style="stroke:#A80036;stroke-width:1.0;"/><polygon fill="#A80036" points="861.15,511.98,862.2668,502.1947,859.6505,507.2101,854.635,504.5939,861.15,511.98" style="stroke:#A80036;stroke-width:1.0;"/><text fill="#000000" font-family="sans-serif" font-size="13" lengthAdjust="spacing" textLength="50" x="743" y="399.4951">registers</text><text fill="#000000" font-family="sans-serif" font-size="13" lengthAdjust="spacing" textLength="7" x="402.3269" y="508.0549">1</text><text fill="#000000" font-family="sans-serif" font-size="13" lengthAdjust="spacing" textLength="5" x="854.8982" y="501.2108">*</text><!--MD5=[450ce2c12e7dd7ba974e92137d77cb9b]
link Ship to BST--><path codeLine="115" d="M978.7,712.02 C969.29,732.5 957.78,753.11 944,770.5 C904.28,820.65 843.69,862.42 799.61,888.76 " fill="none" id="Ship-to-BST" style="stroke:#A80036;stroke-width:1.0;"/><polygon fill="#A80036" points="795.12,891.42,804.9,890.2578,799.4175,888.8643,800.811,883.3818,795.12,891.42" style="stroke:#A80036;stroke-width:1.0;"/><text fill="#000000" font-family="sans-serif" font-size="13" lengthAdjust="spacing" textLength="36" x="936" y="792.9951">stored</text><text fill="#000000" font-family="sans-serif" font-size="13" lengthAdjust="spacing" textLength="5" x="970.9591" y="733.7914">*</text><text fill="#000000" font-family="sans-serif" font-size="13" lengthAdjust="spacing" textLength="7" x="803.1423" y="883.543">1</text><!--MD5=[5516919d850f976afb7d4bed5671d0b9]
link ShipStore to BST--><path codeLine="116" d="M446.1,705.02 C526.98,763.11 627.39,835.24 688.53,879.16 " fill="none" id="ShipStore-to-BST" style="stroke:#A80036;stroke-width:1.0;stroke-dasharray:7.0,7.0;"/><polygon fill="#A80036" points="692.87,882.27,687.9137,873.7591,688.8159,879.3436,683.2314,880.2458,692.87,882.27" style="stroke:#A80036;stroke-width:1.0;"/><!--MD5=[c2c1e6e90326ba063c4a69d79d91ec23]
link Summary to Printer--><path codeLine="117" d="M563.02,477.34 C542.38,439.94 514.18,403.88 476.5,383 C414.89,348.85 221.11,348.85 159.5,383 C92.1,420.36 79.39,520.94 77.64,575.54 " fill="none" id="Summary-to-Printer" style="stroke:#A80036;stroke-width:1.0;"/><polygon fill="#A80036" points="77.5,580.68,81.73,571.7858,77.6285,575.6817,73.7327,571.5802,77.5,580.68" style="stroke:#A80036;stroke-width:1.0;"/><!--MD5=[9ec2507140b87b89860c40f337d0afd0]
@startuml
skinparam classAttributeIconSize 0

package "Controller"{
class MakeSummaryController
}

package "UI"{
class MakeSummaryUI
}

package "Model"{
class Ship
class Company
class ShipPosition
class Summary
}

package utils{
class Printer
package store{
class ShipStore
}
}

package BST{
class BST
}

class ShipPosition{
-MMSI
-date
-LAT
-LON
-SOG
-COG
-heading
-cargo
-transciever
+getLatitude()
+getLongitude()
}

class Ship{
-MMSI
-name
-IMO
-callsign
-type
-length
-width
-draft
+getMMSI()
+getSp()
+getVesselName()
}

class Company{
+getShipStore()
}

class BST{
+smallestElement()
+biggestElement()
+size()
+inOrder()
}

class MakeSummaryController{
+makeSummary(shipCode)
+print(summary)
}

class ShipStore{
+getShipByMMSI(MMSI)
+getShipByIMO(IMO)
+getShipByCallSign(callSign)
+getTotalMovementTime(startBaseDateTime, endBaseDateTime)
+getMaxSOG(list)
+getMeanSOG(list)
+getMaxCOG(list)
+getMeanCOG(list)
+getTravelDistance(list)
+getDeltaDistance(list)
}

class Summary{
-shipCode
-vesselName
-startBaseDateTime
-endBaseDateTime
-totalMovementTime
-totalMovements
-maxSOG
-meanSOG
-maxCOG
-meanCOG
-depLat
-depLong
-arrivalLat
-arrivalLong
-travelDistance
-deltaDistance
}

class Printer{
+print(summary)
}

MakeSummaryUI .-> MakeSummaryController
MakeSummaryController .- -> Company
MakeSummaryController .- -> ShipStore
Company "1"- ->"1" ShipStore : Knows
ShipStore "1"->"*" Ship : registers
ShipStore "1"->"*" ShipPosition : registers
Ship "*"->"1" BST : stored
ShipStore .-> BST
Summary - -> Printer
@enduml

PlantUML version 1.2021.00(Sun Jan 10 10:25:05 GMT 2021)
(GPL source distribution)
Java Runtime: OpenJDK Runtime Environment
JVM: OpenJDK 64-Bit Server VM
Default Encoding: Cp1252
Language: pt
Country: PT
--></g></svg>