<?xml version="1.0" encoding="UTF-8" standalone="no"?><svg xmlns="http://www.w3.org/2000/svg" xmlns:xlink="http://www.w3.org/1999/xlink" contentScriptType="application/ecmascript" contentStyleType="text/css" height="403px" preserveAspectRatio="none" style="width:423px;height:403px;" version="1.1" viewBox="0 0 423 403" width="423px" zoomAndPan="magnify"><defs><filter height="300%" id="f5wlxdok24a1j" width="300%" x="-1" y="-1"><feGaussianBlur result="blurOut" stdDeviation="2.0"/><feColorMatrix in="blurOut" result="blurOut2" type="matrix" values="0 0 0 0 0 0 0 0 0 0 0 0 0 0 0 0 0 0 .4 0"/><feOffset dx="4.0" dy="4.0" in="blurOut2" result="blurOut3"/><feBlend in="SourceGraphic" in2="blurOut3" mode="normal"/></filter></defs><g><!--MD5=[64e2e010ba86d7988e5cd73bd64f61f9]
cluster ui--><polygon fill="#FFFFFF" filter="url(#f5wlxdok24a1j)" points="127,6,146,6,153,29.6094,235,29.6094,235,106,127,106,127,6" style="stroke:#000000;stroke-width:1.5;"/><line style="stroke:#000000;stroke-width:1.5;" x1="127" x2="153" y1="29.6094" y2="29.6094"/><text fill="#000000" font-family="sans-serif" font-size="14" font-weight="bold" lengthAdjust="spacing" textLength="13" x="131" y="22.5332">ui</text><!--MD5=[f4e70ef68289585296b9045165e58692]
cluster controllers--><polygon fill="#FFFFFF" filter="url(#f5wlxdok24a1j)" points="83,130,166,130,173,153.6094,279,153.6094,279,258,83,258,83,130" style="stroke:#000000;stroke-width:1.5;"/><line style="stroke:#000000;stroke-width:1.5;" x1="83" x2="173" y1="153.6094" y2="153.6094"/><text fill="#000000" font-family="sans-serif" font-size="14" font-weight="bold" lengthAdjust="spacing" textLength="77" x="87" y="146.5332">controllers</text><!--MD5=[c52f45833d539af9e29a9d34b8b7302b]
cluster utils--><polygon fill="#FFFFFF" filter="url(#f5wlxdok24a1j)" points="16,282,52,282,59,305.6094,116,305.6094,116,396,16,396,16,282" style="stroke:#000000;stroke-width:1.5;"/><line style="stroke:#000000;stroke-width:1.5;" x1="16" x2="59" y1="305.6094" y2="305.6094"/><text fill="#000000" font-family="sans-serif" font-size="14" font-weight="bold" lengthAdjust="spacing" textLength="30" x="20" y="298.5332">utils</text><!--MD5=[dce4c2b5694dd28223e7b1d160ba96c4]
cluster data--><polygon fill="#FFFFFF" filter="url(#f5wlxdok24a1j)" points="140,282,176,282,183,305.6094,406,305.6094,406,396,140,396,140,282" style="stroke:#000000;stroke-width:1.5;"/><line style="stroke:#000000;stroke-width:1.5;" x1="140" x2="183" y1="305.6094" y2="305.6094"/><text fill="#000000" font-family="sans-serif" font-size="14" font-weight="bold" lengthAdjust="spacing" textLength="30" x="144" y="298.5332">data</text><!--MD5=[390cd8bad302c63af195608ca3adb952]
class ArqcpUI--><rect codeLine="6" fill="#FEFECE" filter="url(#f5wlxdok24a1j)" height="48" id="ArqcpUI" style="stroke:#A80036;stroke-width:1.5;" width="75" x="143.5" y="42"/><ellipse cx="158.5" cy="58" fill="#ADD1B2" rx="11" ry="11" style="stroke:#A80036;stroke-width:1.0;"/><path d="M160.5,54.5 Q160.7031,54 160.9375,53.75 Q161.1719,53.5 161.4375,53.5 Q161.9063,53.5 162.2031,53.7813 Q162.5,54.0625 162.5,54.7188 L162.5,56.2813 Q162.5,56.9375 162.2188,57.2188 Q161.9375,57.5 161.5,57.5 Q161.1094,57.5 160.8594,57.3281 Q160.6094,57.1563 160.5,56.7031 Q160.4531,56.3906 160.2813,56.2188 Q159.9688,55.8906 159.4063,55.7031 Q158.8438,55.5 158.2813,55.5 Q157.5781,55.5 156.9844,55.7813 Q156.4063,56.0625 155.9531,56.6875 Q155.5,57.3125 155.5,58.1719 L155.5,59.0938 Q155.5,60.125 156.3438,60.8125 Q157.1875,61.5 158.6875,61.5 Q159.5781,61.5 160.2031,61.2969 Q160.5625,61.1875 160.9688,60.8281 Q161.2344,60.625 161.375,60.5625 Q161.5156,60.5 161.6875,60.5 Q162.0156,60.5 162.25,60.7656 Q162.5,61.0156 162.5,61.375 Q162.5,61.7188 162.1563,62.125 Q161.6563,62.7188 160.8594,63.0469 Q159.8125,63.5 158.5313,63.5 Q157.0313,63.5 155.8281,62.9063 Q154.8594,62.4375 154.1719,61.4219 Q153.5,60.4063 153.5,59.2031 L153.5,58.1094 Q153.5,56.8594 154.0938,55.7656 Q154.7031,54.6719 155.75,54.0938 Q156.8125,53.5 158,53.5 Q158.7188,53.5 159.3438,53.75 Q159.9688,54 160.5,54.5 Z " fill="#000000"/><text fill="#000000" font-family="sans-serif" font-size="12" lengthAdjust="spacing" textLength="43" x="172.5" y="62.9102">ArqcpUI</text><line style="stroke:#A80036;stroke-width:1.5;" x1="144.5" x2="217.5" y1="74" y2="74"/><line style="stroke:#A80036;stroke-width:1.5;" x1="144.5" x2="217.5" y1="82" y2="82"/><!--MD5=[c2ccc9f16df86e6cc5591bc03cf25e89]
class ArqcpController--><rect codeLine="11" fill="#FEFECE" filter="url(#f5wlxdok24a1j)" height="75.6719" id="ArqcpController" style="stroke:#A80036;stroke-width:1.5;" width="164" x="99" y="166"/><ellipse cx="135.15" cy="182" fill="#ADD1B2" rx="11" ry="11" style="stroke:#A80036;stroke-width:1.0;"/><path d="M137.15,178.5 Q137.3531,178 137.5875,177.75 Q137.8219,177.5 138.0875,177.5 Q138.5563,177.5 138.8531,177.7813 Q139.15,178.0625 139.15,178.7188 L139.15,180.2813 Q139.15,180.9375 138.8688,181.2188 Q138.5875,181.5 138.15,181.5 Q137.7594,181.5 137.5094,181.3281 Q137.2594,181.1563 137.15,180.7031 Q137.1031,180.3906 136.9313,180.2188 Q136.6188,179.8906 136.0563,179.7031 Q135.4938,179.5 134.9313,179.5 Q134.2281,179.5 133.6344,179.7813 Q133.0563,180.0625 132.6031,180.6875 Q132.15,181.3125 132.15,182.1719 L132.15,183.0938 Q132.15,184.125 132.9938,184.8125 Q133.8375,185.5 135.3375,185.5 Q136.2281,185.5 136.8531,185.2969 Q137.2125,185.1875 137.6188,184.8281 Q137.8844,184.625 138.025,184.5625 Q138.1656,184.5 138.3375,184.5 Q138.6656,184.5 138.9,184.7656 Q139.15,185.0156 139.15,185.375 Q139.15,185.7188 138.8063,186.125 Q138.3063,186.7188 137.5094,187.0469 Q136.4625,187.5 135.1813,187.5 Q133.6813,187.5 132.4781,186.9063 Q131.5094,186.4375 130.8219,185.4219 Q130.15,184.4063 130.15,183.2031 L130.15,182.1094 Q130.15,180.8594 130.7438,179.7656 Q131.3531,178.6719 132.4,178.0938 Q133.4625,177.5 134.65,177.5 Q135.3688,177.5 135.9938,177.75 Q136.6188,178 137.15,178.5 Z " fill="#000000"/><text fill="#000000" font-family="sans-serif" font-size="12" lengthAdjust="spacing" textLength="85" x="153.85" y="186.9102">ArqcpController</text><line style="stroke:#A80036;stroke-width:1.5;" x1="100" x2="262" y1="198" y2="198"/><line style="stroke:#A80036;stroke-width:1.5;" x1="100" x2="262" y1="206" y2="206"/><text fill="#000000" font-family="sans-serif" font-size="11" lengthAdjust="spacing" textLength="119" x="105" y="221.4189">+arqcp(cargomanifestId)</text><text fill="#000000" font-family="sans-serif" font-size="11" lengthAdjust="spacing" textLength="152" x="105" y="235.2549">+printer(fileName, stringToPrint)</text><!--MD5=[69f2f3ad3645114d26612368d508f737]
class Printer--><rect codeLine="17" fill="#FEFECE" filter="url(#f5wlxdok24a1j)" height="61.8359" id="Printer" style="stroke:#A80036;stroke-width:1.5;" width="68" x="32" y="318"/><ellipse cx="47" cy="334" fill="#ADD1B2" rx="11" ry="11" style="stroke:#A80036;stroke-width:1.0;"/><path d="M49,330.5 Q49.2031,330 49.4375,329.75 Q49.6719,329.5 49.9375,329.5 Q50.4063,329.5 50.7031,329.7813 Q51,330.0625 51,330.7188 L51,332.2813 Q51,332.9375 50.7188,333.2188 Q50.4375,333.5 50,333.5 Q49.6094,333.5 49.3594,333.3281 Q49.1094,333.1563 49,332.7031 Q48.9531,332.3906 48.7813,332.2188 Q48.4688,331.8906 47.9063,331.7031 Q47.3438,331.5 46.7813,331.5 Q46.0781,331.5 45.4844,331.7813 Q44.9063,332.0625 44.4531,332.6875 Q44,333.3125 44,334.1719 L44,335.0938 Q44,336.125 44.8438,336.8125 Q45.6875,337.5 47.1875,337.5 Q48.0781,337.5 48.7031,337.2969 Q49.0625,337.1875 49.4688,336.8281 Q49.7344,336.625 49.875,336.5625 Q50.0156,336.5 50.1875,336.5 Q50.5156,336.5 50.75,336.7656 Q51,337.0156 51,337.375 Q51,337.7188 50.6563,338.125 Q50.1563,338.7188 49.3594,339.0469 Q48.3125,339.5 47.0313,339.5 Q45.5313,339.5 44.3281,338.9063 Q43.3594,338.4375 42.6719,337.4219 Q42,336.4063 42,335.2031 L42,334.1094 Q42,332.8594 42.5938,331.7656 Q43.2031,330.6719 44.25,330.0938 Q45.3125,329.5 46.5,329.5 Q47.2188,329.5 47.8438,329.75 Q48.4688,330 49,330.5 Z " fill="#000000"/><text fill="#000000" font-family="sans-serif" font-size="12" lengthAdjust="spacing" textLength="36" x="61" y="338.9102">Printer</text><line style="stroke:#A80036;stroke-width:1.5;" x1="33" x2="99" y1="350" y2="350"/><line style="stroke:#A80036;stroke-width:1.5;" x1="33" x2="99" y1="358" y2="358"/><text fill="#000000" font-family="sans-serif" font-size="11" lengthAdjust="spacing" textLength="35" x="38" y="373.4189">+print()</text><!--MD5=[5e7f8c11cc6b80bd10681d23d2377c46]
class Arqcp--><rect codeLine="23" fill="#FEFECE" filter="url(#f5wlxdok24a1j)" height="61.8359" id="Arqcp" style="stroke:#A80036;stroke-width:1.5;" width="233" x="156.5" y="318"/><ellipse cx="253.25" cy="334" fill="#ADD1B2" rx="11" ry="11" style="stroke:#A80036;stroke-width:1.0;"/><path d="M255.25,330.5 Q255.4531,330 255.6875,329.75 Q255.9219,329.5 256.1875,329.5 Q256.6563,329.5 256.9531,329.7813 Q257.25,330.0625 257.25,330.7188 L257.25,332.2813 Q257.25,332.9375 256.9688,333.2188 Q256.6875,333.5 256.25,333.5 Q255.8594,333.5 255.6094,333.3281 Q255.3594,333.1563 255.25,332.7031 Q255.2031,332.3906 255.0313,332.2188 Q254.7188,331.8906 254.1563,331.7031 Q253.5938,331.5 253.0313,331.5 Q252.3281,331.5 251.7344,331.7813 Q251.1563,332.0625 250.7031,332.6875 Q250.25,333.3125 250.25,334.1719 L250.25,335.0938 Q250.25,336.125 251.0938,336.8125 Q251.9375,337.5 253.4375,337.5 Q254.3281,337.5 254.9531,337.2969 Q255.3125,337.1875 255.7188,336.8281 Q255.9844,336.625 256.125,336.5625 Q256.2656,336.5 256.4375,336.5 Q256.7656,336.5 257,336.7656 Q257.25,337.0156 257.25,337.375 Q257.25,337.7188 256.9063,338.125 Q256.4063,338.7188 255.6094,339.0469 Q254.5625,339.5 253.2813,339.5 Q251.7813,339.5 250.5781,338.9063 Q249.6094,338.4375 248.9219,337.4219 Q248.25,336.4063 248.25,335.2031 L248.25,334.1094 Q248.25,332.8594 248.8438,331.7656 Q249.4531,330.6719 250.5,330.0938 Q251.5625,329.5 252.75,329.5 Q253.4688,329.5 254.0938,329.75 Q254.7188,330 255.25,330.5 Z " fill="#000000"/><text fill="#000000" font-family="sans-serif" font-size="12" lengthAdjust="spacing" textLength="31" x="273.75" y="338.9102">Arqcp</text><line style="stroke:#A80036;stroke-width:1.5;" x1="157.5" x2="388.5" y1="350" y2="350"/><line style="stroke:#A80036;stroke-width:1.5;" x1="157.5" x2="388.5" y1="358" y2="358"/><text fill="#000000" font-family="sans-serif" font-size="11" lengthAdjust="spacing" textLength="221" x="162.5" y="373.4189">+arqcp(databaseConnection,cargomanifestId)</text><!--MD5=[df5d16089f6cd0ed0445c8c57db6131b]
link ArqcpUI to ArqcpController--><path codeLine="30" d="M181,90.07 C181,109.38 181,137.42 181,160.74 " fill="none" id="ArqcpUI-to-ArqcpController" style="stroke:#A80036;stroke-width:1.0;stroke-dasharray:7.0,7.0;"/><polygon fill="#A80036" points="181,165.94,185,156.94,181,160.94,177,156.94,181,165.94" style="stroke:#A80036;stroke-width:1.0;"/><!--MD5=[65b75619c6ef57856b89c18824a944fa]
link ArqcpController to Printer--><path codeLine="31" d="M151.09,242.2 C133.29,264.32 110.88,292.19 93.53,313.77 " fill="none" id="ArqcpController-to-Printer" style="stroke:#A80036;stroke-width:1.0;stroke-dasharray:7.0,7.0;"/><polygon fill="#A80036" points="90.35,317.73,99.1199,313.2479,93.4943,313.8424,92.8998,308.2169,90.35,317.73" style="stroke:#A80036;stroke-width:1.0;"/><!--MD5=[92c1bd6ccd1992ff7b7d259a96828b3f]
link ArqcpController to Arqcp--><path codeLine="32" d="M204.93,242.2 C219.11,264.23 236.95,291.96 250.81,313.5 " fill="none" id="ArqcpController-to-Arqcp" style="stroke:#A80036;stroke-width:1.0;stroke-dasharray:7.0,7.0;"/><polygon fill="#A80036" points="253.52,317.73,251.9945,308,250.8061,313.5306,245.2755,312.3422,253.52,317.73" style="stroke:#A80036;stroke-width:1.0;"/><!--MD5=[48d076f9415b242bfa74319797f940d8]
@startuml
'https://plantuml.com/class-diagram

skinparam classAttributeIconSize 0

package "ui" {
class ArqcpUI{
}
}

package "controllers" {
class ArqcpController{
+arqcp(cargomanifestId)
+printer(fileName, stringToPrint)
}
}
package utils{
class Printer{
+print()
}
}

package data{
class Arqcp{
+arqcp(databaseConnection,cargomanifestId)
}
}



ArqcpUI ..> ArqcpController
ArqcpController ..> Printer
ArqcpController ..> Arqcp
@enduml

@startuml

skinparam classAttributeIconSize 0

package "ui" {
class ArqcpUI{
}
}

package "controllers" {
class ArqcpController{
+arqcp(cargomanifestId)
+printer(fileName, stringToPrint)
}
}
package utils{
class Printer{
+print()
}
}

package data{
class Arqcp{
+arqcp(databaseConnection,cargomanifestId)
}
}



ArqcpUI ..> ArqcpController
ArqcpController ..> Printer
ArqcpController ..> Arqcp
@enduml

PlantUML version 1.2021.2(Sun Mar 07 11:10:27 GMT 2021)
(GPL source distribution)
Java Runtime: OpenJDK Runtime Environment
JVM: OpenJDK 64-Bit Server VM
Default Encoding: Cp1252
Language: pt
Country: PT
--></g></svg>