<?xml version="1.0" encoding="UTF-8" standalone="no"?><svg xmlns="http://www.w3.org/2000/svg" xmlns:xlink="http://www.w3.org/1999/xlink" contentScriptType="application/ecmascript" contentStyleType="text/css" height="1221px" preserveAspectRatio="none" style="width:2208px;height:1221px;" version="1.1" viewBox="0 0 2208 1221" width="2208px" zoomAndPan="magnify"><defs><filter height="300%" id="fie22eqa8fb3y" width="300%" x="-1" y="-1"><feGaussianBlur result="blurOut" stdDeviation="2.0"/><feColorMatrix in="blurOut" result="blurOut2" type="matrix" values="0 0 0 0 0 0 0 0 0 0 0 0 0 0 0 0 0 0 .4 0"/><feOffset dx="4.0" dy="4.0" in="blurOut2" result="blurOut3"/><feBlend in="SourceGraphic" in2="blurOut3" mode="normal"/></filter></defs><g><!--MD5=[1f2cfc53d9d308f53762fd0fcbaa4873]
cluster Controller--><polygon fill="#FFFFFF" filter="url(#fie22eqa8fb3y)" points="16,159,93,159,100,182.6094,2007,182.6094,2007,321,16,321,16,159" style="stroke:#000000;stroke-width:1.5;"/><line style="stroke:#000000;stroke-width:1.5;" x1="16" x2="100" y1="182.6094" y2="182.6094"/><text fill="#000000" font-family="sans-serif" font-size="14" font-weight="bold" lengthAdjust="spacing" textLength="71" x="20" y="175.5332">Controller</text><!--MD5=[9681dc6e01e10c6b4fe06895ae94f592]
cluster UI--><polygon fill="#FFFFFF" filter="url(#fie22eqa8fb3y)" points="310,6,330,6,337,29.6094,1527,29.6094,1527,126,310,126,310,6" style="stroke:#000000;stroke-width:1.5;"/><line style="stroke:#000000;stroke-width:1.5;" x1="310" x2="337" y1="29.6094" y2="29.6094"/><text fill="#000000" font-family="sans-serif" font-size="14" font-weight="bold" lengthAdjust="spacing" textLength="14" x="314" y="22.5332">UI</text><!--MD5=[15636c1ca4a123c16a2a1a8e90aca7a9]
cluster Model--><polygon fill="#FFFFFF" filter="url(#fie22eqa8fb3y)" points="1217,596,1267,596,1274,619.6094,1754,619.6094,1754,937,1217,937,1217,596" style="stroke:#000000;stroke-width:1.5;"/><line style="stroke:#000000;stroke-width:1.5;" x1="1217" x2="1274" y1="619.6094" y2="619.6094"/><text fill="#000000" font-family="sans-serif" font-size="14" font-weight="bold" lengthAdjust="spacing" textLength="44" x="1221" y="612.5332">Model</text><!--MD5=[c52f45833d539af9e29a9d34b8b7302b]
cluster utils--><polygon fill="#FFFFFF" filter="url(#fie22eqa8fb3y)" points="482,552,518,552,525,575.6094,1193,575.6094,1193,961,482,961,482,552" style="stroke:#000000;stroke-width:1.5;"/><line style="stroke:#000000;stroke-width:1.5;" x1="482" x2="525" y1="575.6094" y2="575.6094"/><text fill="#000000" font-family="sans-serif" font-size="14" font-weight="bold" lengthAdjust="spacing" textLength="30" x="486" y="568.5332">utils</text><!--MD5=[c23849cc5f4a85746a20de4317c530fc]
cluster store--><polygon fill="#FFFFFF" filter="url(#fie22eqa8fb3y)" points="591,596,634,596,641,619.6094,1169,619.6094,1169,937,591,937,591,596" style="stroke:#000000;stroke-width:1.5;"/><line style="stroke:#000000;stroke-width:1.5;" x1="591" x2="641" y1="619.6094" y2="619.6094"/><text fill="#000000" font-family="sans-serif" font-size="14" font-weight="bold" lengthAdjust="spacing" textLength="37" x="595" y="612.5332">store</text><!--MD5=[701152d03fbf85133a1de050cfdbc7fd]
cluster Mappers--><polygon fill="#FFFFFF" filter="url(#fie22eqa8fb3y)" points="1718,354,1786,354,1793,377.6094,2063,377.6094,2063,502,1718,502,1718,354" style="stroke:#000000;stroke-width:1.5;"/><line style="stroke:#000000;stroke-width:1.5;" x1="1718" x2="1793" y1="377.6094" y2="377.6094"/><text fill="#000000" font-family="sans-serif" font-size="14" font-weight="bold" lengthAdjust="spacing" textLength="62" x="1722" y="370.5332">Mappers</text><!--MD5=[e6eced616a98d47334dd1aaaa829ffd5]
cluster dto--><polygon fill="#FFFFFF" filter="url(#fie22eqa8fb3y)" points="1778,644,1807,644,1814,667.6094,2055,667.6094,2055,889,1778,889,1778,644" style="stroke:#000000;stroke-width:1.5;"/><line style="stroke:#000000;stroke-width:1.5;" x1="1778" x2="1814" y1="667.6094" y2="667.6094"/><text fill="#000000" font-family="sans-serif" font-size="14" font-weight="bold" lengthAdjust="spacing" textLength="23" x="1782" y="660.5332">dto</text><!--MD5=[494b4dc93ed5acf56d33c38353fc258f]
cluster BST--><polygon fill="#FFFFFF" filter="url(#fie22eqa8fb3y)" points="1555,1011,1588,1011,1595,1034.6094,1819,1034.6094,1819,1214,1555,1214,1555,1011" style="stroke:#000000;stroke-width:1.5;"/><line style="stroke:#000000;stroke-width:1.5;" x1="1555" x2="1595" y1="1034.6094" y2="1034.6094"/><text fill="#000000" font-family="sans-serif" font-size="14" font-weight="bold" lengthAdjust="spacing" textLength="27" x="1559" y="1027.5332">BST</text><!--MD5=[6cbdc21a546677faed600e7167aecdbc]
class ListAllShipsInformationController--><rect codeLine="159" fill="#FEFECE" filter="url(#fie22eqa8fb3y)" height="75.6719" id="ListAllShipsInformationController" style="stroke:#A80036;stroke-width:1.5;" width="213" x="200.5" y="222"/><ellipse cx="215.5" cy="238" fill="#ADD1B2" rx="11" ry="11" style="stroke:#A80036;stroke-width:1.0;"/><path d="M217.5,234.5 Q217.7031,234 217.9375,233.75 Q218.1719,233.5 218.4375,233.5 Q218.9063,233.5 219.2031,233.7813 Q219.5,234.0625 219.5,234.7188 L219.5,236.2813 Q219.5,236.9375 219.2188,237.2188 Q218.9375,237.5 218.5,237.5 Q218.1094,237.5 217.8594,237.3281 Q217.6094,237.1563 217.5,236.7031 Q217.4531,236.3906 217.2813,236.2188 Q216.9688,235.8906 216.4063,235.7031 Q215.8438,235.5 215.2813,235.5 Q214.5781,235.5 213.9844,235.7813 Q213.4063,236.0625 212.9531,236.6875 Q212.5,237.3125 212.5,238.1719 L212.5,239.0938 Q212.5,240.125 213.3438,240.8125 Q214.1875,241.5 215.6875,241.5 Q216.5781,241.5 217.2031,241.2969 Q217.5625,241.1875 217.9688,240.8281 Q218.2344,240.625 218.375,240.5625 Q218.5156,240.5 218.6875,240.5 Q219.0156,240.5 219.25,240.7656 Q219.5,241.0156 219.5,241.375 Q219.5,241.7188 219.1563,242.125 Q218.6563,242.7188 217.8594,243.0469 Q216.8125,243.5 215.5313,243.5 Q214.0313,243.5 212.8281,242.9063 Q211.8594,242.4375 211.1719,241.4219 Q210.5,240.4063 210.5,239.2031 L210.5,238.1094 Q210.5,236.8594 211.0938,235.7656 Q211.7031,234.6719 212.75,234.0938 Q213.8125,233.5 215,233.5 Q215.7188,233.5 216.3438,233.75 Q216.9688,234 217.5,234.5 Z " fill="#000000"/><text fill="#000000" font-family="sans-serif" font-size="12" lengthAdjust="spacing" textLength="181" x="229.5" y="242.9102">ListAllShipsInformationController</text><line style="stroke:#A80036;stroke-width:1.5;" x1="201.5" x2="412.5" y1="254" y2="254"/><line style="stroke:#A80036;stroke-width:1.5;" x1="201.5" x2="412.5" y1="262" y2="262"/><text fill="#000000" font-family="sans-serif" font-size="11" lengthAdjust="spacing" textLength="82" x="206.5" y="277.4189">+getInformation()</text><text fill="#000000" font-family="sans-serif" font-size="11" lengthAdjust="spacing" textLength="79" x="206.5" y="291.2549">+print(summary)</text><!--MD5=[ddc32818b5585dcafe45ee09c4f8f42a]
class TopShipsWithTravelledDistanceController--><rect codeLine="83" fill="#FEFECE" filter="url(#fie22eqa8fb3y)" height="61.8359" id="TopShipsWithTravelledDistanceController" style="stroke:#A80036;stroke-width:1.5;" width="555" x="652.5" y="229"/><ellipse cx="810.75" cy="245" fill="#ADD1B2" rx="11" ry="11" style="stroke:#A80036;stroke-width:1.0;"/><path d="M812.75,241.5 Q812.9531,241 813.1875,240.75 Q813.4219,240.5 813.6875,240.5 Q814.1563,240.5 814.4531,240.7813 Q814.75,241.0625 814.75,241.7188 L814.75,243.2813 Q814.75,243.9375 814.4688,244.2188 Q814.1875,244.5 813.75,244.5 Q813.3594,244.5 813.1094,244.3281 Q812.8594,244.1563 812.75,243.7031 Q812.7031,243.3906 812.5313,243.2188 Q812.2188,242.8906 811.6563,242.7031 Q811.0938,242.5 810.5313,242.5 Q809.8281,242.5 809.2344,242.7813 Q808.6563,243.0625 808.2031,243.6875 Q807.75,244.3125 807.75,245.1719 L807.75,246.0938 Q807.75,247.125 808.5938,247.8125 Q809.4375,248.5 810.9375,248.5 Q811.8281,248.5 812.4531,248.2969 Q812.8125,248.1875 813.2188,247.8281 Q813.4844,247.625 813.625,247.5625 Q813.7656,247.5 813.9375,247.5 Q814.2656,247.5 814.5,247.7656 Q814.75,248.0156 814.75,248.375 Q814.75,248.7188 814.4063,249.125 Q813.9063,249.7188 813.1094,250.0469 Q812.0625,250.5 810.7813,250.5 Q809.2813,250.5 808.0781,249.9063 Q807.1094,249.4375 806.4219,248.4219 Q805.75,247.4063 805.75,246.2031 L805.75,245.1094 Q805.75,243.8594 806.3438,242.7656 Q806.9531,241.6719 808,241.0938 Q809.0625,240.5 810.25,240.5 Q810.9688,240.5 811.5938,240.75 Q812.2188,241 812.75,241.5 Z " fill="#000000"/><text fill="#000000" font-family="sans-serif" font-size="12" lengthAdjust="spacing" textLength="230" x="831.25" y="249.9102">TopShipsWithTravelledDistanceController</text><line style="stroke:#A80036;stroke-width:1.5;" x1="653.5" x2="1206.5" y1="261" y2="261"/><line style="stroke:#A80036;stroke-width:1.5;" x1="653.5" x2="1206.5" y1="269" y2="269"/><text fill="#000000" font-family="sans-serif" font-size="11" lengthAdjust="spacing" textLength="543" x="658.5" y="284.4189">+boolean getTopShipsWithTravelledDistance(Date firstDateAndTime, Date lastDateAndTime,int number_of_ships)</text><!--MD5=[4662bc5ee22559219ce96a03af97be71]
class MakeSummaryController--><rect codeLine="154" fill="#FEFECE" filter="url(#fie22eqa8fb3y)" height="75.6719" id="MakeSummaryController" style="stroke:#A80036;stroke-width:1.5;" width="168" x="449" y="222"/><ellipse cx="464" cy="238" fill="#ADD1B2" rx="11" ry="11" style="stroke:#A80036;stroke-width:1.0;"/><path d="M466,234.5 Q466.2031,234 466.4375,233.75 Q466.6719,233.5 466.9375,233.5 Q467.4063,233.5 467.7031,233.7813 Q468,234.0625 468,234.7188 L468,236.2813 Q468,236.9375 467.7188,237.2188 Q467.4375,237.5 467,237.5 Q466.6094,237.5 466.3594,237.3281 Q466.1094,237.1563 466,236.7031 Q465.9531,236.3906 465.7813,236.2188 Q465.4688,235.8906 464.9063,235.7031 Q464.3438,235.5 463.7813,235.5 Q463.0781,235.5 462.4844,235.7813 Q461.9063,236.0625 461.4531,236.6875 Q461,237.3125 461,238.1719 L461,239.0938 Q461,240.125 461.8438,240.8125 Q462.6875,241.5 464.1875,241.5 Q465.0781,241.5 465.7031,241.2969 Q466.0625,241.1875 466.4688,240.8281 Q466.7344,240.625 466.875,240.5625 Q467.0156,240.5 467.1875,240.5 Q467.5156,240.5 467.75,240.7656 Q468,241.0156 468,241.375 Q468,241.7188 467.6563,242.125 Q467.1563,242.7188 466.3594,243.0469 Q465.3125,243.5 464.0313,243.5 Q462.5313,243.5 461.3281,242.9063 Q460.3594,242.4375 459.6719,241.4219 Q459,240.4063 459,239.2031 L459,238.1094 Q459,236.8594 459.5938,235.7656 Q460.2031,234.6719 461.25,234.0938 Q462.3125,233.5 463.5,233.5 Q464.2188,233.5 464.8438,233.75 Q465.4688,234 466,234.5 Z " fill="#000000"/><text fill="#000000" font-family="sans-serif" font-size="12" lengthAdjust="spacing" textLength="136" x="478" y="242.9102">MakeSummaryController</text><line style="stroke:#A80036;stroke-width:1.5;" x1="450" x2="616" y1="254" y2="254"/><line style="stroke:#A80036;stroke-width:1.5;" x1="450" x2="616" y1="262" y2="262"/><text fill="#000000" font-family="sans-serif" font-size="11" lengthAdjust="spacing" textLength="129" x="455" y="277.4189">+makeSummary(shipCode)</text><text fill="#000000" font-family="sans-serif" font-size="11" lengthAdjust="spacing" textLength="79" x="455" y="291.2549">+print(summary)</text><!--MD5=[92c62f67b5c9bbc7da2bc408f98c5b51]
class MessagesOrganizedController--><rect codeLine="64" fill="#FEFECE" filter="url(#fie22eqa8fb3y)" height="75.6719" id="MessagesOrganizedController" style="stroke:#A80036;stroke-width:1.5;" width="386" x="1243" y="222"/><ellipse cx="1347.75" cy="238" fill="#ADD1B2" rx="11" ry="11" style="stroke:#A80036;stroke-width:1.0;"/><path d="M1349.75,234.5 Q1349.9531,234 1350.1875,233.75 Q1350.4219,233.5 1350.6875,233.5 Q1351.1563,233.5 1351.4531,233.7813 Q1351.75,234.0625 1351.75,234.7188 L1351.75,236.2813 Q1351.75,236.9375 1351.4688,237.2188 Q1351.1875,237.5 1350.75,237.5 Q1350.3594,237.5 1350.1094,237.3281 Q1349.8594,237.1563 1349.75,236.7031 Q1349.7031,236.3906 1349.5313,236.2188 Q1349.2188,235.8906 1348.6563,235.7031 Q1348.0938,235.5 1347.5313,235.5 Q1346.8281,235.5 1346.2344,235.7813 Q1345.6563,236.0625 1345.2031,236.6875 Q1344.75,237.3125 1344.75,238.1719 L1344.75,239.0938 Q1344.75,240.125 1345.5938,240.8125 Q1346.4375,241.5 1347.9375,241.5 Q1348.8281,241.5 1349.4531,241.2969 Q1349.8125,241.1875 1350.2188,240.8281 Q1350.4844,240.625 1350.625,240.5625 Q1350.7656,240.5 1350.9375,240.5 Q1351.2656,240.5 1351.5,240.7656 Q1351.75,241.0156 1351.75,241.375 Q1351.75,241.7188 1351.4063,242.125 Q1350.9063,242.7188 1350.1094,243.0469 Q1349.0625,243.5 1347.7813,243.5 Q1346.2813,243.5 1345.0781,242.9063 Q1344.1094,242.4375 1343.4219,241.4219 Q1342.75,240.4063 1342.75,239.2031 L1342.75,238.1094 Q1342.75,236.8594 1343.3438,235.7656 Q1343.9531,234.6719 1345,234.0938 Q1346.0625,233.5 1347.25,233.5 Q1347.9688,233.5 1348.5938,233.75 Q1349.2188,234 1349.75,234.5 Z " fill="#000000"/><text fill="#000000" font-family="sans-serif" font-size="12" lengthAdjust="spacing" textLength="168" x="1368.25" y="242.9102">MessagesOrganizedController</text><line style="stroke:#A80036;stroke-width:1.5;" x1="1244" x2="1628" y1="254" y2="254"/><line style="stroke:#A80036;stroke-width:1.5;" x1="1244" x2="1628" y1="262" y2="262"/><text fill="#000000" font-family="sans-serif" font-size="11" lengthAdjust="spacing" textLength="286" x="1249" y="277.4189">+List&lt;ShipPositionDTO&gt; getMessagesOrganized(Date date)</text><text fill="#000000" font-family="sans-serif" font-size="11" lengthAdjust="spacing" textLength="374" x="1249" y="291.2549">+List&lt;ShipPositionDTO&gt; getMessagesOrganized(Date firstdate, Date lastdate)</text><!--MD5=[e6f2cb470f06694f6a02b571e2ffcbb5]
class SearchShipController--><rect codeLine="58" fill="#FEFECE" filter="url(#fie22eqa8fb3y)" height="89.5078" id="SearchShipController" style="stroke:#A80036;stroke-width:1.5;" width="150" x="1664" y="215"/><ellipse cx="1679" cy="231" fill="#ADD1B2" rx="11" ry="11" style="stroke:#A80036;stroke-width:1.0;"/><path d="M1681,227.5 Q1681.2031,227 1681.4375,226.75 Q1681.6719,226.5 1681.9375,226.5 Q1682.4063,226.5 1682.7031,226.7813 Q1683,227.0625 1683,227.7188 L1683,229.2813 Q1683,229.9375 1682.7188,230.2188 Q1682.4375,230.5 1682,230.5 Q1681.6094,230.5 1681.3594,230.3281 Q1681.1094,230.1563 1681,229.7031 Q1680.9531,229.3906 1680.7813,229.2188 Q1680.4688,228.8906 1679.9063,228.7031 Q1679.3438,228.5 1678.7813,228.5 Q1678.0781,228.5 1677.4844,228.7813 Q1676.9063,229.0625 1676.4531,229.6875 Q1676,230.3125 1676,231.1719 L1676,232.0938 Q1676,233.125 1676.8438,233.8125 Q1677.6875,234.5 1679.1875,234.5 Q1680.0781,234.5 1680.7031,234.2969 Q1681.0625,234.1875 1681.4688,233.8281 Q1681.7344,233.625 1681.875,233.5625 Q1682.0156,233.5 1682.1875,233.5 Q1682.5156,233.5 1682.75,233.7656 Q1683,234.0156 1683,234.375 Q1683,234.7188 1682.6563,235.125 Q1682.1563,235.7188 1681.3594,236.0469 Q1680.3125,236.5 1679.0313,236.5 Q1677.5313,236.5 1676.3281,235.9063 Q1675.3594,235.4375 1674.6719,234.4219 Q1674,233.4063 1674,232.2031 L1674,231.1094 Q1674,229.8594 1674.5938,228.7656 Q1675.2031,227.6719 1676.25,227.0938 Q1677.3125,226.5 1678.5,226.5 Q1679.2188,226.5 1679.8438,226.75 Q1680.4688,227 1681,227.5 Z " fill="#000000"/><text fill="#000000" font-family="sans-serif" font-size="12" lengthAdjust="spacing" textLength="118" x="1693" y="235.9102">SearchShipController</text><line style="stroke:#A80036;stroke-width:1.5;" x1="1665" x2="1813" y1="247" y2="247"/><line style="stroke:#A80036;stroke-width:1.5;" x1="1665" x2="1813" y1="255" y2="255"/><text fill="#000000" font-family="sans-serif" font-size="11" lengthAdjust="spacing" textLength="112" x="1670" y="270.4189">+getShipByMMSI(mmsi)</text><text fill="#000000" font-family="sans-serif" font-size="11" lengthAdjust="spacing" textLength="97" x="1670" y="284.2549">+getShipByIMO(imo)</text><text fill="#000000" font-family="sans-serif" font-size="11" lengthAdjust="spacing" textLength="138" x="1670" y="298.0908">+getShipByCallSign(callSign)</text><!--MD5=[64acad508103d2336b60b181cc8df787]
class ImportFileController--><rect codeLine="113" fill="#FEFECE" filter="url(#fie22eqa8fb3y)" height="61.8359" id="ImportFileController" style="stroke:#A80036;stroke-width:1.5;" width="141" x="1849.5" y="229"/><ellipse cx="1864.5" cy="245" fill="#ADD1B2" rx="11" ry="11" style="stroke:#A80036;stroke-width:1.0;"/><path d="M1866.5,241.5 Q1866.7031,241 1866.9375,240.75 Q1867.1719,240.5 1867.4375,240.5 Q1867.9063,240.5 1868.2031,240.7813 Q1868.5,241.0625 1868.5,241.7188 L1868.5,243.2813 Q1868.5,243.9375 1868.2188,244.2188 Q1867.9375,244.5 1867.5,244.5 Q1867.1094,244.5 1866.8594,244.3281 Q1866.6094,244.1563 1866.5,243.7031 Q1866.4531,243.3906 1866.2813,243.2188 Q1865.9688,242.8906 1865.4063,242.7031 Q1864.8438,242.5 1864.2813,242.5 Q1863.5781,242.5 1862.9844,242.7813 Q1862.4063,243.0625 1861.9531,243.6875 Q1861.5,244.3125 1861.5,245.1719 L1861.5,246.0938 Q1861.5,247.125 1862.3438,247.8125 Q1863.1875,248.5 1864.6875,248.5 Q1865.5781,248.5 1866.2031,248.2969 Q1866.5625,248.1875 1866.9688,247.8281 Q1867.2344,247.625 1867.375,247.5625 Q1867.5156,247.5 1867.6875,247.5 Q1868.0156,247.5 1868.25,247.7656 Q1868.5,248.0156 1868.5,248.375 Q1868.5,248.7188 1868.1563,249.125 Q1867.6563,249.7188 1866.8594,250.0469 Q1865.8125,250.5 1864.5313,250.5 Q1863.0313,250.5 1861.8281,249.9063 Q1860.8594,249.4375 1860.1719,248.4219 Q1859.5,247.4063 1859.5,246.2031 L1859.5,245.1094 Q1859.5,243.8594 1860.0938,242.7656 Q1860.7031,241.6719 1861.75,241.0938 Q1862.8125,240.5 1864,240.5 Q1864.7188,240.5 1865.3438,240.75 Q1865.9688,241 1866.5,241.5 Z " fill="#000000"/><text fill="#000000" font-family="sans-serif" font-size="12" lengthAdjust="spacing" textLength="109" x="1878.5" y="249.9102">ImportFileController</text><line style="stroke:#A80036;stroke-width:1.5;" x1="1850.5" x2="1989.5" y1="261" y2="261"/><line style="stroke:#A80036;stroke-width:1.5;" x1="1850.5" x2="1989.5" y1="269" y2="269"/><text fill="#000000" font-family="sans-serif" font-size="11" lengthAdjust="spacing" textLength="50" x="1855.5" y="284.4189">+read(file)</text><!--MD5=[0c7a43bbd4818da714ef8cd7bc4c0ae6]
class ShipPairController--><rect codeLine="10" fill="#FEFECE" filter="url(#fie22eqa8fb3y)" height="61.8359" id="ShipPairController" style="stroke:#A80036;stroke-width:1.5;" width="133" x="32.5" y="229"/><ellipse cx="47.5" cy="245" fill="#ADD1B2" rx="11" ry="11" style="stroke:#A80036;stroke-width:1.0;"/><path d="M49.5,241.5 Q49.7031,241 49.9375,240.75 Q50.1719,240.5 50.4375,240.5 Q50.9063,240.5 51.2031,240.7813 Q51.5,241.0625 51.5,241.7188 L51.5,243.2813 Q51.5,243.9375 51.2188,244.2188 Q50.9375,244.5 50.5,244.5 Q50.1094,244.5 49.8594,244.3281 Q49.6094,244.1563 49.5,243.7031 Q49.4531,243.3906 49.2813,243.2188 Q48.9688,242.8906 48.4063,242.7031 Q47.8438,242.5 47.2813,242.5 Q46.5781,242.5 45.9844,242.7813 Q45.4063,243.0625 44.9531,243.6875 Q44.5,244.3125 44.5,245.1719 L44.5,246.0938 Q44.5,247.125 45.3438,247.8125 Q46.1875,248.5 47.6875,248.5 Q48.5781,248.5 49.2031,248.2969 Q49.5625,248.1875 49.9688,247.8281 Q50.2344,247.625 50.375,247.5625 Q50.5156,247.5 50.6875,247.5 Q51.0156,247.5 51.25,247.7656 Q51.5,248.0156 51.5,248.375 Q51.5,248.7188 51.1563,249.125 Q50.6563,249.7188 49.8594,250.0469 Q48.8125,250.5 47.5313,250.5 Q46.0313,250.5 44.8281,249.9063 Q43.8594,249.4375 43.1719,248.4219 Q42.5,247.4063 42.5,246.2031 L42.5,245.1094 Q42.5,243.8594 43.0938,242.7656 Q43.7031,241.6719 44.75,241.0938 Q45.8125,240.5 47,240.5 Q47.7188,240.5 48.3438,240.75 Q48.9688,241 49.5,241.5 Z " fill="#000000"/><text fill="#000000" font-family="sans-serif" font-size="12" lengthAdjust="spacing" textLength="101" x="61.5" y="249.9102">ShipPairController</text><line style="stroke:#A80036;stroke-width:1.5;" x1="33.5" x2="164.5" y1="261" y2="261"/><line style="stroke:#A80036;stroke-width:1.5;" x1="33.5" x2="164.5" y1="269" y2="269"/><text fill="#000000" font-family="sans-serif" font-size="11" lengthAdjust="spacing" textLength="71" x="38.5" y="284.4189">+PairOfShips()</text><!--MD5=[88a7a7a0b20a474e57086c6090edc453]
class ListAllShipsInformationUI--><rect codeLine="16" fill="#FEFECE" filter="url(#fie22eqa8fb3y)" height="48" id="ListAllShipsInformationUI" style="stroke:#A80036;stroke-width:1.5;" width="171" x="452.5" y="62"/><ellipse cx="467.5" cy="78" fill="#ADD1B2" rx="11" ry="11" style="stroke:#A80036;stroke-width:1.0;"/><path d="M469.5,74.5 Q469.7031,74 469.9375,73.75 Q470.1719,73.5 470.4375,73.5 Q470.9063,73.5 471.2031,73.7813 Q471.5,74.0625 471.5,74.7188 L471.5,76.2813 Q471.5,76.9375 471.2188,77.2188 Q470.9375,77.5 470.5,77.5 Q470.1094,77.5 469.8594,77.3281 Q469.6094,77.1563 469.5,76.7031 Q469.4531,76.3906 469.2813,76.2188 Q468.9688,75.8906 468.4063,75.7031 Q467.8438,75.5 467.2813,75.5 Q466.5781,75.5 465.9844,75.7813 Q465.4063,76.0625 464.9531,76.6875 Q464.5,77.3125 464.5,78.1719 L464.5,79.0938 Q464.5,80.125 465.3438,80.8125 Q466.1875,81.5 467.6875,81.5 Q468.5781,81.5 469.2031,81.2969 Q469.5625,81.1875 469.9688,80.8281 Q470.2344,80.625 470.375,80.5625 Q470.5156,80.5 470.6875,80.5 Q471.0156,80.5 471.25,80.7656 Q471.5,81.0156 471.5,81.375 Q471.5,81.7188 471.1563,82.125 Q470.6563,82.7188 469.8594,83.0469 Q468.8125,83.5 467.5313,83.5 Q466.0313,83.5 464.8281,82.9063 Q463.8594,82.4375 463.1719,81.4219 Q462.5,80.4063 462.5,79.2031 L462.5,78.1094 Q462.5,76.8594 463.0938,75.7656 Q463.7031,74.6719 464.75,74.0938 Q465.8125,73.5 467,73.5 Q467.7188,73.5 468.3438,73.75 Q468.9688,74 469.5,74.5 Z " fill="#000000"/><text fill="#000000" font-family="sans-serif" font-size="12" lengthAdjust="spacing" textLength="139" x="481.5" y="82.9102">ListAllShipsInformationUI</text><line style="stroke:#A80036;stroke-width:1.5;" x1="453.5" x2="622.5" y1="94" y2="94"/><line style="stroke:#A80036;stroke-width:1.5;" x1="453.5" x2="622.5" y1="102" y2="102"/><!--MD5=[93caa37d6ecc9854e04232f2f5542dc9]
class TopShipsWithTravelledDistanceUI--><rect codeLine="17" fill="#FEFECE" filter="url(#fie22eqa8fb3y)" height="48" id="TopShipsWithTravelledDistanceUI" style="stroke:#A80036;stroke-width:1.5;" width="220" x="820" y="62"/><ellipse cx="835" cy="78" fill="#ADD1B2" rx="11" ry="11" style="stroke:#A80036;stroke-width:1.0;"/><path d="M837,74.5 Q837.2031,74 837.4375,73.75 Q837.6719,73.5 837.9375,73.5 Q838.4063,73.5 838.7031,73.7813 Q839,74.0625 839,74.7188 L839,76.2813 Q839,76.9375 838.7188,77.2188 Q838.4375,77.5 838,77.5 Q837.6094,77.5 837.3594,77.3281 Q837.1094,77.1563 837,76.7031 Q836.9531,76.3906 836.7813,76.2188 Q836.4688,75.8906 835.9063,75.7031 Q835.3438,75.5 834.7813,75.5 Q834.0781,75.5 833.4844,75.7813 Q832.9063,76.0625 832.4531,76.6875 Q832,77.3125 832,78.1719 L832,79.0938 Q832,80.125 832.8438,80.8125 Q833.6875,81.5 835.1875,81.5 Q836.0781,81.5 836.7031,81.2969 Q837.0625,81.1875 837.4688,80.8281 Q837.7344,80.625 837.875,80.5625 Q838.0156,80.5 838.1875,80.5 Q838.5156,80.5 838.75,80.7656 Q839,81.0156 839,81.375 Q839,81.7188 838.6563,82.125 Q838.1563,82.7188 837.3594,83.0469 Q836.3125,83.5 835.0313,83.5 Q833.5313,83.5 832.3281,82.9063 Q831.3594,82.4375 830.6719,81.4219 Q830,80.4063 830,79.2031 L830,78.1094 Q830,76.8594 830.5938,75.7656 Q831.2031,74.6719 832.25,74.0938 Q833.3125,73.5 834.5,73.5 Q835.2188,73.5 835.8438,73.75 Q836.4688,74 837,74.5 Z " fill="#000000"/><text fill="#000000" font-family="sans-serif" font-size="12" lengthAdjust="spacing" textLength="188" x="849" y="82.9102">TopShipsWithTravelledDistanceUI</text><line style="stroke:#A80036;stroke-width:1.5;" x1="821" x2="1039" y1="94" y2="94"/><line style="stroke:#A80036;stroke-width:1.5;" x1="821" x2="1039" y1="102" y2="102"/><!--MD5=[b89c714d37a0b04ddb37048027489080]
class MakeSummaryUI--><rect codeLine="18" fill="#FEFECE" filter="url(#fie22eqa8fb3y)" height="48" id="MakeSummaryUI" style="stroke:#A80036;stroke-width:1.5;" width="126" x="659" y="62"/><ellipse cx="674" cy="78" fill="#ADD1B2" rx="11" ry="11" style="stroke:#A80036;stroke-width:1.0;"/><path d="M676,74.5 Q676.2031,74 676.4375,73.75 Q676.6719,73.5 676.9375,73.5 Q677.4063,73.5 677.7031,73.7813 Q678,74.0625 678,74.7188 L678,76.2813 Q678,76.9375 677.7188,77.2188 Q677.4375,77.5 677,77.5 Q676.6094,77.5 676.3594,77.3281 Q676.1094,77.1563 676,76.7031 Q675.9531,76.3906 675.7813,76.2188 Q675.4688,75.8906 674.9063,75.7031 Q674.3438,75.5 673.7813,75.5 Q673.0781,75.5 672.4844,75.7813 Q671.9063,76.0625 671.4531,76.6875 Q671,77.3125 671,78.1719 L671,79.0938 Q671,80.125 671.8438,80.8125 Q672.6875,81.5 674.1875,81.5 Q675.0781,81.5 675.7031,81.2969 Q676.0625,81.1875 676.4688,80.8281 Q676.7344,80.625 676.875,80.5625 Q677.0156,80.5 677.1875,80.5 Q677.5156,80.5 677.75,80.7656 Q678,81.0156 678,81.375 Q678,81.7188 677.6563,82.125 Q677.1563,82.7188 676.3594,83.0469 Q675.3125,83.5 674.0313,83.5 Q672.5313,83.5 671.3281,82.9063 Q670.3594,82.4375 669.6719,81.4219 Q669,80.4063 669,79.2031 L669,78.1094 Q669,76.8594 669.5938,75.7656 Q670.2031,74.6719 671.25,74.0938 Q672.3125,73.5 673.5,73.5 Q674.2188,73.5 674.8438,73.75 Q675.4688,74 676,74.5 Z " fill="#000000"/><text fill="#000000" font-family="sans-serif" font-size="12" lengthAdjust="spacing" textLength="94" x="688" y="82.9102">MakeSummaryUI</text><line style="stroke:#A80036;stroke-width:1.5;" x1="660" x2="784" y1="94" y2="94"/><line style="stroke:#A80036;stroke-width:1.5;" x1="660" x2="784" y1="102" y2="102"/><!--MD5=[4d5f1b477f09e90c911a8a9e712c8221]
class MessagesOrganizedUI--><rect codeLine="19" fill="#FEFECE" filter="url(#fie22eqa8fb3y)" height="48" id="MessagesOrganizedUI" style="stroke:#A80036;stroke-width:1.5;" width="158" x="1075" y="62"/><ellipse cx="1090" cy="78" fill="#ADD1B2" rx="11" ry="11" style="stroke:#A80036;stroke-width:1.0;"/><path d="M1092,74.5 Q1092.2031,74 1092.4375,73.75 Q1092.6719,73.5 1092.9375,73.5 Q1093.4063,73.5 1093.7031,73.7813 Q1094,74.0625 1094,74.7188 L1094,76.2813 Q1094,76.9375 1093.7188,77.2188 Q1093.4375,77.5 1093,77.5 Q1092.6094,77.5 1092.3594,77.3281 Q1092.1094,77.1563 1092,76.7031 Q1091.9531,76.3906 1091.7813,76.2188 Q1091.4688,75.8906 1090.9063,75.7031 Q1090.3438,75.5 1089.7813,75.5 Q1089.0781,75.5 1088.4844,75.7813 Q1087.9063,76.0625 1087.4531,76.6875 Q1087,77.3125 1087,78.1719 L1087,79.0938 Q1087,80.125 1087.8438,80.8125 Q1088.6875,81.5 1090.1875,81.5 Q1091.0781,81.5 1091.7031,81.2969 Q1092.0625,81.1875 1092.4688,80.8281 Q1092.7344,80.625 1092.875,80.5625 Q1093.0156,80.5 1093.1875,80.5 Q1093.5156,80.5 1093.75,80.7656 Q1094,81.0156 1094,81.375 Q1094,81.7188 1093.6563,82.125 Q1093.1563,82.7188 1092.3594,83.0469 Q1091.3125,83.5 1090.0313,83.5 Q1088.5313,83.5 1087.3281,82.9063 Q1086.3594,82.4375 1085.6719,81.4219 Q1085,80.4063 1085,79.2031 L1085,78.1094 Q1085,76.8594 1085.5938,75.7656 Q1086.2031,74.6719 1087.25,74.0938 Q1088.3125,73.5 1089.5,73.5 Q1090.2188,73.5 1090.8438,73.75 Q1091.4688,74 1092,74.5 Z " fill="#000000"/><text fill="#000000" font-family="sans-serif" font-size="12" lengthAdjust="spacing" textLength="126" x="1104" y="82.9102">MessagesOrganizedUI</text><line style="stroke:#A80036;stroke-width:1.5;" x1="1076" x2="1232" y1="94" y2="94"/><line style="stroke:#A80036;stroke-width:1.5;" x1="1076" x2="1232" y1="102" y2="102"/><!--MD5=[23775766d9d9cbd7e35e8d659c509336]
class SearchShipUI--><rect codeLine="20" fill="#FEFECE" filter="url(#fie22eqa8fb3y)" height="48" id="SearchShipUI" style="stroke:#A80036;stroke-width:1.5;" width="108" x="1268" y="62"/><ellipse cx="1283" cy="78" fill="#ADD1B2" rx="11" ry="11" style="stroke:#A80036;stroke-width:1.0;"/><path d="M1285,74.5 Q1285.2031,74 1285.4375,73.75 Q1285.6719,73.5 1285.9375,73.5 Q1286.4063,73.5 1286.7031,73.7813 Q1287,74.0625 1287,74.7188 L1287,76.2813 Q1287,76.9375 1286.7188,77.2188 Q1286.4375,77.5 1286,77.5 Q1285.6094,77.5 1285.3594,77.3281 Q1285.1094,77.1563 1285,76.7031 Q1284.9531,76.3906 1284.7813,76.2188 Q1284.4688,75.8906 1283.9063,75.7031 Q1283.3438,75.5 1282.7813,75.5 Q1282.0781,75.5 1281.4844,75.7813 Q1280.9063,76.0625 1280.4531,76.6875 Q1280,77.3125 1280,78.1719 L1280,79.0938 Q1280,80.125 1280.8438,80.8125 Q1281.6875,81.5 1283.1875,81.5 Q1284.0781,81.5 1284.7031,81.2969 Q1285.0625,81.1875 1285.4688,80.8281 Q1285.7344,80.625 1285.875,80.5625 Q1286.0156,80.5 1286.1875,80.5 Q1286.5156,80.5 1286.75,80.7656 Q1287,81.0156 1287,81.375 Q1287,81.7188 1286.6563,82.125 Q1286.1563,82.7188 1285.3594,83.0469 Q1284.3125,83.5 1283.0313,83.5 Q1281.5313,83.5 1280.3281,82.9063 Q1279.3594,82.4375 1278.6719,81.4219 Q1278,80.4063 1278,79.2031 L1278,78.1094 Q1278,76.8594 1278.5938,75.7656 Q1279.2031,74.6719 1280.25,74.0938 Q1281.3125,73.5 1282.5,73.5 Q1283.2188,73.5 1283.8438,73.75 Q1284.4688,74 1285,74.5 Z " fill="#000000"/><text fill="#000000" font-family="sans-serif" font-size="12" lengthAdjust="spacing" textLength="76" x="1297" y="82.9102">SearchShipUI</text><line style="stroke:#A80036;stroke-width:1.5;" x1="1269" x2="1375" y1="94" y2="94"/><line style="stroke:#A80036;stroke-width:1.5;" x1="1269" x2="1375" y1="102" y2="102"/><!--MD5=[de44700826a9dcf1e2e08b202517a80a]
class ImportFileUI--><rect codeLine="21" fill="#FEFECE" filter="url(#fie22eqa8fb3y)" height="48" id="ImportFileUI" style="stroke:#A80036;stroke-width:1.5;" width="99" x="1411.5" y="62"/><ellipse cx="1426.5" cy="78" fill="#ADD1B2" rx="11" ry="11" style="stroke:#A80036;stroke-width:1.0;"/><path d="M1428.5,74.5 Q1428.7031,74 1428.9375,73.75 Q1429.1719,73.5 1429.4375,73.5 Q1429.9063,73.5 1430.2031,73.7813 Q1430.5,74.0625 1430.5,74.7188 L1430.5,76.2813 Q1430.5,76.9375 1430.2188,77.2188 Q1429.9375,77.5 1429.5,77.5 Q1429.1094,77.5 1428.8594,77.3281 Q1428.6094,77.1563 1428.5,76.7031 Q1428.4531,76.3906 1428.2813,76.2188 Q1427.9688,75.8906 1427.4063,75.7031 Q1426.8438,75.5 1426.2813,75.5 Q1425.5781,75.5 1424.9844,75.7813 Q1424.4063,76.0625 1423.9531,76.6875 Q1423.5,77.3125 1423.5,78.1719 L1423.5,79.0938 Q1423.5,80.125 1424.3438,80.8125 Q1425.1875,81.5 1426.6875,81.5 Q1427.5781,81.5 1428.2031,81.2969 Q1428.5625,81.1875 1428.9688,80.8281 Q1429.2344,80.625 1429.375,80.5625 Q1429.5156,80.5 1429.6875,80.5 Q1430.0156,80.5 1430.25,80.7656 Q1430.5,81.0156 1430.5,81.375 Q1430.5,81.7188 1430.1563,82.125 Q1429.6563,82.7188 1428.8594,83.0469 Q1427.8125,83.5 1426.5313,83.5 Q1425.0313,83.5 1423.8281,82.9063 Q1422.8594,82.4375 1422.1719,81.4219 Q1421.5,80.4063 1421.5,79.2031 L1421.5,78.1094 Q1421.5,76.8594 1422.0938,75.7656 Q1422.7031,74.6719 1423.75,74.0938 Q1424.8125,73.5 1426,73.5 Q1426.7188,73.5 1427.3438,73.75 Q1427.9688,74 1428.5,74.5 Z " fill="#000000"/><text fill="#000000" font-family="sans-serif" font-size="12" lengthAdjust="spacing" textLength="67" x="1440.5" y="82.9102">ImportFileUI</text><line style="stroke:#A80036;stroke-width:1.5;" x1="1412.5" x2="1509.5" y1="94" y2="94"/><line style="stroke:#A80036;stroke-width:1.5;" x1="1412.5" x2="1509.5" y1="102" y2="102"/><!--MD5=[1c09eb11bb2c7261ff171156ef27412c]
class ShipPairUI--><rect codeLine="22" fill="#FEFECE" filter="url(#fie22eqa8fb3y)" height="48" id="ShipPairUI" style="stroke:#A80036;stroke-width:1.5;" width="91" x="326.5" y="62"/><ellipse cx="341.5" cy="78" fill="#ADD1B2" rx="11" ry="11" style="stroke:#A80036;stroke-width:1.0;"/><path d="M343.5,74.5 Q343.7031,74 343.9375,73.75 Q344.1719,73.5 344.4375,73.5 Q344.9063,73.5 345.2031,73.7813 Q345.5,74.0625 345.5,74.7188 L345.5,76.2813 Q345.5,76.9375 345.2188,77.2188 Q344.9375,77.5 344.5,77.5 Q344.1094,77.5 343.8594,77.3281 Q343.6094,77.1563 343.5,76.7031 Q343.4531,76.3906 343.2813,76.2188 Q342.9688,75.8906 342.4063,75.7031 Q341.8438,75.5 341.2813,75.5 Q340.5781,75.5 339.9844,75.7813 Q339.4063,76.0625 338.9531,76.6875 Q338.5,77.3125 338.5,78.1719 L338.5,79.0938 Q338.5,80.125 339.3438,80.8125 Q340.1875,81.5 341.6875,81.5 Q342.5781,81.5 343.2031,81.2969 Q343.5625,81.1875 343.9688,80.8281 Q344.2344,80.625 344.375,80.5625 Q344.5156,80.5 344.6875,80.5 Q345.0156,80.5 345.25,80.7656 Q345.5,81.0156 345.5,81.375 Q345.5,81.7188 345.1563,82.125 Q344.6563,82.7188 343.8594,83.0469 Q342.8125,83.5 341.5313,83.5 Q340.0313,83.5 338.8281,82.9063 Q337.8594,82.4375 337.1719,81.4219 Q336.5,80.4063 336.5,79.2031 L336.5,78.1094 Q336.5,76.8594 337.0938,75.7656 Q337.7031,74.6719 338.75,74.0938 Q339.8125,73.5 341,73.5 Q341.7188,73.5 342.3438,73.75 Q342.9688,74 343.5,74.5 Z " fill="#000000"/><text fill="#000000" font-family="sans-serif" font-size="12" lengthAdjust="spacing" textLength="59" x="355.5" y="82.9102">ShipPairUI</text><line style="stroke:#A80036;stroke-width:1.5;" x1="327.5" x2="416.5" y1="94" y2="94"/><line style="stroke:#A80036;stroke-width:1.5;" x1="327.5" x2="416.5" y1="102" y2="102"/><!--MD5=[0dc7f2ddb409b58bcf52b12238c25399]
class Ship--><rect codeLine="117" fill="#FEFECE" filter="url(#fie22eqa8fb3y)" height="200.1953" id="Ship" style="stroke:#A80036;stroke-width:1.5;" width="102" x="1636" y="686.5"/><ellipse cx="1671.25" cy="702.5" fill="#ADD1B2" rx="11" ry="11" style="stroke:#A80036;stroke-width:1.0;"/><path d="M1673.25,699 Q1673.4531,698.5 1673.6875,698.25 Q1673.9219,698 1674.1875,698 Q1674.6563,698 1674.9531,698.2813 Q1675.25,698.5625 1675.25,699.2188 L1675.25,700.7813 Q1675.25,701.4375 1674.9688,701.7188 Q1674.6875,702 1674.25,702 Q1673.8594,702 1673.6094,701.8281 Q1673.3594,701.6563 1673.25,701.2031 Q1673.2031,700.8906 1673.0313,700.7188 Q1672.7188,700.3906 1672.1563,700.2031 Q1671.5938,700 1671.0313,700 Q1670.3281,700 1669.7344,700.2813 Q1669.1563,700.5625 1668.7031,701.1875 Q1668.25,701.8125 1668.25,702.6719 L1668.25,703.5938 Q1668.25,704.625 1669.0938,705.3125 Q1669.9375,706 1671.4375,706 Q1672.3281,706 1672.9531,705.7969 Q1673.3125,705.6875 1673.7188,705.3281 Q1673.9844,705.125 1674.125,705.0625 Q1674.2656,705 1674.4375,705 Q1674.7656,705 1675,705.2656 Q1675.25,705.5156 1675.25,705.875 Q1675.25,706.2188 1674.9063,706.625 Q1674.4063,707.2188 1673.6094,707.5469 Q1672.5625,708 1671.2813,708 Q1669.7813,708 1668.5781,707.4063 Q1667.6094,706.9375 1666.9219,705.9219 Q1666.25,704.9063 1666.25,703.7031 L1666.25,702.6094 Q1666.25,701.3594 1666.8438,700.2656 Q1667.4531,699.1719 1668.5,698.5938 Q1669.5625,698 1670.75,698 Q1671.4688,698 1672.0938,698.25 Q1672.7188,698.5 1673.25,699 Z " fill="#000000"/><text fill="#000000" font-family="sans-serif" font-size="12" lengthAdjust="spacing" textLength="25" x="1689.75" y="707.4102">Ship</text><line style="stroke:#A80036;stroke-width:1.5;" x1="1637" x2="1737" y1="718.5" y2="718.5"/><text fill="#000000" font-family="sans-serif" font-size="11" lengthAdjust="spacing" textLength="29" x="1642" y="733.9189">-MMSI</text><text fill="#000000" font-family="sans-serif" font-size="11" lengthAdjust="spacing" textLength="30" x="1642" y="747.7549">-name</text><text fill="#000000" font-family="sans-serif" font-size="11" lengthAdjust="spacing" textLength="22" x="1642" y="761.5908">-IMO</text><text fill="#000000" font-family="sans-serif" font-size="11" lengthAdjust="spacing" textLength="40" x="1642" y="775.4268">-callsign</text><text fill="#000000" font-family="sans-serif" font-size="11" lengthAdjust="spacing" textLength="25" x="1642" y="789.2627">-type</text><text fill="#000000" font-family="sans-serif" font-size="11" lengthAdjust="spacing" textLength="33" x="1642" y="803.0986">-length</text><text fill="#000000" font-family="sans-serif" font-size="11" lengthAdjust="spacing" textLength="31" x="1642" y="816.9346">-width</text><text fill="#000000" font-family="sans-serif" font-size="11" lengthAdjust="spacing" textLength="27" x="1642" y="830.7705">-draft</text><line style="stroke:#A80036;stroke-width:1.5;" x1="1637" x2="1737" y1="837.1875" y2="837.1875"/><text fill="#000000" font-family="sans-serif" font-size="11" lengthAdjust="spacing" textLength="54" x="1642" y="852.6064">+getMMSI()</text><text fill="#000000" font-family="sans-serif" font-size="11" lengthAdjust="spacing" textLength="42" x="1642" y="866.4424">+getSp()</text><text fill="#000000" font-family="sans-serif" font-size="11" lengthAdjust="spacing" textLength="90" x="1642" y="880.2783">+getVesselName()</text><!--MD5=[02e4b9b7573f1156f41e60aa5b4e25a4]
class Company--><rect codeLine="142" fill="#FEFECE" filter="url(#fie22eqa8fb3y)" height="61.8359" id="Company" style="stroke:#A80036;stroke-width:1.5;" width="88" x="1376" y="755.5"/><ellipse cx="1392.35" cy="771.5" fill="#ADD1B2" rx="11" ry="11" style="stroke:#A80036;stroke-width:1.0;"/><path d="M1394.35,768 Q1394.5531,767.5 1394.7875,767.25 Q1395.0219,767 1395.2875,767 Q1395.7563,767 1396.0531,767.2813 Q1396.35,767.5625 1396.35,768.2188 L1396.35,769.7813 Q1396.35,770.4375 1396.0688,770.7188 Q1395.7875,771 1395.35,771 Q1394.9594,771 1394.7094,770.8281 Q1394.4594,770.6563 1394.35,770.2031 Q1394.3031,769.8906 1394.1313,769.7188 Q1393.8188,769.3906 1393.2563,769.2031 Q1392.6938,769 1392.1313,769 Q1391.4281,769 1390.8344,769.2813 Q1390.2563,769.5625 1389.8031,770.1875 Q1389.35,770.8125 1389.35,771.6719 L1389.35,772.5938 Q1389.35,773.625 1390.1938,774.3125 Q1391.0375,775 1392.5375,775 Q1393.4281,775 1394.0531,774.7969 Q1394.4125,774.6875 1394.8188,774.3281 Q1395.0844,774.125 1395.225,774.0625 Q1395.3656,774 1395.5375,774 Q1395.8656,774 1396.1,774.2656 Q1396.35,774.5156 1396.35,774.875 Q1396.35,775.2188 1396.0063,775.625 Q1395.5063,776.2188 1394.7094,776.5469 Q1393.6625,777 1392.3813,777 Q1390.8813,777 1389.6781,776.4063 Q1388.7094,775.9375 1388.0219,774.9219 Q1387.35,773.9063 1387.35,772.7031 L1387.35,771.6094 Q1387.35,770.3594 1387.9438,769.2656 Q1388.5531,768.1719 1389.6,767.5938 Q1390.6625,767 1391.85,767 Q1392.5688,767 1393.1938,767.25 Q1393.8188,767.5 1394.35,768 Z " fill="#000000"/><text fill="#000000" font-family="sans-serif" font-size="12" lengthAdjust="spacing" textLength="53" x="1406.65" y="776.4102">Company</text><line style="stroke:#A80036;stroke-width:1.5;" x1="1377" x2="1463" y1="787.5" y2="787.5"/><line style="stroke:#A80036;stroke-width:1.5;" x1="1377" x2="1463" y1="795.5" y2="795.5"/><text fill="#000000" font-family="sans-serif" font-size="11" lengthAdjust="spacing" textLength="76" x="1382" y="810.9189">+getShipStore()</text><!--MD5=[1c0c3765e68dc4575d559b566278b914]
class ShipPosition--><rect codeLine="87" fill="#FEFECE" filter="url(#fie22eqa8fb3y)" height="200.1953" id="ShipPosition" style="stroke:#A80036;stroke-width:1.5;" width="102" x="1499" y="686.5"/><ellipse cx="1514" cy="702.5" fill="#ADD1B2" rx="11" ry="11" style="stroke:#A80036;stroke-width:1.0;"/><path d="M1516,699 Q1516.2031,698.5 1516.4375,698.25 Q1516.6719,698 1516.9375,698 Q1517.4063,698 1517.7031,698.2813 Q1518,698.5625 1518,699.2188 L1518,700.7813 Q1518,701.4375 1517.7188,701.7188 Q1517.4375,702 1517,702 Q1516.6094,702 1516.3594,701.8281 Q1516.1094,701.6563 1516,701.2031 Q1515.9531,700.8906 1515.7813,700.7188 Q1515.4688,700.3906 1514.9063,700.2031 Q1514.3438,700 1513.7813,700 Q1513.0781,700 1512.4844,700.2813 Q1511.9063,700.5625 1511.4531,701.1875 Q1511,701.8125 1511,702.6719 L1511,703.5938 Q1511,704.625 1511.8438,705.3125 Q1512.6875,706 1514.1875,706 Q1515.0781,706 1515.7031,705.7969 Q1516.0625,705.6875 1516.4688,705.3281 Q1516.7344,705.125 1516.875,705.0625 Q1517.0156,705 1517.1875,705 Q1517.5156,705 1517.75,705.2656 Q1518,705.5156 1518,705.875 Q1518,706.2188 1517.6563,706.625 Q1517.1563,707.2188 1516.3594,707.5469 Q1515.3125,708 1514.0313,708 Q1512.5313,708 1511.3281,707.4063 Q1510.3594,706.9375 1509.6719,705.9219 Q1509,704.9063 1509,703.7031 L1509,702.6094 Q1509,701.3594 1509.5938,700.2656 Q1510.2031,699.1719 1511.25,698.5938 Q1512.3125,698 1513.5,698 Q1514.2188,698 1514.8438,698.25 Q1515.4688,698.5 1516,699 Z " fill="#000000"/><text fill="#000000" font-family="sans-serif" font-size="12" lengthAdjust="spacing" textLength="70" x="1528" y="707.4102">ShipPosition</text><line style="stroke:#A80036;stroke-width:1.5;" x1="1500" x2="1600" y1="718.5" y2="718.5"/><text fill="#000000" font-family="sans-serif" font-size="11" lengthAdjust="spacing" textLength="29" x="1505" y="733.9189">-MMSI</text><text fill="#000000" font-family="sans-serif" font-size="11" lengthAdjust="spacing" textLength="25" x="1505" y="747.7549">-date</text><text fill="#000000" font-family="sans-serif" font-size="11" lengthAdjust="spacing" textLength="24" x="1505" y="761.5908">-LAT</text><text fill="#000000" font-family="sans-serif" font-size="11" lengthAdjust="spacing" textLength="25" x="1505" y="775.4268">-LON</text><text fill="#000000" font-family="sans-serif" font-size="11" lengthAdjust="spacing" textLength="27" x="1505" y="789.2627">-SOG</text><text fill="#000000" font-family="sans-serif" font-size="11" lengthAdjust="spacing" textLength="27" x="1505" y="803.0986">-COG</text><text fill="#000000" font-family="sans-serif" font-size="11" lengthAdjust="spacing" textLength="42" x="1505" y="816.9346">-heading</text><text fill="#000000" font-family="sans-serif" font-size="11" lengthAdjust="spacing" textLength="32" x="1505" y="830.7705">-cargo</text><text fill="#000000" font-family="sans-serif" font-size="11" lengthAdjust="spacing" textLength="59" x="1505" y="844.6064">-transciever</text><line style="stroke:#A80036;stroke-width:1.5;" x1="1500" x2="1600" y1="851.0234" y2="851.0234"/><text fill="#000000" font-family="sans-serif" font-size="11" lengthAdjust="spacing" textLength="67" x="1505" y="866.4424">+getLatitude()</text><text fill="#000000" font-family="sans-serif" font-size="11" lengthAdjust="spacing" textLength="76" x="1505" y="880.2783">+getLongitude()</text><!--MD5=[41f5b97920949c93f11fe0d940b2487b]
class Summary--><rect codeLine="178" fill="#FEFECE" filter="url(#fie22eqa8fb3y)" height="269.375" id="Summary" style="stroke:#A80036;stroke-width:1.5;" width="107" x="1233.5" y="652"/><ellipse cx="1258.4" cy="668" fill="#ADD1B2" rx="11" ry="11" style="stroke:#A80036;stroke-width:1.0;"/><path d="M1260.4,664.5 Q1260.6031,664 1260.8375,663.75 Q1261.0719,663.5 1261.3375,663.5 Q1261.8063,663.5 1262.1031,663.7813 Q1262.4,664.0625 1262.4,664.7188 L1262.4,666.2813 Q1262.4,666.9375 1262.1188,667.2188 Q1261.8375,667.5 1261.4,667.5 Q1261.0094,667.5 1260.7594,667.3281 Q1260.5094,667.1563 1260.4,666.7031 Q1260.3531,666.3906 1260.1813,666.2188 Q1259.8688,665.8906 1259.3063,665.7031 Q1258.7438,665.5 1258.1813,665.5 Q1257.4781,665.5 1256.8844,665.7813 Q1256.3063,666.0625 1255.8531,666.6875 Q1255.4,667.3125 1255.4,668.1719 L1255.4,669.0938 Q1255.4,670.125 1256.2438,670.8125 Q1257.0875,671.5 1258.5875,671.5 Q1259.4781,671.5 1260.1031,671.2969 Q1260.4625,671.1875 1260.8688,670.8281 Q1261.1344,670.625 1261.275,670.5625 Q1261.4156,670.5 1261.5875,670.5 Q1261.9156,670.5 1262.15,670.7656 Q1262.4,671.0156 1262.4,671.375 Q1262.4,671.7188 1262.0563,672.125 Q1261.5563,672.7188 1260.7594,673.0469 Q1259.7125,673.5 1258.4313,673.5 Q1256.9313,673.5 1255.7281,672.9063 Q1254.7594,672.4375 1254.0719,671.4219 Q1253.4,670.4063 1253.4,669.2031 L1253.4,668.1094 Q1253.4,666.8594 1253.9938,665.7656 Q1254.6031,664.6719 1255.65,664.0938 Q1256.7125,663.5 1257.9,663.5 Q1258.6188,663.5 1259.2438,663.75 Q1259.8688,664 1260.4,664.5 Z " fill="#000000"/><text fill="#000000" font-family="sans-serif" font-size="12" lengthAdjust="spacing" textLength="53" x="1274.6" y="672.9102">Summary</text><line style="stroke:#A80036;stroke-width:1.5;" x1="1234.5" x2="1339.5" y1="684" y2="684"/><text fill="#000000" font-family="sans-serif" font-size="11" lengthAdjust="spacing" textLength="49" x="1239.5" y="699.4189">-shipCode</text><text fill="#000000" font-family="sans-serif" font-size="11" lengthAdjust="spacing" textLength="63" x="1239.5" y="713.2549">-vesselName</text><text fill="#000000" font-family="sans-serif" font-size="11" lengthAdjust="spacing" textLength="95" x="1239.5" y="727.0908">-startBaseDateTime</text><text fill="#000000" font-family="sans-serif" font-size="11" lengthAdjust="spacing" textLength="91" x="1239.5" y="740.9268">-endBaseDateTime</text><text fill="#000000" font-family="sans-serif" font-size="11" lengthAdjust="spacing" textLength="95" x="1239.5" y="754.7627">-totalMovementTime</text><text fill="#000000" font-family="sans-serif" font-size="11" lengthAdjust="spacing" textLength="79" x="1239.5" y="768.5986">-totalMovements</text><text fill="#000000" font-family="sans-serif" font-size="11" lengthAdjust="spacing" textLength="47" x="1239.5" y="782.4346">-maxSOG</text><text fill="#000000" font-family="sans-serif" font-size="11" lengthAdjust="spacing" textLength="53" x="1239.5" y="796.2705">-meanSOG</text><text fill="#000000" font-family="sans-serif" font-size="11" lengthAdjust="spacing" textLength="47" x="1239.5" y="810.1064">-maxCOG</text><text fill="#000000" font-family="sans-serif" font-size="11" lengthAdjust="spacing" textLength="53" x="1239.5" y="823.9424">-meanCOG</text><text fill="#000000" font-family="sans-serif" font-size="11" lengthAdjust="spacing" textLength="37" x="1239.5" y="837.7783">-depLat</text><text fill="#000000" font-family="sans-serif" font-size="11" lengthAdjust="spacing" textLength="46" x="1239.5" y="851.6143">-depLong</text><text fill="#000000" font-family="sans-serif" font-size="11" lengthAdjust="spacing" textLength="49" x="1239.5" y="865.4502">-arrivalLat</text><text fill="#000000" font-family="sans-serif" font-size="11" lengthAdjust="spacing" textLength="58" x="1239.5" y="879.2861">-arrivalLong</text><text fill="#000000" font-family="sans-serif" font-size="11" lengthAdjust="spacing" textLength="73" x="1239.5" y="893.1221">-travelDistance</text><text fill="#000000" font-family="sans-serif" font-size="11" lengthAdjust="spacing" textLength="69" x="1239.5" y="906.958">-deltaDistance</text><line style="stroke:#A80036;stroke-width:1.5;" x1="1234.5" x2="1339.5" y1="913.375" y2="913.375"/><!--MD5=[69f2f3ad3645114d26612368d508f737]
class Printer--><rect codeLine="198" fill="#FEFECE" filter="url(#fie22eqa8fb3y)" height="61.8359" id="Printer" style="stroke:#A80036;stroke-width:1.5;" width="74" x="498" y="755.5"/><ellipse cx="515.7" cy="771.5" fill="#ADD1B2" rx="11" ry="11" style="stroke:#A80036;stroke-width:1.0;"/><path d="M517.7,768 Q517.9031,767.5 518.1375,767.25 Q518.3719,767 518.6375,767 Q519.1063,767 519.4031,767.2813 Q519.7,767.5625 519.7,768.2188 L519.7,769.7813 Q519.7,770.4375 519.4188,770.7188 Q519.1375,771 518.7,771 Q518.3094,771 518.0594,770.8281 Q517.8094,770.6563 517.7,770.2031 Q517.6531,769.8906 517.4813,769.7188 Q517.1688,769.3906 516.6063,769.2031 Q516.0438,769 515.4813,769 Q514.7781,769 514.1844,769.2813 Q513.6063,769.5625 513.1531,770.1875 Q512.7,770.8125 512.7,771.6719 L512.7,772.5938 Q512.7,773.625 513.5438,774.3125 Q514.3875,775 515.8875,775 Q516.7781,775 517.4031,774.7969 Q517.7625,774.6875 518.1688,774.3281 Q518.4344,774.125 518.575,774.0625 Q518.7156,774 518.8875,774 Q519.2156,774 519.45,774.2656 Q519.7,774.5156 519.7,774.875 Q519.7,775.2188 519.3563,775.625 Q518.8563,776.2188 518.0594,776.5469 Q517.0125,777 515.7313,777 Q514.2313,777 513.0281,776.4063 Q512.0594,775.9375 511.3719,774.9219 Q510.7,773.9063 510.7,772.7031 L510.7,771.6094 Q510.7,770.3594 511.2938,769.2656 Q511.9031,768.1719 512.95,767.5938 Q514.0125,767 515.2,767 Q515.9188,767 516.5438,767.25 Q517.1688,767.5 517.7,768 Z " fill="#000000"/><text fill="#000000" font-family="sans-serif" font-size="12" lengthAdjust="spacing" textLength="36" x="530.3" y="776.4102">Printer</text><line style="stroke:#A80036;stroke-width:1.5;" x1="499" x2="571" y1="787.5" y2="787.5"/><line style="stroke:#A80036;stroke-width:1.5;" x1="499" x2="571" y1="795.5" y2="795.5"/><text fill="#000000" font-family="sans-serif" font-size="11" lengthAdjust="spacing" textLength="62" x="504" y="810.9189">+print(string)</text><!--MD5=[ea2206eefe09474e90beb17e18e6b3d8]
class ShipStore--><rect codeLine="164" fill="#FEFECE" filter="url(#fie22eqa8fb3y)" height="269.375" id="ShipStore" style="stroke:#A80036;stroke-width:1.5;" width="545" x="607.5" y="652"/><ellipse cx="848.75" cy="668" fill="#ADD1B2" rx="11" ry="11" style="stroke:#A80036;stroke-width:1.0;"/><path d="M850.75,664.5 Q850.9531,664 851.1875,663.75 Q851.4219,663.5 851.6875,663.5 Q852.1563,663.5 852.4531,663.7813 Q852.75,664.0625 852.75,664.7188 L852.75,666.2813 Q852.75,666.9375 852.4688,667.2188 Q852.1875,667.5 851.75,667.5 Q851.3594,667.5 851.1094,667.3281 Q850.8594,667.1563 850.75,666.7031 Q850.7031,666.3906 850.5313,666.2188 Q850.2188,665.8906 849.6563,665.7031 Q849.0938,665.5 848.5313,665.5 Q847.8281,665.5 847.2344,665.7813 Q846.6563,666.0625 846.2031,666.6875 Q845.75,667.3125 845.75,668.1719 L845.75,669.0938 Q845.75,670.125 846.5938,670.8125 Q847.4375,671.5 848.9375,671.5 Q849.8281,671.5 850.4531,671.2969 Q850.8125,671.1875 851.2188,670.8281 Q851.4844,670.625 851.625,670.5625 Q851.7656,670.5 851.9375,670.5 Q852.2656,670.5 852.5,670.7656 Q852.75,671.0156 852.75,671.375 Q852.75,671.7188 852.4063,672.125 Q851.9063,672.7188 851.1094,673.0469 Q850.0625,673.5 848.7813,673.5 Q847.2813,673.5 846.0781,672.9063 Q845.1094,672.4375 844.4219,671.4219 Q843.75,670.4063 843.75,669.2031 L843.75,668.1094 Q843.75,666.8594 844.3438,665.7656 Q844.9531,664.6719 846,664.0938 Q847.0625,663.5 848.25,663.5 Q848.9688,663.5 849.5938,663.75 Q850.2188,664 850.75,664.5 Z " fill="#000000"/><text fill="#000000" font-family="sans-serif" font-size="12" lengthAdjust="spacing" textLength="54" x="869.25" y="672.9102">ShipStore</text><line style="stroke:#A80036;stroke-width:1.5;" x1="608.5" x2="1151.5" y1="684" y2="684"/><line style="stroke:#A80036;stroke-width:1.5;" x1="608.5" x2="1151.5" y1="692" y2="692"/><text fill="#000000" font-family="sans-serif" font-size="11" lengthAdjust="spacing" textLength="533" x="613.5" y="707.4189">+String getTopShipsWithTravelledDistance(Date firstDateAndTime, Date lastDateAndTime,int number_of_ships)</text><text fill="#000000" font-family="sans-serif" font-size="11" lengthAdjust="spacing" textLength="265" x="613.5" y="721.2549">+List&lt;ShipPosition&gt; getMessagesOrganized(Date date)</text><text fill="#000000" font-family="sans-serif" font-size="11" lengthAdjust="spacing" textLength="374" x="613.5" y="735.0908">+List&lt;ShipPositionDTO&gt; getMessagesOrganized(Date firstdate, Date lastdate)</text><text fill="#000000" font-family="sans-serif" font-size="11" lengthAdjust="spacing" textLength="71" x="613.5" y="748.9268">+pairOfShips()</text><text fill="#000000" font-family="sans-serif" font-size="11" lengthAdjust="spacing" textLength="55" x="613.5" y="762.7627">-orderList()</text><text fill="#000000" font-family="sans-serif" font-size="11" lengthAdjust="spacing" textLength="113" x="613.5" y="776.5986">+getShipByMMSI(MMSI)</text><text fill="#000000" font-family="sans-serif" font-size="11" lengthAdjust="spacing" textLength="114" x="613.5" y="790.4346">+getTravelDistance(list)</text><text fill="#000000" font-family="sans-serif" font-size="11" lengthAdjust="spacing" textLength="108" x="613.5" y="804.2705">+getDeltaDistance(list)</text><text fill="#000000" font-family="sans-serif" font-size="11" lengthAdjust="spacing" textLength="533" x="613.5" y="818.1064">+String getTopShipsWithTravelledDistance(Date firstDateAndTime, Date lastDateAndTime,int number_of_ships)</text><text fill="#000000" font-family="sans-serif" font-size="11" lengthAdjust="spacing" textLength="99" x="613.5" y="831.9424">+getShipByIMO(IMO)</text><text fill="#000000" font-family="sans-serif" font-size="11" lengthAdjust="spacing" textLength="138" x="613.5" y="845.7783">+getShipByCallSign(callSign)</text><text fill="#000000" font-family="sans-serif" font-size="11" lengthAdjust="spacing" textLength="307" x="613.5" y="859.6143">+getTotalMovementTime(startBaseDateTime, endBaseDateTime)</text><text fill="#000000" font-family="sans-serif" font-size="11" lengthAdjust="spacing" textLength="85" x="613.5" y="873.4502">+getMaxSOG(list)</text><text fill="#000000" font-family="sans-serif" font-size="11" lengthAdjust="spacing" textLength="91" x="613.5" y="887.2861">+getMeanSOG(list)</text><text fill="#000000" font-family="sans-serif" font-size="11" lengthAdjust="spacing" textLength="85" x="613.5" y="901.1221">+getMaxCOG(list)</text><text fill="#000000" font-family="sans-serif" font-size="11" lengthAdjust="spacing" textLength="91" x="613.5" y="914.958">+getMeanCOG(list)</text><!--MD5=[f8006917b424b31e513c036ea131e496]
class ShipPositionMapper--><rect codeLine="40" fill="#FEFECE" filter="url(#fie22eqa8fb3y)" height="75.6719" id="ShipPositionMapper" style="stroke:#A80036;stroke-width:1.5;" width="180" x="1734" y="410"/><ellipse cx="1765.65" cy="426" fill="#ADD1B2" rx="11" ry="11" style="stroke:#A80036;stroke-width:1.0;"/><path d="M1767.65,422.5 Q1767.8531,422 1768.0875,421.75 Q1768.3219,421.5 1768.5875,421.5 Q1769.0563,421.5 1769.3531,421.7813 Q1769.65,422.0625 1769.65,422.7188 L1769.65,424.2813 Q1769.65,424.9375 1769.3688,425.2188 Q1769.0875,425.5 1768.65,425.5 Q1768.2594,425.5 1768.0094,425.3281 Q1767.7594,425.1563 1767.65,424.7031 Q1767.6031,424.3906 1767.4313,424.2188 Q1767.1188,423.8906 1766.5563,423.7031 Q1765.9938,423.5 1765.4313,423.5 Q1764.7281,423.5 1764.1344,423.7813 Q1763.5563,424.0625 1763.1031,424.6875 Q1762.65,425.3125 1762.65,426.1719 L1762.65,427.0938 Q1762.65,428.125 1763.4938,428.8125 Q1764.3375,429.5 1765.8375,429.5 Q1766.7281,429.5 1767.3531,429.2969 Q1767.7125,429.1875 1768.1188,428.8281 Q1768.3844,428.625 1768.525,428.5625 Q1768.6656,428.5 1768.8375,428.5 Q1769.1656,428.5 1769.4,428.7656 Q1769.65,429.0156 1769.65,429.375 Q1769.65,429.7188 1769.3063,430.125 Q1768.8063,430.7188 1768.0094,431.0469 Q1766.9625,431.5 1765.6813,431.5 Q1764.1813,431.5 1762.9781,430.9063 Q1762.0094,430.4375 1761.3219,429.4219 Q1760.65,428.4063 1760.65,427.2031 L1760.65,426.1094 Q1760.65,424.8594 1761.2438,423.7656 Q1761.8531,422.6719 1762.9,422.0938 Q1763.9625,421.5 1765.15,421.5 Q1765.8688,421.5 1766.4938,421.75 Q1767.1188,422 1767.65,422.5 Z " fill="#000000"/><text fill="#000000" font-family="sans-serif" font-size="12" lengthAdjust="spacing" textLength="111" x="1783.35" y="430.9102">ShipPositionMapper</text><line style="stroke:#A80036;stroke-width:1.5;" x1="1735" x2="1913" y1="442" y2="442"/><line style="stroke:#A80036;stroke-width:1.5;" x1="1735" x2="1913" y1="450" y2="450"/><text fill="#000000" font-family="sans-serif" font-size="11" lengthAdjust="spacing" textLength="162" x="1740" y="465.4189">+toDTO(ShipPosition shipposition)</text><text fill="#000000" font-family="sans-serif" font-size="11" lengthAdjust="spacing" textLength="168" x="1740" y="479.2549">+toDTO(List&lt;ShipPositionDTO&gt; list)</text><!--MD5=[7b119cb16b511bbfc0e0e9f5352b84f5]
class ShipMapper--><rect codeLine="44" fill="#FEFECE" filter="url(#fie22eqa8fb3y)" height="61.8359" id="ShipMapper" style="stroke:#A80036;stroke-width:1.5;" width="98" x="1949" y="417"/><ellipse cx="1964" cy="433" fill="#ADD1B2" rx="11" ry="11" style="stroke:#A80036;stroke-width:1.0;"/><path d="M1966,429.5 Q1966.2031,429 1966.4375,428.75 Q1966.6719,428.5 1966.9375,428.5 Q1967.4063,428.5 1967.7031,428.7813 Q1968,429.0625 1968,429.7188 L1968,431.2813 Q1968,431.9375 1967.7188,432.2188 Q1967.4375,432.5 1967,432.5 Q1966.6094,432.5 1966.3594,432.3281 Q1966.1094,432.1563 1966,431.7031 Q1965.9531,431.3906 1965.7813,431.2188 Q1965.4688,430.8906 1964.9063,430.7031 Q1964.3438,430.5 1963.7813,430.5 Q1963.0781,430.5 1962.4844,430.7813 Q1961.9063,431.0625 1961.4531,431.6875 Q1961,432.3125 1961,433.1719 L1961,434.0938 Q1961,435.125 1961.8438,435.8125 Q1962.6875,436.5 1964.1875,436.5 Q1965.0781,436.5 1965.7031,436.2969 Q1966.0625,436.1875 1966.4688,435.8281 Q1966.7344,435.625 1966.875,435.5625 Q1967.0156,435.5 1967.1875,435.5 Q1967.5156,435.5 1967.75,435.7656 Q1968,436.0156 1968,436.375 Q1968,436.7188 1967.6563,437.125 Q1967.1563,437.7188 1966.3594,438.0469 Q1965.3125,438.5 1964.0313,438.5 Q1962.5313,438.5 1961.3281,437.9063 Q1960.3594,437.4375 1959.6719,436.4219 Q1959,435.4063 1959,434.2031 L1959,433.1094 Q1959,431.8594 1959.5938,430.7656 Q1960.2031,429.6719 1961.25,429.0938 Q1962.3125,428.5 1963.5,428.5 Q1964.2188,428.5 1964.8438,428.75 Q1965.4688,429 1966,429.5 Z " fill="#000000"/><text fill="#000000" font-family="sans-serif" font-size="12" lengthAdjust="spacing" textLength="66" x="1978" y="437.9102">ShipMapper</text><line style="stroke:#A80036;stroke-width:1.5;" x1="1950" x2="2046" y1="449" y2="449"/><line style="stroke:#A80036;stroke-width:1.5;" x1="1950" x2="2046" y1="457" y2="457"/><text fill="#000000" font-family="sans-serif" font-size="11" lengthAdjust="spacing" textLength="76" x="1955" y="472.4189">+modelToDto(s)</text><!--MD5=[5202251b9fb3879571ed5a13723ad3d5]
class ShipPositionDTO--><rect codeLine="101" fill="#FEFECE" filter="url(#fie22eqa8fb3y)" height="172.5234" id="ShipPositionDTO" style="stroke:#A80036;stroke-width:1.5;" width="127" x="1794.5" y="700"/><ellipse cx="1809.5" cy="716" fill="#ADD1B2" rx="11" ry="11" style="stroke:#A80036;stroke-width:1.0;"/><path d="M1811.5,712.5 Q1811.7031,712 1811.9375,711.75 Q1812.1719,711.5 1812.4375,711.5 Q1812.9063,711.5 1813.2031,711.7813 Q1813.5,712.0625 1813.5,712.7188 L1813.5,714.2813 Q1813.5,714.9375 1813.2188,715.2188 Q1812.9375,715.5 1812.5,715.5 Q1812.1094,715.5 1811.8594,715.3281 Q1811.6094,715.1563 1811.5,714.7031 Q1811.4531,714.3906 1811.2813,714.2188 Q1810.9688,713.8906 1810.4063,713.7031 Q1809.8438,713.5 1809.2813,713.5 Q1808.5781,713.5 1807.9844,713.7813 Q1807.4063,714.0625 1806.9531,714.6875 Q1806.5,715.3125 1806.5,716.1719 L1806.5,717.0938 Q1806.5,718.125 1807.3438,718.8125 Q1808.1875,719.5 1809.6875,719.5 Q1810.5781,719.5 1811.2031,719.2969 Q1811.5625,719.1875 1811.9688,718.8281 Q1812.2344,718.625 1812.375,718.5625 Q1812.5156,718.5 1812.6875,718.5 Q1813.0156,718.5 1813.25,718.7656 Q1813.5,719.0156 1813.5,719.375 Q1813.5,719.7188 1813.1563,720.125 Q1812.6563,720.7188 1811.8594,721.0469 Q1810.8125,721.5 1809.5313,721.5 Q1808.0313,721.5 1806.8281,720.9063 Q1805.8594,720.4375 1805.1719,719.4219 Q1804.5,718.4063 1804.5,717.2031 L1804.5,716.1094 Q1804.5,714.8594 1805.0938,713.7656 Q1805.7031,712.6719 1806.75,712.0938 Q1807.8125,711.5 1809,711.5 Q1809.7188,711.5 1810.3438,711.75 Q1810.9688,712 1811.5,712.5 Z " fill="#000000"/><text fill="#000000" font-family="sans-serif" font-size="12" lengthAdjust="spacing" textLength="95" x="1823.5" y="720.9102">ShipPositionDTO</text><line style="stroke:#A80036;stroke-width:1.5;" x1="1795.5" x2="1920.5" y1="732" y2="732"/><text fill="#000000" font-family="sans-serif" font-size="11" lengthAdjust="spacing" textLength="29" x="1800.5" y="747.4189">-MMSI</text><text fill="#000000" font-family="sans-serif" font-size="11" lengthAdjust="spacing" textLength="25" x="1800.5" y="761.2549">-date</text><text fill="#000000" font-family="sans-serif" font-size="11" lengthAdjust="spacing" textLength="24" x="1800.5" y="775.0908">-LAT</text><text fill="#000000" font-family="sans-serif" font-size="11" lengthAdjust="spacing" textLength="25" x="1800.5" y="788.9268">-LON</text><text fill="#000000" font-family="sans-serif" font-size="11" lengthAdjust="spacing" textLength="27" x="1800.5" y="802.7627">-SOG</text><text fill="#000000" font-family="sans-serif" font-size="11" lengthAdjust="spacing" textLength="27" x="1800.5" y="816.5986">-COG</text><text fill="#000000" font-family="sans-serif" font-size="11" lengthAdjust="spacing" textLength="42" x="1800.5" y="830.4346">-heading</text><text fill="#000000" font-family="sans-serif" font-size="11" lengthAdjust="spacing" textLength="32" x="1800.5" y="844.2705">-cargo</text><text fill="#000000" font-family="sans-serif" font-size="11" lengthAdjust="spacing" textLength="59" x="1800.5" y="858.1064">-transciever</text><line style="stroke:#A80036;stroke-width:1.5;" x1="1795.5" x2="1920.5" y1="864.5234" y2="864.5234"/><!--MD5=[21d0e442e5b2791986c5130239c21433]
class ShipDTO--><rect codeLine="131" fill="#FEFECE" filter="url(#fie22eqa8fb3y)" height="158.6875" id="ShipDTO" style="stroke:#A80036;stroke-width:1.5;" width="82" x="1957" y="707"/><ellipse cx="1972" cy="723" fill="#ADD1B2" rx="11" ry="11" style="stroke:#A80036;stroke-width:1.0;"/><path d="M1974,719.5 Q1974.2031,719 1974.4375,718.75 Q1974.6719,718.5 1974.9375,718.5 Q1975.4063,718.5 1975.7031,718.7813 Q1976,719.0625 1976,719.7188 L1976,721.2813 Q1976,721.9375 1975.7188,722.2188 Q1975.4375,722.5 1975,722.5 Q1974.6094,722.5 1974.3594,722.3281 Q1974.1094,722.1563 1974,721.7031 Q1973.9531,721.3906 1973.7813,721.2188 Q1973.4688,720.8906 1972.9063,720.7031 Q1972.3438,720.5 1971.7813,720.5 Q1971.0781,720.5 1970.4844,720.7813 Q1969.9063,721.0625 1969.4531,721.6875 Q1969,722.3125 1969,723.1719 L1969,724.0938 Q1969,725.125 1969.8438,725.8125 Q1970.6875,726.5 1972.1875,726.5 Q1973.0781,726.5 1973.7031,726.2969 Q1974.0625,726.1875 1974.4688,725.8281 Q1974.7344,725.625 1974.875,725.5625 Q1975.0156,725.5 1975.1875,725.5 Q1975.5156,725.5 1975.75,725.7656 Q1976,726.0156 1976,726.375 Q1976,726.7188 1975.6563,727.125 Q1975.1563,727.7188 1974.3594,728.0469 Q1973.3125,728.5 1972.0313,728.5 Q1970.5313,728.5 1969.3281,727.9063 Q1968.3594,727.4375 1967.6719,726.4219 Q1967,725.4063 1967,724.2031 L1967,723.1094 Q1967,721.8594 1967.5938,720.7656 Q1968.2031,719.6719 1969.25,719.0938 Q1970.3125,718.5 1971.5,718.5 Q1972.2188,718.5 1972.8438,718.75 Q1973.4688,719 1974,719.5 Z " fill="#000000"/><text fill="#000000" font-family="sans-serif" font-size="12" lengthAdjust="spacing" textLength="50" x="1986" y="727.9102">ShipDTO</text><line style="stroke:#A80036;stroke-width:1.5;" x1="1958" x2="2038" y1="739" y2="739"/><text fill="#000000" font-family="sans-serif" font-size="11" lengthAdjust="spacing" textLength="29" x="1963" y="754.4189">-MMSI</text><text fill="#000000" font-family="sans-serif" font-size="11" lengthAdjust="spacing" textLength="30" x="1963" y="768.2549">-name</text><text fill="#000000" font-family="sans-serif" font-size="11" lengthAdjust="spacing" textLength="22" x="1963" y="782.0908">-IMO</text><text fill="#000000" font-family="sans-serif" font-size="11" lengthAdjust="spacing" textLength="40" x="1963" y="795.9268">-callsign</text><text fill="#000000" font-family="sans-serif" font-size="11" lengthAdjust="spacing" textLength="25" x="1963" y="809.7627">-type</text><text fill="#000000" font-family="sans-serif" font-size="11" lengthAdjust="spacing" textLength="33" x="1963" y="823.5986">-length</text><text fill="#000000" font-family="sans-serif" font-size="11" lengthAdjust="spacing" textLength="31" x="1963" y="837.4346">-width</text><text fill="#000000" font-family="sans-serif" font-size="11" lengthAdjust="spacing" textLength="27" x="1963" y="851.2705">-draft</text><line style="stroke:#A80036;stroke-width:1.5;" x1="1958" x2="2038" y1="857.6875" y2="857.6875"/><!--MD5=[b4a9ab6cffd58937cfea07eb2954e1bd]
class BST--><rect codeLine="146" fill="#FEFECE" filter="url(#fie22eqa8fb3y)" height="131.0156" id="BST" style="stroke:#A80036;stroke-width:1.5;" width="231" x="1571.5" y="1067"/><ellipse cx="1671.25" cy="1083" fill="#ADD1B2" rx="11" ry="11" style="stroke:#A80036;stroke-width:1.0;"/><path d="M1673.25,1079.5 Q1673.4531,1079 1673.6875,1078.75 Q1673.9219,1078.5 1674.1875,1078.5 Q1674.6563,1078.5 1674.9531,1078.7813 Q1675.25,1079.0625 1675.25,1079.7188 L1675.25,1081.2813 Q1675.25,1081.9375 1674.9688,1082.2188 Q1674.6875,1082.5 1674.25,1082.5 Q1673.8594,1082.5 1673.6094,1082.3281 Q1673.3594,1082.1563 1673.25,1081.7031 Q1673.2031,1081.3906 1673.0313,1081.2188 Q1672.7188,1080.8906 1672.1563,1080.7031 Q1671.5938,1080.5 1671.0313,1080.5 Q1670.3281,1080.5 1669.7344,1080.7813 Q1669.1563,1081.0625 1668.7031,1081.6875 Q1668.25,1082.3125 1668.25,1083.1719 L1668.25,1084.0938 Q1668.25,1085.125 1669.0938,1085.8125 Q1669.9375,1086.5 1671.4375,1086.5 Q1672.3281,1086.5 1672.9531,1086.2969 Q1673.3125,1086.1875 1673.7188,1085.8281 Q1673.9844,1085.625 1674.125,1085.5625 Q1674.2656,1085.5 1674.4375,1085.5 Q1674.7656,1085.5 1675,1085.7656 Q1675.25,1086.0156 1675.25,1086.375 Q1675.25,1086.7188 1674.9063,1087.125 Q1674.4063,1087.7188 1673.6094,1088.0469 Q1672.5625,1088.5 1671.2813,1088.5 Q1669.7813,1088.5 1668.5781,1087.9063 Q1667.6094,1087.4375 1666.9219,1086.4219 Q1666.25,1085.4063 1666.25,1084.2031 L1666.25,1083.1094 Q1666.25,1081.8594 1666.8438,1080.7656 Q1667.4531,1079.6719 1668.5,1079.0938 Q1669.5625,1078.5 1670.75,1078.5 Q1671.4688,1078.5 1672.0938,1078.75 Q1672.7188,1079 1673.25,1079.5 Z " fill="#000000"/><text fill="#000000" font-family="sans-serif" font-size="12" lengthAdjust="spacing" textLength="23" x="1691.75" y="1087.9102">BST</text><line style="stroke:#A80036;stroke-width:1.5;" x1="1572.5" x2="1801.5" y1="1099" y2="1099"/><line style="stroke:#A80036;stroke-width:1.5;" x1="1572.5" x2="1801.5" y1="1107" y2="1107"/><text fill="#000000" font-family="sans-serif" font-size="11" lengthAdjust="spacing" textLength="219" x="1577.5" y="1122.4189">+findListInAnInterval(firstposition,lastposition)</text><text fill="#000000" font-family="sans-serif" font-size="11" lengthAdjust="spacing" textLength="90" x="1577.5" y="1136.2549">+smallestElement()</text><text fill="#000000" font-family="sans-serif" font-size="11" lengthAdjust="spacing" textLength="86" x="1577.5" y="1150.0908">+biggestElement()</text><text fill="#000000" font-family="sans-serif" font-size="11" lengthAdjust="spacing" textLength="34" x="1577.5" y="1163.9268">+size()</text><text fill="#000000" font-family="sans-serif" font-size="11" lengthAdjust="spacing" textLength="50" x="1577.5" y="1177.7627">+inOrder()</text><text fill="#000000" font-family="sans-serif" font-size="11" lengthAdjust="spacing" textLength="219" x="1577.5" y="1191.5986">+findListInAnInterval(firstposition,lastposition)</text><!--MD5=[6bbad6aa9952e6b0011e549027ea8944]
link ListAllShipsInformationUI to ListAllShipsInformationController--><path codeLine="202" d="M496.19,110.05 C476.24,121.59 452.35,136.23 432,151 C403.59,171.62 373.76,197.22 350.38,218.32 " fill="none" id="ListAllShipsInformationUI-to-ListAllShipsInformationController" style="stroke:#A80036;stroke-width:1.0;stroke-dasharray:7.0,7.0;"/><polygon fill="#A80036" points="346.38,221.93,355.7331,218.8447,350.0829,218.5702,350.3574,212.92,346.38,221.93" style="stroke:#A80036;stroke-width:1.0;"/><!--MD5=[2d1ab710e5bd24b849a63ed4efb0ee7f]
link ListAllShipsInformationController to Company--><path codeLine="203" d="M368.6,298.1 C388.39,309.04 410.71,320.37 432,329 C458.08,339.57 468.61,331.95 493,346 C583.42,398.08 565.84,467.18 661,510 C733.94,542.82 940.11,532.16 1020,536 C1029.38,536.45 1350.65,538.16 1358,544 C1420.21,593.44 1425.08,696.16 1422.86,750.32 " fill="none" id="ListAllShipsInformationController-to-Company" style="stroke:#A80036;stroke-width:1.0;stroke-dasharray:7.0,7.0;"/><polygon fill="#A80036" points="1422.62,755.41,1427.0531,746.6153,1422.8633,750.4159,1419.0626,746.226,1422.62,755.41" style="stroke:#A80036;stroke-width:1.0;"/><!--MD5=[c3e68e2ee8502f5cea58909dc77d51da]
link ListAllShipsInformationController to ShipStore--><path codeLine="204" d="M338.87,298.07 C383.63,348.99 468.96,441.98 552,510 C573.36,527.5 582,527.31 604,544 C646.51,576.24 690.76,613.26 731.06,648.46 " fill="none" id="ListAllShipsInformationController-to-ShipStore" style="stroke:#A80036;stroke-width:1.0;stroke-dasharray:7.0,7.0;"/><polygon fill="#A80036" points="734.95,651.86,730.8276,642.9154,731.1933,648.5604,725.5483,648.9261,734.95,651.86" style="stroke:#A80036;stroke-width:1.0;"/><!--MD5=[6b4a94d80660e97c6833bde801bd4c89]
link Company to ShipStore--><path codeLine="205" d="M1421.63,755.17 C1422.22,706.56 1415.23,614.08 1358,571 C1255.43,493.78 1120.78,567.06 1020.54,648.45 " fill="none" id="Company-to-ShipStore" style="stroke:#A80036;stroke-width:1.0;"/><polygon fill="#A80036" points="1016.39,651.84,1025.8927,649.252,1020.2649,648.68,1020.8368,643.0522,1016.39,651.84" style="stroke:#A80036;stroke-width:1.0;"/><text fill="#000000" font-family="sans-serif" font-size="13" lengthAdjust="spacing" textLength="39" x="1288.5" y="532.4951">Knows</text><text fill="#000000" font-family="sans-serif" font-size="13" lengthAdjust="spacing" textLength="7" x="1414.2443" y="744.6065">1</text><text fill="#000000" font-family="sans-serif" font-size="13" lengthAdjust="spacing" textLength="7" x="1017.0727" y="641.0869">1</text><!--MD5=[f04e04ecc6998d67821b33eb17256457]
link ShipStore to Ship--><path codeLine="206" d="M1049.56,651.76 C1100.52,618.8 1158.51,588.1 1217,571 C1302.74,545.93 1546.95,518.18 1619,571 C1653.89,596.58 1671.34,640.1 1679.9,681.37 " fill="none" id="ShipStore-to-Ship" style="stroke:#A80036;stroke-width:1.0;"/><polygon fill="#A80036" points="1680.9,686.39,1683.0465,676.7779,1679.9139,681.4882,1675.2036,678.3556,1680.9,686.39" style="stroke:#A80036;stroke-width:1.0;"/><text fill="#000000" font-family="sans-serif" font-size="13" lengthAdjust="spacing" textLength="50" x="1534" y="532.4951">registers</text><text fill="#000000" font-family="sans-serif" font-size="13" lengthAdjust="spacing" textLength="7" x="1052.1603" y="641.0023">1</text><text fill="#000000" font-family="sans-serif" font-size="13" lengthAdjust="spacing" textLength="5" x="1675.2416" y="675.6139">*</text><!--MD5=[41f475cd3cd8b5f3ab05e5531954a9bf]
link ShipStore to ShipPosition--><path codeLine="207" d="M1049.56,651.76 C1100.52,618.8 1158.51,588.1 1217,571 C1330.04,537.95 1387.01,501.37 1482,571 C1516.89,596.58 1534.34,640.1 1542.9,681.37 " fill="none" id="ShipStore-to-ShipPosition" style="stroke:#A80036;stroke-width:1.0;"/><polygon fill="#A80036" points="1543.9,686.39,1546.0465,676.7779,1542.9139,681.4882,1538.2036,678.3556,1543.9,686.39" style="stroke:#A80036;stroke-width:1.0;"/><text fill="#000000" font-family="sans-serif" font-size="13" lengthAdjust="spacing" textLength="50" x="1431" y="532.4951">registers</text><text fill="#000000" font-family="sans-serif" font-size="13" lengthAdjust="spacing" textLength="7" x="1059.565" y="641.0023">1</text><text fill="#000000" font-family="sans-serif" font-size="13" lengthAdjust="spacing" textLength="5" x="1538.2416" y="675.6139">*</text><!--MD5=[450ce2c12e7dd7ba974e92137d77cb9b]
link Ship to BST--><path codeLine="208" d="M1687,886.54 C1687,942.57 1687,1011.29 1687,1061.66 " fill="none" id="Ship-to-BST" style="stroke:#A80036;stroke-width:1.0;"/><polygon fill="#A80036" points="1687,1066.79,1691,1057.79,1687,1061.79,1683,1057.79,1687,1066.79" style="stroke:#A80036;stroke-width:1.0;"/><text fill="#000000" font-family="sans-serif" font-size="13" lengthAdjust="spacing" textLength="36" x="1688" y="991.4951">stored</text><text fill="#000000" font-family="sans-serif" font-size="13" lengthAdjust="spacing" textLength="5" x="1681.8086" y="908.3129">*</text><text fill="#000000" font-family="sans-serif" font-size="13" lengthAdjust="spacing" textLength="7" x="1679.6172" y="1056.2415">1</text><!--MD5=[0d0a3a311a907753ff1e753cefce63cd]
link TopShipsWithTravelledDistanceUI to TopShipsWithTravelledDistanceController--><path codeLine="209" d="M930,110.2 C930,139.36 930,189.69 930,223.65 " fill="none" id="TopShipsWithTravelledDistanceUI-to-TopShipsWithTravelledDistanceController" style="stroke:#A80036;stroke-width:1.0;stroke-dasharray:7.0,7.0;"/><polygon fill="#A80036" points="930,228.96,934,219.96,930,223.96,926,219.96,930,228.96" style="stroke:#A80036;stroke-width:1.0;"/><!--MD5=[0e52c4d4c97ef7cb019744637d3d6705]
link TopShipsWithTravelledDistanceController to Company--><path codeLine="210" d="M955.65,291.39 C1007.69,350.62 1132.42,480.56 1269,536 C1287.4,543.47 1342.87,531.14 1358,544 C1418.38,595.33 1424.11,696.77 1422.47,750.39 " fill="none" id="TopShipsWithTravelledDistanceController-to-Company" style="stroke:#A80036;stroke-width:1.0;stroke-dasharray:7.0,7.0;"/><polygon fill="#A80036" points="1422.29,755.42,1426.6213,746.5747,1422.4756,750.4234,1418.6268,746.2777,1422.29,755.42" style="stroke:#A80036;stroke-width:1.0;"/><!--MD5=[28bd491424c95716eaced588d9449e55]
link TopShipsWithTravelledDistanceController to ShipStore--><path codeLine="211" d="M927.13,291.08 C920.7,358.55 904.78,525.53 893.22,646.81 " fill="none" id="TopShipsWithTravelledDistanceController-to-ShipStore" style="stroke:#A80036;stroke-width:1.0;stroke-dasharray:7.0,7.0;"/><polygon fill="#A80036" points="892.74,651.82,897.5718,643.2378,893.212,646.8423,889.6075,642.4826,892.74,651.82" style="stroke:#A80036;stroke-width:1.0;"/><!--MD5=[443fd393c3f6995a41435929ab921bce]
link MakeSummaryUI to MakeSummaryController--><path codeLine="212" d="M687.44,110.26 C671.02,121.85 651.43,136.47 635,151 C611.54,171.75 587.38,197.12 568.47,218.05 " fill="none" id="MakeSummaryUI-to-MakeSummaryController" style="stroke:#A80036;stroke-width:1.0;stroke-dasharray:7.0,7.0;"/><polygon fill="#A80036" points="565,221.91,573.9939,217.8962,568.3448,218.1935,568.0475,212.5445,565,221.91" style="stroke:#A80036;stroke-width:1.0;"/><!--MD5=[2a27338beeb16e9ee9c28dba9318d50a]
link MakeSummaryController to Company--><path codeLine="213" d="M585.92,298.12 C601.48,308.53 618.7,319.56 635,329 C636.22,329.71 997.65,509.6 999,510 C1094.65,538.41 1122.6,527.29 1222,536 C1237.08,537.32 1346.32,534.37 1358,544 C1419.17,594.4 1424.56,696.24 1422.66,750.16 " fill="none" id="MakeSummaryController-to-Company" style="stroke:#A80036;stroke-width:1.0;stroke-dasharray:7.0,7.0;"/><polygon fill="#A80036" points="1422.46,755.22,1426.8165,746.3871,1422.6598,750.224,1418.8229,746.0673,1422.46,755.22" style="stroke:#A80036;stroke-width:1.0;"/><!--MD5=[69eb3449b2bf615a188d5e93f2b27392]
link MakeSummaryController to ShipStore--><path codeLine="214" d="M557.68,298.3 C605.1,369.99 711.15,530.28 788.7,647.5 " fill="none" id="MakeSummaryController-to-ShipStore" style="stroke:#A80036;stroke-width:1.0;stroke-dasharray:7.0,7.0;"/><polygon fill="#A80036" points="791.68,652,790.0544,642.2862,788.923,647.8288,783.3804,646.6974,791.68,652" style="stroke:#A80036;stroke-width:1.0;"/><!--MD5=[5516919d850f976afb7d4bed5671d0b9]
link ShipStore to BST--><path codeLine="215" d="M1116.5,921.01 C1149.83,938.02 1183.99,954.52 1217,969 C1332.85,1019.83 1470.05,1065.71 1566.22,1095.65 " fill="none" id="ShipStore-to-BST" style="stroke:#A80036;stroke-width:1.0;stroke-dasharray:7.0,7.0;"/><polygon fill="#A80036" points="1571.05,1097.15,1563.6461,1090.6552,1566.2761,1095.6635,1561.2677,1098.2935,1571.05,1097.15" style="stroke:#A80036;stroke-width:1.0;"/><!--MD5=[c2c1e6e90326ba063c4a69d79d91ec23]
link Summary to Printer--><path codeLine="216" d="M1256.28,651.82 C1236.34,600.05 1203.89,548.26 1151.5,527 C1123.55,515.66 636.45,515.66 608.5,527 C526.21,560.39 525.51,686.75 530.67,749.99 " fill="none" id="Summary-to-Printer" style="stroke:#A80036;stroke-width:1.0;"/><polygon fill="#A80036" points="531.12,755.17,534.3322,745.8597,530.6906,750.1885,526.3618,746.5468,531.12,755.17" style="stroke:#A80036;stroke-width:1.0;"/><!--MD5=[b96d0631dda003bb9a5c1fd04454acf4]
link MessagesOrganizedUI to MessagesOrganizedController--><path codeLine="217" d="M1191.74,110.02 C1237.52,137.94 1315.46,185.48 1370.98,219.34 " fill="none" id="MessagesOrganizedUI-to-MessagesOrganizedController" style="stroke:#A80036;stroke-width:1.0;stroke-dasharray:7.0,7.0;"/><polygon fill="#A80036" points="1375.27,221.96,1369.6817,213.85,1371.0054,219.3499,1365.5055,220.6735,1375.27,221.96" style="stroke:#A80036;stroke-width:1.0;"/><!--MD5=[78f72b4416504678ba18eca57f94ca81]
link MessagesOrganizedController to Company--><path codeLine="218" d="M1399.82,298.05 C1389.18,309.95 1378,323.55 1369,337 C1319.14,411.5 1300.31,430.69 1280,518 C1278.19,525.79 1274.64,530.06 1280,536 C1291.68,548.93 1344.8,532.63 1358,544 C1417.9,595.58 1423.89,696.45 1422.4,750.05 " fill="none" id="MessagesOrganizedController-to-Company" style="stroke:#A80036;stroke-width:1.0;stroke-dasharray:7.0,7.0;"/><polygon fill="#A80036" points="1422.24,755.09,1426.546,746.2323,1422.4113,750.0929,1418.5507,745.9582,1422.24,755.09" style="stroke:#A80036;stroke-width:1.0;"/><!--MD5=[b80a730cce7ea1f76b607f53f623b60e]
link MessagesOrganizedController to ShipStore--><path codeLine="219" d="M1351.79,298 C1325.66,311.33 1297.56,327.66 1274,346 C1162.06,433.16 1055.97,554.58 982.13,647.72 " fill="none" id="MessagesOrganizedController-to-ShipStore" style="stroke:#A80036;stroke-width:1.0;stroke-dasharray:7.0,7.0;"/><polygon fill="#A80036" points="978.86,651.85,987.5752,647.2626,981.9573,647.9249,981.295,642.3069,978.86,651.85" style="stroke:#A80036;stroke-width:1.0;"/><!--MD5=[f524e97c18c96b17a44752773eb7aafe]
link MessagesOrganizedController to ShipPositionMapper--><path codeLine="220" d="M1513.59,298.19 C1579.67,329.87 1674.36,375.26 1741.75,407.57 " fill="none" id="MessagesOrganizedController-to-ShipPositionMapper" style="stroke:#A80036;stroke-width:1.0;stroke-dasharray:7.0,7.0;"/><polygon fill="#A80036" points="1746.55,409.87,1740.1734,402.3641,1742.0442,407.7026,1736.7056,409.5734,1746.55,409.87" style="stroke:#A80036;stroke-width:1.0;"/><!--MD5=[9d93a5d6e50a93525cfc728ae102d6ef]
link SearchShipUI to SearchShipController--><path codeLine="221" d="M1350.01,110.1 C1362.66,119.21 1378.29,128.75 1394,134 C1447.44,151.87 1596.66,125.67 1647,151 C1673.2,164.18 1694.94,188.47 1710.69,210.68 " fill="none" id="SearchShipUI-to-SearchShipController" style="stroke:#A80036;stroke-width:1.0;stroke-dasharray:7.0,7.0;"/><polygon fill="#A80036" points="1713.56,214.8,1711.7119,205.1261,1710.708,210.6932,1705.141,209.6893,1713.56,214.8" style="stroke:#A80036;stroke-width:1.0;"/><!--MD5=[4fb66a5e4dcc2b5f1ba2b9f73944b5d1]
link SearchShipController to Company--><path codeLine="222" d="M1690.01,305.2 C1676.89,314.7 1662.13,323.52 1647,329 C1618.54,339.31 1536.22,320.25 1511,337 C1375.22,427.18 1398.63,660.88 1413.28,750.13 " fill="none" id="SearchShipController-to-Company" style="stroke:#A80036;stroke-width:1.0;stroke-dasharray:7.0,7.0;"/><polygon fill="#A80036" points="1414.14,755.29,1416.5925,745.7514,1413.3111,750.3592,1408.7033,747.0777,1414.14,755.29" style="stroke:#A80036;stroke-width:1.0;"/><!--MD5=[4acbf8d547531bda014bce1ff7865837]
link SearchShipController to ShipStore--><path codeLine="223" d="M1690.02,305.24 C1676.9,314.73 1662.13,323.54 1647,329 C1595.66,347.51 1452.2,324.59 1402,346 C1300.01,389.49 1298.55,438.27 1214,510 C1160.37,555.5 1101.33,604.54 1047.99,648.45 " fill="none" id="SearchShipController-to-ShipStore" style="stroke:#A80036;stroke-width:1.0;stroke-dasharray:7.0,7.0;"/><polygon fill="#A80036" points="1043.83,651.87,1053.3164,649.2228,1047.6851,648.686,1048.222,643.0546,1043.83,651.87" style="stroke:#A80036;stroke-width:1.0;"/><!--MD5=[ebf9e3ac9cad79e1820f5d35a3966223]
link SearchShipController to ShipMapper--><path codeLine="224" d="M1790.52,305.1 C1803.38,314.24 1817.63,322.93 1832,329 C1873.53,346.55 1894.3,321.29 1932,346 C1956.04,361.76 1973.28,389.65 1984.09,412.13 " fill="none" id="SearchShipController-to-ShipMapper" style="stroke:#A80036;stroke-width:1.0;stroke-dasharray:7.0,7.0;"/><polygon fill="#A80036" points="1986.3,416.84,1986.0916,406.9933,1984.1731,412.3149,1978.8515,410.3964,1986.3,416.84" style="stroke:#A80036;stroke-width:1.0;"/><!--MD5=[3f38d37b0b8cb49531698a7d81bd0cad]
link ImportFileUI to ImportFileController--><path codeLine="225" d="M1510.53,91.22 C1598.59,99.43 1778.18,119.54 1832,151 C1861.68,168.35 1885.53,199.73 1900.88,224.21 " fill="none" id="ImportFileUI-to-ImportFileController" style="stroke:#A80036;stroke-width:1.0;stroke-dasharray:7.0,7.0;"/><polygon fill="#A80036" points="1903.64,228.7,1902.3152,218.9407,1901.0131,224.4456,1895.5082,223.1436,1903.64,228.7" style="stroke:#A80036;stroke-width:1.0;"/><!--MD5=[71d6616e86bdd231479132c477aec7af]
link ImportFileController to Company--><path codeLine="226" d="M1890.7,291.09 C1874.8,305.34 1853.94,320.97 1832,329 C1780.96,347.68 1632.39,314.63 1588,346 C1510.07,401.08 1539.01,455.35 1488,536 C1485.62,539.76 1483.92,539.99 1482,544 C1448.93,612.91 1431.99,701.64 1424.65,750.08 " fill="none" id="ImportFileController-to-Company" style="stroke:#A80036;stroke-width:1.0;stroke-dasharray:7.0,7.0;"/><polygon fill="#A80036" points="1423.89,755.21,1429.1562,746.8873,1424.6171,750.2631,1421.2412,745.724,1423.89,755.21" style="stroke:#A80036;stroke-width:1.0;"/><!--MD5=[21a8b893bf703fa2dbec69d9a07b6ea0]
link ImportFileController to ShipStore--><path codeLine="227" d="M1890.73,291.18 C1874.84,305.45 1853.98,321.08 1832,329 C1796.73,341.72 1528.25,328.67 1495,346 C1397.36,396.9 1434.14,486.08 1336,536 C1312.38,548.02 1241.95,535.05 1217,544 C1151.46,567.51 1087.34,607.73 1032.92,648.68 " fill="none" id="ImportFileController-to-ShipStore" style="stroke:#A80036;stroke-width:1.0;stroke-dasharray:7.0,7.0;"/><polygon fill="#A80036" points="1028.68,651.89,1038.275,649.6681,1032.6731,648.8809,1033.4604,643.2791,1028.68,651.89" style="stroke:#A80036;stroke-width:1.0;"/><!--MD5=[a94d7d77ac30a48d92c4bfa997eadc7d]
link ImportFileController to BST--><path codeLine="228" d="M1990.78,285.28 C2018.42,298.63 2047.22,318.26 2063,346 C2119.52,445.34 2201.27,748.74 2055,969 C1999.98,1051.86 1892.29,1092.82 1807.56,1112.85 " fill="none" id="ImportFileController-to-BST" style="stroke:#A80036;stroke-width:1.0;stroke-dasharray:7.0,7.0;"/><polygon fill="#A80036" points="1802.52,1114.02,1812.1969,1115.8523,1807.3871,1112.8748,1810.3646,1108.065,1802.52,1114.02" style="stroke:#A80036;stroke-width:1.0;"/><!--MD5=[b3adc431982bd2b24b8fe3170afae8b8]
link ImportFileController to Ship--><path codeLine="229" d="M1889.12,291.19 C1873.29,304.92 1852.96,320.07 1832,329 C1784.88,349.09 1752.79,308.4 1718,346 C1635.75,434.89 1643.38,581.94 1661.18,681.21 " fill="none" id="ImportFileController-to-Ship" style="stroke:#A80036;stroke-width:1.0;stroke-dasharray:7.0,7.0;"/><polygon fill="#A80036" points="1662.09,686.19,1664.4033,676.6167,1661.1893,681.2718,1656.5341,678.0578,1662.09,686.19" style="stroke:#A80036;stroke-width:1.0;"/><!--MD5=[f714c528fae8277fb5a1461905d04e42]
link ImportFileController to ShipPosition--><path codeLine="230" d="M1890.21,291.19 C1874.34,305.29 1853.65,320.75 1832,329 C1792.8,343.95 1674.98,317.72 1644,346 C1619.25,368.58 1585.4,558.67 1565.8,681.35 " fill="none" id="ImportFileController-to-ShipPosition" style="stroke:#A80036;stroke-width:1.0;stroke-dasharray:7.0,7.0;"/><polygon fill="#A80036" points="1565,686.42,1570.3633,678.1596,1565.7849,681.482,1562.4625,676.9036,1565,686.42" style="stroke:#A80036;stroke-width:1.0;"/><!--MD5=[b81b511552aa7bbe9969deccf403e885]
link ShipPairUI to ShipPairController--><path codeLine="231" d="M326.21,94.74 C285.65,103.31 226.34,120.18 183,151 C155.85,170.31 133.23,200.88 118.33,224.58 " fill="none" id="ShipPairUI-to-ShipPairController" style="stroke:#A80036;stroke-width:1.0;stroke-dasharray:7.0,7.0;"/><polygon fill="#A80036" points="115.64,228.92,123.7802,223.3759,118.2733,224.6696,116.9795,219.1627,115.64,228.92" style="stroke:#A80036;stroke-width:1.0;"/><!--MD5=[12c4d8f07c55c4ab2429bfcc6272d703]
link ShipPairController to Company--><path codeLine="232" d="M129.31,291.27 C144.32,304.68 163.4,319.53 183,329 C214.16,344.06 227.45,331.76 259,346 C372.12,397.05 369.79,463.87 485,510 C565.35,542.17 591.68,529.7 678,536 C696.84,537.37 1343.14,532.33 1358,544 C1420.5,593.07 1425.25,695.95 1422.93,750.24 " fill="none" id="ShipPairController-to-Company" style="stroke:#A80036;stroke-width:1.0;stroke-dasharray:7.0,7.0;"/><polygon fill="#A80036" points="1422.68,755.33,1427.1119,746.5347,1422.9226,750.3359,1419.1213,746.1465,1422.68,755.33" style="stroke:#A80036;stroke-width:1.0;"/><!--MD5=[428e96535a9c7f4032c5c1de824d5103]
link ShipPairController to ShipStore--><path codeLine="233" d="M115.13,291.12 C146.02,345.43 219.15,458.87 316,510 C330.25,517.52 589.28,537.46 604,544 C659.32,568.58 711.62,608.22 755.51,648.33 " fill="none" id="ShipPairController-to-ShipStore" style="stroke:#A80036;stroke-width:1.0;stroke-dasharray:7.0,7.0;"/><polygon fill="#A80036" points="759.19,651.72,755.249,642.694,755.5007,648.3453,749.8494,648.5969,759.19,651.72" style="stroke:#A80036;stroke-width:1.0;"/><!--MD5=[33beadb755c41599f1fa7f4490374169]
link ShipPositionMapper to ShipPosition--><path codeLine="234" d="M1733.74,482.19 C1686.57,501.17 1635.32,524.92 1619,544 C1586.39,582.13 1569.15,634.76 1560.06,681.17 " fill="none" id="ShipPositionMapper-to-ShipPosition" style="stroke:#A80036;stroke-width:1.0;stroke-dasharray:7.0,7.0;"/><polygon fill="#A80036" points="1559.1,686.22,1564.7058,678.1221,1560.031,681.3074,1556.8457,676.6326,1559.1,686.22" style="stroke:#A80036;stroke-width:1.0;"/><!--MD5=[6ff179050628f81717097d27358f3ca5]
link ShipPositionMapper to ShipPositionDTO--><path codeLine="235" d="M1827.77,486.3 C1832.81,536.16 1841.9,626.19 1848.81,694.51 " fill="none" id="ShipPositionMapper-to-ShipPositionDTO" style="stroke:#A80036;stroke-width:1.0;stroke-dasharray:7.0,7.0;"/><polygon fill="#A80036" points="1849.34,699.8,1852.4193,690.4449,1848.8397,694.8251,1844.4594,691.2455,1849.34,699.8" style="stroke:#A80036;stroke-width:1.0;"/><!--MD5=[63658da600ce3f3429d98eb874820611]
link ShipMapper to Ship--><path codeLine="236" d="M1971.99,479.08 C1960.75,490.34 1946.8,502.27 1932,510 C1869.88,542.47 1830.98,498.11 1778,544 C1737.89,578.74 1715.42,633.03 1702.85,681.34 " fill="none" id="ShipMapper-to-Ship" style="stroke:#A80036;stroke-width:1.0;stroke-dasharray:7.0,7.0;"/><polygon fill="#A80036" points="1701.59,686.29,1707.7017,678.5668,1702.8329,681.4469,1699.9528,676.5782,1701.59,686.29" style="stroke:#A80036;stroke-width:1.0;"/><!--MD5=[8c6e049244b4084d277bfcbd907769c5]
link ShipMapper to ShipDTO--><path codeLine="237" d="M1998,479.16 C1998,528.78 1998,629.36 1998,701.75 " fill="none" id="ShipMapper-to-ShipDTO" style="stroke:#A80036;stroke-width:1.0;stroke-dasharray:7.0,7.0;"/><polygon fill="#A80036" points="1998,706.91,2002,697.91,1998,701.91,1994,697.91,1998,706.91" style="stroke:#A80036;stroke-width:1.0;"/><!--MD5=[cfa23fe3af72f0073a03815e1702643e]
@startuml
skinparam classAttributeIconSize 0

package "Controller"{
class ListAllShipsInformationController
class TopShipsWithTravelledDistanceController
class MakeSummaryController
class MessagesOrganizedController
class SearchShipController
class ImportFileController
class ShipPairController{
    +PairOfShips()
}
}

package "UI"{
class ListAllShipsInformationUI
class TopShipsWithTravelledDistanceUI
class MakeSummaryUI
class MessagesOrganizedUI
class SearchShipUI
class ImportFileUI
class ShipPairUI
}

package "Model"{
class Ship
class Company
class ShipPosition
class Summary
}

package utils{
class Printer
package store{
class ShipStore
}
}

package "Mappers"{
class ShipPositionMapper{
+toDTO(ShipPosition shipposition)
+toDTO(List<ShipPositionDTO> list)
}
class ShipMapper{
    +modelToDto(s)
}
}

package dto{
class ShipPositionDTO
class ShipDTO
}

package BST{
class BST
}

class SearchShipController{
    +getShipByMMSI(mmsi)
    +getShipByIMO(imo)
    +getShipByCallSign(callSign)
}

class MessagesOrganizedController{
+List<ShipPositionDTO> getMessagesOrganized(Date date)
+List<ShipPositionDTO> getMessagesOrganized(Date firstdate, Date lastdate)
}


class ShipStore{
+String getTopShipsWithTravelledDistance(Date firstDateAndTime, Date lastDateAndTime,int number_of_ships)
+List<ShipPosition> getMessagesOrganized(Date date)
+List<ShipPositionDTO> getMessagesOrganized(Date firstdate, Date lastdate)
+pairOfShips()
-orderList()
}

class BST{
+findListInAnInterval(firstposition,lastposition)
}


class TopShipsWithTravelledDistanceController{
+boolean getTopShipsWithTravelledDistance(Date firstDateAndTime, Date lastDateAndTime,int number_of_ships)
}

class ShipPosition{
-MMSI
-date
-LAT
-LON
-SOG
-COG
-heading
-cargo
-transciever
+getLatitude()
+getLongitude()
}

class ShipPositionDTO{
-MMSI
-date
-LAT
-LON
-SOG
-COG
-heading
-cargo
-transciever
}

class ImportFileController{
+read(file)
}

class Ship{
-MMSI
-name
-IMO
-callsign
-type
-length
-width
-draft
+getMMSI()
+getSp()
+getVesselName()
}

class ShipDTO{
-MMSI
-name
-IMO
-callsign
-type
-length
-width
-draft
}

class Company{
+getShipStore()
}

class BST{
+smallestElement()
+biggestElement()
+size()
+inOrder()
+findListInAnInterval(firstposition,lastposition)
}

class MakeSummaryController{
+makeSummary(shipCode)
+print(summary)
}

class ListAllShipsInformationController{
+getInformation()
+print(summary)
}

class ShipStore{
+getShipByMMSI(MMSI)
+getTravelDistance(list)
+getDeltaDistance(list)
+String getTopShipsWithTravelledDistance(Date firstDateAndTime, Date lastDateAndTime,int number_of_ships)
+getShipByIMO(IMO)
+getShipByCallSign(callSign)
+getTotalMovementTime(startBaseDateTime, endBaseDateTime)
+getMaxSOG(list)
+getMeanSOG(list)
+getMaxCOG(list)
+getMeanCOG(list)
}

class Summary{
-shipCode
-vesselName
-startBaseDateTime
-endBaseDateTime
-totalMovementTime
-totalMovements
-maxSOG
-meanSOG
-maxCOG
-meanCOG
-depLat
-depLong
-arrivalLat
-arrivalLong
-travelDistance
-deltaDistance
}


class Printer{
+print(string)
}

ListAllShipsInformationUI .-> ListAllShipsInformationController
ListAllShipsInformationController .- -> Company
ListAllShipsInformationController .- -> ShipStore
Company "1"- ->"1" ShipStore : Knows
ShipStore "1"->"*" Ship : registers
ShipStore "1"->"*" ShipPosition : registers
Ship "*"->"1" BST : stored
TopShipsWithTravelledDistanceUI ..> TopShipsWithTravelledDistanceController
TopShipsWithTravelledDistanceController ..> Company
TopShipsWithTravelledDistanceController ..> ShipStore
MakeSummaryUI .-> MakeSummaryController
MakeSummaryController .- -> Company
MakeSummaryController .- -> ShipStore
ShipStore .-> BST
Summary - -> Printer
MessagesOrganizedUI ..> MessagesOrganizedController
MessagesOrganizedController ..> Company
MessagesOrganizedController ..> ShipStore
MessagesOrganizedController ..> ShipPositionMapper
SearchShipUI ..> SearchShipController
SearchShipController ..> Company
SearchShipController ..> ShipStore
SearchShipController ..> ShipMapper
ImportFileUI .-> ImportFileController
ImportFileController .- -> Company
ImportFileController .-> ShipStore
ImportFileController .- -> BST
ImportFileController .- -> Ship
ImportFileController .- -> ShipPosition
ShipPairUI ..> ShipPairController
ShipPairController ..> Company
ShipPairController ..> ShipStore
ShipPositionMapper ..> ShipPosition
ShipPositionMapper ..> ShipPositionDTO
ShipMapper ..> Ship
ShipMapper ..> ShipDTO


@enduml

PlantUML version 1.2021.00(Sun Jan 10 10:25:05 GMT 2021)
(GPL source distribution)
Java Runtime: OpenJDK Runtime Environment
JVM: OpenJDK 64-Bit Server VM
Default Encoding: Cp1252
Language: pt
Country: PT
--></g></svg>