<?xml version="1.0" encoding="UTF-8" standalone="no"?><svg xmlns="http://www.w3.org/2000/svg" xmlns:xlink="http://www.w3.org/1999/xlink" contentScriptType="application/ecmascript" contentStyleType="text/css" height="397px" preserveAspectRatio="none" style="width:609px;height:397px;background:#FFFFFF;" version="1.1" viewBox="0 0 609 397" width="609px" zoomAndPan="magnify"><defs><filter height="300%" id="f1mpb51rpaa0yq" width="300%" x="-1" y="-1"><feGaussianBlur result="blurOut" stdDeviation="2.0"/><feColorMatrix in="blurOut" result="blurOut2" type="matrix" values="0 0 0 0 0 0 0 0 0 0 0 0 0 0 0 0 0 0 .4 0"/><feOffset dx="4.0" dy="4.0" in="blurOut2" result="blurOut3"/><feBlend in="SourceGraphic" in2="blurOut3" mode="normal"/></filter></defs><g><!--MD5=[64e2e010ba86d7988e5cd73bd64f61f9]
cluster ui--><polygon fill="#FFFFFF" filter="url(#f1mpb51rpaa0yq)" points="155,6,176,6,183,28.2969,365,28.2969,365,105,155,105,155,6" style="stroke:#000000;stroke-width:1.5;"/><line style="stroke:#000000;stroke-width:1.5;" x1="155" x2="183" y1="28.2969" y2="28.2969"/><text fill="#000000" font-family="sans-serif" font-size="14" font-weight="bold" lengthAdjust="spacing" textLength="15" x="159" y="20.9951">ui</text><!--MD5=[f4e70ef68289585296b9045165e58692]
cluster controllers--><polygon fill="#FFFFFF" filter="url(#f1mpb51rpaa0yq)" points="35,129,130,129,137,151.2969,485,151.2969,485,254,35,254,35,129" style="stroke:#000000;stroke-width:1.5;"/><line style="stroke:#000000;stroke-width:1.5;" x1="35" x2="137" y1="151.2969" y2="151.2969"/><text fill="#000000" font-family="sans-serif" font-size="14" font-weight="bold" lengthAdjust="spacing" textLength="89" x="39" y="143.9951">controllers</text><!--MD5=[c52f45833d539af9e29a9d34b8b7302b]
cluster utils--><polygon fill="#FFFFFF" filter="url(#f1mpb51rpaa0yq)" points="16,278,59,278,66,300.2969,118,300.2969,118,390,16,390,16,278" style="stroke:#000000;stroke-width:1.5;"/><line style="stroke:#000000;stroke-width:1.5;" x1="16" x2="66" y1="300.2969" y2="300.2969"/><text fill="#000000" font-family="sans-serif" font-size="14" font-weight="bold" lengthAdjust="spacing" textLength="37" x="20" y="292.9951">utils</text><!--MD5=[dce4c2b5694dd28223e7b1d160ba96c4]
cluster data--><polygon fill="#FFFFFF" filter="url(#f1mpb51rpaa0yq)" points="142,278,186,278,193,300.2969,592,300.2969,592,390,142,390,142,278" style="stroke:#000000;stroke-width:1.5;"/><line style="stroke:#000000;stroke-width:1.5;" x1="142" x2="193" y1="300.2969" y2="300.2969"/><text fill="#000000" font-family="sans-serif" font-size="14" font-weight="bold" lengthAdjust="spacing" textLength="38" x="146" y="292.9951">data</text><!--MD5=[b1dc03a1b0b1e77a0eb647635e734380]
class GetRouteOfAContainerUI--><rect codeLine="6" fill="#FEFECE" filter="url(#f1mpb51rpaa0yq)" height="48" id="GetRouteOfAContainerUI" style="stroke:#A80036;stroke-width:1.5;" width="178" x="171" y="41"/><ellipse cx="186" cy="57" fill="#ADD1B2" rx="11" ry="11" style="stroke:#A80036;stroke-width:1.0;"/><path d="M188.3438,52.6719 C187.4063,52.2344 186.8125,52.0938 185.9375,52.0938 C183.3125,52.0938 181.3125,54.1719 181.3125,56.8906 L181.3125,58.0156 C181.3125,60.5938 183.4219,62.4844 186.3125,62.4844 C187.5313,62.4844 188.6875,62.1875 189.4375,61.6406 C190.0156,61.2344 190.3438,60.7813 190.3438,60.3906 C190.3438,59.9375 189.9531,59.5469 189.4844,59.5469 C189.2656,59.5469 189.0625,59.625 188.875,59.8125 C188.4219,60.2969 188.4219,60.2969 188.2344,60.3906 C187.8125,60.6563 187.125,60.7813 186.3594,60.7813 C184.3125,60.7813 183.0156,59.6875 183.0156,57.9844 L183.0156,56.8906 C183.0156,55.1094 184.2656,53.7969 186,53.7969 C186.5781,53.7969 187.1875,53.9531 187.6563,54.2031 C188.1406,54.4844 188.3125,54.7031 188.4063,55.1094 C188.4688,55.5156 188.5,55.6406 188.6406,55.7656 C188.7813,55.9063 189.0156,56.0156 189.2344,56.0156 C189.5,56.0156 189.7656,55.875 189.9375,55.6563 C190.0469,55.5 190.0781,55.3125 190.0781,54.8906 L190.0781,53.4688 C190.0781,53.0313 190.0625,52.9063 189.9688,52.75 C189.8125,52.4844 189.5313,52.3438 189.2344,52.3438 C188.9375,52.3438 188.7344,52.4375 188.5156,52.75 L188.3438,52.6719 Z " fill="#000000"/><text fill="#000000" font-family="sans-serif" font-size="12" lengthAdjust="spacing" textLength="146" x="200" y="61.1543">GetRouteOfAContainerUI</text><line style="stroke:#A80036;stroke-width:1.5;" x1="172" x2="348" y1="73" y2="73"/><line style="stroke:#A80036;stroke-width:1.5;" x1="172" x2="348" y1="81" y2="81"/><!--MD5=[e60f82ac33d7a92453a5281284198405]
class GetRouteOfAContainerController--><rect codeLine="11" fill="#FEFECE" filter="url(#f1mpb51rpaa0yq)" height="73.6094" id="GetRouteOfAContainerController" style="stroke:#A80036;stroke-width:1.5;" width="417" x="51.5" y="164"/><ellipse cx="159.25" cy="180" fill="#ADD1B2" rx="11" ry="11" style="stroke:#A80036;stroke-width:1.0;"/><path d="M161.5938,175.6719 C160.6563,175.2344 160.0625,175.0938 159.1875,175.0938 C156.5625,175.0938 154.5625,177.1719 154.5625,179.8906 L154.5625,181.0156 C154.5625,183.5938 156.6719,185.4844 159.5625,185.4844 C160.7813,185.4844 161.9375,185.1875 162.6875,184.6406 C163.2656,184.2344 163.5938,183.7813 163.5938,183.3906 C163.5938,182.9375 163.2031,182.5469 162.7344,182.5469 C162.5156,182.5469 162.3125,182.625 162.125,182.8125 C161.6719,183.2969 161.6719,183.2969 161.4844,183.3906 C161.0625,183.6563 160.375,183.7813 159.6094,183.7813 C157.5625,183.7813 156.2656,182.6875 156.2656,180.9844 L156.2656,179.8906 C156.2656,178.1094 157.5156,176.7969 159.25,176.7969 C159.8281,176.7969 160.4375,176.9531 160.9063,177.2031 C161.3906,177.4844 161.5625,177.7031 161.6563,178.1094 C161.7188,178.5156 161.75,178.6406 161.8906,178.7656 C162.0313,178.9063 162.2656,179.0156 162.4844,179.0156 C162.75,179.0156 163.0156,178.875 163.1875,178.6563 C163.2969,178.5 163.3281,178.3125 163.3281,177.8906 L163.3281,176.4688 C163.3281,176.0313 163.3125,175.9063 163.2188,175.75 C163.0625,175.4844 162.7813,175.3438 162.4844,175.3438 C162.1875,175.3438 161.9844,175.4375 161.7656,175.75 L161.5938,175.6719 Z " fill="#000000"/><text fill="#000000" font-family="sans-serif" font-size="12" lengthAdjust="spacing" textLength="193" x="179.75" y="184.1543">GetRouteOfAContainerController</text><line style="stroke:#A80036;stroke-width:1.5;" x1="52.5" x2="467.5" y1="196" y2="196"/><line style="stroke:#A80036;stroke-width:1.5;" x1="52.5" x2="467.5" y1="204" y2="204"/><text fill="#000000" font-family="sans-serif" font-size="11" lengthAdjust="spacing" textLength="405" x="57.5" y="218.2104">+getRouteOfAContainer(clientRegistration, containerNumber, ISOCode)</text><text fill="#000000" font-family="sans-serif" font-size="11" lengthAdjust="spacing" textLength="182" x="57.5" y="231.0151">+printer(fileName, stringToPrint)</text><!--MD5=[69f2f3ad3645114d26612368d508f737]
class Printer--><rect codeLine="17" fill="#FEFECE" filter="url(#f1mpb51rpaa0yq)" height="60.8047" id="Printer" style="stroke:#A80036;stroke-width:1.5;" width="70" x="32" y="313"/><ellipse cx="47" cy="329" fill="#ADD1B2" rx="11" ry="11" style="stroke:#A80036;stroke-width:1.0;"/><path d="M49.3438,324.6719 C48.4063,324.2344 47.8125,324.0938 46.9375,324.0938 C44.3125,324.0938 42.3125,326.1719 42.3125,328.8906 L42.3125,330.0156 C42.3125,332.5938 44.4219,334.4844 47.3125,334.4844 C48.5313,334.4844 49.6875,334.1875 50.4375,333.6406 C51.0156,333.2344 51.3438,332.7813 51.3438,332.3906 C51.3438,331.9375 50.9531,331.5469 50.4844,331.5469 C50.2656,331.5469 50.0625,331.625 49.875,331.8125 C49.4219,332.2969 49.4219,332.2969 49.2344,332.3906 C48.8125,332.6563 48.125,332.7813 47.3594,332.7813 C45.3125,332.7813 44.0156,331.6875 44.0156,329.9844 L44.0156,328.8906 C44.0156,327.1094 45.2656,325.7969 47,325.7969 C47.5781,325.7969 48.1875,325.9531 48.6563,326.2031 C49.1406,326.4844 49.3125,326.7031 49.4063,327.1094 C49.4688,327.5156 49.5,327.6406 49.6406,327.7656 C49.7813,327.9063 50.0156,328.0156 50.2344,328.0156 C50.5,328.0156 50.7656,327.875 50.9375,327.6563 C51.0469,327.5 51.0781,327.3125 51.0781,326.8906 L51.0781,325.4688 C51.0781,325.0313 51.0625,324.9063 50.9688,324.75 C50.8125,324.4844 50.5313,324.3438 50.2344,324.3438 C49.9375,324.3438 49.7344,324.4375 49.5156,324.75 L49.3438,324.6719 Z " fill="#000000"/><text fill="#000000" font-family="sans-serif" font-size="12" lengthAdjust="spacing" textLength="38" x="61" y="333.1543">Printer</text><line style="stroke:#A80036;stroke-width:1.5;" x1="33" x2="101" y1="345" y2="345"/><line style="stroke:#A80036;stroke-width:1.5;" x1="33" x2="101" y1="353" y2="353"/><text fill="#000000" font-family="sans-serif" font-size="11" lengthAdjust="spacing" textLength="42" x="38" y="367.2104">+print()</text><!--MD5=[10d6b782343ea838315f52391615d48e]
class RouteOfContainer--><rect codeLine="23" fill="#FEFECE" filter="url(#f1mpb51rpaa0yq)" height="60.8047" id="RouteOfContainer" style="stroke:#A80036;stroke-width:1.5;" width="417" x="158.5" y="313"/><ellipse cx="310.25" cy="329" fill="#ADD1B2" rx="11" ry="11" style="stroke:#A80036;stroke-width:1.0;"/><path d="M312.5938,324.6719 C311.6563,324.2344 311.0625,324.0938 310.1875,324.0938 C307.5625,324.0938 305.5625,326.1719 305.5625,328.8906 L305.5625,330.0156 C305.5625,332.5938 307.6719,334.4844 310.5625,334.4844 C311.7813,334.4844 312.9375,334.1875 313.6875,333.6406 C314.2656,333.2344 314.5938,332.7813 314.5938,332.3906 C314.5938,331.9375 314.2031,331.5469 313.7344,331.5469 C313.5156,331.5469 313.3125,331.625 313.125,331.8125 C312.6719,332.2969 312.6719,332.2969 312.4844,332.3906 C312.0625,332.6563 311.375,332.7813 310.6094,332.7813 C308.5625,332.7813 307.2656,331.6875 307.2656,329.9844 L307.2656,328.8906 C307.2656,327.1094 308.5156,325.7969 310.25,325.7969 C310.8281,325.7969 311.4375,325.9531 311.9063,326.2031 C312.3906,326.4844 312.5625,326.7031 312.6563,327.1094 C312.7188,327.5156 312.75,327.6406 312.8906,327.7656 C313.0313,327.9063 313.2656,328.0156 313.4844,328.0156 C313.75,328.0156 314.0156,327.875 314.1875,327.6563 C314.2969,327.5 314.3281,327.3125 314.3281,326.8906 L314.3281,325.4688 C314.3281,325.0313 314.3125,324.9063 314.2188,324.75 C314.0625,324.4844 313.7813,324.3438 313.4844,324.3438 C313.1875,324.3438 312.9844,324.4375 312.7656,324.75 L312.5938,324.6719 Z " fill="#000000"/><text fill="#000000" font-family="sans-serif" font-size="12" lengthAdjust="spacing" textLength="105" x="330.75" y="333.1543">RouteOfContainer</text><line style="stroke:#A80036;stroke-width:1.5;" x1="159.5" x2="574.5" y1="345" y2="345"/><line style="stroke:#A80036;stroke-width:1.5;" x1="159.5" x2="574.5" y1="353" y2="353"/><text fill="#000000" font-family="sans-serif" font-size="11" lengthAdjust="spacing" textLength="405" x="164.5" y="367.2104">+getRouteOfAContainer(clientRegistration, containerNumber, ISOCode)</text><!--MD5=[9908d64b25c766fddbb912594647f195]
link GetRouteOfAContainerUI to GetRouteOfAContainerController--><path codeLine="30" d="M260,89.035 C260,108.167 260,135.86 260,158.795 " fill="none" id="GetRouteOfAContainerUI-to-GetRouteOfAContainerController" style="stroke:#A80036;stroke-width:1.0;stroke-dasharray:7.0,7.0;"/><polygon fill="#A80036" points="260,163.911,264,154.911,260,158.911,256,154.911,260,163.911" style="stroke:#A80036;stroke-width:1.0;"/><!--MD5=[de0ba683d3b648126817a79301476df9]
link GetRouteOfAContainerController to Printer--><path codeLine="31" d="M190.791,238.09 C174.297,247.71 157.108,258.619 142,270 C126.53,281.653 110.897,296.223 97.9362,309.2384 " fill="none" id="GetRouteOfAContainerController-to-Printer" style="stroke:#A80036;stroke-width:1.0;stroke-dasharray:7.0,7.0;"/><polygon fill="#A80036" points="94.3538,312.8645,103.5246,309.2733,97.8678,309.3076,97.8336,303.6509,94.3538,312.8645" style="stroke:#A80036;stroke-width:1.0;"/><!--MD5=[d26da56706f9c731ee4aa2517a62d2d9]
link GetRouteOfAContainerController to RouteOfContainer--><path codeLine="32" d="M287.555,238.182 C304.042,259.83 324.865,287.173 341.056,308.4339 " fill="none" id="GetRouteOfAContainerController-to-RouteOfContainer" style="stroke:#A80036;stroke-width:1.0;stroke-dasharray:7.0,7.0;"/><polygon fill="#A80036" points="344.23,312.6015,341.9587,303.0181,341.2004,308.6239,335.5946,307.8655,344.23,312.6015" style="stroke:#A80036;stroke-width:1.0;"/><!--MD5=[fad0df147654702ddce14e3f9e4f36e5]
@startuml
'https://plantuml.com/class-diagram

skinparam classAttributeIconSize 0

package "ui" {
class GetRouteOfAContainerUI{
}
}

package "controllers" {
class GetRouteOfAContainerController{
+getRouteOfAContainer(clientRegistration, containerNumber, ISOCode)
+printer(fileName, stringToPrint)
}
}
package utils{
class Printer{
+print()
}
}

package data{
class RouteOfContainer{
+getRouteOfAContainer(clientRegistration, containerNumber, ISOCode)
}
}



GetRouteOfAContainerUI ..> GetRouteOfAContainerController
GetRouteOfAContainerController ..> Printer
GetRouteOfAContainerController ..> RouteOfContainer
@enduml

@startuml

skinparam classAttributeIconSize 0

package "ui" {
class GetRouteOfAContainerUI{
}
}

package "controllers" {
class GetRouteOfAContainerController{
+getRouteOfAContainer(clientRegistration, containerNumber, ISOCode)
+printer(fileName, stringToPrint)
}
}
package utils{
class Printer{
+print()
}
}

package data{
class RouteOfContainer{
+getRouteOfAContainer(clientRegistration, containerNumber, ISOCode)
}
}



GetRouteOfAContainerUI ..> GetRouteOfAContainerController
GetRouteOfAContainerController ..> Printer
GetRouteOfAContainerController ..> RouteOfContainer
@enduml

PlantUML version 1.2021.17beta4(Unknown compile time)
(GPL source distribution)
Java Runtime: Java(TM) SE Runtime Environment
JVM: Java HotSpot(TM) 64-Bit Server VM
Default Encoding: UTF-8
Language: en
Country: US
--></g></svg>