<?xml version="1.0" encoding="UTF-8" standalone="no"?><svg xmlns="http://www.w3.org/2000/svg" xmlns:xlink="http://www.w3.org/1999/xlink" contentScriptType="application/ecmascript" contentStyleType="text/css" height="397px" preserveAspectRatio="none" style="width:323px;height:397px;background:#FFFFFF;" version="1.1" viewBox="0 0 323 397" width="323px" zoomAndPan="magnify"><defs><filter height="300%" id="f1x12p8gtqx5fq" width="300%" x="-1" y="-1"><feGaussianBlur result="blurOut" stdDeviation="2.0"/><feColorMatrix in="blurOut" result="blurOut2" type="matrix" values="0 0 0 0 0 0 0 0 0 0 0 0 0 0 0 0 0 0 .4 0"/><feOffset dx="4.0" dy="4.0" in="blurOut2" result="blurOut3"/><feBlend in="SourceGraphic" in2="blurOut3" mode="normal"/></filter></defs><g><!--MD5=[64e2e010ba86d7988e5cd73bd64f61f9]
cluster ui--><polygon fill="#FFFFFF" filter="url(#f1x12p8gtqx5fq)" points="64,6,85,6,92,28.2969,228,28.2969,228,105,64,105,64,6" style="stroke:#000000;stroke-width:1.5;"/><line style="stroke:#000000;stroke-width:1.5;" x1="64" x2="92" y1="28.2969" y2="28.2969"/><text fill="#000000" font-family="sans-serif" font-size="14" font-weight="bold" lengthAdjust="spacing" textLength="15" x="68" y="20.9951">ui</text><!--MD5=[f4e70ef68289585296b9045165e58692]
cluster controllers--><polygon fill="#FFFFFF" filter="url(#f1x12p8gtqx5fq)" points="36,129,131,129,138,151.2969,256,151.2969,256,254,36,254,36,129" style="stroke:#000000;stroke-width:1.5;"/><line style="stroke:#000000;stroke-width:1.5;" x1="36" x2="138" y1="151.2969" y2="151.2969"/><text fill="#000000" font-family="sans-serif" font-size="14" font-weight="bold" lengthAdjust="spacing" textLength="89" x="40" y="143.9951">controllers</text><!--MD5=[c52f45833d539af9e29a9d34b8b7302b]
cluster utils--><polygon fill="#FFFFFF" filter="url(#f1x12p8gtqx5fq)" points="16,278,59,278,66,300.2969,118,300.2969,118,390,16,390,16,278" style="stroke:#000000;stroke-width:1.5;"/><line style="stroke:#000000;stroke-width:1.5;" x1="16" x2="66" y1="300.2969" y2="300.2969"/><text fill="#000000" font-family="sans-serif" font-size="14" font-weight="bold" lengthAdjust="spacing" textLength="37" x="20" y="292.9951">utils</text><!--MD5=[dce4c2b5694dd28223e7b1d160ba96c4]
cluster data--><polygon fill="#FFFFFF" filter="url(#f1x12p8gtqx5fq)" points="142,278,186,278,193,300.2969,306,300.2969,306,390,142,390,142,278" style="stroke:#000000;stroke-width:1.5;"/><line style="stroke:#000000;stroke-width:1.5;" x1="142" x2="193" y1="300.2969" y2="300.2969"/><text fill="#000000" font-family="sans-serif" font-size="14" font-weight="bold" lengthAdjust="spacing" textLength="38" x="146" y="292.9951">data</text><!--MD5=[267f12e48ab0f084af5d9e8a4b19e9c8]
class ShipsAvailableUI--><rect codeLine="6" fill="#FEFECE" filter="url(#f1x12p8gtqx5fq)" height="48" id="ShipsAvailableUI" style="stroke:#A80036;stroke-width:1.5;" width="131" x="80.5" y="41"/><ellipse cx="95.5" cy="57" fill="#ADD1B2" rx="11" ry="11" style="stroke:#A80036;stroke-width:1.0;"/><path d="M97.8438,52.6719 C96.9063,52.2344 96.3125,52.0938 95.4375,52.0938 C92.8125,52.0938 90.8125,54.1719 90.8125,56.8906 L90.8125,58.0156 C90.8125,60.5938 92.9219,62.4844 95.8125,62.4844 C97.0313,62.4844 98.1875,62.1875 98.9375,61.6406 C99.5156,61.2344 99.8438,60.7813 99.8438,60.3906 C99.8438,59.9375 99.4531,59.5469 98.9844,59.5469 C98.7656,59.5469 98.5625,59.625 98.375,59.8125 C97.9219,60.2969 97.9219,60.2969 97.7344,60.3906 C97.3125,60.6563 96.625,60.7813 95.8594,60.7813 C93.8125,60.7813 92.5156,59.6875 92.5156,57.9844 L92.5156,56.8906 C92.5156,55.1094 93.7656,53.7969 95.5,53.7969 C96.0781,53.7969 96.6875,53.9531 97.1563,54.2031 C97.6406,54.4844 97.8125,54.7031 97.9063,55.1094 C97.9688,55.5156 98,55.6406 98.1406,55.7656 C98.2813,55.9063 98.5156,56.0156 98.7344,56.0156 C99,56.0156 99.2656,55.875 99.4375,55.6563 C99.5469,55.5 99.5781,55.3125 99.5781,54.8906 L99.5781,53.4688 C99.5781,53.0313 99.5625,52.9063 99.4688,52.75 C99.3125,52.4844 99.0313,52.3438 98.7344,52.3438 C98.4375,52.3438 98.2344,52.4375 98.0156,52.75 L97.8438,52.6719 Z " fill="#000000"/><text fill="#000000" font-family="sans-serif" font-size="12" lengthAdjust="spacing" textLength="99" x="109.5" y="61.1543">ShipsAvailableUI</text><line style="stroke:#A80036;stroke-width:1.5;" x1="81.5" x2="210.5" y1="73" y2="73"/><line style="stroke:#A80036;stroke-width:1.5;" x1="81.5" x2="210.5" y1="81" y2="81"/><!--MD5=[dedd3d5e60ea094665c2b3407b263ee6]
class ShipsAvailableController--><rect codeLine="11" fill="#FEFECE" filter="url(#f1x12p8gtqx5fq)" height="73.6094" id="ShipsAvailableController" style="stroke:#A80036;stroke-width:1.5;" width="188" x="52" y="164"/><ellipse cx="71.5" cy="180" fill="#ADD1B2" rx="11" ry="11" style="stroke:#A80036;stroke-width:1.0;"/><path d="M73.8438,175.6719 C72.9063,175.2344 72.3125,175.0938 71.4375,175.0938 C68.8125,175.0938 66.8125,177.1719 66.8125,179.8906 L66.8125,181.0156 C66.8125,183.5938 68.9219,185.4844 71.8125,185.4844 C73.0313,185.4844 74.1875,185.1875 74.9375,184.6406 C75.5156,184.2344 75.8438,183.7813 75.8438,183.3906 C75.8438,182.9375 75.4531,182.5469 74.9844,182.5469 C74.7656,182.5469 74.5625,182.625 74.375,182.8125 C73.9219,183.2969 73.9219,183.2969 73.7344,183.3906 C73.3125,183.6563 72.625,183.7813 71.8594,183.7813 C69.8125,183.7813 68.5156,182.6875 68.5156,180.9844 L68.5156,179.8906 C68.5156,178.1094 69.7656,176.7969 71.5,176.7969 C72.0781,176.7969 72.6875,176.9531 73.1563,177.2031 C73.6406,177.4844 73.8125,177.7031 73.9063,178.1094 C73.9688,178.5156 74,178.6406 74.1406,178.7656 C74.2813,178.9063 74.5156,179.0156 74.7344,179.0156 C75,179.0156 75.2656,178.875 75.4375,178.6563 C75.5469,178.5 75.5781,178.3125 75.5781,177.8906 L75.5781,176.4688 C75.5781,176.0313 75.5625,175.9063 75.4688,175.75 C75.3125,175.4844 75.0313,175.3438 74.7344,175.3438 C74.4375,175.3438 74.2344,175.4375 74.0156,175.75 L73.8438,175.6719 Z " fill="#000000"/><text fill="#000000" font-family="sans-serif" font-size="12" lengthAdjust="spacing" textLength="146" x="86.5" y="184.1543">ShipsAvailableController</text><line style="stroke:#A80036;stroke-width:1.5;" x1="53" x2="239" y1="196" y2="196"/><line style="stroke:#A80036;stroke-width:1.5;" x1="53" x2="239" y1="204" y2="204"/><text fill="#000000" font-family="sans-serif" font-size="11" lengthAdjust="spacing" textLength="120" x="58" y="218.2104">+getShipsAvailable()</text><text fill="#000000" font-family="sans-serif" font-size="11" lengthAdjust="spacing" textLength="176" x="58" y="231.0151">+printer(fileName, tringToPrint)</text><!--MD5=[69f2f3ad3645114d26612368d508f737]
class Printer--><rect codeLine="17" fill="#FEFECE" filter="url(#f1x12p8gtqx5fq)" height="60.8047" id="Printer" style="stroke:#A80036;stroke-width:1.5;" width="70" x="32" y="313"/><ellipse cx="47" cy="329" fill="#ADD1B2" rx="11" ry="11" style="stroke:#A80036;stroke-width:1.0;"/><path d="M49.3438,324.6719 C48.4063,324.2344 47.8125,324.0938 46.9375,324.0938 C44.3125,324.0938 42.3125,326.1719 42.3125,328.8906 L42.3125,330.0156 C42.3125,332.5938 44.4219,334.4844 47.3125,334.4844 C48.5313,334.4844 49.6875,334.1875 50.4375,333.6406 C51.0156,333.2344 51.3438,332.7813 51.3438,332.3906 C51.3438,331.9375 50.9531,331.5469 50.4844,331.5469 C50.2656,331.5469 50.0625,331.625 49.875,331.8125 C49.4219,332.2969 49.4219,332.2969 49.2344,332.3906 C48.8125,332.6563 48.125,332.7813 47.3594,332.7813 C45.3125,332.7813 44.0156,331.6875 44.0156,329.9844 L44.0156,328.8906 C44.0156,327.1094 45.2656,325.7969 47,325.7969 C47.5781,325.7969 48.1875,325.9531 48.6563,326.2031 C49.1406,326.4844 49.3125,326.7031 49.4063,327.1094 C49.4688,327.5156 49.5,327.6406 49.6406,327.7656 C49.7813,327.9063 50.0156,328.0156 50.2344,328.0156 C50.5,328.0156 50.7656,327.875 50.9375,327.6563 C51.0469,327.5 51.0781,327.3125 51.0781,326.8906 L51.0781,325.4688 C51.0781,325.0313 51.0625,324.9063 50.9688,324.75 C50.8125,324.4844 50.5313,324.3438 50.2344,324.3438 C49.9375,324.3438 49.7344,324.4375 49.5156,324.75 L49.3438,324.6719 Z " fill="#000000"/><text fill="#000000" font-family="sans-serif" font-size="12" lengthAdjust="spacing" textLength="38" x="61" y="333.1543">Printer</text><line style="stroke:#A80036;stroke-width:1.5;" x1="33" x2="101" y1="345" y2="345"/><line style="stroke:#A80036;stroke-width:1.5;" x1="33" x2="101" y1="353" y2="353"/><text fill="#000000" font-family="sans-serif" font-size="11" lengthAdjust="spacing" textLength="42" x="38" y="367.2104">+print()</text><!--MD5=[c0c5af21b5505afb892b11f5a81c7b1e]
class ShipsAvailable--><rect codeLine="22" fill="#FEFECE" filter="url(#f1x12p8gtqx5fq)" height="60.8047" id="ShipsAvailable" style="stroke:#A80036;stroke-width:1.5;" width="132" x="158" y="313"/><ellipse cx="178.85" cy="329" fill="#ADD1B2" rx="11" ry="11" style="stroke:#A80036;stroke-width:1.0;"/><path d="M181.1938,324.6719 C180.2563,324.2344 179.6625,324.0938 178.7875,324.0938 C176.1625,324.0938 174.1625,326.1719 174.1625,328.8906 L174.1625,330.0156 C174.1625,332.5938 176.2719,334.4844 179.1625,334.4844 C180.3813,334.4844 181.5375,334.1875 182.2875,333.6406 C182.8656,333.2344 183.1938,332.7813 183.1938,332.3906 C183.1938,331.9375 182.8031,331.5469 182.3344,331.5469 C182.1156,331.5469 181.9125,331.625 181.725,331.8125 C181.2719,332.2969 181.2719,332.2969 181.0844,332.3906 C180.6625,332.6563 179.975,332.7813 179.2094,332.7813 C177.1625,332.7813 175.8656,331.6875 175.8656,329.9844 L175.8656,328.8906 C175.8656,327.1094 177.1156,325.7969 178.85,325.7969 C179.4281,325.7969 180.0375,325.9531 180.5063,326.2031 C180.9906,326.4844 181.1625,326.7031 181.2563,327.1094 C181.3188,327.5156 181.35,327.6406 181.4906,327.7656 C181.6313,327.9063 181.8656,328.0156 182.0844,328.0156 C182.35,328.0156 182.6156,327.875 182.7875,327.6563 C182.8969,327.5 182.9281,327.3125 182.9281,326.8906 L182.9281,325.4688 C182.9281,325.0313 182.9125,324.9063 182.8188,324.75 C182.6625,324.4844 182.3813,324.3438 182.0844,324.3438 C181.7875,324.3438 181.5844,324.4375 181.3656,324.75 L181.1938,324.6719 Z " fill="#000000"/><text fill="#000000" font-family="sans-serif" font-size="12" lengthAdjust="spacing" textLength="87" x="194.15" y="333.1543">ShipsAvailable</text><line style="stroke:#A80036;stroke-width:1.5;" x1="159" x2="289" y1="345" y2="345"/><line style="stroke:#A80036;stroke-width:1.5;" x1="159" x2="289" y1="353" y2="353"/><text fill="#000000" font-family="sans-serif" font-size="11" lengthAdjust="spacing" textLength="120" x="164" y="367.2104">+getShipsAvailable()</text><!--MD5=[83ffc17d7fe65a1cde1b68ddc6e01c7e]
link ShipsAvailableUI to ShipsAvailableController--><path codeLine="29" d="M146,89.035 C146,108.167 146,135.86 146,158.795 " fill="none" id="ShipsAvailableUI-to-ShipsAvailableController" style="stroke:#A80036;stroke-width:1.0;stroke-dasharray:7.0,7.0;"/><polygon fill="#A80036" points="146,163.911,150,154.911,146,158.911,142,154.911,146,163.911" style="stroke:#A80036;stroke-width:1.0;"/><!--MD5=[fecdb9573f11d7b5efc1cc34225d924c]
link ShipsAvailableController to Printer--><path codeLine="30" d="M125.656,238.182 C113.534,259.74 98.2371,286.945 86.3042,308.1678 " fill="none" id="ShipsAvailableController-to-Printer" style="stroke:#A80036;stroke-width:1.0;stroke-dasharray:7.0,7.0;"/><polygon fill="#A80036" points="83.8113,312.6015,91.709,306.717,86.2619,308.2432,84.7357,302.7961,83.8113,312.6015" style="stroke:#A80036;stroke-width:1.0;"/><!--MD5=[d846fdfd6c9263c538eda93a0cea9bca]
link ShipsAvailableController to ShipsAvailable--><path codeLine="31" d="M166.087,238.182 C178.055,259.74 193.158,286.945 204.94,308.1678 " fill="none" id="ShipsAvailableController-to-ShipsAvailable" style="stroke:#A80036;stroke-width:1.0;stroke-dasharray:7.0,7.0;"/><polygon fill="#A80036" points="207.402,312.6015,206.5305,302.7913,204.975,308.23,199.5362,306.6745,207.402,312.6015" style="stroke:#A80036;stroke-width:1.0;"/><!--MD5=[c7504c12cbbfccdbbcf2729b0021ca72]
@startuml
'https://plantuml.com/class-diagram

skinparam classAttributeIconSize 0

package "ui" {
class ShipsAvailableUI{
}
}

package "controllers" {
class ShipsAvailableController{
+getShipsAvailable()
+printer(fileName, tringToPrint)
}
}
package utils{
class Printer{
+print()
}
}
package data{
class ShipsAvailable{
+getShipsAvailable()
}
}



ShipsAvailableUI ..> ShipsAvailableController
ShipsAvailableController ..> Printer
ShipsAvailableController ..> ShipsAvailable
@enduml

@startuml

skinparam classAttributeIconSize 0

package "ui" {
class ShipsAvailableUI{
}
}

package "controllers" {
class ShipsAvailableController{
+getShipsAvailable()
+printer(fileName, tringToPrint)
}
}
package utils{
class Printer{
+print()
}
}
package data{
class ShipsAvailable{
+getShipsAvailable()
}
}



ShipsAvailableUI ..> ShipsAvailableController
ShipsAvailableController ..> Printer
ShipsAvailableController ..> ShipsAvailable
@enduml

PlantUML version 1.2021.16beta1(Unknown compile time)
(GPL source distribution)
Java Runtime: Java(TM) SE Runtime Environment
JVM: Java HotSpot(TM) 64-Bit Server VM
Default Encoding: UTF-8
Language: en
Country: US
--></g></svg>