<?xml version="1.0" encoding="UTF-8" standalone="no"?><svg xmlns="http://www.w3.org/2000/svg" xmlns:xlink="http://www.w3.org/1999/xlink" contentScriptType="application/ecmascript" contentStyleType="text/css" height="923px" preserveAspectRatio="none" style="width:706px;height:923px;" version="1.1" viewBox="0 0 706 923" width="706px" zoomAndPan="magnify"><defs><filter height="300%" id="f1x9uk6eg9jyic" width="300%" x="-1" y="-1"><feGaussianBlur result="blurOut" stdDeviation="2.0"/><feColorMatrix in="blurOut" result="blurOut2" type="matrix" values="0 0 0 0 0 0 0 0 0 0 0 0 0 0 0 0 0 0 .4 0"/><feOffset dx="4.0" dy="4.0" in="blurOut2" result="blurOut3"/><feBlend in="SourceGraphic" in2="blurOut3" mode="normal"/></filter></defs><g><!--MD5=[1f2cfc53d9d308f53762fd0fcbaa4873]
cluster Controller--><polygon fill="#FFFFFF" filter="url(#f1x9uk6eg9jyic)" points="154,159,231,159,238,182.6094,400,182.6094,400,307,154,307,154,159" style="stroke:#000000;stroke-width:1.5;"/><line style="stroke:#000000;stroke-width:1.5;" x1="154" x2="238" y1="182.6094" y2="182.6094"/><text fill="#000000" font-family="sans-serif" font-size="14" font-weight="bold" lengthAdjust="spacing" textLength="71" x="158" y="175.5332">Controller</text><!--MD5=[9681dc6e01e10c6b4fe06895ae94f592]
cluster UI--><polygon fill="#FFFFFF" filter="url(#f1x9uk6eg9jyic)" points="175,6,195,6,202,29.6094,379,29.6094,379,126,175,126,175,6" style="stroke:#000000;stroke-width:1.5;"/><line style="stroke:#000000;stroke-width:1.5;" x1="175" x2="202" y1="29.6094" y2="29.6094"/><text fill="#000000" font-family="sans-serif" font-size="14" font-weight="bold" lengthAdjust="spacing" textLength="14" x="179" y="22.5332">UI</text><!--MD5=[15636c1ca4a123c16a2a1a8e90aca7a9]
cluster Model--><polygon fill="#FFFFFF" filter="url(#f1x9uk6eg9jyic)" points="331,419,381,419,388,442.6094,689,442.6094,689,691,331,691,331,419" style="stroke:#000000;stroke-width:1.5;"/><line style="stroke:#000000;stroke-width:1.5;" x1="331" x2="388" y1="442.6094" y2="442.6094"/><text fill="#000000" font-family="sans-serif" font-size="14" font-weight="bold" lengthAdjust="spacing" textLength="44" x="335" y="435.5332">Model</text><!--MD5=[c52f45833d539af9e29a9d34b8b7302b]
cluster utils--><polygon fill="#FFFFFF" filter="url(#f1x9uk6eg9jyic)" points="16,430,52,430,59,453.6094,307,453.6094,307,660,16,660,16,430" style="stroke:#000000;stroke-width:1.5;"/><line style="stroke:#000000;stroke-width:1.5;" x1="16" x2="59" y1="453.6094" y2="453.6094"/><text fill="#000000" font-family="sans-serif" font-size="14" font-weight="bold" lengthAdjust="spacing" textLength="30" x="20" y="446.5332">utils</text><!--MD5=[c23849cc5f4a85746a20de4317c530fc]
cluster store--><polygon fill="#FFFFFF" filter="url(#f1x9uk6eg9jyic)" points="125,474,168,474,175,497.6094,283,497.6094,283,636,125,636,125,474" style="stroke:#000000;stroke-width:1.5;"/><line style="stroke:#000000;stroke-width:1.5;" x1="125" x2="175" y1="497.6094" y2="497.6094"/><text fill="#000000" font-family="sans-serif" font-size="14" font-weight="bold" lengthAdjust="spacing" textLength="37" x="129" y="490.5332">store</text><!--MD5=[494b4dc93ed5acf56d33c38353fc258f]
cluster BST--><polygon fill="#FFFFFF" filter="url(#f1x9uk6eg9jyic)" points="402,741,435,741,442,764.6094,536,764.6094,536,916,402,916,402,741" style="stroke:#000000;stroke-width:1.5;"/><line style="stroke:#000000;stroke-width:1.5;" x1="402" x2="442" y1="764.6094" y2="764.6094"/><text fill="#000000" font-family="sans-serif" font-size="14" font-weight="bold" lengthAdjust="spacing" textLength="27" x="406" y="757.5332">BST</text><!--MD5=[6cbdc21a546677faed600e7167aecdbc]
class ListAllShipsInformationController--><rect codeLine="66" fill="#FEFECE" filter="url(#f1x9uk6eg9jyic)" height="75.6719" id="ListAllShipsInformationController" style="stroke:#A80036;stroke-width:1.5;" width="213" x="170.5" y="215"/><ellipse cx="185.5" cy="231" fill="#ADD1B2" rx="11" ry="11" style="stroke:#A80036;stroke-width:1.0;"/><path d="M187.5,227.5 Q187.7031,227 187.9375,226.75 Q188.1719,226.5 188.4375,226.5 Q188.9063,226.5 189.2031,226.7813 Q189.5,227.0625 189.5,227.7188 L189.5,229.2813 Q189.5,229.9375 189.2188,230.2188 Q188.9375,230.5 188.5,230.5 Q188.1094,230.5 187.8594,230.3281 Q187.6094,230.1563 187.5,229.7031 Q187.4531,229.3906 187.2813,229.2188 Q186.9688,228.8906 186.4063,228.7031 Q185.8438,228.5 185.2813,228.5 Q184.5781,228.5 183.9844,228.7813 Q183.4063,229.0625 182.9531,229.6875 Q182.5,230.3125 182.5,231.1719 L182.5,232.0938 Q182.5,233.125 183.3438,233.8125 Q184.1875,234.5 185.6875,234.5 Q186.5781,234.5 187.2031,234.2969 Q187.5625,234.1875 187.9688,233.8281 Q188.2344,233.625 188.375,233.5625 Q188.5156,233.5 188.6875,233.5 Q189.0156,233.5 189.25,233.7656 Q189.5,234.0156 189.5,234.375 Q189.5,234.7188 189.1563,235.125 Q188.6563,235.7188 187.8594,236.0469 Q186.8125,236.5 185.5313,236.5 Q184.0313,236.5 182.8281,235.9063 Q181.8594,235.4375 181.1719,234.4219 Q180.5,233.4063 180.5,232.2031 L180.5,231.1094 Q180.5,229.8594 181.0938,228.7656 Q181.7031,227.6719 182.75,227.0938 Q183.8125,226.5 185,226.5 Q185.7188,226.5 186.3438,226.75 Q186.9688,227 187.5,227.5 Z " fill="#000000"/><text fill="#000000" font-family="sans-serif" font-size="12" lengthAdjust="spacing" textLength="181" x="199.5" y="235.9102">ListAllShipsInformationController</text><line style="stroke:#A80036;stroke-width:1.5;" x1="171.5" x2="382.5" y1="247" y2="247"/><line style="stroke:#A80036;stroke-width:1.5;" x1="171.5" x2="382.5" y1="255" y2="255"/><text fill="#000000" font-family="sans-serif" font-size="11" lengthAdjust="spacing" textLength="82" x="176.5" y="270.4189">+getInformation()</text><text fill="#000000" font-family="sans-serif" font-size="11" lengthAdjust="spacing" textLength="79" x="176.5" y="284.2549">+print(summary)</text><!--MD5=[88a7a7a0b20a474e57086c6090edc453]
class ListAllShipsInformationUI--><rect codeLine="8" fill="#FEFECE" filter="url(#f1x9uk6eg9jyic)" height="48" id="ListAllShipsInformationUI" style="stroke:#A80036;stroke-width:1.5;" width="171" x="191.5" y="62"/><ellipse cx="206.5" cy="78" fill="#ADD1B2" rx="11" ry="11" style="stroke:#A80036;stroke-width:1.0;"/><path d="M208.5,74.5 Q208.7031,74 208.9375,73.75 Q209.1719,73.5 209.4375,73.5 Q209.9063,73.5 210.2031,73.7813 Q210.5,74.0625 210.5,74.7188 L210.5,76.2813 Q210.5,76.9375 210.2188,77.2188 Q209.9375,77.5 209.5,77.5 Q209.1094,77.5 208.8594,77.3281 Q208.6094,77.1563 208.5,76.7031 Q208.4531,76.3906 208.2813,76.2188 Q207.9688,75.8906 207.4063,75.7031 Q206.8438,75.5 206.2813,75.5 Q205.5781,75.5 204.9844,75.7813 Q204.4063,76.0625 203.9531,76.6875 Q203.5,77.3125 203.5,78.1719 L203.5,79.0938 Q203.5,80.125 204.3438,80.8125 Q205.1875,81.5 206.6875,81.5 Q207.5781,81.5 208.2031,81.2969 Q208.5625,81.1875 208.9688,80.8281 Q209.2344,80.625 209.375,80.5625 Q209.5156,80.5 209.6875,80.5 Q210.0156,80.5 210.25,80.7656 Q210.5,81.0156 210.5,81.375 Q210.5,81.7188 210.1563,82.125 Q209.6563,82.7188 208.8594,83.0469 Q207.8125,83.5 206.5313,83.5 Q205.0313,83.5 203.8281,82.9063 Q202.8594,82.4375 202.1719,81.4219 Q201.5,80.4063 201.5,79.2031 L201.5,78.1094 Q201.5,76.8594 202.0938,75.7656 Q202.7031,74.6719 203.75,74.0938 Q204.8125,73.5 206,73.5 Q206.7188,73.5 207.3438,73.75 Q207.9688,74 208.5,74.5 Z " fill="#000000"/><text fill="#000000" font-family="sans-serif" font-size="12" lengthAdjust="spacing" textLength="139" x="220.5" y="82.9102">ListAllShipsInformationUI</text><line style="stroke:#A80036;stroke-width:1.5;" x1="192.5" x2="361.5" y1="94" y2="94"/><line style="stroke:#A80036;stroke-width:1.5;" x1="192.5" x2="361.5" y1="102" y2="102"/><!--MD5=[0dc7f2ddb409b58bcf52b12238c25399]
class Ship--><rect codeLine="42" fill="#FEFECE" filter="url(#f1x9uk6eg9jyic)" height="186.3594" id="Ship" style="stroke:#A80036;stroke-width:1.5;" width="66" x="607" y="482"/><ellipse cx="626.05" cy="498" fill="#ADD1B2" rx="11" ry="11" style="stroke:#A80036;stroke-width:1.0;"/><path d="M628.05,494.5 Q628.2531,494 628.4875,493.75 Q628.7219,493.5 628.9875,493.5 Q629.4563,493.5 629.7531,493.7813 Q630.05,494.0625 630.05,494.7188 L630.05,496.2813 Q630.05,496.9375 629.7688,497.2188 Q629.4875,497.5 629.05,497.5 Q628.6594,497.5 628.4094,497.3281 Q628.1594,497.1563 628.05,496.7031 Q628.0031,496.3906 627.8313,496.2188 Q627.5188,495.8906 626.9563,495.7031 Q626.3938,495.5 625.8313,495.5 Q625.1281,495.5 624.5344,495.7813 Q623.9563,496.0625 623.5031,496.6875 Q623.05,497.3125 623.05,498.1719 L623.05,499.0938 Q623.05,500.125 623.8938,500.8125 Q624.7375,501.5 626.2375,501.5 Q627.1281,501.5 627.7531,501.2969 Q628.1125,501.1875 628.5188,500.8281 Q628.7844,500.625 628.925,500.5625 Q629.0656,500.5 629.2375,500.5 Q629.5656,500.5 629.8,500.7656 Q630.05,501.0156 630.05,501.375 Q630.05,501.7188 629.7063,502.125 Q629.2063,502.7188 628.4094,503.0469 Q627.3625,503.5 626.0813,503.5 Q624.5813,503.5 623.3781,502.9063 Q622.4094,502.4375 621.7219,501.4219 Q621.05,500.4063 621.05,499.2031 L621.05,498.1094 Q621.05,496.8594 621.6438,495.7656 Q622.2531,494.6719 623.3,494.0938 Q624.3625,493.5 625.55,493.5 Q626.2688,493.5 626.8938,493.75 Q627.5188,494 628.05,494.5 Z " fill="#000000"/><text fill="#000000" font-family="sans-serif" font-size="12" lengthAdjust="spacing" textLength="25" x="640.95" y="502.9102">Ship</text><line style="stroke:#A80036;stroke-width:1.5;" x1="608" x2="672" y1="514" y2="514"/><text fill="#000000" font-family="sans-serif" font-size="11" lengthAdjust="spacing" textLength="29" x="613" y="529.4189">-MMSI</text><text fill="#000000" font-family="sans-serif" font-size="11" lengthAdjust="spacing" textLength="30" x="613" y="543.2549">-name</text><text fill="#000000" font-family="sans-serif" font-size="11" lengthAdjust="spacing" textLength="22" x="613" y="557.0908">-IMO</text><text fill="#000000" font-family="sans-serif" font-size="11" lengthAdjust="spacing" textLength="40" x="613" y="570.9268">-callsign</text><text fill="#000000" font-family="sans-serif" font-size="11" lengthAdjust="spacing" textLength="25" x="613" y="584.7627">-type</text><text fill="#000000" font-family="sans-serif" font-size="11" lengthAdjust="spacing" textLength="33" x="613" y="598.5986">-length</text><text fill="#000000" font-family="sans-serif" font-size="11" lengthAdjust="spacing" textLength="31" x="613" y="612.4346">-width</text><text fill="#000000" font-family="sans-serif" font-size="11" lengthAdjust="spacing" textLength="27" x="613" y="626.2705">-draft</text><line style="stroke:#A80036;stroke-width:1.5;" x1="608" x2="672" y1="632.6875" y2="632.6875"/><text fill="#000000" font-family="sans-serif" font-size="11" lengthAdjust="spacing" textLength="54" x="613" y="648.1064">+getMMSI()</text><text fill="#000000" font-family="sans-serif" font-size="11" lengthAdjust="spacing" textLength="42" x="613" y="661.9424">+getSp()</text><!--MD5=[02e4b9b7573f1156f41e60aa5b4e25a4]
class Company--><rect codeLine="55" fill="#FEFECE" filter="url(#f1x9uk6eg9jyic)" height="61.8359" id="Company" style="stroke:#A80036;stroke-width:1.5;" width="88" x="347" y="544"/><ellipse cx="363.35" cy="560" fill="#ADD1B2" rx="11" ry="11" style="stroke:#A80036;stroke-width:1.0;"/><path d="M365.35,556.5 Q365.5531,556 365.7875,555.75 Q366.0219,555.5 366.2875,555.5 Q366.7563,555.5 367.0531,555.7813 Q367.35,556.0625 367.35,556.7188 L367.35,558.2813 Q367.35,558.9375 367.0688,559.2188 Q366.7875,559.5 366.35,559.5 Q365.9594,559.5 365.7094,559.3281 Q365.4594,559.1563 365.35,558.7031 Q365.3031,558.3906 365.1313,558.2188 Q364.8188,557.8906 364.2563,557.7031 Q363.6938,557.5 363.1313,557.5 Q362.4281,557.5 361.8344,557.7813 Q361.2563,558.0625 360.8031,558.6875 Q360.35,559.3125 360.35,560.1719 L360.35,561.0938 Q360.35,562.125 361.1938,562.8125 Q362.0375,563.5 363.5375,563.5 Q364.4281,563.5 365.0531,563.2969 Q365.4125,563.1875 365.8188,562.8281 Q366.0844,562.625 366.225,562.5625 Q366.3656,562.5 366.5375,562.5 Q366.8656,562.5 367.1,562.7656 Q367.35,563.0156 367.35,563.375 Q367.35,563.7188 367.0063,564.125 Q366.5063,564.7188 365.7094,565.0469 Q364.6625,565.5 363.3813,565.5 Q361.8813,565.5 360.6781,564.9063 Q359.7094,564.4375 359.0219,563.4219 Q358.35,562.4063 358.35,561.2031 L358.35,560.1094 Q358.35,558.8594 358.9438,557.7656 Q359.5531,556.6719 360.6,556.0938 Q361.6625,555.5 362.85,555.5 Q363.5688,555.5 364.1938,555.75 Q364.8188,556 365.35,556.5 Z " fill="#000000"/><text fill="#000000" font-family="sans-serif" font-size="12" lengthAdjust="spacing" textLength="53" x="377.65" y="564.9102">Company</text><line style="stroke:#A80036;stroke-width:1.5;" x1="348" x2="434" y1="576" y2="576"/><line style="stroke:#A80036;stroke-width:1.5;" x1="348" x2="434" y1="584" y2="584"/><text fill="#000000" font-family="sans-serif" font-size="11" lengthAdjust="spacing" textLength="76" x="353" y="599.4189">+getShipStore()</text><!--MD5=[1c0c3765e68dc4575d559b566278b914]
class ShipPosition--><rect codeLine="28" fill="#FEFECE" filter="url(#f1x9uk6eg9jyic)" height="200.1953" id="ShipPosition" style="stroke:#A80036;stroke-width:1.5;" width="102" x="470" y="475"/><ellipse cx="485" cy="491" fill="#ADD1B2" rx="11" ry="11" style="stroke:#A80036;stroke-width:1.0;"/><path d="M487,487.5 Q487.2031,487 487.4375,486.75 Q487.6719,486.5 487.9375,486.5 Q488.4063,486.5 488.7031,486.7813 Q489,487.0625 489,487.7188 L489,489.2813 Q489,489.9375 488.7188,490.2188 Q488.4375,490.5 488,490.5 Q487.6094,490.5 487.3594,490.3281 Q487.1094,490.1563 487,489.7031 Q486.9531,489.3906 486.7813,489.2188 Q486.4688,488.8906 485.9063,488.7031 Q485.3438,488.5 484.7813,488.5 Q484.0781,488.5 483.4844,488.7813 Q482.9063,489.0625 482.4531,489.6875 Q482,490.3125 482,491.1719 L482,492.0938 Q482,493.125 482.8438,493.8125 Q483.6875,494.5 485.1875,494.5 Q486.0781,494.5 486.7031,494.2969 Q487.0625,494.1875 487.4688,493.8281 Q487.7344,493.625 487.875,493.5625 Q488.0156,493.5 488.1875,493.5 Q488.5156,493.5 488.75,493.7656 Q489,494.0156 489,494.375 Q489,494.7188 488.6563,495.125 Q488.1563,495.7188 487.3594,496.0469 Q486.3125,496.5 485.0313,496.5 Q483.5313,496.5 482.3281,495.9063 Q481.3594,495.4375 480.6719,494.4219 Q480,493.4063 480,492.2031 L480,491.1094 Q480,489.8594 480.5938,488.7656 Q481.2031,487.6719 482.25,487.0938 Q483.3125,486.5 484.5,486.5 Q485.2188,486.5 485.8438,486.75 Q486.4688,487 487,487.5 Z " fill="#000000"/><text fill="#000000" font-family="sans-serif" font-size="12" lengthAdjust="spacing" textLength="70" x="499" y="495.9102">ShipPosition</text><line style="stroke:#A80036;stroke-width:1.5;" x1="471" x2="571" y1="507" y2="507"/><text fill="#000000" font-family="sans-serif" font-size="11" lengthAdjust="spacing" textLength="29" x="476" y="522.4189">-MMSI</text><text fill="#000000" font-family="sans-serif" font-size="11" lengthAdjust="spacing" textLength="25" x="476" y="536.2549">-date</text><text fill="#000000" font-family="sans-serif" font-size="11" lengthAdjust="spacing" textLength="24" x="476" y="550.0908">-LAT</text><text fill="#000000" font-family="sans-serif" font-size="11" lengthAdjust="spacing" textLength="25" x="476" y="563.9268">-LON</text><text fill="#000000" font-family="sans-serif" font-size="11" lengthAdjust="spacing" textLength="27" x="476" y="577.7627">-SOG</text><text fill="#000000" font-family="sans-serif" font-size="11" lengthAdjust="spacing" textLength="27" x="476" y="591.5986">-COG</text><text fill="#000000" font-family="sans-serif" font-size="11" lengthAdjust="spacing" textLength="42" x="476" y="605.4346">-heading</text><text fill="#000000" font-family="sans-serif" font-size="11" lengthAdjust="spacing" textLength="32" x="476" y="619.2705">-cargo</text><text fill="#000000" font-family="sans-serif" font-size="11" lengthAdjust="spacing" textLength="59" x="476" y="633.1064">-transciever</text><line style="stroke:#A80036;stroke-width:1.5;" x1="471" x2="571" y1="639.5234" y2="639.5234"/><text fill="#000000" font-family="sans-serif" font-size="11" lengthAdjust="spacing" textLength="67" x="476" y="654.9424">+getLatitude()</text><text fill="#000000" font-family="sans-serif" font-size="11" lengthAdjust="spacing" textLength="76" x="476" y="668.7783">+getLongitude()</text><!--MD5=[69f2f3ad3645114d26612368d508f737]
class Printer--><rect codeLine="78" fill="#FEFECE" filter="url(#f1x9uk6eg9jyic)" height="61.8359" id="Printer" style="stroke:#A80036;stroke-width:1.5;" width="74" x="32" y="544"/><ellipse cx="49.7" cy="560" fill="#ADD1B2" rx="11" ry="11" style="stroke:#A80036;stroke-width:1.0;"/><path d="M51.7,556.5 Q51.9031,556 52.1375,555.75 Q52.3719,555.5 52.6375,555.5 Q53.1063,555.5 53.4031,555.7813 Q53.7,556.0625 53.7,556.7188 L53.7,558.2813 Q53.7,558.9375 53.4188,559.2188 Q53.1375,559.5 52.7,559.5 Q52.3094,559.5 52.0594,559.3281 Q51.8094,559.1563 51.7,558.7031 Q51.6531,558.3906 51.4813,558.2188 Q51.1688,557.8906 50.6063,557.7031 Q50.0438,557.5 49.4813,557.5 Q48.7781,557.5 48.1844,557.7813 Q47.6063,558.0625 47.1531,558.6875 Q46.7,559.3125 46.7,560.1719 L46.7,561.0938 Q46.7,562.125 47.5438,562.8125 Q48.3875,563.5 49.8875,563.5 Q50.7781,563.5 51.4031,563.2969 Q51.7625,563.1875 52.1688,562.8281 Q52.4344,562.625 52.575,562.5625 Q52.7156,562.5 52.8875,562.5 Q53.2156,562.5 53.45,562.7656 Q53.7,563.0156 53.7,563.375 Q53.7,563.7188 53.3563,564.125 Q52.8563,564.7188 52.0594,565.0469 Q51.0125,565.5 49.7313,565.5 Q48.2313,565.5 47.0281,564.9063 Q46.0594,564.4375 45.3719,563.4219 Q44.7,562.4063 44.7,561.2031 L44.7,560.1094 Q44.7,558.8594 45.2938,557.7656 Q45.9031,556.6719 46.95,556.0938 Q48.0125,555.5 49.2,555.5 Q49.9188,555.5 50.5438,555.75 Q51.1688,556 51.7,556.5 Z " fill="#000000"/><text fill="#000000" font-family="sans-serif" font-size="12" lengthAdjust="spacing" textLength="36" x="64.3" y="564.9102">Printer</text><line style="stroke:#A80036;stroke-width:1.5;" x1="33" x2="105" y1="576" y2="576"/><line style="stroke:#A80036;stroke-width:1.5;" x1="33" x2="105" y1="584" y2="584"/><text fill="#000000" font-family="sans-serif" font-size="11" lengthAdjust="spacing" textLength="62" x="38" y="599.4189">+print(string)</text><!--MD5=[ea2206eefe09474e90beb17e18e6b3d8]
class ShipStore--><rect codeLine="71" fill="#FEFECE" filter="url(#f1x9uk6eg9jyic)" height="89.5078" id="ShipStore" style="stroke:#A80036;stroke-width:1.5;" width="126" x="141" y="530"/><ellipse cx="174" cy="546" fill="#ADD1B2" rx="11" ry="11" style="stroke:#A80036;stroke-width:1.0;"/><path d="M176,542.5 Q176.2031,542 176.4375,541.75 Q176.6719,541.5 176.9375,541.5 Q177.4063,541.5 177.7031,541.7813 Q178,542.0625 178,542.7188 L178,544.2813 Q178,544.9375 177.7188,545.2188 Q177.4375,545.5 177,545.5 Q176.6094,545.5 176.3594,545.3281 Q176.1094,545.1563 176,544.7031 Q175.9531,544.3906 175.7813,544.2188 Q175.4688,543.8906 174.9063,543.7031 Q174.3438,543.5 173.7813,543.5 Q173.0781,543.5 172.4844,543.7813 Q171.9063,544.0625 171.4531,544.6875 Q171,545.3125 171,546.1719 L171,547.0938 Q171,548.125 171.8438,548.8125 Q172.6875,549.5 174.1875,549.5 Q175.0781,549.5 175.7031,549.2969 Q176.0625,549.1875 176.4688,548.8281 Q176.7344,548.625 176.875,548.5625 Q177.0156,548.5 177.1875,548.5 Q177.5156,548.5 177.75,548.7656 Q178,549.0156 178,549.375 Q178,549.7188 177.6563,550.125 Q177.1563,550.7188 176.3594,551.0469 Q175.3125,551.5 174.0313,551.5 Q172.5313,551.5 171.3281,550.9063 Q170.3594,550.4375 169.6719,549.4219 Q169,548.4063 169,547.2031 L169,546.1094 Q169,544.8594 169.5938,543.7656 Q170.2031,542.6719 171.25,542.0938 Q172.3125,541.5 173.5,541.5 Q174.2188,541.5 174.8438,541.75 Q175.4688,542 176,542.5 Z " fill="#000000"/><text fill="#000000" font-family="sans-serif" font-size="12" lengthAdjust="spacing" textLength="54" x="192" y="550.9102">ShipStore</text><line style="stroke:#A80036;stroke-width:1.5;" x1="142" x2="266" y1="562" y2="562"/><line style="stroke:#A80036;stroke-width:1.5;" x1="142" x2="266" y1="570" y2="570"/><text fill="#000000" font-family="sans-serif" font-size="11" lengthAdjust="spacing" textLength="113" x="147" y="585.4189">+getShipByMMSI(MMSI)</text><text fill="#000000" font-family="sans-serif" font-size="11" lengthAdjust="spacing" textLength="114" x="147" y="599.2549">+getTravelDistance(list)</text><text fill="#000000" font-family="sans-serif" font-size="11" lengthAdjust="spacing" textLength="108" x="147" y="613.0908">+getDeltaDistance(list)</text><!--MD5=[b4a9ab6cffd58937cfea07eb2954e1bd]
class BST--><rect codeLine="59" fill="#FEFECE" filter="url(#f1x9uk6eg9jyic)" height="103.3438" id="BST" style="stroke:#A80036;stroke-width:1.5;" width="102" x="418" y="797"/><ellipse cx="454.15" cy="813" fill="#ADD1B2" rx="11" ry="11" style="stroke:#A80036;stroke-width:1.0;"/><path d="M456.15,809.5 Q456.3531,809 456.5875,808.75 Q456.8219,808.5 457.0875,808.5 Q457.5563,808.5 457.8531,808.7813 Q458.15,809.0625 458.15,809.7188 L458.15,811.2813 Q458.15,811.9375 457.8688,812.2188 Q457.5875,812.5 457.15,812.5 Q456.7594,812.5 456.5094,812.3281 Q456.2594,812.1563 456.15,811.7031 Q456.1031,811.3906 455.9313,811.2188 Q455.6188,810.8906 455.0563,810.7031 Q454.4938,810.5 453.9313,810.5 Q453.2281,810.5 452.6344,810.7813 Q452.0563,811.0625 451.6031,811.6875 Q451.15,812.3125 451.15,813.1719 L451.15,814.0938 Q451.15,815.125 451.9938,815.8125 Q452.8375,816.5 454.3375,816.5 Q455.2281,816.5 455.8531,816.2969 Q456.2125,816.1875 456.6188,815.8281 Q456.8844,815.625 457.025,815.5625 Q457.1656,815.5 457.3375,815.5 Q457.6656,815.5 457.9,815.7656 Q458.15,816.0156 458.15,816.375 Q458.15,816.7188 457.8063,817.125 Q457.3063,817.7188 456.5094,818.0469 Q455.4625,818.5 454.1813,818.5 Q452.6813,818.5 451.4781,817.9063 Q450.5094,817.4375 449.8219,816.4219 Q449.15,815.4063 449.15,814.2031 L449.15,813.1094 Q449.15,811.8594 449.7438,810.7656 Q450.3531,809.6719 451.4,809.0938 Q452.4625,808.5 453.65,808.5 Q454.3688,808.5 454.9938,808.75 Q455.6188,809 456.15,809.5 Z " fill="#000000"/><text fill="#000000" font-family="sans-serif" font-size="12" lengthAdjust="spacing" textLength="23" x="472.85" y="817.9102">BST</text><line style="stroke:#A80036;stroke-width:1.5;" x1="419" x2="519" y1="829" y2="829"/><line style="stroke:#A80036;stroke-width:1.5;" x1="419" x2="519" y1="837" y2="837"/><text fill="#000000" font-family="sans-serif" font-size="11" lengthAdjust="spacing" textLength="90" x="424" y="852.4189">+smallestElement()</text><text fill="#000000" font-family="sans-serif" font-size="11" lengthAdjust="spacing" textLength="86" x="424" y="866.2549">+biggestElement()</text><text fill="#000000" font-family="sans-serif" font-size="11" lengthAdjust="spacing" textLength="34" x="424" y="880.0908">+size()</text><text fill="#000000" font-family="sans-serif" font-size="11" lengthAdjust="spacing" textLength="50" x="424" y="893.9268">+inOrder()</text><!--MD5=[6bbad6aa9952e6b0011e549027ea8944]
link ListAllShipsInformationUI to ListAllShipsInformationController--><path codeLine="82" d="M277,110.29 C277,135.99 277,177.88 277,209.47 " fill="none" id="ListAllShipsInformationUI-to-ListAllShipsInformationController" style="stroke:#A80036;stroke-width:1.0;stroke-dasharray:7.0,7.0;"/><polygon fill="#A80036" points="277,214.84,281,205.84,277,209.84,273,205.84,277,214.84" style="stroke:#A80036;stroke-width:1.0;"/><!--MD5=[2d1ab710e5bd24b849a63ed4efb0ee7f]
link ListAllShipsInformationController to Company--><path codeLine="83" d="M290.19,291.02 C312.36,353.27 356.82,478.05 378.51,538.95 " fill="none" id="ListAllShipsInformationController-to-Company" style="stroke:#A80036;stroke-width:1.0;stroke-dasharray:7.0,7.0;"/><polygon fill="#A80036" points="380.29,543.93,381.0526,534.1107,378.6192,539.2174,373.5125,536.784,380.29,543.93" style="stroke:#A80036;stroke-width:1.0;"/><!--MD5=[c3e68e2ee8502f5cea58909dc77d51da]
link ListAllShipsInformationController to ShipStore--><path codeLine="84" d="M268.55,291.02 C255.37,348.82 229.88,460.55 215.18,524.97 " fill="none" id="ListAllShipsInformationController-to-ShipStore" style="stroke:#A80036;stroke-width:1.0;stroke-dasharray:7.0,7.0;"/><polygon fill="#A80036" points="214.06,529.91,219.9611,522.0248,215.1718,525.0352,212.1614,520.2459,214.06,529.91" style="stroke:#A80036;stroke-width:1.0;"/><!--MD5=[6b4a94d80660e97c6833bde801bd4c89]
link Company to ShipStore--><path codeLine="85" d="M346.81,575 C324.59,575 297.17,575 272.31,575 " fill="none" id="Company-to-ShipStore" style="stroke:#A80036;stroke-width:1.0;"/><polygon fill="#A80036" points="267.05,575,276.05,579,272.05,575,276.05,571,267.05,575" style="stroke:#A80036;stroke-width:1.0;"/><text fill="#000000" font-family="sans-serif" font-size="13" lengthAdjust="spacing" textLength="39" x="287.5" y="568.4951">Knows</text><text fill="#000000" font-family="sans-serif" font-size="13" lengthAdjust="spacing" textLength="7" x="331.9113" y="571.2128">1</text><text fill="#000000" font-family="sans-serif" font-size="13" lengthAdjust="spacing" textLength="7" x="275.1608" y="571.5715">1</text><!--MD5=[f04e04ecc6998d67821b33eb17256457]
link ShipStore to Ship--><path codeLine="86" d="M226.68,529.79 C247.99,492.89 283.67,443.32 331,421 C383.06,396.45 543.44,387.16 590,421 C608.6,434.52 620.42,455.13 627.89,476.91 " fill="none" id="ShipStore-to-Ship" style="stroke:#A80036;stroke-width:1.0;"/><polygon fill="#A80036" points="629.52,481.87,630.5218,472.0722,627.9646,477.1181,622.9187,474.5609,629.52,481.87" style="stroke:#A80036;stroke-width:1.0;"/><text fill="#000000" font-family="sans-serif" font-size="13" lengthAdjust="spacing" textLength="50" x="531" y="399.4951">registers</text><text fill="#000000" font-family="sans-serif" font-size="13" lengthAdjust="spacing" textLength="7" x="222.6169" y="519.2019">1</text><text fill="#000000" font-family="sans-serif" font-size="13" lengthAdjust="spacing" textLength="5" x="623.4451" y="470.99">*</text><!--MD5=[41f475cd3cd8b5f3ab05e5531954a9bf]
link ShipStore to ShipPosition--><path codeLine="87" d="M226.68,529.79 C247.99,492.89 283.67,443.32 331,421 C380.04,397.88 407.57,391.4 453,421 C471.06,432.77 484.36,450.54 494.14,469.87 " fill="none" id="ShipStore-to-ShipPosition" style="stroke:#A80036;stroke-width:1.0;"/><polygon fill="#A80036" points="496.55,474.82,496.2159,464.9768,494.3655,470.3225,489.0198,468.472,496.55,474.82" style="stroke:#A80036;stroke-width:1.0;"/><text fill="#000000" font-family="sans-serif" font-size="13" lengthAdjust="spacing" textLength="50" x="404" y="399.4951">registers</text><text fill="#000000" font-family="sans-serif" font-size="13" lengthAdjust="spacing" textLength="7" x="230.6888" y="519.2019">1</text><text fill="#000000" font-family="sans-serif" font-size="13" lengthAdjust="spacing" textLength="5" x="489.4866" y="464.0386">*</text><!--MD5=[450ce2c12e7dd7ba974e92137d77cb9b]
link Ship to BST--><path codeLine="88" d="M606.99,666.19 C601.8,677.49 596.11,688.69 590,699 C570.29,732.27 543.52,765.95 520.17,792.81 " fill="none" id="Ship-to-BST" style="stroke:#A80036;stroke-width:1.0;"/><polygon fill="#A80036" points="516.75,796.72,525.6779,792.5616,520.0344,792.95,519.646,787.3065,516.75,796.72" style="stroke:#A80036;stroke-width:1.0;"/><text fill="#000000" font-family="sans-serif" font-size="13" lengthAdjust="spacing" textLength="36" x="585" y="721.4951">stored</text><text fill="#000000" font-family="sans-serif" font-size="13" lengthAdjust="spacing" textLength="5" x="593.7783" y="682.9219">*</text><text fill="#000000" font-family="sans-serif" font-size="13" lengthAdjust="spacing" textLength="7" x="515.6961" y="786.1827">1</text><!--MD5=[5516919d850f976afb7d4bed5671d0b9]
link ShipStore to BST--><path codeLine="89" d="M247.17,620.23 C293.28,667.47 366.43,742.41 416.01,793.21 " fill="none" id="ShipStore-to-BST" style="stroke:#A80036;stroke-width:1.0;stroke-dasharray:7.0,7.0;"/><polygon fill="#A80036" points="419.54,796.82,416.1159,787.5855,416.0475,793.242,410.391,793.1735,419.54,796.82" style="stroke:#A80036;stroke-width:1.0;"/><!--MD5=[cc7b7eb0559edafa65126c1cf7d8860f]
@startuml
skinparam classAttributeIconSize 0

package "Controller"{
class ListAllShipsInformationController
}

package "UI"{
class ListAllShipsInformationUI
}

package "Model"{
class Ship
class Company
class ShipPosition
}

package utils{
class Printer
package store{
class ShipStore
}
}

package BST{
class BST
}

class ShipPosition{
-MMSI
-date
-LAT
-LON
-SOG
-COG
-heading
-cargo
-transciever
+getLatitude()
+getLongitude()
}

class Ship{
-MMSI
-name
-IMO
-callsign
-type
-length
-width
-draft
+getMMSI()
+getSp()
}

class Company{
+getShipStore()
}

class BST{
+smallestElement()
+biggestElement()
+size()
+inOrder()
}

class ListAllShipsInformationController{
+getInformation()
+print(summary)
}

class ShipStore{
+getShipByMMSI(MMSI)
+getTravelDistance(list)
+getDeltaDistance(list)
}


class Printer{
+print(string)
}

ListAllShipsInformationUI .-> ListAllShipsInformationController
ListAllShipsInformationController .- -> Company
ListAllShipsInformationController .- -> ShipStore
Company "1"- ->"1" ShipStore : Knows
ShipStore "1"->"*" Ship : registers
ShipStore "1"->"*" ShipPosition : registers
Ship "*"->"1" BST : stored
ShipStore .-> BST
@enduml

PlantUML version 1.2021.00(Sun Jan 10 10:25:05 GMT 2021)
(GPL source distribution)
Java Runtime: OpenJDK Runtime Environment
JVM: OpenJDK 64-Bit Server VM
Default Encoding: Cp1252
Language: pt
Country: PT
--></g></svg>