<?xml version="1.0" encoding="UTF-8" standalone="no"?><svg xmlns="http://www.w3.org/2000/svg" xmlns:xlink="http://www.w3.org/1999/xlink" contentScriptType="application/ecmascript" contentStyleType="text/css" height="182.5px" preserveAspectRatio="none" style="width:615px;height:182px;" version="1.1" viewBox="0 0 615 182" width="615px" zoomAndPan="magnify"><defs><filter height="300%" id="f1mvj1njm51wxk" width="300%" x="-1" y="-1"><feGaussianBlur result="blurOut" stdDeviation="2.5"/><feColorMatrix in="blurOut" result="blurOut2" type="matrix" values="0 0 0 0 0 0 0 0 0 0 0 0 0 0 0 0 0 0 .4 0"/><feOffset dx="5.0" dy="5.0" in="blurOut2" result="blurOut3"/><feBlend in="SourceGraphic" in2="blurOut3" mode="normal"/></filter></defs><g><!--MD5=[02e4b9b7573f1156f41e60aa5b4e25a4]
class Company--><rect codeLine="7" fill="#FEFECE" filter="url(#f1mvj1njm51wxk)" height="50" id="Company" style="stroke:#A80036;stroke-width:1.875;" width="106.25" x="276.25" y="8.75"/><ellipse cx="295" cy="28.75" fill="#ADD1B2" rx="13.75" ry="13.75" style="stroke:#A80036;stroke-width:1.25;"/><path d="M297.5,24.375 Q297.7539,23.75 298.0469,23.4375 Q298.3398,23.125 298.6719,23.125 Q299.2578,23.125 299.6289,23.4766 Q300,23.8281 300,24.6484 L300,26.6016 Q300,27.4219 299.6484,27.7734 Q299.2969,28.125 298.75,28.125 Q298.2617,28.125 297.9492,27.9102 Q297.6367,27.6953 297.5,27.1289 Q297.4414,26.7383 297.2266,26.5234 Q296.8359,26.1133 296.1328,25.8789 Q295.4297,25.625 294.7266,25.625 Q293.8477,25.625 293.1055,25.9766 Q292.3828,26.3281 291.8164,27.1094 Q291.25,27.8906 291.25,28.9648 L291.25,30.1172 Q291.25,31.4063 292.3047,32.2656 Q293.3594,33.125 295.2344,33.125 Q296.3477,33.125 297.1289,32.8711 Q297.5781,32.7344 298.0859,32.2852 Q298.418,32.0313 298.5938,31.9531 Q298.7695,31.875 298.9844,31.875 Q299.3945,31.875 299.6875,32.207 Q300,32.5195 300,32.9688 Q300,33.3984 299.5703,33.9063 Q298.9453,34.6484 297.9492,35.0586 Q296.6406,35.625 295.0391,35.625 Q293.1641,35.625 291.6602,34.8828 Q290.4492,34.2969 289.5898,33.0273 Q288.75,31.7578 288.75,30.2539 L288.75,28.8867 Q288.75,27.3242 289.4922,25.957 Q290.2539,24.5898 291.5625,23.8672 Q292.8906,23.125 294.375,23.125 Q295.2734,23.125 296.0547,23.4375 Q296.8359,23.75 297.5,24.375 Z " fill="#000000"/><text fill="#000000" font-family="sans-serif" font-size="15" lengthAdjust="spacing" textLength="66.25" x="312.5" y="34.8877">Company</text><line style="stroke:#A80036;stroke-width:1.875;" x1="277.5" x2="381.25" y1="48.75" y2="48.75"/><!--MD5=[a0bfe97ac0a38e6e74cc1c7c7b744b71]
class Port--><rect codeLine="11" fill="#FEFECE" filter="url(#f1mvj1njm51wxk)" height="153.7695" id="Port" style="stroke:#A80036;stroke-width:1.875;" width="75" x="522.5" y="11.875"/><ellipse cx="544.625" cy="31.875" fill="#ADD1B2" rx="13.75" ry="13.75" style="stroke:#A80036;stroke-width:1.25;"/><path d="M547.125,27.5 Q547.3789,26.875 547.6719,26.5625 Q547.9648,26.25 548.2969,26.25 Q548.8828,26.25 549.2539,26.6016 Q549.625,26.9531 549.625,27.7734 L549.625,29.7266 Q549.625,30.5469 549.2734,30.8984 Q548.9219,31.25 548.375,31.25 Q547.8867,31.25 547.5742,31.0352 Q547.2617,30.8203 547.125,30.2539 Q547.0664,29.8633 546.8516,29.6484 Q546.4609,29.2383 545.7578,29.0039 Q545.0547,28.75 544.3516,28.75 Q543.4727,28.75 542.7305,29.1016 Q542.0078,29.4531 541.4414,30.2344 Q540.875,31.0156 540.875,32.0898 L540.875,33.2422 Q540.875,34.5313 541.9297,35.3906 Q542.9844,36.25 544.8594,36.25 Q545.9727,36.25 546.7539,35.9961 Q547.2031,35.8594 547.7109,35.4102 Q548.043,35.1563 548.2188,35.0781 Q548.3945,35 548.6094,35 Q549.0195,35 549.3125,35.332 Q549.625,35.6445 549.625,36.0938 Q549.625,36.5234 549.1953,37.0313 Q548.5703,37.7734 547.5742,38.1836 Q546.2656,38.75 544.6641,38.75 Q542.7891,38.75 541.2852,38.0078 Q540.0742,37.4219 539.2148,36.1523 Q538.375,34.8828 538.375,33.3789 L538.375,32.0117 Q538.375,30.4492 539.1172,29.082 Q539.8789,27.7148 541.1875,26.9922 Q542.5156,26.25 544,26.25 Q544.8984,26.25 545.6797,26.5625 Q546.4609,26.875 547.125,27.5 Z " fill="#000000"/><text fill="#000000" font-family="sans-serif" font-size="15" lengthAdjust="spacing" textLength="27.5" x="562.875" y="38.0127">Port</text><line style="stroke:#A80036;stroke-width:1.875;" x1="523.75" x2="596.25" y1="51.875" y2="51.875"/><text fill="#000000" font-family="sans-serif" font-size="13.75" lengthAdjust="spacing" textLength="15" x="530" y="71.1487">-id</text><text fill="#000000" font-family="sans-serif" font-size="13.75" lengthAdjust="spacing" textLength="37.5" x="530" y="88.4436">-name</text><text fill="#000000" font-family="sans-serif" font-size="13.75" lengthAdjust="spacing" textLength="60" x="530" y="105.7385">-continent</text><text fill="#000000" font-family="sans-serif" font-size="13.75" lengthAdjust="spacing" textLength="51.25" x="530" y="123.0334">-country</text><text fill="#000000" font-family="sans-serif" font-size="13.75" lengthAdjust="spacing" textLength="47.5" x="530" y="140.3284">-latitude</text><text fill="#000000" font-family="sans-serif" font-size="13.75" lengthAdjust="spacing" textLength="58.75" x="530" y="157.6233">-longitude</text><!--MD5=[99d8f1361a72f685c413d1fd21efef1c]
class PortManager--><rect codeLine="20" fill="#FEFECE" filter="url(#f1mvj1njm51wxk)" height="50" id="PortManager" style="stroke:#A80036;stroke-width:1.875;" width="127.5" x="8.75" y="60"/><ellipse cx="27.5" cy="80" fill="#ADD1B2" rx="13.75" ry="13.75" style="stroke:#A80036;stroke-width:1.25;"/><path d="M30,75.625 Q30.2539,75 30.5469,74.6875 Q30.8398,74.375 31.1719,74.375 Q31.7578,74.375 32.1289,74.7266 Q32.5,75.0781 32.5,75.8984 L32.5,77.8516 Q32.5,78.6719 32.1484,79.0234 Q31.7969,79.375 31.25,79.375 Q30.7617,79.375 30.4492,79.1602 Q30.1367,78.9453 30,78.3789 Q29.9414,77.9883 29.7266,77.7734 Q29.3359,77.3633 28.6328,77.1289 Q27.9297,76.875 27.2266,76.875 Q26.3477,76.875 25.6055,77.2266 Q24.8828,77.5781 24.3164,78.3594 Q23.75,79.1406 23.75,80.2148 L23.75,81.3672 Q23.75,82.6563 24.8047,83.5156 Q25.8594,84.375 27.7344,84.375 Q28.8477,84.375 29.6289,84.1211 Q30.0781,83.9844 30.5859,83.5352 Q30.918,83.2813 31.0938,83.2031 Q31.2695,83.125 31.4844,83.125 Q31.8945,83.125 32.1875,83.457 Q32.5,83.7695 32.5,84.2188 Q32.5,84.6484 32.0703,85.1563 Q31.4453,85.8984 30.4492,86.3086 Q29.1406,86.875 27.5391,86.875 Q25.6641,86.875 24.1602,86.1328 Q22.9492,85.5469 22.0898,84.2773 Q21.25,83.0078 21.25,81.5039 L21.25,80.1367 Q21.25,78.5742 21.9922,77.207 Q22.7539,75.8398 24.0625,75.1172 Q25.3906,74.375 26.875,74.375 Q27.7734,74.375 28.5547,74.6875 Q29.3359,75 30,75.625 Z " fill="#000000"/><text fill="#000000" font-family="sans-serif" font-size="15" lengthAdjust="spacing" textLength="87.5" x="45" y="86.1377">PortManager</text><line style="stroke:#A80036;stroke-width:1.875;" x1="10" x2="135" y1="100" y2="100"/><!--MD5=[48866c3ee325f1b653aa35a9a333d568]
link PortManager to Company--><path codeLine="23" d="M136.3,72.4 C179.2625,63.7375 235.6125,52.3875 276.1,44.225 " fill="none" id="PortManager-Company" style="stroke:#A80036;stroke-width:1.25;"/><polygon fill="#000000" points="173.8732,42.7045,185.6825,44.072,184.2309,36.8695,173.8732,42.7045" style="stroke:#000000;stroke-width:1.25;"/><text fill="#000000" font-family="sans-serif" font-size="16.25" lengthAdjust="spacing" textLength="46.25" x="191.25" y="48.1189">knows</text><text fill="#000000" font-family="sans-serif" font-size="16.25" lengthAdjust="spacing" textLength="6.25" x="146.1296" y="65.9818">*</text><text fill="#000000" font-family="sans-serif" font-size="16.25" lengthAdjust="spacing" textLength="8.75" x="257.4414" y="64.6508">1</text><!--MD5=[9eb8cece74e91f217f5849e8308bf70d]
link PortManager to Port--><path codeLine="24" d="M136.6,91.8375 C176.5375,95.8375 229.3625,100.475 276.25,102.5 C323.425,104.5375 335.3125,104.3375 382.5,102.5 C430.9625,100.6125 486.7375,95.8125 522.3375,92.425 " fill="none" id="PortManager-Port" style="stroke:#A80036;stroke-width:1.25;"/><polygon fill="#000000" points="299.375,91.4792,288.0742,87.7884,288.0631,95.1357,299.375,91.4792" style="stroke:#000000;stroke-width:1.25;"/><text fill="#000000" font-family="sans-serif" font-size="16.25" lengthAdjust="spacing" textLength="66.25" x="304.375" y="98.1189">manages</text><text fill="#000000" font-family="sans-serif" font-size="16.25" lengthAdjust="spacing" textLength="8.75" x="146.2293" y="111.1051">1</text><text fill="#000000" font-family="sans-serif" font-size="16.25" lengthAdjust="spacing" textLength="6.25" x="506.1455" y="112.6784">*</text><!--MD5=[5fd98a8c03cc0e5a408f548eb1c0ace8]
link Company to Port--><path codeLine="25" d="M382.9625,46.3625 C425.5875,56.6375 484.65,70.8875 522.2875,79.9625 " fill="none" id="Company-Port" style="stroke:#A80036;stroke-width:1.25;"/><polygon fill="#000000" points="432.3258,47.935,422.1958,41.713,420.4733,48.8556,432.3258,47.935" style="stroke:#000000;stroke-width:1.25;"/><text fill="#000000" font-family="sans-serif" font-size="16.25" lengthAdjust="spacing" textLength="46.25" x="437.5" y="53.1189">knows</text><text fill="#000000" font-family="sans-serif" font-size="16.25" lengthAdjust="spacing" textLength="8.75" x="392.5625" y="67.013">1</text><text fill="#000000" font-family="sans-serif" font-size="16.25" lengthAdjust="spacing" textLength="6.25" x="506.0834" y="97.1781">*</text><!--MD5=[b152b10783839fcfa10613d424b00895]
@startuml

hide methods
left to right direction
skinparam classAttributeIconSize 0


class Company {

}

class Port{
-id
-name
-continent
-country
-latitude
-longitude
}

class PortManager{
}

PortManager "*" - - "1" Company : knows <
PortManager "1" - - "*" Port : manages >
Company "1" - - "*" Port : knows >
@enduml

PlantUML version 1.2021.2(Sun Mar 07 11:10:27 GMT 2021)
(GPL source distribution)
Java Runtime: OpenJDK Runtime Environment
JVM: OpenJDK 64-Bit Server VM
Default Encoding: Cp1252
Language: pt
Country: PT
--></g></svg>