<?xml version="1.0" encoding="UTF-8" standalone="no"?><svg xmlns="http://www.w3.org/2000/svg" xmlns:xlink="http://www.w3.org/1999/xlink" contentScriptType="application/ecmascript" contentStyleType="text/css" height="620.16px" preserveAspectRatio="none" style="width:396px;height:620px;" version="1.1" viewBox="0 0 396 620" width="396.72px" zoomAndPan="magnify"><defs><filter height="300%" id="f1ig8s21y6y0ow" width="300%" x="-1" y="-1"><feGaussianBlur result="blurOut" stdDeviation="1.52"/><feColorMatrix in="blurOut" result="blurOut2" type="matrix" values="0 0 0 0 0 0 0 0 0 0 0 0 0 0 0 0 0 0 .4 0"/><feOffset dx="3.04" dy="3.04" in="blurOut2" result="blurOut3"/><feBlend in="SourceGraphic" in2="blurOut3" mode="normal"/></filter></defs><g><!--MD5=[64e2e010ba86d7988e5cd73bd64f61f9]
cluster ui--><polygon fill="#FFFFFF" filter="url(#f1ig8s21y6y0ow)" points="105.336,4.56,119.776,4.56,125.096,22.5031,207.176,22.5031,207.176,95.76,105.336,95.76,105.336,4.56" style="stroke:#000000;stroke-width:1.1400000000000001;"/><line style="stroke:#000000;stroke-width:1.1400000000000001;" x1="105.336" x2="125.096" y1="22.5031" y2="22.5031"/><text fill="#000000" font-family="sans-serif" font-size="10.64" font-weight="bold" lengthAdjust="spacing" textLength="9.88" x="108.376" y="17.1252">ui</text><!--MD5=[10ea673caf457862023e152271927b45]
cluster controller--><polygon fill="#FFFFFF" filter="url(#f1ig8s21y6y0ow)" points="89.376,120.84,146.376,120.84,151.696,138.7831,223.136,138.7831,223.136,222.68,89.376,222.68,89.376,120.84" style="stroke:#000000;stroke-width:1.1400000000000001;"/><line style="stroke:#000000;stroke-width:1.1400000000000001;" x1="89.376" x2="151.696" y1="138.7831" y2="138.7831"/><text fill="#000000" font-family="sans-serif" font-size="10.64" font-weight="bold" lengthAdjust="spacing" textLength="52.44" x="92.416" y="133.4052">controller</text><!--MD5=[c52f45833d539af9e29a9d34b8b7302b]
cluster utils--><polygon fill="#FFFFFF" filter="url(#f1ig8s21y6y0ow)" points="61.256,247.76,88.616,247.76,93.936,265.7031,343.976,265.7031,343.976,422.56,61.256,422.56,61.256,247.76" style="stroke:#000000;stroke-width:1.1400000000000001;"/><line style="stroke:#000000;stroke-width:1.1400000000000001;" x1="61.256" x2="93.936" y1="265.7031" y2="265.7031"/><text fill="#000000" font-family="sans-serif" font-size="10.64" font-weight="bold" lengthAdjust="spacing" textLength="22.8" x="64.296" y="260.3252">utils</text><!--MD5=[c23849cc5f4a85746a20de4317c530fc]
cluster store--><polygon fill="#FFFFFF" filter="url(#f1ig8s21y6y0ow)" points="79.496,281.2,112.176,281.2,117.496,299.1431,325.736,299.1431,325.736,404.32,79.496,404.32,79.496,281.2" style="stroke:#000000;stroke-width:1.1400000000000001;"/><line style="stroke:#000000;stroke-width:1.1400000000000001;" x1="79.496" x2="117.496" y1="299.1431" y2="299.1431"/><text fill="#000000" font-family="sans-serif" font-size="10.64" font-weight="bold" lengthAdjust="spacing" textLength="28.12" x="82.536" y="293.7652">store</text><!--MD5=[5d4cd377749310b66bf14896f5cd8d9b]
cluster model--><polygon fill="#FFFFFF" filter="url(#f1ig8s21y6y0ow)" points="52.136,460.56,89.376,460.56,94.696,478.5031,227.696,478.5031,227.696,614.84,52.136,614.84,52.136,460.56" style="stroke:#000000;stroke-width:1.1400000000000001;"/><line style="stroke:#000000;stroke-width:1.1400000000000001;" x1="52.136" x2="94.696" y1="478.5031" y2="478.5031"/><text fill="#000000" font-family="sans-serif" font-size="10.64" font-weight="bold" lengthAdjust="spacing" textLength="32.68" x="55.176" y="473.1252">model</text><!--MD5=[240acf192599d5768992a063b7c55b89]
cluster kdt--><polygon fill="#FFFFFF" filter="url(#f1ig8s21y6y0ow)" points="245.936,492.1,267.216,492.1,272.536,510.0431,312.816,510.0431,312.816,583.3,245.936,583.3,245.936,492.1" style="stroke:#000000;stroke-width:1.1400000000000001;"/><line style="stroke:#000000;stroke-width:1.1400000000000001;" x1="245.936" x2="272.536" y1="510.0431" y2="510.0431"/><text fill="#000000" font-family="sans-serif" font-size="10.64" font-weight="bold" lengthAdjust="spacing" textLength="16.72" x="248.976" y="504.6652">kdt</text><!--MD5=[66ec0a6823552082a6a71000bb1e12e0]
class ImportPortUI--><rect codeLine="3" fill="#FEFECE" filter="url(#f1ig8s21y6y0ow)" height="36.48" id="ImportPortUI" style="stroke:#A80036;stroke-width:1.1400000000000001;" width="76.76" x="117.876" y="47.12"/><ellipse cx="129.276" cy="59.28" fill="#ADD1B2" rx="8.36" ry="8.36" style="stroke:#A80036;stroke-width:0.76;"/><path d="M130.796,56.62 Q130.9504,56.24 131.1285,56.05 Q131.3066,55.86 131.5085,55.86 Q131.8648,55.86 132.0904,56.0738 Q132.316,56.2875 132.316,56.7863 L132.316,57.9738 Q132.316,58.4725 132.1023,58.6863 Q131.8885,58.9 131.556,58.9 Q131.2591,58.9 131.0691,58.7694 Q130.8791,58.6388 130.796,58.2944 Q130.7604,58.0569 130.6298,57.9263 Q130.3923,57.6769 129.9648,57.5344 Q129.5373,57.38 129.1098,57.38 Q128.5754,57.38 128.1241,57.5938 Q127.6848,57.8075 127.3404,58.2825 Q126.996,58.7575 126.996,59.4106 L126.996,60.1113 Q126.996,60.895 127.6373,61.4175 Q128.2785,61.94 129.4185,61.94 Q130.0954,61.94 130.5704,61.7856 Q130.8435,61.7025 131.1523,61.4294 Q131.3541,61.275 131.461,61.2275 Q131.5679,61.18 131.6985,61.18 Q131.9479,61.18 132.126,61.3819 Q132.316,61.5719 132.316,61.845 Q132.316,62.1063 132.0548,62.415 Q131.6748,62.8663 131.0691,63.1156 Q130.2735,63.46 129.2998,63.46 Q128.1598,63.46 127.2454,63.0088 Q126.5091,62.6525 125.9866,61.8806 Q125.476,61.1088 125.476,60.1944 L125.476,59.3631 Q125.476,58.4131 125.9273,57.5819 Q126.3904,56.7506 127.186,56.3113 Q127.9935,55.86 128.896,55.86 Q129.4423,55.86 129.9173,56.05 Q130.3923,56.24 130.796,56.62 Z " fill="#000000"/><text fill="#000000" font-family="sans-serif" font-size="9.12" lengthAdjust="spacing" textLength="52.44" x="139.916" y="63.0117">ImportPortUI</text><line style="stroke:#A80036;stroke-width:1.1400000000000001;" x1="118.636" x2="193.876" y1="71.44" y2="71.44"/><line style="stroke:#A80036;stroke-width:1.1400000000000001;" x1="118.636" x2="193.876" y1="77.52" y2="77.52"/><!--MD5=[71aef85b917dd0577782a05356719b0f]
class ImportPortController--><rect codeLine="42" fill="#FEFECE" filter="url(#f1ig8s21y6y0ow)" height="46.9953" id="ImportPortController" style="stroke:#A80036;stroke-width:1.1400000000000001;" width="108.68" x="101.916" y="163.4"/><ellipse cx="113.316" cy="175.56" fill="#ADD1B2" rx="8.36" ry="8.36" style="stroke:#A80036;stroke-width:0.76;"/><path d="M114.836,172.9 Q114.9904,172.52 115.1685,172.33 Q115.3466,172.14 115.5485,172.14 Q115.9048,172.14 116.1304,172.3538 Q116.356,172.5675 116.356,173.0663 L116.356,174.2538 Q116.356,174.7525 116.1423,174.9663 Q115.9285,175.18 115.596,175.18 Q115.2991,175.18 115.1091,175.0494 Q114.9191,174.9188 114.836,174.5744 Q114.8004,174.3369 114.6698,174.2063 Q114.4323,173.9569 114.0048,173.8144 Q113.5773,173.66 113.1498,173.66 Q112.6154,173.66 112.1641,173.8738 Q111.7248,174.0875 111.3804,174.5625 Q111.036,175.0375 111.036,175.6906 L111.036,176.3913 Q111.036,177.175 111.6773,177.6975 Q112.3185,178.22 113.4585,178.22 Q114.1354,178.22 114.6104,178.0656 Q114.8835,177.9825 115.1923,177.7094 Q115.3941,177.555 115.501,177.5075 Q115.6079,177.46 115.7385,177.46 Q115.9879,177.46 116.166,177.6619 Q116.356,177.8519 116.356,178.125 Q116.356,178.3863 116.0948,178.695 Q115.7148,179.1463 115.1091,179.3956 Q114.3135,179.74 113.3398,179.74 Q112.1998,179.74 111.2854,179.2888 Q110.5491,178.9325 110.0266,178.1606 Q109.516,177.3888 109.516,176.4744 L109.516,175.6431 Q109.516,174.6931 109.9673,173.8619 Q110.4304,173.0306 111.226,172.5913 Q112.0335,172.14 112.936,172.14 Q113.4823,172.14 113.9573,172.33 Q114.4323,172.52 114.836,172.9 Z " fill="#000000"/><text fill="#000000" font-family="sans-serif" font-size="9.12" lengthAdjust="spacing" textLength="84.36" x="123.956" y="179.2917">ImportPortController</text><line style="stroke:#A80036;stroke-width:1.1400000000000001;" x1="102.676" x2="209.836" y1="187.72" y2="187.72"/><line style="stroke:#A80036;stroke-width:1.1400000000000001;" x1="102.676" x2="209.836" y1="193.8" y2="193.8"/><ellipse cx="110.276" cy="202.16" fill="#84BE84" rx="2.28" ry="2.28" style="stroke:#038048;stroke-width:0.76;"/><text fill="#000000" font-family="sans-serif" font-size="8.36" lengthAdjust="spacing" textLength="33.44" x="117.116" y="205.5184">read(file)</text><!--MD5=[f70d2b281f9eefc1b49373c49159755a]
class PortStore--><rect codeLine="33" fill="#FEFECE" filter="url(#f1ig8s21y6y0ow)" height="68.0259" id="PortStore" style="stroke:#A80036;stroke-width:1.1400000000000001;" width="221.16" x="92.036" y="323.76"/><ellipse cx="180.006" cy="335.92" fill="#ADD1B2" rx="8.36" ry="8.36" style="stroke:#A80036;stroke-width:0.76;"/><path d="M181.526,333.26 Q181.6804,332.88 181.8585,332.69 Q182.0366,332.5 182.2385,332.5 Q182.5948,332.5 182.8204,332.7138 Q183.046,332.9275 183.046,333.4263 L183.046,334.6138 Q183.046,335.1125 182.8323,335.3263 Q182.6185,335.54 182.286,335.54 Q181.9891,335.54 181.7991,335.4094 Q181.6091,335.2788 181.526,334.9344 Q181.4904,334.6969 181.3598,334.5663 Q181.1223,334.3169 180.6948,334.1744 Q180.2673,334.02 179.8398,334.02 Q179.3054,334.02 178.8541,334.2338 Q178.4148,334.4475 178.0704,334.9225 Q177.726,335.3975 177.726,336.0506 L177.726,336.7513 Q177.726,337.535 178.3673,338.0575 Q179.0085,338.58 180.1485,338.58 Q180.8254,338.58 181.3004,338.4256 Q181.5735,338.3425 181.8823,338.0694 Q182.0841,337.915 182.191,337.8675 Q182.2979,337.82 182.4285,337.82 Q182.6779,337.82 182.856,338.0219 Q183.046,338.2119 183.046,338.485 Q183.046,338.7463 182.7848,339.055 Q182.4048,339.5063 181.7991,339.7556 Q181.0035,340.1 180.0298,340.1 Q178.8898,340.1 177.9754,339.6488 Q177.2391,339.2925 176.7166,338.5206 Q176.206,337.7488 176.206,336.8344 L176.206,336.0031 Q176.206,335.0531 176.6573,334.2219 Q177.1204,333.3906 177.916,332.9513 Q178.7235,332.5 179.626,332.5 Q180.1723,332.5 180.6473,332.69 Q181.1223,332.88 181.526,333.26 Z " fill="#000000"/><text fill="#000000" font-family="sans-serif" font-size="9.12" lengthAdjust="spacing" textLength="38.76" x="195.586" y="339.6517">PortStore</text><line style="stroke:#A80036;stroke-width:1.1400000000000001;" x1="92.796" x2="312.436" y1="348.08" y2="348.08"/><line style="stroke:#A80036;stroke-width:1.1400000000000001;" x1="92.796" x2="312.436" y1="354.16" y2="354.16"/><ellipse cx="100.396" cy="362.52" fill="#84BE84" rx="2.28" ry="2.28" style="stroke:#038048;stroke-width:0.76;"/><text fill="#000000" font-family="sans-serif" font-size="8.36" lengthAdjust="spacing" textLength="71.44" x="107.236" y="365.8784">savePortInKdt(port)</text><ellipse cx="100.396" cy="373.0353" fill="#84BE84" rx="2.28" ry="2.28" style="stroke:#038048;stroke-width:0.76;"/><text fill="#000000" font-family="sans-serif" font-size="8.36" lengthAdjust="spacing" textLength="53.96" x="107.236" y="376.3937">getPortById(id)</text><ellipse cx="100.396" cy="383.5506" fill="#84BE84" rx="2.28" ry="2.28" style="stroke:#038048;stroke-width:0.76;"/><text fill="#000000" font-family="sans-serif" font-size="8.36" lengthAdjust="spacing" textLength="201.4" x="107.236" y="386.909">createPort(id,name,continent,country,latitude,longitude)</text><!--MD5=[a0bfe97ac0a38e6e74cc1c7c7b744b71]
class Port--><rect codeLine="24" fill="#FEFECE" filter="url(#f1ig8s21y6y0ow)" height="99.5719" id="Port" style="stroke:#A80036;stroke-width:1.1400000000000001;" width="53.2" x="64.296" y="503.12"/><ellipse cx="81.168" cy="515.28" fill="#ADD1B2" rx="8.36" ry="8.36" style="stroke:#A80036;stroke-width:0.76;"/><path d="M82.688,512.62 Q82.8424,512.24 83.0205,512.05 Q83.1986,511.86 83.4005,511.86 Q83.7568,511.86 83.9824,512.0738 Q84.208,512.2875 84.208,512.7863 L84.208,513.9738 Q84.208,514.4725 83.9943,514.6863 Q83.7805,514.9 83.448,514.9 Q83.1511,514.9 82.9611,514.7694 Q82.7711,514.6388 82.688,514.2944 Q82.6524,514.0569 82.5218,513.9263 Q82.2843,513.6769 81.8568,513.5344 Q81.4293,513.38 81.0018,513.38 Q80.4674,513.38 80.0161,513.5938 Q79.5768,513.8075 79.2324,514.2825 Q78.888,514.7575 78.888,515.4106 L78.888,516.1113 Q78.888,516.895 79.5293,517.4175 Q80.1705,517.94 81.3105,517.94 Q81.9874,517.94 82.4624,517.7856 Q82.7355,517.7025 83.0443,517.4294 Q83.2461,517.275 83.353,517.2275 Q83.4599,517.18 83.5905,517.18 Q83.8399,517.18 84.018,517.3819 Q84.208,517.5719 84.208,517.845 Q84.208,518.1063 83.9468,518.415 Q83.5668,518.8663 82.9611,519.1156 Q82.1655,519.46 81.1918,519.46 Q80.0518,519.46 79.1374,519.0088 Q78.4011,518.6525 77.8786,517.8806 Q77.368,517.1088 77.368,516.1944 L77.368,515.3631 Q77.368,514.4131 77.8193,513.5819 Q78.2824,512.7506 79.078,512.3113 Q79.8855,511.86 80.788,511.86 Q81.3343,511.86 81.8093,512.05 Q82.2843,512.24 82.688,512.62 Z " fill="#000000"/><text fill="#000000" font-family="sans-serif" font-size="9.12" lengthAdjust="spacing" textLength="16.72" x="93.024" y="519.0117">Port</text><line style="stroke:#A80036;stroke-width:1.1400000000000001;" x1="65.056" x2="116.736" y1="527.44" y2="527.44"/><rect fill="none" height="4.56" style="stroke:#C82930;stroke-width:0.76;" width="4.56" x="70.376" y="533.52"/><text fill="#000000" font-family="sans-serif" font-size="8.36" lengthAdjust="spacing" textLength="6.08" x="79.496" y="539.1584">id</text><rect fill="none" height="4.56" style="stroke:#C82930;stroke-width:0.76;" width="4.56" x="70.376" y="544.0353"/><text fill="#000000" font-family="sans-serif" font-size="8.36" lengthAdjust="spacing" textLength="19.76" x="79.496" y="549.6737">name</text><rect fill="none" height="4.56" style="stroke:#C82930;stroke-width:0.76;" width="4.56" x="70.376" y="554.5506"/><text fill="#000000" font-family="sans-serif" font-size="8.36" lengthAdjust="spacing" textLength="33.44" x="79.496" y="560.189">continent</text><rect fill="none" height="4.56" style="stroke:#C82930;stroke-width:0.76;" width="4.56" x="70.376" y="565.0659"/><text fill="#000000" font-family="sans-serif" font-size="8.36" lengthAdjust="spacing" textLength="28.12" x="79.496" y="570.7043">country</text><rect fill="none" height="4.56" style="stroke:#C82930;stroke-width:0.76;" width="4.56" x="70.376" y="575.5813"/><text fill="#000000" font-family="sans-serif" font-size="8.36" lengthAdjust="spacing" textLength="25.84" x="79.496" y="581.2196">latitude</text><rect fill="none" height="4.56" style="stroke:#C82930;stroke-width:0.76;" width="4.56" x="70.376" y="586.0966"/><text fill="#000000" font-family="sans-serif" font-size="8.36" lengthAdjust="spacing" textLength="32.68" x="79.496" y="591.735">longitude</text><line style="stroke:#A80036;stroke-width:1.1400000000000001;" x1="65.056" x2="116.736" y1="596.6119" y2="596.6119"/><!--MD5=[02e4b9b7573f1156f41e60aa5b4e25a4]
class Company--><rect codeLine="39" fill="#FEFECE" filter="url(#f1ig8s21y6y0ow)" height="46.9953" id="Company" style="stroke:#A80036;stroke-width:1.1400000000000001;" width="71.44" x="144.096" y="529.34"/><ellipse cx="158.574" cy="541.5" fill="#ADD1B2" rx="8.36" ry="8.36" style="stroke:#A80036;stroke-width:0.76;"/><path d="M160.094,538.84 Q160.2484,538.46 160.4265,538.27 Q160.6046,538.08 160.8065,538.08 Q161.1628,538.08 161.3884,538.2938 Q161.614,538.5075 161.614,539.0063 L161.614,540.1938 Q161.614,540.6925 161.4003,540.9063 Q161.1865,541.12 160.854,541.12 Q160.5571,541.12 160.3671,540.9894 Q160.1771,540.8588 160.094,540.5144 Q160.0584,540.2769 159.9278,540.1463 Q159.6903,539.8969 159.2628,539.7544 Q158.8353,539.6 158.4078,539.6 Q157.8734,539.6 157.4221,539.8138 Q156.9828,540.0275 156.6384,540.5025 Q156.294,540.9775 156.294,541.6306 L156.294,542.3313 Q156.294,543.115 156.9353,543.6375 Q157.5765,544.16 158.7165,544.16 Q159.3934,544.16 159.8684,544.0056 Q160.1415,543.9225 160.4503,543.6494 Q160.6521,543.495 160.759,543.4475 Q160.8659,543.4 160.9965,543.4 Q161.2459,543.4 161.424,543.6019 Q161.614,543.7919 161.614,544.065 Q161.614,544.3263 161.3528,544.635 Q160.9728,545.0863 160.3671,545.3356 Q159.5715,545.68 158.5978,545.68 Q157.4578,545.68 156.5434,545.2288 Q155.8071,544.8725 155.2846,544.1006 Q154.774,543.3288 154.774,542.4144 L154.774,541.5831 Q154.774,540.6331 155.2253,539.8019 Q155.6884,538.9706 156.484,538.5313 Q157.2915,538.08 158.194,538.08 Q158.7403,538.08 159.2153,538.27 Q159.6903,538.46 160.094,538.84 Z " fill="#000000"/><text fill="#000000" font-family="sans-serif" font-size="9.12" lengthAdjust="spacing" textLength="40.28" x="169.898" y="545.2317">Company</text><line style="stroke:#A80036;stroke-width:1.1400000000000001;" x1="144.856" x2="214.776" y1="553.66" y2="553.66"/><line style="stroke:#A80036;stroke-width:1.1400000000000001;" x1="144.856" x2="214.776" y1="559.74" y2="559.74"/><ellipse cx="152.456" cy="568.1" fill="#84BE84" rx="2.28" ry="2.28" style="stroke:#038048;stroke-width:0.76;"/><text fill="#000000" font-family="sans-serif" font-size="8.36" lengthAdjust="spacing" textLength="51.68" x="159.296" y="571.4584">getPortStore()</text><!--MD5=[c9d313692e0c841fa419c566c6844797]
class KDT--><rect codeLine="21" fill="#FEFECE" filter="url(#f1ig8s21y6y0ow)" height="36.48" id="KDT" style="stroke:#A80036;stroke-width:1.1400000000000001;" width="42.56" x="258.096" y="534.66"/><ellipse cx="269.496" cy="546.82" fill="#ADD1B2" rx="8.36" ry="8.36" style="stroke:#A80036;stroke-width:0.76;"/><path d="M271.016,544.16 Q271.1704,543.78 271.3485,543.59 Q271.5266,543.4 271.7285,543.4 Q272.0848,543.4 272.3104,543.6138 Q272.536,543.8275 272.536,544.3263 L272.536,545.5138 Q272.536,546.0125 272.3223,546.2263 Q272.1085,546.44 271.776,546.44 Q271.4791,546.44 271.2891,546.3094 Q271.0991,546.1788 271.016,545.8344 Q270.9804,545.5969 270.8498,545.4663 Q270.6123,545.2169 270.1848,545.0744 Q269.7573,544.92 269.3298,544.92 Q268.7954,544.92 268.3441,545.1338 Q267.9048,545.3475 267.5604,545.8225 Q267.216,546.2975 267.216,546.9506 L267.216,547.6513 Q267.216,548.435 267.8573,548.9575 Q268.4985,549.48 269.6385,549.48 Q270.3154,549.48 270.7904,549.3256 Q271.0635,549.2425 271.3723,548.9694 Q271.5741,548.815 271.681,548.7675 Q271.7879,548.72 271.9185,548.72 Q272.1679,548.72 272.346,548.9219 Q272.536,549.1119 272.536,549.385 Q272.536,549.6463 272.2748,549.955 Q271.8948,550.4063 271.2891,550.6556 Q270.4935,551 269.5198,551 Q268.3798,551 267.4654,550.5488 Q266.7291,550.1925 266.2066,549.4206 Q265.696,548.6488 265.696,547.7344 L265.696,546.9031 Q265.696,545.9531 266.1473,545.1219 Q266.6104,544.2906 267.406,543.8513 Q268.2135,543.4 269.116,543.4 Q269.6623,543.4 270.1373,543.59 Q270.6123,543.78 271.016,544.16 Z " fill="#000000"/><text fill="#000000" font-family="sans-serif" font-size="9.12" lengthAdjust="spacing" textLength="18.24" x="280.136" y="550.5517">KDT</text><line style="stroke:#A80036;stroke-width:1.1400000000000001;" x1="258.856" x2="299.896" y1="558.98" y2="558.98"/><line style="stroke:#A80036;stroke-width:1.1400000000000001;" x1="258.856" x2="299.896" y1="565.06" y2="565.06"/><!--MD5=[a274b9c561e77e6aa7af544d8fd7e5b9]
link ImportPortUI to ImportPortController--><path codeLine="46" d="M156.256,83.8356 C156.256,103.7552 156.256,136.3212 156.256,159.3644 " fill="none" id="ImportPortUI-to-ImportPortController" style="stroke:#A80036;stroke-width:0.76;stroke-dasharray:7.0,7.0;"/><polygon fill="#A80036" points="156.256,163.2708,159.3155,156.4395,156.2669,159.4708,153.2356,156.4221,156.256,163.2708" style="stroke:#A80036;stroke-width:0.76;"/><!--MD5=[fedae152fe2635eb3f764cf1e15468a0]
link ImportPortController to Company--><path codeLine="47" d="M108.8092,210.634 C97.1128,218.728 86.07,229.0336 79.496,241.68 C41.1996,315.4228 65.7172,346.6968 79.496,428.64 C81.0388,437.8056 79.1464,442.51 86.336,448.4 C101.9008,461.1452 114.8284,442.7684 131.176,454.48 C154.6828,471.3216 167.4508,502.8084 173.9336,525.4868 " fill="none" id="ImportPortController-to-Company" style="stroke:#A80036;stroke-width:0.76;stroke-dasharray:7.0,7.0;"/><polygon fill="#A80036" points="174.9976,529.3248,176.1085,521.9226,173.9867,525.6617,170.2476,523.54,174.9976,529.3248" style="stroke:#A80036;stroke-width:0.76;"/><!--MD5=[dc534505e2f84146a678532524f26867]
link ImportPortController to PortStore--><path codeLine="48" d="M162.5108,210.5732 C170.1716,238.5944 183.2664,286.444 192.4016,319.8384 " fill="none" id="ImportPortController-to-PortStore" style="stroke:#A80036;stroke-width:0.76;stroke-dasharray:7.0,7.0;"/><polygon fill="#A80036" points="193.4352,323.6308,194.5721,316.2325,192.4372,319.9642,188.7055,317.8293,193.4352,323.6308" style="stroke:#A80036;stroke-width:0.76;"/><!--MD5=[f875e3991d3fc4c72254a3e9e60f9a81]
link ImportPortController to KDT--><path codeLine="49" d="M210.7328,189.1184 C249.6752,193.3288 299.63,205.9676 325.736,241.68 C391.8332,332.082 321.9512,477.3864 291.802,531.2096 " fill="none" id="ImportPortController-to-KDT" style="stroke:#A80036;stroke-width:0.76;stroke-dasharray:7.0,7.0;"/><polygon fill="#A80036" points="289.8716,534.622,295.8794,530.1574,291.7382,531.312,290.5835,527.1708,289.8716,534.622" style="stroke:#A80036;stroke-width:0.76;"/><!--MD5=[041731d4f3e40fb7cc2200cc7d74c7a6]
link ImportPortController to Port--><path codeLine="50" d="M101.7564,203.1556 C82.916,211.394 63.8096,223.6756 52.896,241.68 C4.56,321.442 38.19,433.922 65.5576,499.3124 " fill="none" id="ImportPortController-to-Port" style="stroke:#A80036;stroke-width:0.76;stroke-dasharray:7.0,7.0;"/><polygon fill="#A80036" points="67.1004,502.9756,67.2479,495.4919,65.6258,499.4734,61.6443,497.8513,67.1004,502.9756" style="stroke:#A80036;stroke-width:0.76;"/><!--MD5=[5a03d6507d51d9583d52cfaf8d4720dd]
link Company to PortStore--><path codeLine="51" d="M182.5368,529.074 C186.4128,496.2116 193.5644,435.5332 198.208,396.1652 " fill="none" id="Company-to-PortStore" style="stroke:#A80036;stroke-width:0.76;"/><polygon fill="#A80036" points="198.6716,392.1904,194.8522,398.6277,198.227,395.9643,200.8904,399.3391,198.6716,392.1904" style="stroke:#A80036;stroke-width:0.76;"/><text fill="#000000" font-family="sans-serif" font-size="9.88" lengthAdjust="spacing" textLength="29.64" x="193.496" y="445.7363">Knows</text><text fill="#000000" font-family="sans-serif" font-size="9.88" lengthAdjust="spacing" textLength="5.32" x="177.2293" y="521.0426">1</text><text fill="#000000" font-family="sans-serif" font-size="9.88" lengthAdjust="spacing" textLength="5.32" x="192.4229" y="408.1604">1</text><!--MD5=[c8440d88291d09ff9b1204d56899ac6f]
link PortStore to Port--><path codeLine="52" d="M137.5828,392.312 C121.9116,403.6132 107.0232,417.7568 97.736,434.72 C87.172,454.024 84.284,477.8956 84.4968,499.054 " fill="none" id="PortStore-to-Port" style="stroke:#A80036;stroke-width:0.76;"/><polygon fill="#A80036" points="84.5652,502.9756,87.4678,496.0762,84.4892,499.1764,81.389,496.1978,84.5652,502.9756" style="stroke:#A80036;stroke-width:0.76;"/><text fill="#000000" font-family="sans-serif" font-size="9.88" lengthAdjust="spacing" textLength="38" x="98.496" y="445.7363">registers</text><text fill="#000000" font-family="sans-serif" font-size="9.88" lengthAdjust="spacing" textLength="5.32" x="123.1665" y="408.0444">1</text><text fill="#000000" font-family="sans-serif" font-size="9.88" lengthAdjust="spacing" textLength="3.8" x="79.865" y="494.9604">*</text><!--MD5=[26e3165f8497716d20eb9bf797f8768b]
link Port to KDT--><path codeLine="53" d="M100.3428,503.0212 C106.2328,485.8908 115.7632,468.4716 131.176,458.28 C166.9644,434.6212 190.8056,436.392 227.696,458.28 C253.9464,473.8524 267.7252,507.9764 274.2688,530.7004 " fill="none" id="Port-to-KDT" style="stroke:#A80036;stroke-width:0.76;"/><polygon fill="#A80036" points="275.3328,534.5232,276.4233,527.1179,274.3118,530.8629,270.5668,528.7515,275.3328,534.5232" style="stroke:#A80036;stroke-width:0.76;"/><text fill="#000000" font-family="sans-serif" font-size="9.88" lengthAdjust="spacing" textLength="27.36" x="144.096" y="445.7363">stored</text><text fill="#000000" font-family="sans-serif" font-size="9.88" lengthAdjust="spacing" textLength="3.8" x="97.3682" y="495.011">*</text><text fill="#000000" font-family="sans-serif" font-size="9.88" lengthAdjust="spacing" textLength="5.32" x="268.2951" y="526.3867">1</text><!--MD5=[2b897ed9a88db81f612eae4453a76dd8]
link PortStore to KDT--><path codeLine="54" d="M215.9008,392.1904 C231.686,431.9612 257.5488,497.1388 270.8716,530.6928 " fill="none" id="PortStore-to-KDT" style="stroke:#A80036;stroke-width:0.76;stroke-dasharray:7.0,7.0;"/><polygon fill="#A80036" points="272.3536,534.432,272.6557,526.953,270.9517,530.9001,267.0046,529.196,272.3536,534.432" style="stroke:#A80036;stroke-width:0.76;"/><!--MD5=[46b2d03bc2ada63f70ebc32d53a03136]
@startuml

package ui{
class ImportPortUI
}

package controller{
class ImportPortController
}

package utils{
package store{
class PortStore
}
}
package model{
class Port
class Company
}

package kdt{
class KDT
}

class Port{
-id
-name
-continent
-country
-latitude
-longitude
}

class PortStore{
+savePortInKdt(port)
+getPortById(id)
+createPort(id,name,continent,country,latitude,longitude)
}

class Company{
+getPortStore()
}
class ImportPortController{
+read(file)
}

ImportPortUI .-> ImportPortController
ImportPortController .- -> Company
ImportPortController .-> PortStore
ImportPortController .- -> KDT
ImportPortController .- -> Port
Company "1"- ->"1" PortStore : Knows
PortStore "1"- ->"*" Port : registers
Port "*"->"1" KDT : stored
PortStore .-> KDT
@enduml

PlantUML version 1.2021.2(Sun Mar 07 11:10:27 GMT 2021)
(GPL source distribution)
Java Runtime: OpenJDK Runtime Environment
JVM: OpenJDK 64-Bit Server VM
Default Encoding: Cp1252
Language: pt
Country: PT
--></g></svg>