<?xml version="1.0" encoding="UTF-8" standalone="no"?><svg xmlns="http://www.w3.org/2000/svg" xmlns:xlink="http://www.w3.org/1999/xlink" contentScriptType="application/ecmascript" contentStyleType="text/css" height="397px" preserveAspectRatio="none" style="width:475px;height:397px;background:#FFFFFF;" version="1.1" viewBox="0 0 475 397" width="475px" zoomAndPan="magnify"><defs><filter height="300%" id="ffg7xrk65dsj6" width="300%" x="-1" y="-1"><feGaussianBlur result="blurOut" stdDeviation="2.0"/><feColorMatrix in="blurOut" result="blurOut2" type="matrix" values="0 0 0 0 0 0 0 0 0 0 0 0 0 0 0 0 0 0 .4 0"/><feOffset dx="4.0" dy="4.0" in="blurOut2" result="blurOut3"/><feBlend in="SourceGraphic" in2="blurOut3" mode="normal"/></filter></defs><g><!--MD5=[64e2e010ba86d7988e5cd73bd64f61f9]
cluster ui--><polygon fill="#FFFFFF" filter="url(#ffg7xrk65dsj6)" points="109,6,130,6,137,28.2969,311,28.2969,311,105,109,105,109,6" style="stroke:#000000;stroke-width:1.5;"/><line style="stroke:#000000;stroke-width:1.5;" x1="109" x2="137" y1="28.2969" y2="28.2969"/><text fill="#000000" font-family="sans-serif" font-size="14" font-weight="bold" lengthAdjust="spacing" textLength="15" x="113" y="20.9951">ui</text><!--MD5=[f4e70ef68289585296b9045165e58692]
cluster controllers--><polygon fill="#FFFFFF" filter="url(#ffg7xrk65dsj6)" points="52,129,147,129,154,151.2969,368,151.2969,368,254,52,254,52,129" style="stroke:#000000;stroke-width:1.5;"/><line style="stroke:#000000;stroke-width:1.5;" x1="52" x2="154" y1="151.2969" y2="151.2969"/><text fill="#000000" font-family="sans-serif" font-size="14" font-weight="bold" lengthAdjust="spacing" textLength="89" x="56" y="143.9951">controllers</text><!--MD5=[c52f45833d539af9e29a9d34b8b7302b]
cluster utils--><polygon fill="#FFFFFF" filter="url(#ffg7xrk65dsj6)" points="16,278,59,278,66,300.2969,118,300.2969,118,390,16,390,16,278" style="stroke:#000000;stroke-width:1.5;"/><line style="stroke:#000000;stroke-width:1.5;" x1="16" x2="66" y1="300.2969" y2="300.2969"/><text fill="#000000" font-family="sans-serif" font-size="14" font-weight="bold" lengthAdjust="spacing" textLength="37" x="20" y="292.9951">utils</text><!--MD5=[dce4c2b5694dd28223e7b1d160ba96c4]
cluster data--><polygon fill="#FFFFFF" filter="url(#ffg7xrk65dsj6)" points="142,278,186,278,193,300.2969,458,300.2969,458,390,142,390,142,278" style="stroke:#000000;stroke-width:1.5;"/><line style="stroke:#000000;stroke-width:1.5;" x1="142" x2="193" y1="300.2969" y2="300.2969"/><text fill="#000000" font-family="sans-serif" font-size="14" font-weight="bold" lengthAdjust="spacing" textLength="38" x="146" y="292.9951">data</text><!--MD5=[8279af77ae51c2727f3e131c64b0b07c]
class ContainersToOffLoadUI--><rect codeLine="6" fill="#FEFECE" filter="url(#ffg7xrk65dsj6)" height="48" id="ContainersToOffLoadUI" style="stroke:#A80036;stroke-width:1.5;" width="170" x="125" y="41"/><ellipse cx="140" cy="57" fill="#ADD1B2" rx="11" ry="11" style="stroke:#A80036;stroke-width:1.0;"/><path d="M142.3438,52.6719 C141.4063,52.2344 140.8125,52.0938 139.9375,52.0938 C137.3125,52.0938 135.3125,54.1719 135.3125,56.8906 L135.3125,58.0156 C135.3125,60.5938 137.4219,62.4844 140.3125,62.4844 C141.5313,62.4844 142.6875,62.1875 143.4375,61.6406 C144.0156,61.2344 144.3438,60.7813 144.3438,60.3906 C144.3438,59.9375 143.9531,59.5469 143.4844,59.5469 C143.2656,59.5469 143.0625,59.625 142.875,59.8125 C142.4219,60.2969 142.4219,60.2969 142.2344,60.3906 C141.8125,60.6563 141.125,60.7813 140.3594,60.7813 C138.3125,60.7813 137.0156,59.6875 137.0156,57.9844 L137.0156,56.8906 C137.0156,55.1094 138.2656,53.7969 140,53.7969 C140.5781,53.7969 141.1875,53.9531 141.6563,54.2031 C142.1406,54.4844 142.3125,54.7031 142.4063,55.1094 C142.4688,55.5156 142.5,55.6406 142.6406,55.7656 C142.7813,55.9063 143.0156,56.0156 143.2344,56.0156 C143.5,56.0156 143.7656,55.875 143.9375,55.6563 C144.0469,55.5 144.0781,55.3125 144.0781,54.8906 L144.0781,53.4688 C144.0781,53.0313 144.0625,52.9063 143.9688,52.75 C143.8125,52.4844 143.5313,52.3438 143.2344,52.3438 C142.9375,52.3438 142.7344,52.4375 142.5156,52.75 L142.3438,52.6719 Z " fill="#000000"/><text fill="#000000" font-family="sans-serif" font-size="12" lengthAdjust="spacing" textLength="138" x="154" y="61.1543">ContainersToOffLoadUI</text><line style="stroke:#A80036;stroke-width:1.5;" x1="126" x2="294" y1="73" y2="73"/><line style="stroke:#A80036;stroke-width:1.5;" x1="126" x2="294" y1="81" y2="81"/><!--MD5=[33cba97269802dbbdaee6f7b764865f6]
class ContainersToOffLoadController--><rect codeLine="11" fill="#FEFECE" filter="url(#ffg7xrk65dsj6)" height="73.6094" id="ContainersToOffLoadController" style="stroke:#A80036;stroke-width:1.5;" width="283" x="68.5" y="164"/><ellipse cx="113.25" cy="180" fill="#ADD1B2" rx="11" ry="11" style="stroke:#A80036;stroke-width:1.0;"/><path d="M115.5938,175.6719 C114.6563,175.2344 114.0625,175.0938 113.1875,175.0938 C110.5625,175.0938 108.5625,177.1719 108.5625,179.8906 L108.5625,181.0156 C108.5625,183.5938 110.6719,185.4844 113.5625,185.4844 C114.7813,185.4844 115.9375,185.1875 116.6875,184.6406 C117.2656,184.2344 117.5938,183.7813 117.5938,183.3906 C117.5938,182.9375 117.2031,182.5469 116.7344,182.5469 C116.5156,182.5469 116.3125,182.625 116.125,182.8125 C115.6719,183.2969 115.6719,183.2969 115.4844,183.3906 C115.0625,183.6563 114.375,183.7813 113.6094,183.7813 C111.5625,183.7813 110.2656,182.6875 110.2656,180.9844 L110.2656,179.8906 C110.2656,178.1094 111.5156,176.7969 113.25,176.7969 C113.8281,176.7969 114.4375,176.9531 114.9063,177.2031 C115.3906,177.4844 115.5625,177.7031 115.6563,178.1094 C115.7188,178.5156 115.75,178.6406 115.8906,178.7656 C116.0313,178.9063 116.2656,179.0156 116.4844,179.0156 C116.75,179.0156 117.0156,178.875 117.1875,178.6563 C117.2969,178.5 117.3281,178.3125 117.3281,177.8906 L117.3281,176.4688 C117.3281,176.0313 117.3125,175.9063 117.2188,175.75 C117.0625,175.4844 116.7813,175.3438 116.4844,175.3438 C116.1875,175.3438 115.9844,175.4375 115.7656,175.75 L115.5938,175.6719 Z " fill="#000000"/><text fill="#000000" font-family="sans-serif" font-size="12" lengthAdjust="spacing" textLength="185" x="133.75" y="184.1543">ContainersToOffLoadController</text><line style="stroke:#A80036;stroke-width:1.5;" x1="69.5" x2="350.5" y1="196" y2="196"/><line style="stroke:#A80036;stroke-width:1.5;" x1="69.5" x2="350.5" y1="204" y2="204"/><text fill="#000000" font-family="sans-serif" font-size="11" lengthAdjust="spacing" textLength="271" x="74.5" y="218.2104">+getContainersToOffLoadOnNextPort(shipMMSI)</text><text fill="#000000" font-family="sans-serif" font-size="11" lengthAdjust="spacing" textLength="176" x="74.5" y="231.0151">+printer(fileName, tringToPrint)</text><!--MD5=[69f2f3ad3645114d26612368d508f737]
class Printer--><rect codeLine="17" fill="#FEFECE" filter="url(#ffg7xrk65dsj6)" height="60.8047" id="Printer" style="stroke:#A80036;stroke-width:1.5;" width="70" x="32" y="313"/><ellipse cx="47" cy="329" fill="#ADD1B2" rx="11" ry="11" style="stroke:#A80036;stroke-width:1.0;"/><path d="M49.3438,324.6719 C48.4063,324.2344 47.8125,324.0938 46.9375,324.0938 C44.3125,324.0938 42.3125,326.1719 42.3125,328.8906 L42.3125,330.0156 C42.3125,332.5938 44.4219,334.4844 47.3125,334.4844 C48.5313,334.4844 49.6875,334.1875 50.4375,333.6406 C51.0156,333.2344 51.3438,332.7813 51.3438,332.3906 C51.3438,331.9375 50.9531,331.5469 50.4844,331.5469 C50.2656,331.5469 50.0625,331.625 49.875,331.8125 C49.4219,332.2969 49.4219,332.2969 49.2344,332.3906 C48.8125,332.6563 48.125,332.7813 47.3594,332.7813 C45.3125,332.7813 44.0156,331.6875 44.0156,329.9844 L44.0156,328.8906 C44.0156,327.1094 45.2656,325.7969 47,325.7969 C47.5781,325.7969 48.1875,325.9531 48.6563,326.2031 C49.1406,326.4844 49.3125,326.7031 49.4063,327.1094 C49.4688,327.5156 49.5,327.6406 49.6406,327.7656 C49.7813,327.9063 50.0156,328.0156 50.2344,328.0156 C50.5,328.0156 50.7656,327.875 50.9375,327.6563 C51.0469,327.5 51.0781,327.3125 51.0781,326.8906 L51.0781,325.4688 C51.0781,325.0313 51.0625,324.9063 50.9688,324.75 C50.8125,324.4844 50.5313,324.3438 50.2344,324.3438 C49.9375,324.3438 49.7344,324.4375 49.5156,324.75 L49.3438,324.6719 Z " fill="#000000"/><text fill="#000000" font-family="sans-serif" font-size="12" lengthAdjust="spacing" textLength="38" x="61" y="333.1543">Printer</text><line style="stroke:#A80036;stroke-width:1.5;" x1="33" x2="101" y1="345" y2="345"/><line style="stroke:#A80036;stroke-width:1.5;" x1="33" x2="101" y1="353" y2="353"/><text fill="#000000" font-family="sans-serif" font-size="11" lengthAdjust="spacing" textLength="42" x="38" y="367.2104">+print()</text><!--MD5=[2c7872ec38b8c5d1a7845ebbed63de51]
class ContainersToOffLoad--><rect codeLine="22" fill="#FEFECE" filter="url(#ffg7xrk65dsj6)" height="60.8047" id="ContainersToOffLoad" style="stroke:#A80036;stroke-width:1.5;" width="283" x="158.5" y="313"/><ellipse cx="232.75" cy="329" fill="#ADD1B2" rx="11" ry="11" style="stroke:#A80036;stroke-width:1.0;"/><path d="M235.0938,324.6719 C234.1563,324.2344 233.5625,324.0938 232.6875,324.0938 C230.0625,324.0938 228.0625,326.1719 228.0625,328.8906 L228.0625,330.0156 C228.0625,332.5938 230.1719,334.4844 233.0625,334.4844 C234.2813,334.4844 235.4375,334.1875 236.1875,333.6406 C236.7656,333.2344 237.0938,332.7813 237.0938,332.3906 C237.0938,331.9375 236.7031,331.5469 236.2344,331.5469 C236.0156,331.5469 235.8125,331.625 235.625,331.8125 C235.1719,332.2969 235.1719,332.2969 234.9844,332.3906 C234.5625,332.6563 233.875,332.7813 233.1094,332.7813 C231.0625,332.7813 229.7656,331.6875 229.7656,329.9844 L229.7656,328.8906 C229.7656,327.1094 231.0156,325.7969 232.75,325.7969 C233.3281,325.7969 233.9375,325.9531 234.4063,326.2031 C234.8906,326.4844 235.0625,326.7031 235.1563,327.1094 C235.2188,327.5156 235.25,327.6406 235.3906,327.7656 C235.5313,327.9063 235.7656,328.0156 235.9844,328.0156 C236.25,328.0156 236.5156,327.875 236.6875,327.6563 C236.7969,327.5 236.8281,327.3125 236.8281,326.8906 L236.8281,325.4688 C236.8281,325.0313 236.8125,324.9063 236.7188,324.75 C236.5625,324.4844 236.2813,324.3438 235.9844,324.3438 C235.6875,324.3438 235.4844,324.4375 235.2656,324.75 L235.0938,324.6719 Z " fill="#000000"/><text fill="#000000" font-family="sans-serif" font-size="12" lengthAdjust="spacing" textLength="126" x="253.25" y="333.1543">ContainersToOffLoad</text><line style="stroke:#A80036;stroke-width:1.5;" x1="159.5" x2="440.5" y1="345" y2="345"/><line style="stroke:#A80036;stroke-width:1.5;" x1="159.5" x2="440.5" y1="353" y2="353"/><text fill="#000000" font-family="sans-serif" font-size="11" lengthAdjust="spacing" textLength="271" x="164.5" y="367.2104">+getContainersToOffLoadOnNextPort(shipMMSI)</text><!--MD5=[aeb84371f473c065ee1d0b8f4c35a31e]
link ContainersToOffLoadUI to ContainersToOffLoadController--><path codeLine="29" d="M210,89.035 C210,108.167 210,135.86 210,158.795 " fill="none" id="ContainersToOffLoadUI-to-ContainersToOffLoadController" style="stroke:#A80036;stroke-width:1.0;stroke-dasharray:7.0,7.0;"/><polygon fill="#A80036" points="210,163.911,214,154.911,210,158.911,206,154.911,210,163.911" style="stroke:#A80036;stroke-width:1.0;"/><!--MD5=[2f6ff51ba6413f7e79e646f3af4d84aa]
link ContainersToOffLoadController to Printer--><path codeLine="30" d="M173.174,238.182 C150.957,260.011 122.847,287.629 101.133,308.9641 " fill="none" id="ContainersToOffLoadController-to-Printer" style="stroke:#A80036;stroke-width:1.0;stroke-dasharray:7.0,7.0;"/><polygon fill="#A80036" points="97.4305,312.6015,106.6534,309.1463,100.9968,309.097,101.0461,303.4403,97.4305,312.6015" style="stroke:#A80036;stroke-width:1.0;"/><!--MD5=[4370f4d9da8b3b33afa42628dceb948f]
link ContainersToOffLoadController to ContainersToOffLoad--><path codeLine="31" d="M233.177,238.182 C246.986,259.74 264.413,286.945 278.008,308.1678 " fill="none" id="ContainersToOffLoadController-to-ContainersToOffLoad" style="stroke:#A80036;stroke-width:1.0;stroke-dasharray:7.0,7.0;"/><polygon fill="#A80036" points="280.848,312.6015,279.3628,302.8653,278.1515,308.3909,272.6259,307.1796,280.848,312.6015" style="stroke:#A80036;stroke-width:1.0;"/><!--MD5=[529e493579d8355a4bd0586deebdaee9]
@startuml
'https://plantuml.com/class-diagram

skinparam classAttributeIconSize 0

package "ui" {
class ContainersToOffLoadUI{
}
}

package "controllers" {
class ContainersToOffLoadController{
+getContainersToOffLoadOnNextPort(shipMMSI)
+printer(fileName, tringToPrint)
}
}
package utils{
class Printer{
+print()
}
}
package data{
class ContainersToOffLoad{
+getContainersToOffLoadOnNextPort(shipMMSI)
}
}



ContainersToOffLoadUI ..> ContainersToOffLoadController
ContainersToOffLoadController ..> Printer
ContainersToOffLoadController ..> ContainersToOffLoad
@enduml

@startuml

skinparam classAttributeIconSize 0

package "ui" {
class ContainersToOffLoadUI{
}
}

package "controllers" {
class ContainersToOffLoadController{
+getContainersToOffLoadOnNextPort(shipMMSI)
+printer(fileName, tringToPrint)
}
}
package utils{
class Printer{
+print()
}
}
package data{
class ContainersToOffLoad{
+getContainersToOffLoadOnNextPort(shipMMSI)
}
}



ContainersToOffLoadUI ..> ContainersToOffLoadController
ContainersToOffLoadController ..> Printer
ContainersToOffLoadController ..> ContainersToOffLoad
@enduml

PlantUML version 1.2021.16beta1(Unknown compile time)
(GPL source distribution)
Java Runtime: Java(TM) SE Runtime Environment
JVM: Java HotSpot(TM) 64-Bit Server VM
Default Encoding: UTF-8
Language: en
Country: US
--></g></svg>