<?xml version="1.0" encoding="UTF-8" standalone="no"?><svg xmlns="http://www.w3.org/2000/svg" xmlns:xlink="http://www.w3.org/1999/xlink" contentScriptType="application/ecmascript" contentStyleType="text/css" height="472px" preserveAspectRatio="none" style="width:533px;height:472px;" version="1.1" viewBox="0 0 533 472" width="533px" zoomAndPan="magnify"><defs><filter height="300%" id="f1gvz63t12j3w3" width="300%" x="-1" y="-1"><feGaussianBlur result="blurOut" stdDeviation="2.0"/><feColorMatrix in="blurOut" result="blurOut2" type="matrix" values="0 0 0 0 0 0 0 0 0 0 0 0 0 0 0 0 0 0 .4 0"/><feOffset dx="4.0" dy="4.0" in="blurOut2" result="blurOut3"/><feBlend in="SourceGraphic" in2="blurOut3" mode="normal"/></filter></defs><g><rect fill="#FFFFFF" filter="url(#f1gvz63t12j3w3)" height="278.1641" style="stroke:#A80036;stroke-width:1.0;" width="10" x="68" y="99.6094"/><rect fill="#FFFFFF" filter="url(#f1gvz63t12j3w3)" height="30.3516" style="stroke:#A80036;stroke-width:1.0;" width="10" x="470" y="121.9609"/><rect fill="#FFFFFF" filter="url(#f1gvz63t12j3w3)" height="133.4063" style="stroke:#A80036;stroke-width:1.0;" width="10" x="470" y="182.6641"/><rect fill="#FFFFFF" filter="url(#f1gvz63t12j3w3)" height="30.3516" style="stroke:#A80036;stroke-width:1.0;" width="10" x="470" y="338.4219"/><rect fill="#FFFFFF" filter="url(#f1gvz63t12j3w3)" height="48.7031" style="stroke:#000000;stroke-width:2.0;" width="509" x="10" y="197.6641"/><rect fill="#FFFFFF" filter="url(#f1gvz63t12j3w3)" height="48.7031" style="stroke:#000000;stroke-width:2.0;" width="509" x="10" y="260.3672"/><line style="stroke:#A80036;stroke-width:1.0;stroke-dasharray:5.0,5.0;" x1="73" x2="73" y1="89.6094" y2="386.7734"/><line style="stroke:#A80036;stroke-width:1.0;stroke-dasharray:5.0,5.0;" x1="475" x2="475" y1="89.6094" y2="386.7734"/><text fill="#000000" font-family="sans-serif" font-size="14" lengthAdjust="spacing" textLength="100" x="20" y="86.5332">Traffic Manager</text><ellipse cx="73" cy="15" fill="#FEFECE" filter="url(#f1gvz63t12j3w3)" rx="8" ry="8" style="stroke:#A80036;stroke-width:2.0;"/><path d="M73,23 L73,50 M60,31 L86,31 M73,50 L60,65 M73,50 L86,65 " fill="none" filter="url(#f1gvz63t12j3w3)" style="stroke:#A80036;stroke-width:2.0;"/><text fill="#000000" font-family="sans-serif" font-size="14" lengthAdjust="spacing" textLength="100" x="20" y="400.3066">Traffic Manager</text><ellipse cx="73" cy="413.3828" fill="#FEFECE" filter="url(#f1gvz63t12j3w3)" rx="8" ry="8" style="stroke:#A80036;stroke-width:2.0;"/><path d="M73,421.3828 L73,448.3828 M60,429.3828 L86,429.3828 M73,448.3828 L60,463.3828 M73,448.3828 L86,463.3828 " fill="none" filter="url(#f1gvz63t12j3w3)" style="stroke:#A80036;stroke-width:2.0;"/><rect fill="#FEFECE" filter="url(#f1gvz63t12j3w3)" height="31.6094" style="stroke:#A80036;stroke-width:1.5;" width="64" x="441" y="53"/><text fill="#000000" font-family="sans-serif" font-size="14" lengthAdjust="spacing" textLength="50" x="448" y="74.5332">:System</text><rect fill="#FEFECE" filter="url(#f1gvz63t12j3w3)" height="31.6094" style="stroke:#A80036;stroke-width:1.5;" width="64" x="441" y="385.7734"/><text fill="#000000" font-family="sans-serif" font-size="14" lengthAdjust="spacing" textLength="50" x="448" y="407.3066">:System</text><rect fill="#FFFFFF" filter="url(#f1gvz63t12j3w3)" height="278.1641" style="stroke:#A80036;stroke-width:1.0;" width="10" x="68" y="99.6094"/><rect fill="#FFFFFF" filter="url(#f1gvz63t12j3w3)" height="30.3516" style="stroke:#A80036;stroke-width:1.0;" width="10" x="470" y="121.9609"/><rect fill="#FFFFFF" filter="url(#f1gvz63t12j3w3)" height="133.4063" style="stroke:#A80036;stroke-width:1.0;" width="10" x="470" y="182.6641"/><rect fill="#FFFFFF" filter="url(#f1gvz63t12j3w3)" height="30.3516" style="stroke:#A80036;stroke-width:1.0;" width="10" x="470" y="338.4219"/><polygon fill="#A80036" points="458,117.9609,468,121.9609,458,125.9609,462,121.9609" style="stroke:#A80036;stroke-width:1.0;"/><line style="stroke:#A80036;stroke-width:1.0;" x1="78" x2="464" y1="121.9609" y2="121.9609"/><text fill="#000000" font-family="sans-serif" font-size="13" font-weight="bold" lengthAdjust="spacing" textLength="7" x="85" y="117.1045">1</text><text fill="#000000" font-family="sans-serif" font-size="13" lengthAdjust="spacing" textLength="293" x="96" y="117.1045">asks to know the shortest path between two locals</text><polygon fill="#A80036" points="89,148.3125,79,152.3125,89,156.3125,85,152.3125" style="stroke:#A80036;stroke-width:1.0;"/><line style="stroke:#A80036;stroke-width:1.0;stroke-dasharray:2.0,2.0;" x1="83" x2="474" y1="152.3125" y2="152.3125"/><text fill="#000000" font-family="sans-serif" font-size="13" font-weight="bold" lengthAdjust="spacing" textLength="7" x="95" y="147.4561">2</text><text fill="#000000" font-family="sans-serif" font-size="13" lengthAdjust="spacing" textLength="124" x="106" y="147.4561">requests data (i.e.: n)</text><polygon fill="#A80036" points="458,178.6641,468,182.6641,458,186.6641,462,182.6641" style="stroke:#A80036;stroke-width:1.0;"/><line style="stroke:#A80036;stroke-width:1.0;" x1="78" x2="464" y1="182.6641" y2="182.6641"/><text fill="#000000" font-family="sans-serif" font-size="13" font-weight="bold" lengthAdjust="spacing" textLength="7" x="85" y="177.8076">3</text><text fill="#000000" font-family="sans-serif" font-size="13" lengthAdjust="spacing" textLength="122" x="96" y="177.8076">types requested data</text><path d="M10,197.6641 L71,197.6641 L71,205.6641 L61,215.6641 L10,215.6641 L10,197.6641 " fill="#EEEEEE" style="stroke:#000000;stroke-width:1.0;"/><rect fill="none" height="48.7031" style="stroke:#000000;stroke-width:2.0;" width="509" x="10" y="197.6641"/><text fill="#000000" font-family="sans-serif" font-size="13" font-weight="bold" lengthAdjust="spacing" textLength="16" x="25" y="212.1592">alt</text><text fill="#000000" font-family="sans-serif" font-size="11" font-weight="bold" lengthAdjust="spacing" textLength="68" x="86" y="211.083">[n&gt;0 &amp;&amp; n&lt;4]</text><polygon fill="#A80036" points="89,234.3672,79,238.3672,89,242.3672,85,238.3672" style="stroke:#A80036;stroke-width:1.0;"/><line style="stroke:#A80036;stroke-width:1.0;stroke-dasharray:2.0,2.0;" x1="83" x2="469" y1="238.3672" y2="238.3672"/><text fill="#000000" font-family="sans-serif" font-size="13" font-weight="bold" lengthAdjust="spacing" textLength="7" x="95" y="233.5107">4</text><text fill="#000000" font-family="sans-serif" font-size="13" lengthAdjust="spacing" textLength="214" x="106" y="233.5107">requests data (i.e.: local1 and local2)</text><path d="M10,260.3672 L71,260.3672 L71,268.3672 L61,278.3672 L10,278.3672 L10,260.3672 " fill="#EEEEEE" style="stroke:#000000;stroke-width:1.0;"/><rect fill="none" height="48.7031" style="stroke:#000000;stroke-width:2.0;" width="509" x="10" y="260.3672"/><text fill="#000000" font-family="sans-serif" font-size="13" font-weight="bold" lengthAdjust="spacing" textLength="16" x="25" y="274.8623">alt</text><text fill="#000000" font-family="sans-serif" font-size="11" font-weight="bold" lengthAdjust="spacing" textLength="27" x="86" y="273.7861">[n=4]</text><polygon fill="#A80036" points="89,297.0703,79,301.0703,89,305.0703,85,301.0703" style="stroke:#A80036;stroke-width:1.0;"/><line style="stroke:#A80036;stroke-width:1.0;stroke-dasharray:2.0,2.0;" x1="83" x2="469" y1="301.0703" y2="301.0703"/><text fill="#000000" font-family="sans-serif" font-size="13" font-weight="bold" lengthAdjust="spacing" textLength="7" x="95" y="296.2139">5</text><text fill="#000000" font-family="sans-serif" font-size="13" lengthAdjust="spacing" textLength="252" x="106" y="296.2139">requests data (i.e.: local1,local2 and locais)</text><polygon fill="#A80036" points="458,334.4219,468,338.4219,458,342.4219,462,338.4219" style="stroke:#A80036;stroke-width:1.0;"/><line style="stroke:#A80036;stroke-width:1.0;" x1="78" x2="464" y1="338.4219" y2="338.4219"/><text fill="#000000" font-family="sans-serif" font-size="13" font-weight="bold" lengthAdjust="spacing" textLength="7" x="85" y="333.5654">6</text><text fill="#000000" font-family="sans-serif" font-size="13" lengthAdjust="spacing" textLength="122" x="96" y="333.5654">types requested data</text><polygon fill="#A80036" points="89,364.7734,79,368.7734,89,372.7734,85,368.7734" style="stroke:#A80036;stroke-width:1.0;"/><line style="stroke:#A80036;stroke-width:1.0;stroke-dasharray:2.0,2.0;" x1="83" x2="474" y1="368.7734" y2="368.7734"/><text fill="#000000" font-family="sans-serif" font-size="13" font-weight="bold" lengthAdjust="spacing" textLength="7" x="95" y="363.917">7</text><text fill="#000000" font-family="sans-serif" font-size="13" lengthAdjust="spacing" textLength="357" x="106" y="363.917">shows the data (shortest path) and informs operation success</text><!--MD5=[bf4ab80a57a8914768a565e2454156cf]
@startuml
'https://plantuml.com/sequence-diagram

autonumber

actor "Traffic Manager" as TM
activate TM

TM -> ":System": asks to know the shortest path between two locals
activate ":System"
":System" - -> TM : requests data (i.e.: n)
deactivate ":System"
TM -> ":System": types requested data
activate ":System"

alt n>0 && n<4
":System" - -> TM : requests data (i.e.: local1 and local2)
end

alt n=4
":System" - -> TM : requests data (i.e.: local1,local2 and locais)
end
deactivate ":System"
TM -> ":System": types requested data
activate ":System"

":System" - -> TM : shows the data (shortest path) and informs operation success
deactivate ":System"
@enduml

@startuml

autonumber

actor "Traffic Manager" as TM
activate TM

TM -> ":System": asks to know the shortest path between two locals
activate ":System"
":System" - -> TM : requests data (i.e.: n)
deactivate ":System"
TM -> ":System": types requested data
activate ":System"

alt n>0 && n<4
":System" - -> TM : requests data (i.e.: local1 and local2)
end

alt n=4
":System" - -> TM : requests data (i.e.: local1,local2 and locais)
end
deactivate ":System"
TM -> ":System": types requested data
activate ":System"

":System" - -> TM : shows the data (shortest path) and informs operation success
deactivate ":System"
@enduml

PlantUML version 1.2021.2(Sun Mar 07 11:10:27 GMT 2021)
(GPL source distribution)
Java Runtime: OpenJDK Runtime Environment
JVM: OpenJDK 64-Bit Server VM
Default Encoding: Cp1252
Language: pt
Country: PT
--></g></svg>