<?xml version="1.0" encoding="UTF-8" standalone="no"?><svg xmlns="http://www.w3.org/2000/svg" xmlns:xlink="http://www.w3.org/1999/xlink" contentScriptType="application/ecmascript" contentStyleType="text/css" height="316px" preserveAspectRatio="none" style="width:696px;height:316px;" version="1.1" viewBox="0 0 696 316" width="696px" zoomAndPan="magnify"><defs><filter height="300%" id="fvog74avymo40" width="300%" x="-1" y="-1"><feGaussianBlur result="blurOut" stdDeviation="2.0"/><feColorMatrix in="blurOut" result="blurOut2" type="matrix" values="0 0 0 0 0 0 0 0 0 0 0 0 0 0 0 0 0 0 .4 0"/><feOffset dx="4.0" dy="4.0" in="blurOut2" result="blurOut3"/><feBlend in="SourceGraphic" in2="blurOut3" mode="normal"/></filter></defs><g><rect fill="#FFFFFF" filter="url(#fvog74avymo40)" height="113.4063" style="stroke:#A80036;stroke-width:1.0;" width="10" x="53" y="99.6094"/><rect fill="#FFFFFF" filter="url(#fvog74avymo40)" height="30.3516" style="stroke:#A80036;stroke-width:1.0;" width="10" x="647" y="121.9609"/><rect fill="#FFFFFF" filter="url(#fvog74avymo40)" height="30.3516" style="stroke:#A80036;stroke-width:1.0;" width="10" x="647" y="182.6641"/><line style="stroke:#A80036;stroke-width:1.0;stroke-dasharray:5.0,5.0;" x1="58" x2="58" y1="89.6094" y2="231.0156"/><line style="stroke:#A80036;stroke-width:1.0;stroke-dasharray:5.0,5.0;" x1="652" x2="652" y1="89.6094" y2="231.0156"/><text fill="#000000" font-family="sans-serif" font-size="14" lengthAdjust="spacing" textLength="100" x="5" y="86.5332">Traffic Manager</text><ellipse cx="58" cy="15" fill="#FEFECE" filter="url(#fvog74avymo40)" rx="8" ry="8" style="stroke:#A80036;stroke-width:2.0;"/><path d="M58,23 L58,50 M45,31 L71,31 M58,50 L45,65 M58,50 L71,65 " fill="none" filter="url(#fvog74avymo40)" style="stroke:#A80036;stroke-width:2.0;"/><text fill="#000000" font-family="sans-serif" font-size="14" lengthAdjust="spacing" textLength="100" x="5" y="244.5488">Traffic Manager</text><ellipse cx="58" cy="257.625" fill="#FEFECE" filter="url(#fvog74avymo40)" rx="8" ry="8" style="stroke:#A80036;stroke-width:2.0;"/><path d="M58,265.625 L58,292.625 M45,273.625 L71,273.625 M58,292.625 L45,307.625 M58,292.625 L71,307.625 " fill="none" filter="url(#fvog74avymo40)" style="stroke:#A80036;stroke-width:2.0;"/><rect fill="#FEFECE" filter="url(#fvog74avymo40)" height="31.6094" style="stroke:#A80036;stroke-width:1.5;" width="64" x="618" y="53"/><text fill="#000000" font-family="sans-serif" font-size="14" lengthAdjust="spacing" textLength="50" x="625" y="74.5332">:System</text><rect fill="#FEFECE" filter="url(#fvog74avymo40)" height="31.6094" style="stroke:#A80036;stroke-width:1.5;" width="64" x="618" y="230.0156"/><text fill="#000000" font-family="sans-serif" font-size="14" lengthAdjust="spacing" textLength="50" x="625" y="251.5488">:System</text><rect fill="#FFFFFF" filter="url(#fvog74avymo40)" height="113.4063" style="stroke:#A80036;stroke-width:1.0;" width="10" x="53" y="99.6094"/><rect fill="#FFFFFF" filter="url(#fvog74avymo40)" height="30.3516" style="stroke:#A80036;stroke-width:1.0;" width="10" x="647" y="121.9609"/><rect fill="#FFFFFF" filter="url(#fvog74avymo40)" height="30.3516" style="stroke:#A80036;stroke-width:1.0;" width="10" x="647" y="182.6641"/><polygon fill="#A80036" points="635,117.9609,645,121.9609,635,125.9609,639,121.9609" style="stroke:#A80036;stroke-width:1.0;"/><line style="stroke:#A80036;stroke-width:1.0;" x1="63" x2="641" y1="121.9609" y2="121.9609"/><text fill="#000000" font-family="sans-serif" font-size="13" font-weight="bold" lengthAdjust="spacing" textLength="7" x="70" y="117.1045">1</text><text fill="#000000" font-family="sans-serif" font-size="13" lengthAdjust="spacing" textLength="554" x="81" y="117.1045">ask list for all ships the MMSI, total number of movements, travelled distance and delta distance</text><polygon fill="#A80036" points="74,148.3125,64,152.3125,74,156.3125,70,152.3125" style="stroke:#A80036;stroke-width:1.0;"/><line style="stroke:#A80036;stroke-width:1.0;stroke-dasharray:2.0,2.0;" x1="68" x2="651" y1="152.3125" y2="152.3125"/><text fill="#000000" font-family="sans-serif" font-size="13" font-weight="bold" lengthAdjust="spacing" textLength="7" x="80" y="147.4561">2</text><text fill="#000000" font-family="sans-serif" font-size="13" lengthAdjust="spacing" textLength="113" x="91" y="147.4561">request confimation</text><polygon fill="#A80036" points="635,178.6641,645,182.6641,635,186.6641,639,182.6641" style="stroke:#A80036;stroke-width:1.0;"/><line style="stroke:#A80036;stroke-width:1.0;" x1="63" x2="641" y1="182.6641" y2="182.6641"/><text fill="#000000" font-family="sans-serif" font-size="13" font-weight="bold" lengthAdjust="spacing" textLength="7" x="70" y="177.8076">3</text><text fill="#000000" font-family="sans-serif" font-size="13" lengthAdjust="spacing" textLength="49" x="81" y="177.8076">confirms</text><polygon fill="#A80036" points="69,209.0156,59,213.0156,69,217.0156,65,213.0156" style="stroke:#A80036;stroke-width:1.0;"/><line style="stroke:#A80036;stroke-width:1.0;" x1="63" x2="651" y1="213.0156" y2="213.0156"/><text fill="#000000" font-family="sans-serif" font-size="13" font-weight="bold" lengthAdjust="spacing" textLength="7" x="75" y="208.1592">4</text><text fill="#000000" font-family="sans-serif" font-size="13" lengthAdjust="spacing" textLength="165" x="86" y="208.1592">shows requested information</text><!--MD5=[4ac0dd05b2bfb1bb8643539ae5f619b2]
@startuml
actor "Traffic Manager" as TF
participant ":System" as System

autonumber
activate TF
TF -> System: ask list for all ships the MMSI, total number of movements, travelled distance and delta distance
activate System
System - -> TF: request confimation
deactivate System
TF -> System: confirms
activate System
System -> TF: shows requested information
deactivate System
deactivate TF
@enduml

PlantUML version 1.2021.00(Sun Jan 10 10:25:05 GMT 2021)
(GPL source distribution)
Java Runtime: OpenJDK Runtime Environment
JVM: OpenJDK 64-Bit Server VM
Default Encoding: Cp1252
Language: pt
Country: PT
--></g></svg>