<?xml version="1.0" encoding="UTF-8" standalone="no"?><svg xmlns="http://www.w3.org/2000/svg" xmlns:xlink="http://www.w3.org/1999/xlink" contentScriptType="application/ecmascript" contentStyleType="text/css" height="1039px" preserveAspectRatio="none" style="width:1297px;height:1039px;" version="1.1" viewBox="0 0 1297 1039" width="1297px" zoomAndPan="magnify"><defs><filter height="300%" id="fn1ls6a4wd56i" width="300%" x="-1" y="-1"><feGaussianBlur result="blurOut" stdDeviation="2.0"/><feColorMatrix in="blurOut" result="blurOut2" type="matrix" values="0 0 0 0 0 0 0 0 0 0 0 0 0 0 0 0 0 0 .4 0"/><feOffset dx="4.0" dy="4.0" in="blurOut2" result="blurOut3"/><feBlend in="SourceGraphic" in2="blurOut3" mode="normal"/></filter></defs><g><!--MD5=[02e4b9b7573f1156f41e60aa5b4e25a4]
class Company--><rect codeLine="6" fill="#FEFECE" filter="url(#fn1ls6a4wd56i)" height="40" id="Company" style="stroke:#A80036;stroke-width:1.5;" width="85" x="318.5" y="697.4"/><ellipse cx="333.5" cy="713.4" fill="#ADD1B2" rx="11" ry="11" style="stroke:#A80036;stroke-width:1.0;"/><path d="M335.5,709.9 Q335.7031,709.4 335.9375,709.15 Q336.1719,708.9 336.4375,708.9 Q336.9063,708.9 337.2031,709.1813 Q337.5,709.4625 337.5,710.1188 L337.5,711.6813 Q337.5,712.3375 337.2188,712.6188 Q336.9375,712.9 336.5,712.9 Q336.1094,712.9 335.8594,712.7281 Q335.6094,712.5563 335.5,712.1031 Q335.4531,711.7906 335.2813,711.6188 Q334.9688,711.2906 334.4063,711.1031 Q333.8438,710.9 333.2813,710.9 Q332.5781,710.9 331.9844,711.1813 Q331.4063,711.4625 330.9531,712.0875 Q330.5,712.7125 330.5,713.5719 L330.5,714.4938 Q330.5,715.525 331.3438,716.2125 Q332.1875,716.9 333.6875,716.9 Q334.5781,716.9 335.2031,716.6969 Q335.5625,716.5875 335.9688,716.2281 Q336.2344,716.025 336.375,715.9625 Q336.5156,715.9 336.6875,715.9 Q337.0156,715.9 337.25,716.1656 Q337.5,716.4156 337.5,716.775 Q337.5,717.1188 337.1563,717.525 Q336.6563,718.1188 335.8594,718.4469 Q334.8125,718.9 333.5313,718.9 Q332.0313,718.9 330.8281,718.3063 Q329.8594,717.8375 329.1719,716.8219 Q328.5,715.8063 328.5,714.6031 L328.5,713.5094 Q328.5,712.2594 329.0938,711.1656 Q329.7031,710.0719 330.75,709.4938 Q331.8125,708.9 333,708.9 Q333.7188,708.9 334.3438,709.15 Q334.9688,709.4 335.5,709.9 Z " fill="#000000"/><text fill="#000000" font-family="sans-serif" font-size="12" lengthAdjust="spacing" textLength="53" x="347.5" y="718.3102">Company</text><line style="stroke:#A80036;stroke-width:1.5;" x1="319.5" x2="402.5" y1="729.4" y2="729.4"/><!--MD5=[0dc7f2ddb409b58bcf52b12238c25399]
class Ship--><rect codeLine="10" fill="#FEFECE" filter="url(#fn1ls6a4wd56i)" height="150.6875" id="Ship" style="stroke:#A80036;stroke-width:1.5;" width="57" x="935.5" y="712.9"/><ellipse cx="950.5" cy="728.9" fill="#ADD1B2" rx="11" ry="11" style="stroke:#A80036;stroke-width:1.0;"/><path d="M952.5,725.4 Q952.7031,724.9 952.9375,724.65 Q953.1719,724.4 953.4375,724.4 Q953.9063,724.4 954.2031,724.6813 Q954.5,724.9625 954.5,725.6188 L954.5,727.1813 Q954.5,727.8375 954.2188,728.1188 Q953.9375,728.4 953.5,728.4 Q953.1094,728.4 952.8594,728.2281 Q952.6094,728.0563 952.5,727.6031 Q952.4531,727.2906 952.2813,727.1188 Q951.9688,726.7906 951.4063,726.6031 Q950.8438,726.4 950.2813,726.4 Q949.5781,726.4 948.9844,726.6813 Q948.4063,726.9625 947.9531,727.5875 Q947.5,728.2125 947.5,729.0719 L947.5,729.9938 Q947.5,731.025 948.3438,731.7125 Q949.1875,732.4 950.6875,732.4 Q951.5781,732.4 952.2031,732.1969 Q952.5625,732.0875 952.9688,731.7281 Q953.2344,731.525 953.375,731.4625 Q953.5156,731.4 953.6875,731.4 Q954.0156,731.4 954.25,731.6656 Q954.5,731.9156 954.5,732.275 Q954.5,732.6188 954.1563,733.025 Q953.6563,733.6188 952.8594,733.9469 Q951.8125,734.4 950.5313,734.4 Q949.0313,734.4 947.8281,733.8063 Q946.8594,733.3375 946.1719,732.3219 Q945.5,731.3063 945.5,730.1031 L945.5,729.0094 Q945.5,727.7594 946.0938,726.6656 Q946.7031,725.5719 947.75,724.9938 Q948.8125,724.4 950,724.4 Q950.7188,724.4 951.3438,724.65 Q951.9688,724.9 952.5,725.4 Z " fill="#000000"/><text fill="#000000" font-family="sans-serif" font-size="12" lengthAdjust="spacing" textLength="25" x="964.5" y="733.8102">Ship</text><line style="stroke:#A80036;stroke-width:1.5;" x1="936.5" x2="991.5" y1="744.9" y2="744.9"/><text fill="#000000" font-family="sans-serif" font-size="11" lengthAdjust="spacing" textLength="29" x="941.5" y="760.3189">-MMSI</text><text fill="#000000" font-family="sans-serif" font-size="11" lengthAdjust="spacing" textLength="30" x="941.5" y="774.1549">-name</text><text fill="#000000" font-family="sans-serif" font-size="11" lengthAdjust="spacing" textLength="22" x="941.5" y="787.9908">-IMO</text><text fill="#000000" font-family="sans-serif" font-size="11" lengthAdjust="spacing" textLength="40" x="941.5" y="801.8268">-callsign</text><text fill="#000000" font-family="sans-serif" font-size="11" lengthAdjust="spacing" textLength="25" x="941.5" y="815.6627">-type</text><text fill="#000000" font-family="sans-serif" font-size="11" lengthAdjust="spacing" textLength="33" x="941.5" y="829.4986">-length</text><text fill="#000000" font-family="sans-serif" font-size="11" lengthAdjust="spacing" textLength="31" x="941.5" y="843.3346">-width</text><text fill="#000000" font-family="sans-serif" font-size="11" lengthAdjust="spacing" textLength="27" x="941.5" y="857.1705">-draft</text><!--MD5=[a3093aa9f96b7df9aab31d8715601ff6]
class Containers--><rect codeLine="21" fill="#FEFECE" filter="url(#fn1ls6a4wd56i)" height="164.5234" id="Containers" style="stroke:#A80036;stroke-width:1.5;" width="121" x="1162" y="279.9"/><ellipse cx="1189.6" cy="295.9" fill="#ADD1B2" rx="11" ry="11" style="stroke:#A80036;stroke-width:1.0;"/><path d="M1191.6,292.4 Q1191.8031,291.9 1192.0375,291.65 Q1192.2719,291.4 1192.5375,291.4 Q1193.0063,291.4 1193.3031,291.6813 Q1193.6,291.9625 1193.6,292.6188 L1193.6,294.1813 Q1193.6,294.8375 1193.3188,295.1188 Q1193.0375,295.4 1192.6,295.4 Q1192.2094,295.4 1191.9594,295.2281 Q1191.7094,295.0563 1191.6,294.6031 Q1191.5531,294.2906 1191.3813,294.1188 Q1191.0688,293.7906 1190.5063,293.6031 Q1189.9438,293.4 1189.3813,293.4 Q1188.6781,293.4 1188.0844,293.6813 Q1187.5063,293.9625 1187.0531,294.5875 Q1186.6,295.2125 1186.6,296.0719 L1186.6,296.9938 Q1186.6,298.025 1187.4438,298.7125 Q1188.2875,299.4 1189.7875,299.4 Q1190.6781,299.4 1191.3031,299.1969 Q1191.6625,299.0875 1192.0688,298.7281 Q1192.3344,298.525 1192.475,298.4625 Q1192.6156,298.4 1192.7875,298.4 Q1193.1156,298.4 1193.35,298.6656 Q1193.6,298.9156 1193.6,299.275 Q1193.6,299.6188 1193.2563,300.025 Q1192.7563,300.6188 1191.9594,300.9469 Q1190.9125,301.4 1189.6313,301.4 Q1188.1313,301.4 1186.9281,300.8063 Q1185.9594,300.3375 1185.2719,299.3219 Q1184.6,298.3063 1184.6,297.1031 L1184.6,296.0094 Q1184.6,294.7594 1185.1938,293.6656 Q1185.8031,292.5719 1186.85,291.9938 Q1187.9125,291.4 1189.1,291.4 Q1189.8188,291.4 1190.4438,291.65 Q1191.0688,291.9 1191.6,292.4 Z " fill="#000000"/><text fill="#000000" font-family="sans-serif" font-size="12" lengthAdjust="spacing" textLength="61" x="1206.4" y="300.8102">Containers</text><line style="stroke:#A80036;stroke-width:1.5;" x1="1163" x2="1282" y1="311.9" y2="311.9"/><text fill="#000000" font-family="sans-serif" font-size="11" lengthAdjust="spacing" textLength="87" x="1168" y="327.3189">-ContainerNumber</text><text fill="#000000" font-family="sans-serif" font-size="11" lengthAdjust="spacing" textLength="46" x="1168" y="341.1549">-ISOCode</text><text fill="#000000" font-family="sans-serif" font-size="11" lengthAdjust="spacing" textLength="57" x="1168" y="354.9908">-MaxWeight</text><text fill="#000000" font-family="sans-serif" font-size="11" lengthAdjust="spacing" textLength="83" x="1168" y="368.8268">-ContainerWeight</text><text fill="#000000" font-family="sans-serif" font-size="11" lengthAdjust="spacing" textLength="92" x="1168" y="382.6627">-MaxWeightPacked</text><text fill="#000000" font-family="sans-serif" font-size="11" lengthAdjust="spacing" textLength="95" x="1168" y="396.4986">-MaxVolumePacked</text><text fill="#000000" font-family="sans-serif" font-size="11" lengthAdjust="spacing" textLength="59" x="1168" y="410.3346">-Certificates</text><text fill="#000000" font-family="sans-serif" font-size="11" lengthAdjust="spacing" textLength="109" x="1168" y="424.1705">-RepairRecomendation</text><text fill="#000000" font-family="sans-serif" font-size="11" lengthAdjust="spacing" textLength="65" x="1168" y="438.0064">-Temperature</text><!--MD5=[1c0c3765e68dc4575d559b566278b914]
class ShipPosition--><rect codeLine="33" fill="#FEFECE" filter="url(#fn1ls6a4wd56i)" height="164.5234" id="ShipPosition" style="stroke:#A80036;stroke-width:1.5;" width="102" x="1171.5" y="705.9"/><ellipse cx="1186.5" cy="721.9" fill="#ADD1B2" rx="11" ry="11" style="stroke:#A80036;stroke-width:1.0;"/><path d="M1188.5,718.4 Q1188.7031,717.9 1188.9375,717.65 Q1189.1719,717.4 1189.4375,717.4 Q1189.9063,717.4 1190.2031,717.6813 Q1190.5,717.9625 1190.5,718.6188 L1190.5,720.1813 Q1190.5,720.8375 1190.2188,721.1188 Q1189.9375,721.4 1189.5,721.4 Q1189.1094,721.4 1188.8594,721.2281 Q1188.6094,721.0563 1188.5,720.6031 Q1188.4531,720.2906 1188.2813,720.1188 Q1187.9688,719.7906 1187.4063,719.6031 Q1186.8438,719.4 1186.2813,719.4 Q1185.5781,719.4 1184.9844,719.6813 Q1184.4063,719.9625 1183.9531,720.5875 Q1183.5,721.2125 1183.5,722.0719 L1183.5,722.9938 Q1183.5,724.025 1184.3438,724.7125 Q1185.1875,725.4 1186.6875,725.4 Q1187.5781,725.4 1188.2031,725.1969 Q1188.5625,725.0875 1188.9688,724.7281 Q1189.2344,724.525 1189.375,724.4625 Q1189.5156,724.4 1189.6875,724.4 Q1190.0156,724.4 1190.25,724.6656 Q1190.5,724.9156 1190.5,725.275 Q1190.5,725.6188 1190.1563,726.025 Q1189.6563,726.6188 1188.8594,726.9469 Q1187.8125,727.4 1186.5313,727.4 Q1185.0313,727.4 1183.8281,726.8063 Q1182.8594,726.3375 1182.1719,725.3219 Q1181.5,724.3063 1181.5,723.1031 L1181.5,722.0094 Q1181.5,720.7594 1182.0938,719.6656 Q1182.7031,718.5719 1183.75,717.9938 Q1184.8125,717.4 1186,717.4 Q1186.7188,717.4 1187.3438,717.65 Q1187.9688,717.9 1188.5,718.4 Z " fill="#000000"/><text fill="#000000" font-family="sans-serif" font-size="12" lengthAdjust="spacing" textLength="70" x="1200.5" y="726.8102">ShipPosition</text><line style="stroke:#A80036;stroke-width:1.5;" x1="1172.5" x2="1272.5" y1="737.9" y2="737.9"/><text fill="#000000" font-family="sans-serif" font-size="11" lengthAdjust="spacing" textLength="49" x="1177.5" y="753.3189">-shipMMSI</text><text fill="#000000" font-family="sans-serif" font-size="11" lengthAdjust="spacing" textLength="25" x="1177.5" y="767.1549">-date</text><text fill="#000000" font-family="sans-serif" font-size="11" lengthAdjust="spacing" textLength="38" x="1177.5" y="780.9908">-latitude</text><text fill="#000000" font-family="sans-serif" font-size="11" lengthAdjust="spacing" textLength="47" x="1177.5" y="794.8268">-longitude</text><text fill="#000000" font-family="sans-serif" font-size="11" lengthAdjust="spacing" textLength="22" x="1177.5" y="808.6627">-sog</text><text fill="#000000" font-family="sans-serif" font-size="11" lengthAdjust="spacing" textLength="22" x="1177.5" y="822.4986">-cog</text><text fill="#000000" font-family="sans-serif" font-size="11" lengthAdjust="spacing" textLength="42" x="1177.5" y="836.3346">-heading</text><text fill="#000000" font-family="sans-serif" font-size="11" lengthAdjust="spacing" textLength="32" x="1177.5" y="850.1705">-cargo</text><text fill="#000000" font-family="sans-serif" font-size="11" lengthAdjust="spacing" textLength="59" x="1177.5" y="864.0064">-transciever</text><!--MD5=[a0bfe97ac0a38e6e74cc1c7c7b744b71]
class Port--><rect codeLine="45" fill="#FEFECE" filter="url(#fn1ls6a4wd56i)" height="123.0156" id="Port" style="stroke:#A80036;stroke-width:1.5;" width="60" x="590.5" y="484.9"/><ellipse cx="608.2" cy="500.9" fill="#ADD1B2" rx="11" ry="11" style="stroke:#A80036;stroke-width:1.0;"/><path d="M610.2,497.4 Q610.4031,496.9 610.6375,496.65 Q610.8719,496.4 611.1375,496.4 Q611.6063,496.4 611.9031,496.6813 Q612.2,496.9625 612.2,497.6188 L612.2,499.1813 Q612.2,499.8375 611.9188,500.1188 Q611.6375,500.4 611.2,500.4 Q610.8094,500.4 610.5594,500.2281 Q610.3094,500.0563 610.2,499.6031 Q610.1531,499.2906 609.9813,499.1188 Q609.6688,498.7906 609.1063,498.6031 Q608.5438,498.4 607.9813,498.4 Q607.2781,498.4 606.6844,498.6813 Q606.1063,498.9625 605.6531,499.5875 Q605.2,500.2125 605.2,501.0719 L605.2,501.9938 Q605.2,503.025 606.0438,503.7125 Q606.8875,504.4 608.3875,504.4 Q609.2781,504.4 609.9031,504.1969 Q610.2625,504.0875 610.6688,503.7281 Q610.9344,503.525 611.075,503.4625 Q611.2156,503.4 611.3875,503.4 Q611.7156,503.4 611.95,503.6656 Q612.2,503.9156 612.2,504.275 Q612.2,504.6188 611.8563,505.025 Q611.3563,505.6188 610.5594,505.9469 Q609.5125,506.4 608.2313,506.4 Q606.7313,506.4 605.5281,505.8063 Q604.5594,505.3375 603.8719,504.3219 Q603.2,503.3063 603.2,502.1031 L603.2,501.0094 Q603.2,499.7594 603.7938,498.6656 Q604.4031,497.5719 605.45,496.9938 Q606.5125,496.4 607.7,496.4 Q608.4188,496.4 609.0438,496.65 Q609.6688,496.9 610.2,497.4 Z " fill="#000000"/><text fill="#000000" font-family="sans-serif" font-size="12" lengthAdjust="spacing" textLength="22" x="622.8" y="505.8102">Port</text><line style="stroke:#A80036;stroke-width:1.5;" x1="591.5" x2="649.5" y1="516.9" y2="516.9"/><text fill="#000000" font-family="sans-serif" font-size="11" lengthAdjust="spacing" textLength="12" x="596.5" y="532.3189">-id</text><text fill="#000000" font-family="sans-serif" font-size="11" lengthAdjust="spacing" textLength="30" x="596.5" y="546.1549">-name</text><text fill="#000000" font-family="sans-serif" font-size="11" lengthAdjust="spacing" textLength="48" x="596.5" y="559.9908">-continent</text><text fill="#000000" font-family="sans-serif" font-size="11" lengthAdjust="spacing" textLength="41" x="596.5" y="573.8268">-country</text><text fill="#000000" font-family="sans-serif" font-size="11" lengthAdjust="spacing" textLength="38" x="596.5" y="587.6627">-latitude</text><text fill="#000000" font-family="sans-serif" font-size="11" lengthAdjust="spacing" textLength="47" x="596.5" y="601.4986">-longitude</text><!--MD5=[ddaf6f62b0bc30921877ec9fb9463c9f]
class TrafficManager--><rect codeLine="54" fill="#FEFECE" filter="url(#fn1ls6a4wd56i)" height="40" id="TrafficManager" style="stroke:#A80036;stroke-width:1.5;" width="113" x="43.5" y="880.4"/><ellipse cx="58.5" cy="896.4" fill="#ADD1B2" rx="11" ry="11" style="stroke:#A80036;stroke-width:1.0;"/><path d="M60.5,892.9 Q60.7031,892.4 60.9375,892.15 Q61.1719,891.9 61.4375,891.9 Q61.9063,891.9 62.2031,892.1813 Q62.5,892.4625 62.5,893.1188 L62.5,894.6813 Q62.5,895.3375 62.2188,895.6188 Q61.9375,895.9 61.5,895.9 Q61.1094,895.9 60.8594,895.7281 Q60.6094,895.5563 60.5,895.1031 Q60.4531,894.7906 60.2813,894.6188 Q59.9688,894.2906 59.4063,894.1031 Q58.8438,893.9 58.2813,893.9 Q57.5781,893.9 56.9844,894.1813 Q56.4063,894.4625 55.9531,895.0875 Q55.5,895.7125 55.5,896.5719 L55.5,897.4938 Q55.5,898.525 56.3438,899.2125 Q57.1875,899.9 58.6875,899.9 Q59.5781,899.9 60.2031,899.6969 Q60.5625,899.5875 60.9688,899.2281 Q61.2344,899.025 61.375,898.9625 Q61.5156,898.9 61.6875,898.9 Q62.0156,898.9 62.25,899.1656 Q62.5,899.4156 62.5,899.775 Q62.5,900.1188 62.1563,900.525 Q61.6563,901.1188 60.8594,901.4469 Q59.8125,901.9 58.5313,901.9 Q57.0313,901.9 55.8281,901.3063 Q54.8594,900.8375 54.1719,899.8219 Q53.5,898.8063 53.5,897.6031 L53.5,896.5094 Q53.5,895.2594 54.0938,894.1656 Q54.7031,893.0719 55.75,892.4938 Q56.8125,891.9 58,891.9 Q58.7188,891.9 59.3438,892.15 Q59.9688,892.4 60.5,892.9 Z " fill="#000000"/><text fill="#000000" font-family="sans-serif" font-size="12" lengthAdjust="spacing" textLength="81" x="72.5" y="901.3102">TrafficManager</text><line style="stroke:#A80036;stroke-width:1.5;" x1="44.5" x2="155.5" y1="912.4" y2="912.4"/><!--MD5=[99d8f1361a72f685c413d1fd21efef1c]
class PortManager--><rect codeLine="57" fill="#FEFECE" filter="url(#fn1ls6a4wd56i)" height="40" id="PortManager" style="stroke:#A80036;stroke-width:1.5;" width="102" x="49" y="460.4"/><ellipse cx="64" cy="476.4" fill="#ADD1B2" rx="11" ry="11" style="stroke:#A80036;stroke-width:1.0;"/><path d="M66,472.9 Q66.2031,472.4 66.4375,472.15 Q66.6719,471.9 66.9375,471.9 Q67.4063,471.9 67.7031,472.1813 Q68,472.4625 68,473.1188 L68,474.6813 Q68,475.3375 67.7188,475.6188 Q67.4375,475.9 67,475.9 Q66.6094,475.9 66.3594,475.7281 Q66.1094,475.5563 66,475.1031 Q65.9531,474.7906 65.7813,474.6188 Q65.4688,474.2906 64.9063,474.1031 Q64.3438,473.9 63.7813,473.9 Q63.0781,473.9 62.4844,474.1813 Q61.9063,474.4625 61.4531,475.0875 Q61,475.7125 61,476.5719 L61,477.4938 Q61,478.525 61.8438,479.2125 Q62.6875,479.9 64.1875,479.9 Q65.0781,479.9 65.7031,479.6969 Q66.0625,479.5875 66.4688,479.2281 Q66.7344,479.025 66.875,478.9625 Q67.0156,478.9 67.1875,478.9 Q67.5156,478.9 67.75,479.1656 Q68,479.4156 68,479.775 Q68,480.1188 67.6563,480.525 Q67.1563,481.1188 66.3594,481.4469 Q65.3125,481.9 64.0313,481.9 Q62.5313,481.9 61.3281,481.3063 Q60.3594,480.8375 59.6719,479.8219 Q59,478.8063 59,477.6031 L59,476.5094 Q59,475.2594 59.5938,474.1656 Q60.2031,473.0719 61.25,472.4938 Q62.3125,471.9 63.5,471.9 Q64.2188,471.9 64.8438,472.15 Q65.4688,472.4 66,472.9 Z " fill="#000000"/><text fill="#000000" font-family="sans-serif" font-size="12" lengthAdjust="spacing" textLength="70" x="78" y="481.3102">PortManager</text><line style="stroke:#A80036;stroke-width:1.5;" x1="50" x2="150" y1="492.4" y2="492.4"/><!--MD5=[d14076b1fa5ff6fc34e7abc31c5e1daa]
class ShipChiefElectricalEngineer--><rect codeLine="60" fill="#FEFECE" filter="url(#fn1ls6a4wd56i)" height="40" id="ShipChiefElectricalEngineer" style="stroke:#A80036;stroke-width:1.5;" width="186" x="7" y="370.4"/><ellipse cx="22" cy="386.4" fill="#ADD1B2" rx="11" ry="11" style="stroke:#A80036;stroke-width:1.0;"/><path d="M24,382.9 Q24.2031,382.4 24.4375,382.15 Q24.6719,381.9 24.9375,381.9 Q25.4063,381.9 25.7031,382.1813 Q26,382.4625 26,383.1188 L26,384.6813 Q26,385.3375 25.7188,385.6188 Q25.4375,385.9 25,385.9 Q24.6094,385.9 24.3594,385.7281 Q24.1094,385.5563 24,385.1031 Q23.9531,384.7906 23.7813,384.6188 Q23.4688,384.2906 22.9063,384.1031 Q22.3438,383.9 21.7813,383.9 Q21.0781,383.9 20.4844,384.1813 Q19.9063,384.4625 19.4531,385.0875 Q19,385.7125 19,386.5719 L19,387.4938 Q19,388.525 19.8438,389.2125 Q20.6875,389.9 22.1875,389.9 Q23.0781,389.9 23.7031,389.6969 Q24.0625,389.5875 24.4688,389.2281 Q24.7344,389.025 24.875,388.9625 Q25.0156,388.9 25.1875,388.9 Q25.5156,388.9 25.75,389.1656 Q26,389.4156 26,389.775 Q26,390.1188 25.6563,390.525 Q25.1563,391.1188 24.3594,391.4469 Q23.3125,391.9 22.0313,391.9 Q20.5313,391.9 19.3281,391.3063 Q18.3594,390.8375 17.6719,389.8219 Q17,388.8063 17,387.6031 L17,386.5094 Q17,385.2594 17.5938,384.1656 Q18.2031,383.0719 19.25,382.4938 Q20.3125,381.9 21.5,381.9 Q22.2188,381.9 22.8438,382.15 Q23.4688,382.4 24,382.9 Z " fill="#000000"/><text fill="#000000" font-family="sans-serif" font-size="12" lengthAdjust="spacing" textLength="154" x="36" y="391.3102">ShipChiefElectricalEngineer</text><line style="stroke:#A80036;stroke-width:1.5;" x1="8" x2="192" y1="402.4" y2="402.4"/><!--MD5=[76562047389981627aea27c31a97aff5]
class CargoManifest--><rect codeLine="63" fill="#FEFECE" filter="url(#fn1ls6a4wd56i)" height="81.5078" id="CargoManifest" style="stroke:#A80036;stroke-width:1.5;" width="112" x="305" y="184.4"/><ellipse cx="320" cy="200.4" fill="#ADD1B2" rx="11" ry="11" style="stroke:#A80036;stroke-width:1.0;"/><path d="M322,196.9 Q322.2031,196.4 322.4375,196.15 Q322.6719,195.9 322.9375,195.9 Q323.4063,195.9 323.7031,196.1812 Q324,196.4625 324,197.1187 L324,198.6812 Q324,199.3375 323.7188,199.6187 Q323.4375,199.9 323,199.9 Q322.6094,199.9 322.3594,199.7281 Q322.1094,199.5562 322,199.1031 Q321.9531,198.7906 321.7813,198.6187 Q321.4688,198.2906 320.9063,198.1031 Q320.3438,197.9 319.7813,197.9 Q319.0781,197.9 318.4844,198.1812 Q317.9063,198.4625 317.4531,199.0875 Q317,199.7125 317,200.5719 L317,201.4937 Q317,202.525 317.8438,203.2125 Q318.6875,203.9 320.1875,203.9 Q321.0781,203.9 321.7031,203.6969 Q322.0625,203.5875 322.4688,203.2281 Q322.7344,203.025 322.875,202.9625 Q323.0156,202.9 323.1875,202.9 Q323.5156,202.9 323.75,203.1656 Q324,203.4156 324,203.775 Q324,204.1187 323.6563,204.525 Q323.1563,205.1187 322.3594,205.4469 Q321.3125,205.9 320.0313,205.9 Q318.5313,205.9 317.3281,205.3062 Q316.3594,204.8375 315.6719,203.8219 Q315,202.8062 315,201.6031 L315,200.5094 Q315,199.2594 315.5938,198.1656 Q316.2031,197.0719 317.25,196.4937 Q318.3125,195.9 319.5,195.9 Q320.2188,195.9 320.8438,196.15 Q321.4688,196.4 322,196.9 Z " fill="#000000"/><text fill="#000000" font-family="sans-serif" font-size="12" lengthAdjust="spacing" textLength="80" x="334" y="205.3102">CargoManifest</text><line style="stroke:#A80036;stroke-width:1.5;" x1="306" x2="416" y1="216.4" y2="216.4"/><text fill="#000000" font-family="sans-serif" font-size="11" lengthAdjust="spacing" textLength="12" x="311" y="231.8189">-id</text><text fill="#000000" font-family="sans-serif" font-size="11" lengthAdjust="spacing" textLength="49" x="311" y="245.6549">-shipMMSI</text><text fill="#000000" font-family="sans-serif" font-size="11" lengthAdjust="spacing" textLength="32" x="311" y="259.4908">-portID</text><!--MD5=[c5149b4909ffd2688ff51a939867f774]
class Warehouse--><rect codeLine="69" fill="#FEFECE" filter="url(#fn1ls6a4wd56i)" height="109.1797" id="Warehouse" style="stroke:#A80036;stroke-width:1.5;" width="99" x="738.5" y="473.9"/><ellipse cx="754.85" cy="489.9" fill="#ADD1B2" rx="11" ry="11" style="stroke:#A80036;stroke-width:1.0;"/><path d="M756.85,486.4 Q757.0531,485.9 757.2875,485.65 Q757.5219,485.4 757.7875,485.4 Q758.2563,485.4 758.5531,485.6813 Q758.85,485.9625 758.85,486.6188 L758.85,488.1813 Q758.85,488.8375 758.5688,489.1188 Q758.2875,489.4 757.85,489.4 Q757.4594,489.4 757.2094,489.2281 Q756.9594,489.0563 756.85,488.6031 Q756.8031,488.2906 756.6313,488.1188 Q756.3188,487.7906 755.7563,487.6031 Q755.1938,487.4 754.6313,487.4 Q753.9281,487.4 753.3344,487.6813 Q752.7563,487.9625 752.3031,488.5875 Q751.85,489.2125 751.85,490.0719 L751.85,490.9938 Q751.85,492.025 752.6938,492.7125 Q753.5375,493.4 755.0375,493.4 Q755.9281,493.4 756.5531,493.1969 Q756.9125,493.0875 757.3188,492.7281 Q757.5844,492.525 757.725,492.4625 Q757.8656,492.4 758.0375,492.4 Q758.3656,492.4 758.6,492.6656 Q758.85,492.9156 758.85,493.275 Q758.85,493.6188 758.5063,494.025 Q758.0063,494.6188 757.2094,494.9469 Q756.1625,495.4 754.8813,495.4 Q753.3813,495.4 752.1781,494.8063 Q751.2094,494.3375 750.5219,493.3219 Q749.85,492.3063 749.85,491.1031 L749.85,490.0094 Q749.85,488.7594 750.4438,487.6656 Q751.0531,486.5719 752.1,485.9938 Q753.1625,485.4 754.35,485.4 Q755.0688,485.4 755.6938,485.65 Q756.3188,485.9 756.85,486.4 Z " fill="#000000"/><text fill="#000000" font-family="sans-serif" font-size="12" lengthAdjust="spacing" textLength="64" x="769.15" y="494.8102">Warehouse</text><line style="stroke:#A80036;stroke-width:1.5;" x1="739.5" x2="836.5" y1="505.9" y2="505.9"/><text fill="#000000" font-family="sans-serif" font-size="11" lengthAdjust="spacing" textLength="69" x="744.5" y="521.3189">-WarehouseID</text><text fill="#000000" font-family="sans-serif" font-size="11" lengthAdjust="spacing" textLength="87" x="744.5" y="535.1549">-WarehouseName</text><text fill="#000000" font-family="sans-serif" font-size="11" lengthAdjust="spacing" textLength="42" x="744.5" y="548.9908">-Latitude</text><text fill="#000000" font-family="sans-serif" font-size="11" lengthAdjust="spacing" textLength="51" x="744.5" y="562.8268">-Longitude</text><text fill="#000000" font-family="sans-serif" font-size="11" lengthAdjust="spacing" textLength="69" x="744.5" y="576.6627">-CountryName</text><!--MD5=[a5aa90fbf2aad1a8ad40c82d82cb77af]
class CargoManifestLoad--><rect codeLine="77" fill="#FEFECE" filter="url(#fn1ls6a4wd56i)" height="95.3438" id="CargoManifestLoad" style="stroke:#A80036;stroke-width:1.5;" width="140" x="894" y="89.9"/><ellipse cx="909" cy="105.9" fill="#ADD1B2" rx="11" ry="11" style="stroke:#A80036;stroke-width:1.0;"/><path d="M911,102.4 Q911.2031,101.9 911.4375,101.65 Q911.6719,101.4 911.9375,101.4 Q912.4063,101.4 912.7031,101.6812 Q913,101.9625 913,102.6187 L913,104.1812 Q913,104.8375 912.7188,105.1187 Q912.4375,105.4 912,105.4 Q911.6094,105.4 911.3594,105.2281 Q911.1094,105.0562 911,104.6031 Q910.9531,104.2906 910.7813,104.1187 Q910.4688,103.7906 909.9063,103.6031 Q909.3438,103.4 908.7813,103.4 Q908.0781,103.4 907.4844,103.6812 Q906.9063,103.9625 906.4531,104.5875 Q906,105.2125 906,106.0719 L906,106.9937 Q906,108.025 906.8438,108.7125 Q907.6875,109.4 909.1875,109.4 Q910.0781,109.4 910.7031,109.1969 Q911.0625,109.0875 911.4688,108.7281 Q911.7344,108.525 911.875,108.4625 Q912.0156,108.4 912.1875,108.4 Q912.5156,108.4 912.75,108.6656 Q913,108.9156 913,109.275 Q913,109.6187 912.6563,110.025 Q912.1563,110.6187 911.3594,110.9469 Q910.3125,111.4 909.0313,111.4 Q907.5313,111.4 906.3281,110.8062 Q905.3594,110.3375 904.6719,109.3219 Q904,108.3062 904,107.1031 L904,106.0094 Q904,104.7594 904.5938,103.6656 Q905.2031,102.5719 906.25,101.9937 Q907.3125,101.4 908.5,101.4 Q909.2188,101.4 909.8438,101.65 Q910.4688,101.9 911,102.4 Z " fill="#000000"/><text fill="#000000" font-family="sans-serif" font-size="12" lengthAdjust="spacing" textLength="108" x="923" y="110.8102">CargoManifestLoad</text><line style="stroke:#A80036;stroke-width:1.5;" x1="895" x2="1033" y1="121.9" y2="121.9"/><text fill="#000000" font-family="sans-serif" font-size="11" lengthAdjust="spacing" textLength="82" x="900" y="137.3189">-cargoManifestID</text><text fill="#000000" font-family="sans-serif" font-size="11" lengthAdjust="spacing" textLength="49" x="900" y="151.1549">-dateLoad</text><text fill="#000000" font-family="sans-serif" font-size="11" lengthAdjust="spacing" textLength="28" x="900" y="164.9908">-done</text><text fill="#000000" font-family="sans-serif" font-size="11" lengthAdjust="spacing" textLength="32" x="900" y="178.8268">-portID</text><!--MD5=[a2f10021af8ab55728ed20bdb3889909]
class CargoManifestUnload--><rect codeLine="84" fill="#FEFECE" filter="url(#fn1ls6a4wd56i)" height="95.3438" id="CargoManifestUnload" style="stroke:#A80036;stroke-width:1.5;" width="152" x="712" y="183.9"/><ellipse cx="727" cy="199.9" fill="#ADD1B2" rx="11" ry="11" style="stroke:#A80036;stroke-width:1.0;"/><path d="M729,196.4 Q729.2031,195.9 729.4375,195.65 Q729.6719,195.4 729.9375,195.4 Q730.4063,195.4 730.7031,195.6812 Q731,195.9625 731,196.6187 L731,198.1812 Q731,198.8375 730.7188,199.1187 Q730.4375,199.4 730,199.4 Q729.6094,199.4 729.3594,199.2281 Q729.1094,199.0562 729,198.6031 Q728.9531,198.2906 728.7813,198.1187 Q728.4688,197.7906 727.9063,197.6031 Q727.3438,197.4 726.7813,197.4 Q726.0781,197.4 725.4844,197.6812 Q724.9063,197.9625 724.4531,198.5875 Q724,199.2125 724,200.0719 L724,200.9937 Q724,202.025 724.8438,202.7125 Q725.6875,203.4 727.1875,203.4 Q728.0781,203.4 728.7031,203.1969 Q729.0625,203.0875 729.4688,202.7281 Q729.7344,202.525 729.875,202.4625 Q730.0156,202.4 730.1875,202.4 Q730.5156,202.4 730.75,202.6656 Q731,202.9156 731,203.275 Q731,203.6187 730.6563,204.025 Q730.1563,204.6187 729.3594,204.9469 Q728.3125,205.4 727.0313,205.4 Q725.5313,205.4 724.3281,204.8062 Q723.3594,204.3375 722.6719,203.3219 Q722,202.3062 722,201.1031 L722,200.0094 Q722,198.7594 722.5938,197.6656 Q723.2031,196.5719 724.25,195.9937 Q725.3125,195.4 726.5,195.4 Q727.2188,195.4 727.8438,195.65 Q728.4688,195.9 729,196.4 Z " fill="#000000"/><text fill="#000000" font-family="sans-serif" font-size="12" lengthAdjust="spacing" textLength="120" x="741" y="204.8102">CargoManifestUnload</text><line style="stroke:#A80036;stroke-width:1.5;" x1="713" x2="863" y1="215.9" y2="215.9"/><text fill="#000000" font-family="sans-serif" font-size="11" lengthAdjust="spacing" textLength="82" x="718" y="231.3189">-cargoManifestID</text><text fill="#000000" font-family="sans-serif" font-size="11" lengthAdjust="spacing" textLength="58" x="718" y="245.1549">-dateUnload</text><text fill="#000000" font-family="sans-serif" font-size="11" lengthAdjust="spacing" textLength="28" x="718" y="258.9908">-done</text><text fill="#000000" font-family="sans-serif" font-size="11" lengthAdjust="spacing" textLength="32" x="718" y="272.8268">-portID</text><!--MD5=[ed6624c6556d5e7b1bd23032162d20b7]
class Client--><rect codeLine="91" fill="#FEFECE" filter="url(#fn1ls6a4wd56i)" height="67.6719" id="Client" style="stroke:#A80036;stroke-width:1.5;" width="123" x="559" y="714.4"/><ellipse cx="600.55" cy="730.4" fill="#ADD1B2" rx="11" ry="11" style="stroke:#A80036;stroke-width:1.0;"/><path d="M602.55,726.9 Q602.7531,726.4 602.9875,726.15 Q603.2219,725.9 603.4875,725.9 Q603.9563,725.9 604.2531,726.1813 Q604.55,726.4625 604.55,727.1188 L604.55,728.6813 Q604.55,729.3375 604.2688,729.6188 Q603.9875,729.9 603.55,729.9 Q603.1594,729.9 602.9094,729.7281 Q602.6594,729.5563 602.55,729.1031 Q602.5031,728.7906 602.3313,728.6188 Q602.0188,728.2906 601.4563,728.1031 Q600.8938,727.9 600.3313,727.9 Q599.6281,727.9 599.0344,728.1813 Q598.4563,728.4625 598.0031,729.0875 Q597.55,729.7125 597.55,730.5719 L597.55,731.4938 Q597.55,732.525 598.3938,733.2125 Q599.2375,733.9 600.7375,733.9 Q601.6281,733.9 602.2531,733.6969 Q602.6125,733.5875 603.0188,733.2281 Q603.2844,733.025 603.425,732.9625 Q603.5656,732.9 603.7375,732.9 Q604.0656,732.9 604.3,733.1656 Q604.55,733.4156 604.55,733.775 Q604.55,734.1188 604.2063,734.525 Q603.7063,735.1188 602.9094,735.4469 Q601.8625,735.9 600.5813,735.9 Q599.0813,735.9 597.8781,735.3063 Q596.9094,734.8375 596.2219,733.8219 Q595.55,732.8063 595.55,731.6031 L595.55,730.5094 Q595.55,729.2594 596.1438,728.1656 Q596.7531,727.0719 597.8,726.4938 Q598.8625,725.9 600.05,725.9 Q600.7688,725.9 601.3938,726.15 Q602.0188,726.4 602.55,726.9 Z " fill="#000000"/><text fill="#000000" font-family="sans-serif" font-size="12" lengthAdjust="spacing" textLength="32" x="620.45" y="735.3102">Client</text><line style="stroke:#A80036;stroke-width:1.5;" x1="560" x2="681" y1="746.4" y2="746.4"/><text fill="#000000" font-family="sans-serif" font-size="11" lengthAdjust="spacing" textLength="38" x="565" y="761.8189">-clientID</text><text fill="#000000" font-family="sans-serif" font-size="11" lengthAdjust="spacing" textLength="111" x="565" y="775.6549">-clientRegistrationCode</text><!--MD5=[e6b394b930674b2255938b8afe6bb7b4]
class ShipCaptain--><rect fill="#FEFECE" filter="url(#fn1ls6a4wd56i)" height="40" id="ShipCaptain" style="stroke:#A80036;stroke-width:1.5;" width="100" x="50" y="985.4"/><ellipse cx="65" cy="1001.4" fill="#ADD1B2" rx="11" ry="11" style="stroke:#A80036;stroke-width:1.0;"/><path d="M67,997.9 Q67.2031,997.4 67.4375,997.15 Q67.6719,996.9 67.9375,996.9 Q68.4063,996.9 68.7031,997.1813 Q69,997.4625 69,998.1188 L69,999.6813 Q69,1000.3375 68.7188,1000.6188 Q68.4375,1000.9 68,1000.9 Q67.6094,1000.9 67.3594,1000.7281 Q67.1094,1000.5563 67,1000.1031 Q66.9531,999.7906 66.7813,999.6188 Q66.4688,999.2906 65.9063,999.1031 Q65.3438,998.9 64.7813,998.9 Q64.0781,998.9 63.4844,999.1813 Q62.9063,999.4625 62.4531,1000.0875 Q62,1000.7125 62,1001.5719 L62,1002.4938 Q62,1003.525 62.8438,1004.2125 Q63.6875,1004.9 65.1875,1004.9 Q66.0781,1004.9 66.7031,1004.6969 Q67.0625,1004.5875 67.4688,1004.2281 Q67.7344,1004.025 67.875,1003.9625 Q68.0156,1003.9 68.1875,1003.9 Q68.5156,1003.9 68.75,1004.1656 Q69,1004.4156 69,1004.775 Q69,1005.1188 68.6563,1005.525 Q68.1563,1006.1188 67.3594,1006.4469 Q66.3125,1006.9 65.0313,1006.9 Q63.5313,1006.9 62.3281,1006.3063 Q61.3594,1005.8375 60.6719,1004.8219 Q60,1003.8063 60,1002.6031 L60,1001.5094 Q60,1000.2594 60.5938,999.1656 Q61.2031,998.0719 62.25,997.4938 Q63.3125,996.9 64.5,996.9 Q65.2188,996.9 65.8438,997.15 Q66.4688,997.4 67,997.9 Z " fill="#000000"/><text fill="#000000" font-family="sans-serif" font-size="12" lengthAdjust="spacing" textLength="68" x="79" y="1006.3102">ShipCaptain</text><line style="stroke:#A80036;stroke-width:1.5;" x1="51" x2="149" y1="1017.4" y2="1017.4"/><!--MD5=[a0e14dc1c5f22798a4d68a7546a0e1d4]
class PortStaff--><rect fill="#FEFECE" filter="url(#fn1ls6a4wd56i)" height="40" id="PortStaff" style="stroke:#A80036;stroke-width:1.5;" width="78" x="61" y="565.4"/><ellipse cx="76" cy="581.4" fill="#ADD1B2" rx="11" ry="11" style="stroke:#A80036;stroke-width:1.0;"/><path d="M78,577.9 Q78.2031,577.4 78.4375,577.15 Q78.6719,576.9 78.9375,576.9 Q79.4063,576.9 79.7031,577.1813 Q80,577.4625 80,578.1188 L80,579.6813 Q80,580.3375 79.7188,580.6188 Q79.4375,580.9 79,580.9 Q78.6094,580.9 78.3594,580.7281 Q78.1094,580.5563 78,580.1031 Q77.9531,579.7906 77.7813,579.6188 Q77.4688,579.2906 76.9063,579.1031 Q76.3438,578.9 75.7813,578.9 Q75.0781,578.9 74.4844,579.1813 Q73.9063,579.4625 73.4531,580.0875 Q73,580.7125 73,581.5719 L73,582.4938 Q73,583.525 73.8438,584.2125 Q74.6875,584.9 76.1875,584.9 Q77.0781,584.9 77.7031,584.6969 Q78.0625,584.5875 78.4688,584.2281 Q78.7344,584.025 78.875,583.9625 Q79.0156,583.9 79.1875,583.9 Q79.5156,583.9 79.75,584.1656 Q80,584.4156 80,584.775 Q80,585.1188 79.6563,585.525 Q79.1563,586.1188 78.3594,586.4469 Q77.3125,586.9 76.0313,586.9 Q74.5313,586.9 73.3281,586.3063 Q72.3594,585.8375 71.6719,584.8219 Q71,583.8063 71,582.6031 L71,581.5094 Q71,580.2594 71.5938,579.1656 Q72.2031,578.0719 73.25,577.4938 Q74.3125,576.9 75.5,576.9 Q76.2188,576.9 76.8438,577.15 Q77.4688,577.4 78,577.9 Z " fill="#000000"/><text fill="#000000" font-family="sans-serif" font-size="12" lengthAdjust="spacing" textLength="46" x="90" y="586.3102">PortStaff</text><line style="stroke:#A80036;stroke-width:1.5;" x1="62" x2="138" y1="597.4" y2="597.4"/><!--MD5=[3d03a7926762ddb083c55de5ffe4deab]
class ShipMaster--><rect fill="#FEFECE" filter="url(#fn1ls6a4wd56i)" height="40" id="ShipMaster" style="stroke:#A80036;stroke-width:1.5;" width="94" x="53" y="640.4"/><ellipse cx="68" cy="656.4" fill="#ADD1B2" rx="11" ry="11" style="stroke:#A80036;stroke-width:1.0;"/><path d="M70,652.9 Q70.2031,652.4 70.4375,652.15 Q70.6719,651.9 70.9375,651.9 Q71.4063,651.9 71.7031,652.1813 Q72,652.4625 72,653.1188 L72,654.6813 Q72,655.3375 71.7188,655.6188 Q71.4375,655.9 71,655.9 Q70.6094,655.9 70.3594,655.7281 Q70.1094,655.5563 70,655.1031 Q69.9531,654.7906 69.7813,654.6188 Q69.4688,654.2906 68.9063,654.1031 Q68.3438,653.9 67.7813,653.9 Q67.0781,653.9 66.4844,654.1813 Q65.9063,654.4625 65.4531,655.0875 Q65,655.7125 65,656.5719 L65,657.4938 Q65,658.525 65.8438,659.2125 Q66.6875,659.9 68.1875,659.9 Q69.0781,659.9 69.7031,659.6969 Q70.0625,659.5875 70.4688,659.2281 Q70.7344,659.025 70.875,658.9625 Q71.0156,658.9 71.1875,658.9 Q71.5156,658.9 71.75,659.1656 Q72,659.4156 72,659.775 Q72,660.1188 71.6563,660.525 Q71.1563,661.1188 70.3594,661.4469 Q69.3125,661.9 68.0313,661.9 Q66.5313,661.9 65.3281,661.3063 Q64.3594,660.8375 63.6719,659.8219 Q63,658.8063 63,657.6031 L63,656.5094 Q63,655.2594 63.5938,654.1656 Q64.2031,653.0719 65.25,652.4938 Q66.3125,651.9 67.5,651.9 Q68.2188,651.9 68.8438,652.15 Q69.4688,652.4 70,652.9 Z " fill="#000000"/><text fill="#000000" font-family="sans-serif" font-size="12" lengthAdjust="spacing" textLength="62" x="82" y="661.3102">ShipMaster</text><line style="stroke:#A80036;stroke-width:1.5;" x1="54" x2="146" y1="672.4" y2="672.4"/><!--MD5=[019a73386217e12d5bb8e34bf0b46b9e]
class FleetManager--><rect fill="#FEFECE" filter="url(#fn1ls6a4wd56i)" height="40" id="FleetManager" style="stroke:#A80036;stroke-width:1.5;" width="107" x="46.5" y="715.4"/><ellipse cx="61.5" cy="731.4" fill="#ADD1B2" rx="11" ry="11" style="stroke:#A80036;stroke-width:1.0;"/><path d="M63.5,727.9 Q63.7031,727.4 63.9375,727.15 Q64.1719,726.9 64.4375,726.9 Q64.9063,726.9 65.2031,727.1813 Q65.5,727.4625 65.5,728.1188 L65.5,729.6813 Q65.5,730.3375 65.2188,730.6188 Q64.9375,730.9 64.5,730.9 Q64.1094,730.9 63.8594,730.7281 Q63.6094,730.5563 63.5,730.1031 Q63.4531,729.7906 63.2813,729.6188 Q62.9688,729.2906 62.4063,729.1031 Q61.8438,728.9 61.2813,728.9 Q60.5781,728.9 59.9844,729.1813 Q59.4063,729.4625 58.9531,730.0875 Q58.5,730.7125 58.5,731.5719 L58.5,732.4938 Q58.5,733.525 59.3438,734.2125 Q60.1875,734.9 61.6875,734.9 Q62.5781,734.9 63.2031,734.6969 Q63.5625,734.5875 63.9688,734.2281 Q64.2344,734.025 64.375,733.9625 Q64.5156,733.9 64.6875,733.9 Q65.0156,733.9 65.25,734.1656 Q65.5,734.4156 65.5,734.775 Q65.5,735.1188 65.1563,735.525 Q64.6563,736.1188 63.8594,736.4469 Q62.8125,736.9 61.5313,736.9 Q60.0313,736.9 58.8281,736.3063 Q57.8594,735.8375 57.1719,734.8219 Q56.5,733.8063 56.5,732.6031 L56.5,731.5094 Q56.5,730.2594 57.0938,729.1656 Q57.7031,728.0719 58.75,727.4938 Q59.8125,726.9 61,726.9 Q61.7188,726.9 62.3438,727.15 Q62.9688,727.4 63.5,727.9 Z " fill="#000000"/><text fill="#000000" font-family="sans-serif" font-size="12" lengthAdjust="spacing" textLength="75" x="75.5" y="736.3102">FleetManager</text><line style="stroke:#A80036;stroke-width:1.5;" x1="47.5" x2="152.5" y1="747.4" y2="747.4"/><!--MD5=[e60930a8d2a22e15a2c4c5b307c48b2d]
class ProjectManager--><rect fill="#FEFECE" filter="url(#fn1ls6a4wd56i)" height="40" id="ProjectManager" style="stroke:#A80036;stroke-width:1.5;" width="118" x="41" y="790.4"/><ellipse cx="56" cy="806.4" fill="#ADD1B2" rx="11" ry="11" style="stroke:#A80036;stroke-width:1.0;"/><path d="M58,802.9 Q58.2031,802.4 58.4375,802.15 Q58.6719,801.9 58.9375,801.9 Q59.4063,801.9 59.7031,802.1813 Q60,802.4625 60,803.1188 L60,804.6813 Q60,805.3375 59.7188,805.6188 Q59.4375,805.9 59,805.9 Q58.6094,805.9 58.3594,805.7281 Q58.1094,805.5563 58,805.1031 Q57.9531,804.7906 57.7813,804.6188 Q57.4688,804.2906 56.9063,804.1031 Q56.3438,803.9 55.7813,803.9 Q55.0781,803.9 54.4844,804.1813 Q53.9063,804.4625 53.4531,805.0875 Q53,805.7125 53,806.5719 L53,807.4938 Q53,808.525 53.8438,809.2125 Q54.6875,809.9 56.1875,809.9 Q57.0781,809.9 57.7031,809.6969 Q58.0625,809.5875 58.4688,809.2281 Q58.7344,809.025 58.875,808.9625 Q59.0156,808.9 59.1875,808.9 Q59.5156,808.9 59.75,809.1656 Q60,809.4156 60,809.775 Q60,810.1188 59.6563,810.525 Q59.1563,811.1188 58.3594,811.4469 Q57.3125,811.9 56.0313,811.9 Q54.5313,811.9 53.3281,811.3063 Q52.3594,810.8375 51.6719,809.8219 Q51,808.8063 51,807.6031 L51,806.5094 Q51,805.2594 51.5938,804.1656 Q52.2031,803.0719 53.25,802.4938 Q54.3125,801.9 55.5,801.9 Q56.2188,801.9 56.8438,802.15 Q57.4688,802.4 58,802.9 Z " fill="#000000"/><text fill="#000000" font-family="sans-serif" font-size="12" lengthAdjust="spacing" textLength="86" x="70" y="811.3102">ProjectManager</text><line style="stroke:#A80036;stroke-width:1.5;" x1="42" x2="158" y1="822.4" y2="822.4"/><!--MD5=[bc71c62128aaf75a155dd6adc8e1dfa9]
link TrafficManager to Company--><path codeLine="96" d="M145.71,880.25 C182.21,862.76 234.23,835.43 275,804.4 C301.21,784.45 327.04,756.51 343.22,737.72 " fill="none" id="TrafficManager-Company" style="stroke:#A80036;stroke-width:1.0;"/><polygon fill="#000000" points="223.9455,798.5017,233,795.5919,229.5604,790.8255,223.9455,798.5017" style="stroke:#000000;stroke-width:1.0;"/><text fill="#000000" font-family="sans-serif" font-size="13" lengthAdjust="spacing" textLength="37" x="237" y="800.8951">knows</text><text fill="#000000" font-family="sans-serif" font-size="13" lengthAdjust="spacing" textLength="5" x="153.4029" y="869.5277">*</text><text fill="#000000" font-family="sans-serif" font-size="13" lengthAdjust="spacing" textLength="7" x="330.501" y="758.8734">1</text><!--MD5=[40e2b5717560220ad35e84810a8f1b44]
link TrafficManager to Ship--><path codeLine="97" d="M156.59,912.58 C177.33,916.55 201.13,920.44 223,922.4 C246.02,924.46 251.95,924.05 275,922.4 C538.81,903.46 611.44,915.93 864,837.4 C889.27,829.54 916.07,815.92 935.4,805.03 " fill="none" id="TrafficManager-Ship" style="stroke:#A80036;stroke-width:1.0;"/><polygon fill="#000000" points="463.953,896.8918,454.5909,895.2178,455.395,901.0404,463.953,896.8918" style="stroke:#000000;stroke-width:1.0;"/><text fill="#000000" font-family="sans-serif" font-size="13" lengthAdjust="spacing" textLength="53" x="468" y="902.8951">manages</text><text fill="#000000" font-family="sans-serif" font-size="13" lengthAdjust="spacing" textLength="7" x="164.6646" y="928.8104">1</text><text fill="#000000" font-family="sans-serif" font-size="13" lengthAdjust="spacing" textLength="5" x="922.4306" y="824.9216">*</text><!--MD5=[9a31db71f2c3551e63ef1cc9b9b88927]
link ShipCaptain to Company--><path codeLine="98" d="M130.21,985.38 C148.61,972.46 172.65,955.03 193,938.4 C231.24,907.15 244,901.85 275,863.4 C308.14,822.3 336.7,766.82 350.74,737.5 " fill="none" id="ShipCaptain-Company" style="stroke:#A80036;stroke-width:1.0;"/><polygon fill="#000000" points="224.6766,858.3114,232.8845,853.5071,228.493,849.6001,224.6766,858.3114" style="stroke:#000000;stroke-width:1.0;"/><text fill="#000000" font-family="sans-serif" font-size="13" lengthAdjust="spacing" textLength="37" x="237" y="859.8951">knows</text><text fill="#000000" font-family="sans-serif" font-size="13" lengthAdjust="spacing" textLength="5" x="133.3498" y="974.6959">*</text><text fill="#000000" font-family="sans-serif" font-size="13" lengthAdjust="spacing" textLength="7" x="339.87" y="758.9477">1</text><!--MD5=[f065240a342e449619d6d797ab4a538f]
link ShipCaptain to Ship--><path codeLine="99" d="M150.11,1007.85 C276.14,1012.06 618.36,1010.41 864,886.4 C892.28,872.12 917.54,846.79 935.47,825.47 " fill="none" id="ShipCaptain-Ship" style="stroke:#A80036;stroke-width:1.0;"/><polygon fill="#000000" points="463.8704,976.4448,454.395,975.6281,455.7246,981.3535,463.8704,976.4448" style="stroke:#000000;stroke-width:1.0;"/><text fill="#000000" font-family="sans-serif" font-size="13" lengthAdjust="spacing" textLength="53" x="468" y="982.8951">manages</text><text fill="#000000" font-family="sans-serif" font-size="13" lengthAdjust="spacing" textLength="7" x="157.984" y="1022.9058">1</text><text fill="#000000" font-family="sans-serif" font-size="13" lengthAdjust="spacing" textLength="5" x="922.5186" y="850.5994">*</text><!--MD5=[2bfe4a906cb291471f9a1e604bac5465]
link PortStaff to Company--><path codeLine="100" d="M139.34,600.01 C155.96,606.56 175.58,614.56 193,622.4 C230.15,639.13 239.54,643.34 275,663.4 C293.72,673.99 314.07,686.87 330.17,697.39 " fill="none" id="PortStaff-Company" style="stroke:#A80036;stroke-width:1.0;"/><polygon fill="#000000" points="223.5464,625.3031,230.2672,632.0322,232.9389,626.7966,223.5464,625.3031" style="stroke:#000000;stroke-width:1.0;"/><text fill="#000000" font-family="sans-serif" font-size="13" lengthAdjust="spacing" textLength="37" x="237" y="632.8951">knows</text><text fill="#000000" font-family="sans-serif" font-size="13" lengthAdjust="spacing" textLength="5" x="147.0543" y="617.7062">*</text><text fill="#000000" font-family="sans-serif" font-size="13" lengthAdjust="spacing" textLength="7" x="313.0856" y="686.7088">1</text><!--MD5=[24c080c6d504b9e4044a2199d28ca15f]
link ShipMaster to Company--><path codeLine="101" d="M147.01,670.52 C195.56,681.21 271.4,697.9 318.27,708.22 " fill="none" id="ShipMaster-Company" style="stroke:#A80036;stroke-width:1.0;"/><polygon fill="#000000" points="223.1169,679.5009,231.3187,684.3156,232.5823,678.5752,223.1169,679.5009" style="stroke:#000000;stroke-width:1.0;"/><text fill="#000000" font-family="sans-serif" font-size="13" lengthAdjust="spacing" textLength="37" x="237" y="685.8951">knows</text><text fill="#000000" font-family="sans-serif" font-size="13" lengthAdjust="spacing" textLength="5" x="154.9007" y="686.931">*</text><text fill="#000000" font-family="sans-serif" font-size="13" lengthAdjust="spacing" textLength="7" x="303.6132" y="702.8988">1</text><!--MD5=[e80c220eac29262a60b2ae65b62683d2]
link FleetManager to Company--><path codeLine="102" d="M153.63,735.03 C188.19,734.43 234.35,732.96 275,729.4 C289.1,728.16 304.45,726.19 318.16,724.2 " fill="none" id="FleetManager-Company" style="stroke:#A80036;stroke-width:1.0;"/><polygon fill="#000000" points="223.0108,720.9042,232.2294,723.2427,231.8433,717.3775,223.0108,720.9042" style="stroke:#000000;stroke-width:1.0;"/><text fill="#000000" font-family="sans-serif" font-size="13" lengthAdjust="spacing" textLength="37" x="237" y="725.8951">knows</text><text fill="#000000" font-family="sans-serif" font-size="13" lengthAdjust="spacing" textLength="5" x="161.5233" y="749.6228">*</text><text fill="#000000" font-family="sans-serif" font-size="13" lengthAdjust="spacing" textLength="7" x="303.4849" y="740.1755">1</text><!--MD5=[a3db5db8e670a39b913a1f778f8db4de]
link ProjectManager to Company--><path codeLine="103" d="M159.05,796.1 C193.28,787 237.17,774.16 275,759.4 C291.1,753.12 308.29,744.92 322.97,737.44 " fill="none" id="ProjectManager-Company" style="stroke:#A80036;stroke-width:1.0;"/><polygon fill="#000000" points="223.2924,752.2604,232.7988,751.9799,230.8183,746.4458,223.2924,752.2604" style="stroke:#000000;stroke-width:1.0;"/><text fill="#000000" font-family="sans-serif" font-size="13" lengthAdjust="spacing" textLength="37" x="237" y="755.8951">knows</text><text fill="#000000" font-family="sans-serif" font-size="13" lengthAdjust="spacing" textLength="5" x="166.9361" y="808.8105">*</text><text fill="#000000" font-family="sans-serif" font-size="13" lengthAdjust="spacing" textLength="7" x="313.2584" y="758.8708">1</text><!--MD5=[37a14a5de6d6fd738aee271300f4b5c8]
link Company to Ship--><path codeLine="104" d="M390.67,737.46 C427.58,761.95 494.65,802 559,817.4 C697.15,850.45 868.82,813.29 935.1,796.14 " fill="none" id="Company-Ship" style="stroke:#A80036;stroke-width:1.0;"/><polygon fill="#000000" points="607.9712,809.1116,599.2931,805.2203,598.6633,811.0643,607.9712,809.1116" style="stroke:#000000;stroke-width:1.0;"/><text fill="#000000" font-family="sans-serif" font-size="13" lengthAdjust="spacing" textLength="30" x="612" y="813.8951">owns</text><text fill="#000000" font-family="sans-serif" font-size="13" lengthAdjust="spacing" textLength="7" x="391.0303" y="758.8964">1</text><text fill="#000000" font-family="sans-serif" font-size="13" lengthAdjust="spacing" textLength="5" x="922.4463" y="813.5527">*</text><!--MD5=[f56e222e1748568825f030a9b791275e]
link Ship to ShipPosition--><path codeLine="105" d="M992.94,788.4 C1035.66,788.4 1117.85,788.4 1171.15,788.4 " fill="none" id="Ship-ShipPosition" style="stroke:#A80036;stroke-width:1.0;"/><polygon fill="#000000" points="1090,779.5758,1080.9549,776.6369,1080.9549,782.5147,1090,779.5758" style="stroke:#000000;stroke-width:1.0;"/><text fill="#000000" font-family="sans-serif" font-size="13" lengthAdjust="spacing" textLength="21" x="1094" y="784.8951">has</text><text fill="#000000" font-family="sans-serif" font-size="13" lengthAdjust="spacing" textLength="7" x="1000.4418" y="803.8219">1</text><text fill="#000000" font-family="sans-serif" font-size="13" lengthAdjust="spacing" textLength="5" x="1158.5773" y="803.0783">*</text><!--MD5=[48866c3ee325f1b653aa35a9a333d568]
link PortManager to Company--><path codeLine="106" d="M128.92,500.45 C147.22,513.66 171.64,531.42 193,547.4 C229.8,574.93 242.24,578.17 275,610.4 C303.07,638.02 330.48,674.81 346.28,697.27 " fill="none" id="PortManager-Company" style="stroke:#A80036;stroke-width:1.0;"/><polygon fill="#000000" points="224.2937,557.2197,229.0258,565.4694,232.9711,561.1124,224.2937,557.2197" style="stroke:#000000;stroke-width:1.0;"/><text fill="#000000" font-family="sans-serif" font-size="13" lengthAdjust="spacing" textLength="37" x="237" y="565.8951">knows</text><text fill="#000000" font-family="sans-serif" font-size="13" lengthAdjust="spacing" textLength="5" x="131.3506" y="521.8836">*</text><text fill="#000000" font-family="sans-serif" font-size="13" lengthAdjust="spacing" textLength="7" x="333.9279" y="686.5536">1</text><!--MD5=[9eb8cece74e91f217f5849e8308bf70d]
link PortManager to Port--><path codeLine="107" d="M151.14,477.88 C173.18,476.89 199.37,475.88 223,475.4 C246.11,474.93 252.01,473.06 275,475.4 C393.46,487.48 531.34,522.35 590.32,538.29 " fill="none" id="PortManager-Port" style="stroke:#A80036;stroke-width:1.0;"/><polygon fill="#000000" points="336.9534,471.2571,328.3931,467.1131,327.5922,472.9361,336.9534,471.2571" style="stroke:#000000;stroke-width:1.0;"/><text fill="#000000" font-family="sans-serif" font-size="13" lengthAdjust="spacing" textLength="53" x="341" y="475.8951">manages</text><text fill="#000000" font-family="sans-serif" font-size="13" lengthAdjust="spacing" textLength="7" x="159.1653" y="492.2058">1</text><text fill="#000000" font-family="sans-serif" font-size="13" lengthAdjust="spacing" textLength="5" x="577.3543" y="551.7992">*</text><!--MD5=[5fd98a8c03cc0e5a408f548eb1c0ace8]
link Company to Port--><path codeLine="108" d="M379.82,697.13 C396.12,679.4 421.5,653.68 447,635.4 C493.7,601.93 554.71,573.56 590.26,558.35 " fill="none" id="Company-Port" style="stroke:#A80036;stroke-width:1.0;"/><polygon fill="#000000" points="471.1741,575.8231,462.0051,578.3493,465.2411,583.2562,471.1741,575.8231" style="stroke:#000000;stroke-width:1.0;"/><text fill="#000000" font-family="sans-serif" font-size="13" lengthAdjust="spacing" textLength="37" x="476" y="583.8951">knows</text><text fill="#000000" font-family="sans-serif" font-size="13" lengthAdjust="spacing" textLength="7" x="377.3203" y="686.3724">1</text><text fill="#000000" font-family="sans-serif" font-size="13" lengthAdjust="spacing" textLength="5" x="577.6889" y="576.4974">*</text><!--MD5=[81746cb93c90cbb95bfeb7ee7cddfbe5]
link Port to Ship--><path codeLine="109" d="M650.81,570.66 C668.31,584.9 691.13,603.06 712,618.4 C791.31,676.68 888.68,740.52 935.41,770.71 " fill="none" id="Port-Ship" style="stroke:#A80036;stroke-width:1.0;"/><polygon fill="#000000" points="763.9095,606.7005,769.6193,614.3063,772.9994,609.4976,763.9095,606.7005" style="stroke:#000000;stroke-width:1.0;"/><text fill="#000000" font-family="sans-serif" font-size="13" lengthAdjust="spacing" textLength="35" x="777" y="614.8951">docks</text><text fill="#000000" font-family="sans-serif" font-size="13" lengthAdjust="spacing" textLength="5" x="658.3973" y="591.6541">*</text><text fill="#000000" font-family="sans-serif" font-size="13" lengthAdjust="spacing" textLength="5" x="922.4432" y="781.8071">*</text><!--MD5=[5fdd31ab83fa7860731c4022d7a13fe0]
link Port to Containers--><path codeLine="110" d="M650.64,508.09 C666.73,489.63 688.25,468.84 712,456.4 C789.69,415.71 1044.64,382.47 1161.73,368.94 " fill="none" id="Port-Containers" style="stroke:#A80036;stroke-width:1.0;"/><polygon fill="#000000" points="955.8244,376.2623,946.3249,375.8027,947.869,381.4741,955.8244,376.2623" style="stroke:#000000;stroke-width:1.0;"/><text fill="#000000" font-family="sans-serif" font-size="13" lengthAdjust="spacing" textLength="21" x="960" y="382.8951">has</text><text fill="#000000" font-family="sans-serif" font-size="13" lengthAdjust="spacing" textLength="7" x="658.4193" y="514.6148">1</text><text fill="#000000" font-family="sans-serif" font-size="13" lengthAdjust="spacing" textLength="5" x="1149.019" y="384.2576">*</text><!--MD5=[cff4e3c6ede03364cf99bd3378be6b6a]
link Ship to Containers--><path codeLine="111" d="M992.73,774.72 C1029.9,754.99 1095.43,715.05 1132,662.4 C1177.2,597.34 1199.94,509.12 1211.15,445.2 " fill="none" id="Ship-Containers" style="stroke:#A80036;stroke-width:1.0;"/><polygon fill="#000000" points="1087.7625,649.4082,1080.3155,655.3237,1085.2148,658.5712,1087.7625,649.4082" style="stroke:#000000;stroke-width:1.0;"/><text fill="#000000" font-family="sans-serif" font-size="13" lengthAdjust="spacing" textLength="21" x="1094" y="658.8951">has</text><text fill="#000000" font-family="sans-serif" font-size="13" lengthAdjust="spacing" textLength="7" x="1000.5861" y="767.0115">1</text><text fill="#000000" font-family="sans-serif" font-size="13" lengthAdjust="spacing" textLength="5" x="1205.0463" y="465.9637">*</text><!--MD5=[495fae50e5964e36f0a771ac5477efc8]
link CargoManifest to Ship--><path codeLine="112" d="M417.12,239.92 C453.31,252.03 499.28,272.68 529,305.4 C555.09,334.13 530.02,361.59 559,387.4 C663.1,480.09 766.24,361.04 864,460.4 C907.11,504.21 876.95,536.35 894,595.4 C905.89,636.6 921.88,681.77 935.47,718.05 " fill="none" id="CargoManifest-Ship" style="stroke:#A80036;stroke-width:1.0;"/><polygon fill="#000000" points="588.1752,381.9659,583.5193,373.6729,579.534,377.9934,588.1752,381.9659" style="stroke:#000000;stroke-width:1.0;"/><text fill="#000000" font-family="sans-serif" font-size="13" lengthAdjust="spacing" textLength="67" x="593.5" y="383.8951">assigned to</text><text fill="#000000" font-family="sans-serif" font-size="13" lengthAdjust="spacing" textLength="5" x="424.9971" y="256.4979">*</text><text fill="#000000" font-family="sans-serif" font-size="13" lengthAdjust="spacing" textLength="7" x="920.6627" y="716.4282">1</text><!--MD5=[9f5a09a616509cd3e7b114149642c3c0]
link CargoManifest to Containers--><path codeLine="113" d="M417.18,184.66 C426.81,178.65 436.97,172.95 447,168.4 C493.92,147.1 508.8,150.05 559,138.4 C766.62,90.2 831.47,6 1034,72.4 C1085.36,89.24 1098.72,101.82 1132,144.4 C1163.11,184.21 1185.04,236.35 1199.4,279.65 " fill="none" id="CargoManifest-Containers" style="stroke:#A80036;stroke-width:1.0;"/><polygon fill="#000000" points="779.9635,42.1785,771.3387,38.1706,770.6301,44.0056,779.9635,42.1785" style="stroke:#000000;stroke-width:1.0;"/><text fill="#000000" font-family="sans-serif" font-size="13" lengthAdjust="spacing" textLength="21" x="784" y="46.8951">has</text><text fill="#000000" font-family="sans-serif" font-size="13" lengthAdjust="spacing" textLength="7" x="424.8265" y="194.0144">1</text><text fill="#000000" font-family="sans-serif" font-size="13" lengthAdjust="spacing" textLength="5" x="1192.12" y="269.0996">*</text><!--MD5=[47296211a5450e6030aae792427ae68d]
link CargoManifest to Port--><path codeLine="114" d="M396.29,266.47 C437.66,316.09 504.68,396.74 529,427.4 C549.89,453.74 572.8,483.88 590.35,507.24 " fill="none" id="CargoManifest-Port" style="stroke:#A80036;stroke-width:1.0;"/><polygon fill="#000000" points="455.1377,326.4687,451.7498,317.582,447.1733,321.2706,455.1377,326.4687" style="stroke:#000000;stroke-width:1.0;"/><text fill="#000000" font-family="sans-serif" font-size="13" lengthAdjust="spacing" textLength="67" x="461" y="327.8951">assigned to</text><text fill="#000000" font-family="sans-serif" font-size="13" lengthAdjust="spacing" textLength="7" x="394.1578" y="287.5436">1</text><text fill="#000000" font-family="sans-serif" font-size="13" lengthAdjust="spacing" textLength="7" x="575.5684" y="513.5682">1</text><!--MD5=[4f7e2c7dacad3b9128cfc3e0a564208c]
link ShipChiefElectricalEngineer to Company--><path codeLine="115" d="M144.37,410.6 C160.51,419.19 178.43,430.08 193,442.4 C280.03,515.95 334.4,646.91 352.9,697.07 " fill="none" id="ShipChiefElectricalEngineer-Company" style="stroke:#A80036;stroke-width:1.0;"/><polygon fill="#000000" points="225.0574,460.5334,228.0045,469.5758,232.7567,466.1166,225.0574,460.5334" style="stroke:#000000;stroke-width:1.0;"/><text fill="#000000" font-family="sans-serif" font-size="13" lengthAdjust="spacing" textLength="37" x="237" y="469.8951">knows</text><text fill="#000000" font-family="sans-serif" font-size="13" lengthAdjust="spacing" textLength="5" x="150.6226" y="431.7211">*</text><text fill="#000000" font-family="sans-serif" font-size="13" lengthAdjust="spacing" textLength="7" x="351.6063" y="686.6467">1</text><!--MD5=[d6ba4e9149c073a5927859768fb95c39]
link ShipChiefElectricalEngineer to Containers--><path codeLine="116" d="M193.08,384.65 C285.53,379.04 432.09,370.62 559,365.4 C783.34,356.17 839.49,354.51 1064,351.4 C1094.22,350.98 1101.83,349.55 1132,351.4 C1141.69,351.99 1151.93,352.94 1161.9,354.04 " fill="none" id="ShipChiefElectricalEngineer-Containers" style="stroke:#A80036;stroke-width:1.0;"/><polygon fill="#000000" points="596.4975,352.4179,587.3641,349.7661,587.5497,355.641,596.4975,352.4179" style="stroke:#000000;stroke-width:1.0;"/><text fill="#000000" font-family="sans-serif" font-size="13" lengthAdjust="spacing" textLength="53" x="600.5" y="357.8951">manages</text><text fill="#000000" font-family="sans-serif" font-size="13" lengthAdjust="spacing" textLength="7" x="201.078" y="398.346">1</text><text fill="#000000" font-family="sans-serif" font-size="13" lengthAdjust="spacing" textLength="5" x="1148.8153" y="349.492">*</text><!--MD5=[acda98ef2513d819683ba761a9c77b11]
link Company to Warehouse--><path codeLine="117" d="M403.75,708.39 C479.25,691.61 635,654.63 682,625.4 C698.83,614.93 697.77,606.19 712,592.4 C720.24,584.42 729.3,576.23 738.19,568.49 " fill="none" id="Company-Warehouse" style="stroke:#A80036;stroke-width:1.0;"/><polygon fill="#000000" points="471.6127,669.6462,462.1341,670.4255,464.4024,675.8481,471.6127,669.6462" style="stroke:#000000;stroke-width:1.0;"/><text fill="#000000" font-family="sans-serif" font-size="13" lengthAdjust="spacing" textLength="37" x="476" y="676.8951">knows</text><text fill="#000000" font-family="sans-serif" font-size="13" lengthAdjust="spacing" textLength="7" x="411.4102" y="721.7469">1</text><text fill="#000000" font-family="sans-serif" font-size="13" lengthAdjust="spacing" textLength="5" x="725.507" y="589.061">*</text><!--MD5=[625ab465577c800be86e58d31f601cc4]
link Warehouse to Containers--><path codeLine="118" d="M837.61,519.1 C905.97,504.79 1033.2,473.67 1132,423.4 C1141.89,418.37 1151.97,412.42 1161.64,406.24 " fill="none" id="Warehouse-Containers" style="stroke:#A80036;stroke-width:1.0;"/><polygon fill="#000000" points="939.7218,456.9312,930.2133,457.1309,932.1467,462.6817,939.7218,456.9312" style="stroke:#000000;stroke-width:1.0;"/><text fill="#000000" font-family="sans-serif" font-size="13" lengthAdjust="spacing" textLength="53" x="944" y="463.8951">manages</text><text fill="#000000" font-family="sans-serif" font-size="13" lengthAdjust="spacing" textLength="5" x="845.5893" y="532.4092">*</text><text fill="#000000" font-family="sans-serif" font-size="13" lengthAdjust="spacing" textLength="5" x="1148.918" y="426.1036">*</text><!--MD5=[33207359e430527c3ef95e8fa4f14f27]
link CargoManifest to CargoManifestLoad--><path codeLine="119" d="M417.04,208.62 C426.95,205.95 437.24,203.41 447,201.4 C605.26,168.78 794.48,150.49 893.99,142.43 " fill="none" id="CargoManifest-CargoManifestLoad" style="stroke:#A80036;stroke-width:1.0;"/><polygon fill="#000000" points="612.4525,154.8885,603.0893,153.2208,603.8973,159.0428,612.4525,154.8885" style="stroke:#000000;stroke-width:1.0;"/><text fill="#000000" font-family="sans-serif" font-size="13" lengthAdjust="spacing" textLength="21" x="616.5" y="160.8951">has</text><text fill="#000000" font-family="sans-serif" font-size="13" lengthAdjust="spacing" textLength="7" x="425.0407" y="220.992">1</text><text fill="#000000" font-family="sans-serif" font-size="13" lengthAdjust="spacing" textLength="5" x="881.0592" y="157.3507">*</text><!--MD5=[09063d1180f933160dfc18c7b4e535f1]
link CargoManifest to CargoManifestUnload--><path codeLine="120" d="M417.13,226.18 C492.37,227.24 627.49,229.15 711.93,230.34 " fill="none" id="CargoManifest-CargoManifestUnload" style="stroke:#A80036;stroke-width:1.0;"/><polygon fill="#000000" points="479.9995,218.6463,470.9968,215.5801,470.9138,221.4573,479.9995,218.6463" style="stroke:#000000;stroke-width:1.0;"/><text fill="#000000" font-family="sans-serif" font-size="13" lengthAdjust="spacing" textLength="21" x="484" y="223.8951">has</text><text fill="#000000" font-family="sans-serif" font-size="13" lengthAdjust="spacing" textLength="7" x="425.1428" y="240.9116">1</text><text fill="#000000" font-family="sans-serif" font-size="13" lengthAdjust="spacing" textLength="5" x="698.8275" y="244.5512">*</text><!--MD5=[5387bf9b81457913cdccd80194121d24]
link CargoManifestLoad to Containers--><path codeLine="121" d="M1034.26,157.7 C1066.64,169.73 1104.11,187.57 1132,212.4 C1152.95,231.05 1170.45,255.81 1184.25,279.82 " fill="none" id="CargoManifestLoad-Containers" style="stroke:#A80036;stroke-width:1.0;"/><polygon fill="#000000" points="1072.8774,164.7327,1067.7187,156.7427,1064.0076,161.3009,1072.8774,164.7327" style="stroke:#000000;stroke-width:1.0;"/><text fill="#000000" font-family="sans-serif" font-size="13" lengthAdjust="spacing" textLength="53" x="1078" y="166.8951">manages</text><text fill="#000000" font-family="sans-serif" font-size="13" lengthAdjust="spacing" textLength="5" x="1042.2181" y="174.2909">*</text><text fill="#000000" font-family="sans-serif" font-size="13" lengthAdjust="spacing" textLength="5" x="1175.4934" y="269.0029">*</text><!--MD5=[760c0c4986f84a43198d88cca97ab89c]
link CargoManifestUnload to Containers--><path codeLine="122" d="M864.18,237.67 C935.47,245.63 1044.38,263.13 1132,300.4 C1142.09,304.69 1152.2,310.22 1161.81,316.21 " fill="none" id="CargoManifestUnload-Containers" style="stroke:#A80036;stroke-width:1.0;"/><polygon fill="#000000" points="939.8345,234.8515,931.8387,229.702,930.3389,235.3853,939.8345,234.8515" style="stroke:#000000;stroke-width:1.0;"/><text fill="#000000" font-family="sans-serif" font-size="13" lengthAdjust="spacing" textLength="53" x="944" y="238.8951">manages</text><text fill="#000000" font-family="sans-serif" font-size="13" lengthAdjust="spacing" textLength="5" x="871.9251" y="252.5702">*</text><text fill="#000000" font-family="sans-serif" font-size="13" lengthAdjust="spacing" textLength="5" x="1149.1087" y="325.1012">*</text><!--MD5=[6eee883fdf517d3604e8bd0f2058e9aa]
link Company to Client--><path codeLine="123" d="M403.66,722.42 C445.65,727.47 510.91,735.33 558.68,741.08 " fill="none" id="Company-Client" style="stroke:#A80036;stroke-width:1.0;"/><polygon fill="#000000" points="479.9642,720.1733,471.3351,716.1745,470.6327,722.0102,479.9642,720.1733" style="stroke:#000000;stroke-width:1.0;"/><text fill="#000000" font-family="sans-serif" font-size="13" lengthAdjust="spacing" textLength="21" x="484" y="724.8951">has</text><text fill="#000000" font-family="sans-serif" font-size="13" lengthAdjust="spacing" textLength="7" x="411.5938" y="738.1831">1</text><text fill="#000000" font-family="sans-serif" font-size="13" lengthAdjust="spacing" textLength="5" x="545.841" y="754.6994">*</text><!--MD5=[2a654a65145d4d768472c66eea17ac36]
link Client to Containers--><path codeLine="124" d="M651.66,714.12 C661.44,702.84 672.28,690.16 682,678.4 C695.71,661.81 694.15,652.41 712,640.4 C770.36,601.15 797.26,618.58 864,596.4 C940.61,570.93 963.03,570.88 1034,532.4 C1081.51,506.64 1091.8,496.53 1132,460.4 C1142.02,451.39 1152.14,441.38 1161.78,431.3 " fill="none" id="Client-Containers" style="stroke:#A80036;stroke-width:1.0;"/><polygon fill="#000000" points="946.8729,521.1514,937.5372,522.9669,940.3873,528.1075,946.8729,521.1514" style="stroke:#000000;stroke-width:1.0;"/><text fill="#000000" font-family="sans-serif" font-size="13" lengthAdjust="spacing" textLength="38" x="951.5" y="528.8951">leases</text><text fill="#000000" font-family="sans-serif" font-size="13" lengthAdjust="spacing" textLength="5" x="652.1233" y="703.6203">*</text><text fill="#000000" font-family="sans-serif" font-size="13" lengthAdjust="spacing" textLength="5" x="1149.0751" y="454.2178">*</text><!--MD5=[388b5b178c5c3718edeb2dd3a4c02e0b]
@startuml
hide methods
left to right direction
skinparam classAttributeIconSize 0


class Company {
  
}

class Ship{
-MMSI
-name
-IMO
-callsign
-type
-length
-width
-draft
}

class Containers{
-ContainerNumber
-ISOCode
-MaxWeight
-ContainerWeight
-MaxWeightPacked
-MaxVolumePacked
-Certificates
-RepairRecomendation
-Temperature
}

class ShipPosition {
   -shipMMSI
   -date
   -latitude
   -longitude
   -sog
   -cog
   -heading
   -cargo
   -transciever
}

class Port{
-id
-name
-continent
-country
-latitude
-longitude
}

class TrafficManager{
}

class PortManager{
}

class ShipChiefElectricalEngineer{
}

class CargoManifest{
-id
-shipMMSI
-portID
}

class Warehouse{
-WarehouseID
-WarehouseName
-Latitude
-Longitude
-CountryName
}

class CargoManifestLoad{
-cargoManifestID
-dateLoad
-done
-portID
}

class CargoManifestUnload{
-cargoManifestID
-dateUnload
-done
-portID
}

class Client {
-clientID
-clientRegistrationCode
}

TrafficManager "*" - - "1" Company : knows <
TrafficManager "1" - - "*" Ship : manages >
ShipCaptain "*" - - "1" Company : knows <
ShipCaptain "1" - - "*" Ship : manages >
PortStaff "*" - - "1" Company : knows <
ShipMaster "*" - - "1" Company : knows <
FleetManager "*" - - "1" Company : knows <
ProjectManager "*" - - "1" Company : knows <
Company "1" - - "*" Ship : owns >
Ship "1" - - "*" ShipPosition : has >
PortManager "*" - - "1" Company : knows <
PortManager "1" - - "*" Port : manages >
Company "1" - - "*" Port : knows >
Port "*" - - "*" Ship : docks <
Port "1" - - "*" Containers: has >
Ship "1" - - "*" Containers: has >
CargoManifest "*" - - "1" Ship : assigned to >
CargoManifest "1" - - "*" Containers : has >
CargoManifest "1" - - "1" Port: assigned to >
ShipChiefElectricalEngineer "*" - - "1" Company : knows <
ShipChiefElectricalEngineer "1" - - "*" Containers : manages >
Company "1" - - "*" Warehouse : knows >
Warehouse "*" - - "*" Containers : manages >
CargoManifest "1" - - "*" CargoManifestLoad : has >
CargoManifest "1" - - "*" CargoManifestUnload : has >
CargoManifestLoad "*" - - "*" Containers : manages >
CargoManifestUnload "*" - - "*" Containers : manages >
Company "1" - - "*" Client : has >
Client "*" - - "*" Containers : leases >

@enduml

PlantUML version 1.2021.2(Sun Mar 07 11:10:27 GMT 2021)
(GPL source distribution)
Java Runtime: OpenJDK Runtime Environment
JVM: OpenJDK 64-Bit Server VM
Default Encoding: Cp1252
Language: pt
Country: PT
--></g></svg>