<?xml version="1.0" encoding="UTF-8" standalone="no"?><svg xmlns="http://www.w3.org/2000/svg" xmlns:xlink="http://www.w3.org/1999/xlink" contentScriptType="application/ecmascript" contentStyleType="text/css" height="339px" preserveAspectRatio="none" style="width:673px;height:339px;background:#FFFFFF;" version="1.1" viewBox="0 0 673 339" width="673px" zoomAndPan="magnify"><defs><filter height="300%" id="fb14tn10tsvji" width="300%" x="-1" y="-1"><feGaussianBlur result="blurOut" stdDeviation="2.0"/><feColorMatrix in="blurOut" result="blurOut2" type="matrix" values="0 0 0 0 0 0 0 0 0 0 0 0 0 0 0 0 0 0 .4 0"/><feOffset dx="4.0" dy="4.0" in="blurOut2" result="blurOut3"/><feBlend in="SourceGraphic" in2="blurOut3" mode="normal"/></filter></defs><g><!--MD5=[02e4b9b7573f1156f41e60aa5b4e25a4]
class Company--><rect codeLine="7" fill="#FEFECE" filter="url(#fb14tn10tsvji)" height="40" id="Company" style="stroke:#A80036;stroke-width:1.5;" width="88" x="22" y="20"/><ellipse cx="37" cy="36" fill="#ADD1B2" rx="11" ry="11" style="stroke:#A80036;stroke-width:1.0;"/><path d="M39.3438,31.6719 C38.4063,31.2344 37.8125,31.0938 36.9375,31.0938 C34.3125,31.0938 32.3125,33.1719 32.3125,35.8906 L32.3125,37.0156 C32.3125,39.5938 34.4219,41.4844 37.3125,41.4844 C38.5313,41.4844 39.6875,41.1875 40.4375,40.6406 C41.0156,40.2344 41.3438,39.7813 41.3438,39.3906 C41.3438,38.9375 40.9531,38.5469 40.4844,38.5469 C40.2656,38.5469 40.0625,38.625 39.875,38.8125 C39.4219,39.2969 39.4219,39.2969 39.2344,39.3906 C38.8125,39.6563 38.125,39.7813 37.3594,39.7813 C35.3125,39.7813 34.0156,38.6875 34.0156,36.9844 L34.0156,35.8906 C34.0156,34.1094 35.2656,32.7969 37,32.7969 C37.5781,32.7969 38.1875,32.9531 38.6563,33.2031 C39.1406,33.4844 39.3125,33.7031 39.4063,34.1094 C39.4688,34.5156 39.5,34.6406 39.6406,34.7656 C39.7813,34.9063 40.0156,35.0156 40.2344,35.0156 C40.5,35.0156 40.7656,34.875 40.9375,34.6563 C41.0469,34.5 41.0781,34.3125 41.0781,33.8906 L41.0781,32.4688 C41.0781,32.0313 41.0625,31.9063 40.9688,31.75 C40.8125,31.4844 40.5313,31.3438 40.2344,31.3438 C39.9375,31.3438 39.7344,31.4375 39.5156,31.75 L39.3438,31.6719 Z " fill="#000000"/><text fill="#000000" font-family="sans-serif" font-size="12" lengthAdjust="spacing" textLength="56" x="51" y="40.1543">Company</text><line style="stroke:#A80036;stroke-width:1.5;" x1="23" x2="109" y1="52" y2="52"/><!--MD5=[a3093aa9f96b7df9aab31d8715601ff6]
class Containers--><rect codeLine="11" fill="#FEFECE" filter="url(#fb14tn10tsvji)" height="155.2422" id="Containers" style="stroke:#A80036;stroke-width:1.5;" width="141" x="518" y="76.5"/><ellipse cx="553.25" cy="92.5" fill="#ADD1B2" rx="11" ry="11" style="stroke:#A80036;stroke-width:1.0;"/><path d="M555.5938,88.1719 C554.6563,87.7344 554.0625,87.5938 553.1875,87.5938 C550.5625,87.5938 548.5625,89.6719 548.5625,92.3906 L548.5625,93.5156 C548.5625,96.0938 550.6719,97.9844 553.5625,97.9844 C554.7813,97.9844 555.9375,97.6875 556.6875,97.1406 C557.2656,96.7344 557.5938,96.2813 557.5938,95.8906 C557.5938,95.4375 557.2031,95.0469 556.7344,95.0469 C556.5156,95.0469 556.3125,95.125 556.125,95.3125 C555.6719,95.7969 555.6719,95.7969 555.4844,95.8906 C555.0625,96.1563 554.375,96.2813 553.6094,96.2813 C551.5625,96.2813 550.2656,95.1875 550.2656,93.4844 L550.2656,92.3906 C550.2656,90.6094 551.5156,89.2969 553.25,89.2969 C553.8281,89.2969 554.4375,89.4531 554.9063,89.7031 C555.3906,89.9844 555.5625,90.2031 555.6563,90.6094 C555.7188,91.0156 555.75,91.1406 555.8906,91.2656 C556.0313,91.4063 556.2656,91.5156 556.4844,91.5156 C556.75,91.5156 557.0156,91.375 557.1875,91.1563 C557.2969,91 557.3281,90.8125 557.3281,90.3906 L557.3281,88.9688 C557.3281,88.5313 557.3125,88.4063 557.2188,88.25 C557.0625,87.9844 556.7813,87.8438 556.4844,87.8438 C556.1875,87.8438 555.9844,87.9375 555.7656,88.25 L555.5938,88.1719 Z " fill="#000000"/><text fill="#000000" font-family="sans-serif" font-size="12" lengthAdjust="spacing" textLength="64" x="571.75" y="96.6543">Containers</text><line style="stroke:#A80036;stroke-width:1.5;" x1="519" x2="658" y1="108.5" y2="108.5"/><text fill="#000000" font-family="sans-serif" font-size="11" lengthAdjust="spacing" textLength="104" x="524" y="122.7104">-ContainerNumber</text><text fill="#000000" font-family="sans-serif" font-size="11" lengthAdjust="spacing" textLength="54" x="524" y="135.5151">-ISOCode</text><text fill="#000000" font-family="sans-serif" font-size="11" lengthAdjust="spacing" textLength="67" x="524" y="148.3198">-MaxWeight</text><text fill="#000000" font-family="sans-serif" font-size="11" lengthAdjust="spacing" textLength="99" x="524" y="161.1245">-ContainerWeight</text><text fill="#000000" font-family="sans-serif" font-size="11" lengthAdjust="spacing" textLength="107" x="524" y="173.9292">-MaxWeightPacked</text><text fill="#000000" font-family="sans-serif" font-size="11" lengthAdjust="spacing" textLength="111" x="524" y="186.7339">-MaxVolumePacked</text><text fill="#000000" font-family="sans-serif" font-size="11" lengthAdjust="spacing" textLength="69" x="524" y="199.5386">-Certificates</text><text fill="#000000" font-family="sans-serif" font-size="11" lengthAdjust="spacing" textLength="129" x="524" y="212.3433">-RepairRecomendation</text><text fill="#000000" font-family="sans-serif" font-size="11" lengthAdjust="spacing" textLength="79" x="524" y="225.1479">-Temperature</text><!--MD5=[76562047389981627aea27c31a97aff5]
class CargoManifest--><rect codeLine="23" fill="#FEFECE" filter="url(#fb14tn10tsvji)" height="65.6094" id="CargoManifest" style="stroke:#A80036;stroke-width:1.5;" width="118" x="7" y="192"/><ellipse cx="22" cy="208" fill="#ADD1B2" rx="11" ry="11" style="stroke:#A80036;stroke-width:1.0;"/><path d="M24.3438,203.6719 C23.4063,203.2344 22.8125,203.0938 21.9375,203.0938 C19.3125,203.0938 17.3125,205.1719 17.3125,207.8906 L17.3125,209.0156 C17.3125,211.5938 19.4219,213.4844 22.3125,213.4844 C23.5313,213.4844 24.6875,213.1875 25.4375,212.6406 C26.0156,212.2344 26.3438,211.7813 26.3438,211.3906 C26.3438,210.9375 25.9531,210.5469 25.4844,210.5469 C25.2656,210.5469 25.0625,210.625 24.875,210.8125 C24.4219,211.2969 24.4219,211.2969 24.2344,211.3906 C23.8125,211.6563 23.125,211.7813 22.3594,211.7813 C20.3125,211.7813 19.0156,210.6875 19.0156,208.9844 L19.0156,207.8906 C19.0156,206.1094 20.2656,204.7969 22,204.7969 C22.5781,204.7969 23.1875,204.9531 23.6563,205.2031 C24.1406,205.4844 24.3125,205.7031 24.4063,206.1094 C24.4688,206.5156 24.5,206.6406 24.6406,206.7656 C24.7813,206.9063 25.0156,207.0156 25.2344,207.0156 C25.5,207.0156 25.7656,206.875 25.9375,206.6563 C26.0469,206.5 26.0781,206.3125 26.0781,205.8906 L26.0781,204.4688 C26.0781,204.0313 26.0625,203.9063 25.9688,203.75 C25.8125,203.4844 25.5313,203.3438 25.2344,203.3438 C24.9375,203.3438 24.7344,203.4375 24.5156,203.75 L24.3438,203.6719 Z " fill="#000000"/><text fill="#000000" font-family="sans-serif" font-size="12" lengthAdjust="spacing" textLength="86" x="36" y="212.1543">CargoManifest</text><line style="stroke:#A80036;stroke-width:1.5;" x1="8" x2="124" y1="224" y2="224"/><text fill="#000000" font-family="sans-serif" font-size="11" lengthAdjust="spacing" textLength="14" x="13" y="238.2104">-id</text><text fill="#000000" font-family="sans-serif" font-size="11" lengthAdjust="spacing" textLength="56" x="13" y="251.0151">-shipMMSI</text><!--MD5=[a5aa90fbf2aad1a8ad40c82d82cb77af]
class CargoManifestLoad--><rect codeLine="28" fill="#FEFECE" filter="url(#fb14tn10tsvji)" height="91.2188" id="CargoManifestLoad" style="stroke:#A80036;stroke-width:1.5;" width="147" x="229.5" y="108.5"/><ellipse cx="244.5" cy="124.5" fill="#ADD1B2" rx="11" ry="11" style="stroke:#A80036;stroke-width:1.0;"/><path d="M246.8438,120.1719 C245.9063,119.7344 245.3125,119.5938 244.4375,119.5938 C241.8125,119.5938 239.8125,121.6719 239.8125,124.3906 L239.8125,125.5156 C239.8125,128.0938 241.9219,129.9844 244.8125,129.9844 C246.0313,129.9844 247.1875,129.6875 247.9375,129.1406 C248.5156,128.7344 248.8438,128.2813 248.8438,127.8906 C248.8438,127.4375 248.4531,127.0469 247.9844,127.0469 C247.7656,127.0469 247.5625,127.125 247.375,127.3125 C246.9219,127.7969 246.9219,127.7969 246.7344,127.8906 C246.3125,128.1563 245.625,128.2813 244.8594,128.2813 C242.8125,128.2813 241.5156,127.1875 241.5156,125.4844 L241.5156,124.3906 C241.5156,122.6094 242.7656,121.2969 244.5,121.2969 C245.0781,121.2969 245.6875,121.4531 246.1563,121.7031 C246.6406,121.9844 246.8125,122.2031 246.9063,122.6094 C246.9688,123.0156 247,123.1406 247.1406,123.2656 C247.2813,123.4063 247.5156,123.5156 247.7344,123.5156 C248,123.5156 248.2656,123.375 248.4375,123.1563 C248.5469,123 248.5781,122.8125 248.5781,122.3906 L248.5781,120.9688 C248.5781,120.5313 248.5625,120.4063 248.4688,120.25 C248.3125,119.9844 248.0313,119.8438 247.7344,119.8438 C247.4375,119.8438 247.2344,119.9375 247.0156,120.25 L246.8438,120.1719 Z " fill="#000000"/><text fill="#000000" font-family="sans-serif" font-size="12" lengthAdjust="spacing" textLength="115" x="258.5" y="128.6543">CargoManifestLoad</text><line style="stroke:#A80036;stroke-width:1.5;" x1="230.5" x2="375.5" y1="140.5" y2="140.5"/><text fill="#000000" font-family="sans-serif" font-size="11" lengthAdjust="spacing" textLength="93" x="235.5" y="154.7104">-cargoManifestid</text><text fill="#000000" font-family="sans-serif" font-size="11" lengthAdjust="spacing" textLength="57" x="235.5" y="167.5151">-dateLoad</text><text fill="#000000" font-family="sans-serif" font-size="11" lengthAdjust="spacing" textLength="33" x="235.5" y="180.3198">-done</text><text fill="#000000" font-family="sans-serif" font-size="11" lengthAdjust="spacing" textLength="38" x="235.5" y="193.1245">-portID</text><!--MD5=[a2f10021af8ab55728ed20bdb3889909]
class CargoManifestUnload--><rect codeLine="35" fill="#FEFECE" filter="url(#fb14tn10tsvji)" height="91.2188" id="CargoManifestUnload" style="stroke:#A80036;stroke-width:1.5;" width="160" x="223" y="234.5"/><ellipse cx="238" cy="250.5" fill="#ADD1B2" rx="11" ry="11" style="stroke:#A80036;stroke-width:1.0;"/><path d="M240.3438,246.1719 C239.4063,245.7344 238.8125,245.5938 237.9375,245.5938 C235.3125,245.5938 233.3125,247.6719 233.3125,250.3906 L233.3125,251.5156 C233.3125,254.0938 235.4219,255.9844 238.3125,255.9844 C239.5313,255.9844 240.6875,255.6875 241.4375,255.1406 C242.0156,254.7344 242.3438,254.2813 242.3438,253.8906 C242.3438,253.4375 241.9531,253.0469 241.4844,253.0469 C241.2656,253.0469 241.0625,253.125 240.875,253.3125 C240.4219,253.7969 240.4219,253.7969 240.2344,253.8906 C239.8125,254.1563 239.125,254.2813 238.3594,254.2813 C236.3125,254.2813 235.0156,253.1875 235.0156,251.4844 L235.0156,250.3906 C235.0156,248.6094 236.2656,247.2969 238,247.2969 C238.5781,247.2969 239.1875,247.4531 239.6563,247.7031 C240.1406,247.9844 240.3125,248.2031 240.4063,248.6094 C240.4688,249.0156 240.5,249.1406 240.6406,249.2656 C240.7813,249.4063 241.0156,249.5156 241.2344,249.5156 C241.5,249.5156 241.7656,249.375 241.9375,249.1563 C242.0469,249 242.0781,248.8125 242.0781,248.3906 L242.0781,246.9688 C242.0781,246.5313 242.0625,246.4063 241.9688,246.25 C241.8125,245.9844 241.5313,245.8438 241.2344,245.8438 C240.9375,245.8438 240.7344,245.9375 240.5156,246.25 L240.3438,246.1719 Z " fill="#000000"/><text fill="#000000" font-family="sans-serif" font-size="12" lengthAdjust="spacing" textLength="128" x="252" y="254.6543">CargoManifestUnload</text><line style="stroke:#A80036;stroke-width:1.5;" x1="224" x2="382" y1="266.5" y2="266.5"/><text fill="#000000" font-family="sans-serif" font-size="11" lengthAdjust="spacing" textLength="93" x="229" y="280.7104">-cargoManifestid</text><text fill="#000000" font-family="sans-serif" font-size="11" lengthAdjust="spacing" textLength="69" x="229" y="293.5151">-dateUnload</text><text fill="#000000" font-family="sans-serif" font-size="11" lengthAdjust="spacing" textLength="33" x="229" y="306.3198">-done</text><text fill="#000000" font-family="sans-serif" font-size="11" lengthAdjust="spacing" textLength="38" x="229" y="319.1245">-portID</text><!--MD5=[ed6624c6556d5e7b1bd23032162d20b7]
class Client--><rect codeLine="42" fill="#FEFECE" filter="url(#fb14tn10tsvji)" height="65.6094" id="Client" style="stroke:#A80036;stroke-width:1.5;" width="144" x="231" y="7"/><ellipse cx="282.25" cy="23" fill="#ADD1B2" rx="11" ry="11" style="stroke:#A80036;stroke-width:1.0;"/><path d="M284.5938,18.6719 C283.6563,18.2344 283.0625,18.0938 282.1875,18.0938 C279.5625,18.0938 277.5625,20.1719 277.5625,22.8906 L277.5625,24.0156 C277.5625,26.5938 279.6719,28.4844 282.5625,28.4844 C283.7813,28.4844 284.9375,28.1875 285.6875,27.6406 C286.2656,27.2344 286.5938,26.7813 286.5938,26.3906 C286.5938,25.9375 286.2031,25.5469 285.7344,25.5469 C285.5156,25.5469 285.3125,25.625 285.125,25.8125 C284.6719,26.2969 284.6719,26.2969 284.4844,26.3906 C284.0625,26.6563 283.375,26.7813 282.6094,26.7813 C280.5625,26.7813 279.2656,25.6875 279.2656,23.9844 L279.2656,22.8906 C279.2656,21.1094 280.5156,19.7969 282.25,19.7969 C282.8281,19.7969 283.4375,19.9531 283.9063,20.2031 C284.3906,20.4844 284.5625,20.7031 284.6563,21.1094 C284.7188,21.5156 284.75,21.6406 284.8906,21.7656 C285.0313,21.9063 285.2656,22.0156 285.4844,22.0156 C285.75,22.0156 286.0156,21.875 286.1875,21.6563 C286.2969,21.5 286.3281,21.3125 286.3281,20.8906 L286.3281,19.4688 C286.3281,19.0313 286.3125,18.9063 286.2188,18.75 C286.0625,18.4844 285.7813,18.3438 285.4844,18.3438 C285.1875,18.3438 284.9844,18.4375 284.7656,18.75 L284.5938,18.6719 Z " fill="#000000"/><text fill="#000000" font-family="sans-serif" font-size="12" lengthAdjust="spacing" textLength="33" x="302.75" y="27.1543">Client</text><line style="stroke:#A80036;stroke-width:1.5;" x1="232" x2="374" y1="39" y2="39"/><text fill="#000000" font-family="sans-serif" font-size="11" lengthAdjust="spacing" textLength="47" x="237" y="53.2104">-clientID</text><text fill="#000000" font-family="sans-serif" font-size="11" lengthAdjust="spacing" textLength="132" x="237" y="66.0151">-clientRegistrationCode</text><!--MD5=[6eee883fdf517d3604e8bd0f2058e9aa]
link Company to Client--><path codeLine="47" d="M110.103,40 C143.759,40 191.249,40 230.565,40 " fill="none" id="Company-Client" style="stroke:#A80036;stroke-width:1.0;"/><polygon fill="#000000" points="165,31.5664,155.9549,28.6275,155.9549,34.5053,165,31.5664" style="stroke:#000000;stroke-width:1.0;"/><text fill="#000000" font-family="sans-serif" font-size="13" lengthAdjust="spacing" textLength="23" x="169" y="36.0669">has</text><text fill="#000000" font-family="sans-serif" font-size="13" lengthAdjust="spacing" textLength="8" x="118.0701" y="53.3201">1</text><text fill="#000000" font-family="sans-serif" font-size="13" lengthAdjust="spacing" textLength="7" x="216.0901" y="52.8309">*</text><!--MD5=[2a654a65145d4d768472c66eea17ac36]
link Client to Containers--><path codeLine="48" d="M375.173,68.62 C418.802,86.164 474.408,108.524 517.769,125.96 " fill="none" id="Client-Containers" style="stroke:#A80036;stroke-width:1.0;"/><polygon fill="#000000" points="431.639,80.4318,424.3434,74.3305,422.1505,79.784,431.639,80.4318" style="stroke:#000000;stroke-width:1.0;"/><text fill="#000000" font-family="sans-serif" font-size="13" lengthAdjust="spacing" textLength="42" x="436" y="83.0669">leased</text><text fill="#000000" font-family="sans-serif" font-size="13" lengthAdjust="spacing" textLength="7" x="382.9768" y="84.4388">*</text><text fill="#000000" font-family="sans-serif" font-size="13" lengthAdjust="spacing" textLength="7" x="503.1139" y="135.9031">*</text><!--MD5=[33207359e430527c3ef95e8fa4f14f27]
link CargoManifest to CargoManifestLoad--><path codeLine="49" d="M125.09,207.449 C156.623,197.922 195.903,186.055 229.434,175.924 " fill="none" id="CargoManifest-CargoManifestLoad" style="stroke:#A80036;stroke-width:1.0;"/><polygon fill="#000000" points="164.7863,177.1203,155.2778,176.923,156.9778,182.5496,164.7863,177.1203" style="stroke:#000000;stroke-width:1.0;"/><text fill="#000000" font-family="sans-serif" font-size="13" lengthAdjust="spacing" textLength="23" x="169" y="183.0669">has</text><text fill="#000000" font-family="sans-serif" font-size="13" lengthAdjust="spacing" textLength="8" x="133.1734" y="218.2616">1</text><text fill="#000000" font-family="sans-serif" font-size="13" lengthAdjust="spacing" textLength="7" x="214.4866" y="191.0208">*</text><!--MD5=[09063d1180f933160dfc18c7b4e535f1]
link CargoManifest to CargoManifestUnload--><path codeLine="50" d="M125.138,240.5572 C135.083,243.1145 145.325,245.6837 155,248 C176.972,253.2604 200.878,258.6193 222.904,263.4097 " fill="none" id="CargoManifest-CargoManifestUnload" style="stroke:#A80036;stroke-width:1.0;"/><polygon fill="#000000" points="164.8688,240.7045,156.73,235.7839,155.3922,241.5075,164.8688,240.7045" style="stroke:#000000;stroke-width:1.0;"/><text fill="#000000" font-family="sans-serif" font-size="13" lengthAdjust="spacing" textLength="23" x="169" y="244.0669">has</text><text fill="#000000" font-family="sans-serif" font-size="13" lengthAdjust="spacing" textLength="8" x="132.8329" y="255.4661">1</text><text fill="#000000" font-family="sans-serif" font-size="13" lengthAdjust="spacing" textLength="7" x="207.9363" y="274.6061">*</text><!--MD5=[5387bf9b81457913cdccd80194121d24]
link CargoManifestLoad to Containers--><path codeLine="51" d="M376.64,154 C420.115,154 475.073,154 517.982,154 " fill="none" id="CargoManifestLoad-Containers" style="stroke:#A80036;stroke-width:1.0;"/><polygon fill="#000000" points="423,145.5664,413.9549,142.6275,413.9549,148.5053,423,145.5664" style="stroke:#000000;stroke-width:1.0;"/><text fill="#000000" font-family="sans-serif" font-size="13" lengthAdjust="spacing" textLength="60" x="427" y="150.0669">manages</text><text fill="#000000" font-family="sans-serif" font-size="13" lengthAdjust="spacing" textLength="7" x="384.5951" y="166.8359">*</text><text fill="#000000" font-family="sans-serif" font-size="13" lengthAdjust="spacing" textLength="7" x="502.8863" y="166.8812">*</text><!--MD5=[760c0c4986f84a43198d88cca97ab89c]
link CargoManifestUnload to Containers--><path codeLine="52" d="M383.348,244.7344 C425.61,225.9512 477.118,203.059 517.823,184.967 " fill="none" id="CargoManifestUnload-Containers" style="stroke:#A80036;stroke-width:1.0;"/><polygon fill="#000000" points="422.569,187.5357,413.1099,188.5237,415.4972,193.8949,422.569,187.5357" style="stroke:#000000;stroke-width:1.0;"/><text fill="#000000" font-family="sans-serif" font-size="13" lengthAdjust="spacing" textLength="60" x="427" y="194.0669">manages</text><text fill="#000000" font-family="sans-serif" font-size="13" lengthAdjust="spacing" textLength="7" x="391.0777" y="254.2377">*</text><text fill="#000000" font-family="sans-serif" font-size="13" lengthAdjust="spacing" textLength="7" x="503.1735" y="200.9952">*</text><!--MD5=[7770f3adc0c9a70236cca4012a42a1ee]
@startuml
'https://plantuml.com/class-diagram

hide methods
left to right direction
skinparam classAttributeIconSize 0

class Company {

}

class Containers{
-ContainerNumber
-ISOCode
-MaxWeight
-ContainerWeight
-MaxWeightPacked
-MaxVolumePacked
-Certificates
-RepairRecomendation
-Temperature
}

class CargoManifest{
-id
-shipMMSI
}

class CargoManifestLoad{
-cargoManifestid
-dateLoad
-done
-portID
}

class CargoManifestUnload{
-cargoManifestid
-dateUnload
-done
-portID
}

class Client{
-clientID
-clientRegistrationCode
}

Company "1" - - "*" Client : has >
Client "*" - - "*" Containers : leased > 
CargoManifest "1" - - "*" CargoManifestLoad: has >
CargoManifest "1" - - "*" CargoManifestUnload: has >
CargoManifestLoad "*" - - "*" Containers: manages >
CargoManifestUnload "*" - - "*" Containers: manages >
@enduml

@startuml

hide methods
left to right direction
skinparam classAttributeIconSize 0

class Company {

}

class Containers{
-ContainerNumber
-ISOCode
-MaxWeight
-ContainerWeight
-MaxWeightPacked
-MaxVolumePacked
-Certificates
-RepairRecomendation
-Temperature
}

class CargoManifest{
-id
-shipMMSI
}

class CargoManifestLoad{
-cargoManifestid
-dateLoad
-done
-portID
}

class CargoManifestUnload{
-cargoManifestid
-dateUnload
-done
-portID
}

class Client{
-clientID
-clientRegistrationCode
}

Company "1" - - "*" Client : has >
Client "*" - - "*" Containers : leased > 
CargoManifest "1" - - "*" CargoManifestLoad: has >
CargoManifest "1" - - "*" CargoManifestUnload: has >
CargoManifestLoad "*" - - "*" Containers: manages >
CargoManifestUnload "*" - - "*" Containers: manages >
@enduml

PlantUML version 1.2021.17beta4(Unknown compile time)
(GPL source distribution)
Java Runtime: Java(TM) SE Runtime Environment
JVM: Java HotSpot(TM) 64-Bit Server VM
Default Encoding: UTF-8
Language: en
Country: US
--></g></svg>